<?xml version="1.0" encoding="UTF-8" standalone="no"?>
<!DOCTYPE svg PUBLIC "-//W3C//DTD SVG 1.1//EN" "http://www.w3.org/Graphics/SVG/1.1/DTD/svg11.dtd">
<!-- Generated by Microsoft Visio, SVG Export basic-vod-architecture.svg Page-1 -->
<svg xmlns="http://www.w3.org/2000/svg" xmlns:xlink="http://www.w3.org/1999/xlink" xmlns:ev="http://www.w3.org/2001/xml-events"
		xmlns:v="http://schemas.microsoft.com/visio/2003/SVGExtensions/" width="7.76042in" height="5.44792in"
		viewBox="0 0 558.75 392.25" xml:space="preserve" color-interpolation-filters="sRGB" class="st44">
	<v:documentProperties v:langID="1033" v:viewMarkup="false"/>

	<style type="text/css">
	<![CDATA[
		.st1 {fill:#ffffff;stroke:none;stroke-linecap:round;stroke-linejoin:round;stroke-width:0.75}
		.st2 {fill:#ffffff;stroke:#0070c0;stroke-linecap:round;stroke-linejoin:round;stroke-width:1}
		.st3 {fill:#ffffff;stroke:#4bacc6;stroke-linecap:round;stroke-linejoin:round;stroke-width:0.75}
		.st4 {fill:#ffffff;stroke:#f59d56;stroke-linecap:round;stroke-linejoin:round;stroke-width:0.75}
		.st5 {fill:url(#grad0-14);stroke:none;stroke-linecap:butt;stroke-width:0.75}
		.st6 {fill:#0078d4;stroke:none;stroke-linecap:butt;stroke-width:0.75}
		.st7 {fill:#f78d1e;stroke:none;stroke-linecap:butt;stroke-width:0.75}
		.st8 {fill:#ffffff;stroke:none;stroke-linecap:butt;stroke-width:0.75}
		.st9 {fill:#d15900;stroke:none;stroke-linecap:butt;stroke-width:0.75}
		.st10 {fill:#000000;font-family:Calibri;font-size:1.00001em}
		.st11 {fill:url(#grad0-34);stroke:none;stroke-linecap:butt;stroke-width:0.75}
		.st12 {fill:#5ea0ef;stroke:none;stroke-linecap:butt;stroke-width:0.75}
		.st13 {fill:url(#grad0-42);stroke:none;stroke-linecap:butt;stroke-width:0.75}
		.st14 {fill:#c3f1ff;stroke:none;stroke-linecap:butt;stroke-width:0.75}
		.st15 {fill:url(#grad0-52);stroke:none;stroke-linecap:butt;stroke-width:0.75}
		.st16 {fill:#50e6ff;stroke:none;stroke-linecap:butt;stroke-width:0.75}
		.st17 {font-size:1em}
		.st18 {fill:url(#grad0-66);stroke:none;stroke-linecap:butt;stroke-width:0.749999}
		.st19 {fill:#37c2b1;stroke:none;stroke-linecap:butt;stroke-width:0.749999}
		.st20 {fill:#ffffff;stroke:none;stroke-linecap:butt;stroke-width:0.749999}
		.st21 {fill:#258277;stroke:none;stroke-linecap:butt;stroke-width:0.749999}
		.st22 {fill:url(#grad0-85);stroke:none;stroke-linecap:butt;stroke-width:0.75}
		.st23 {fill:url(#grad0-89);stroke:none;stroke-linecap:butt;stroke-width:0.75}
		.st24 {fill:#92cddc;stroke:none;stroke-linecap:butt;stroke-width:0.75}
		.st25 {fill:none;stroke:none;stroke-linecap:round;stroke-linejoin:round;stroke-width:0.75}
		.st26 {fill:url(#grad0-110);stroke:none;stroke-linecap:butt;stroke-width:0.75}
		.st27 {fill:#32bedd;stroke:none;stroke-linecap:butt;stroke-width:0.75}
		.st28 {fill:#0070c0;stroke:none;stroke-linecap:butt;stroke-width:6.375}
		.st29 {fill:#0070c0;font-family:Calibri;font-size:1.00001em;font-weight:bold}
		.st30 {fill:#000000;font-family:Calibri;font-size:0.666664em}
		.st31 {marker-end:url(#mrkr4-148);marker-start:url(#mrkr4-146);stroke:#000000;stroke-linecap:round;stroke-linejoin:round;stroke-width:2}
		.st32 {fill:#000000;fill-opacity:1;stroke:#000000;stroke-opacity:1;stroke-width:0.44247787610619}
		.st33 {fill:#f2f2f2;stroke:none;stroke-linecap:round;stroke-linejoin:round;stroke-width:0.75}
		.st34 {fill:#000000;font-family:Segoe UI;font-size:1.00001em}
		.st35 {font-size:1em;font-style:italic}
		.st36 {fill:url(#grad0-158);stroke:none;stroke-linecap:butt;stroke-width:0.75}
		.st37 {fill:#9cebff;stroke:none;stroke-linecap:butt;stroke-width:0.75}
		.st38 {fill:url(#grad0-190);stroke:none;stroke-linecap:butt;stroke-width:1.94256}
		.st39 {fill:url(#grad0-194);stroke:none;stroke-linecap:butt;stroke-width:1.94256}
		.st40 {fill:url(#grad0-198);stroke:none;stroke-linecap:butt;stroke-width:1.94256}
		.st41 {fill:url(#grad0-202);stroke:none;stroke-linecap:butt;stroke-width:1.94256}
		.st42 {fill:#5ea0ef;stroke:none;stroke-linecap:butt;stroke-width:1.94256}
		.st43 {fill:#9dbb61;stroke:none;stroke-linecap:butt;stroke-width:6.375}
		.st44 {fill:none;fill-rule:evenodd;font-size:12px;overflow:visible;stroke-linecap:square;stroke-miterlimit:3}
	]]>
	</style>

	<defs id="Patterns_And_Gradients">
		<linearGradient id="grad0-14" x1="0" y1="0" x2="1" y2="0" gradientTransform="rotate(-90 0.5 0.5)">
			<stop offset="0" stop-color="#32bedd" stop-opacity="1"/>
			<stop offset="0.775" stop-color="#32d4f5" stop-opacity="1"/>
		</linearGradient>
		<linearGradient id="grad0-34" x1="0" y1="0" x2="1" y2="0" gradientTransform="rotate(-0.10257930558574 0.5 0.5)">
			<stop offset="0" stop-color="#005ba1" stop-opacity="1"/>
			<stop offset="0.365" stop-color="#004e8f" stop-opacity="1"/>
			<stop offset="1" stop-color="#003067" stop-opacity="1"/>
		</linearGradient>
		<linearGradient id="grad0-42" x1="0" y1="0" x2="1" y2="0" gradientTransform="rotate(179.30685615173 0.5 0.5)">
			<stop offset="0" stop-color="#005ba1" stop-opacity="1"/>
			<stop offset="0.45" stop-color="#004685" stop-opacity="1"/>
			<stop offset="1" stop-color="#003067" stop-opacity="1"/>
		</linearGradient>
		<linearGradient id="grad0-52" x1="0" y1="0" x2="1" y2="0" gradientTransform="rotate(-73.177420271587 0.5 0.5)">
			<stop offset="0.26" stop-color="#50e6ff" stop-opacity="1"/>
			<stop offset="0.42" stop-color="#79eaff" stop-opacity="1"/>
			<stop offset="0.58" stop-color="#99edff" stop-opacity="1"/>
			<stop offset="0.735" stop-color="#b0efff" stop-opacity="1"/>
			<stop offset="0.875" stop-color="#bef1ff" stop-opacity="1"/>
			<stop offset="1" stop-color="#c3f1ff" stop-opacity="1"/>
		</linearGradient>
		<linearGradient id="grad0-66" x1="0" y1="0" x2="1" y2="0" gradientTransform="rotate(-90 0.5 0.5)">
			<stop offset="0" stop-color="#b3b3b3" stop-opacity="1"/>
			<stop offset="0.26" stop-color="#c1c1c1" stop-opacity="1"/>
			<stop offset="1" stop-color="#e6e6e6" stop-opacity="1"/>
		</linearGradient>
		<linearGradient id="grad0-85" x1="0" y1="0" x2="1" y2="0" gradientTransform="rotate(90 0.5 0.5)">
			<stop offset="0.23" stop-color="#5ea0ef" stop-opacity="1"/>
			<stop offset="0.93" stop-color="#127fd9" stop-opacity="1"/>
		</linearGradient>
		<linearGradient id="grad0-89" x1="0" y1="0" x2="1" y2="0" gradientTransform="rotate(90 0.5 0.5)">
			<stop offset="0.02" stop-color="#5ea0ef" stop-opacity="1"/>
			<stop offset="0.93" stop-color="#127fd9" stop-opacity="1"/>
		</linearGradient>
		<linearGradient id="grad0-110" x1="0" y1="0" x2="1" y2="0" gradientTransform="rotate(-90 0.5 0.5)">
			<stop offset="0" stop-color="#0078d4" stop-opacity="1"/>
			<stop offset="0.815" stop-color="#5ea0ef" stop-opacity="1"/>
		</linearGradient>
		<linearGradient id="grad0-158" x1="0" y1="0" x2="1" y2="0" gradientTransform="rotate(90 0.5 0.5)">
			<stop offset="0" stop-color="#5ea0ef" stop-opacity="1"/>
			<stop offset="0.18" stop-color="#589eed" stop-opacity="1"/>
			<stop offset="0.41" stop-color="#4897e9" stop-opacity="1"/>
			<stop offset="0.66" stop-color="#2e8ce1" stop-opacity="1"/>
			<stop offset="0.94" stop-color="#0a7cd7" stop-opacity="1"/>
			<stop offset="1" stop-color="#0078d4" stop-opacity="1"/>
		</linearGradient>
		<linearGradient id="grad0-190" x1="0" y1="0" x2="1" y2="0" gradientTransform="rotate(81.104070496659 0.5 0.5)">
			<stop offset="0.055" stop-color="#9cebff" stop-opacity="1"/>
			<stop offset="1" stop-color="#50e6ff" stop-opacity="1"/>
		</linearGradient>
		<linearGradient id="grad0-194" x1="0" y1="0" x2="1" y2="0" gradientTransform="rotate(57.132129675453 0.5 0.5)">
			<stop offset="0.12" stop-color="#9cebff" stop-opacity="1"/>
			<stop offset="1" stop-color="#50e6ff" stop-opacity="1"/>
		</linearGradient>
		<linearGradient id="grad0-198" x1="0" y1="0" x2="1" y2="0" gradientTransform="rotate(132.49247026534 0.5 0.5)">
			<stop offset="0.245" stop-color="#9cebff" stop-opacity="1"/>
			<stop offset="1" stop-color="#50e6ff" stop-opacity="1"/>
		</linearGradient>
		<linearGradient id="grad0-202" x1="0" y1="0" x2="1" y2="0" gradientTransform="rotate(89.433728028172 0.5 0.5)">
			<stop offset="0.005" stop-color="#83b9f9" stop-opacity="1"/>
			<stop offset="1" stop-color="#5ea0ef" stop-opacity="1"/>
		</linearGradient>
	</defs>
	<defs id="Markers">
		<g id="lend4">
			<path d="M 2 1 L 0 0 L 2 -1 L 2 1 " style="stroke:none"/>
		</g>
		<marker id="mrkr4-146" class="st32" v:arrowType="4" v:arrowSize="2" v:setback="4.34" refX="4.34" orient="auto"
				markerUnits="strokeWidth" overflow="visible">
			<use xlink:href="#lend4" transform="scale(2.26) "/>
		</marker>
		<marker id="mrkr4-148" class="st32" v:arrowType="4" v:arrowSize="2" v:setback="4.52" refX="-4.52" orient="auto"
				markerUnits="strokeWidth" overflow="visible">
			<use xlink:href="#lend4" transform="scale(-2.26,-2.26) "/>
		</marker>
	</defs>
	<g v:mID="0" v:index="1" v:groupContext="foregroundPage">
		<title>Page-1</title>
		<v:pageProperties v:drawingScale="1" v:pageScale="1" v:drawingUnits="19" v:shadowOffsetX="9" v:shadowOffsetY="-9"/>
		<v:layer v:name="Connector" v:index="0" v:snap="false" v:glue="false"/>
		<g id="shape1612-1" v:mID="1612" v:groupContext="shape" transform="translate(0.375,-0.375)">
			<title>Sheet.1612</title>
			<rect x="0" y="0.750012" width="558" height="391.5" class="st1"/>
		</g>
		<g id="shape1608-3" v:mID="1608" v:groupContext="shape" transform="translate(51.3973,-40.875)">
			<title>Sheet.1608</title>
			<rect x="0" y="85.125" width="403.478" height="307.125" class="st2"/>
		</g>
		<g id="shape1600-5" v:mID="1600" v:groupContext="shape" transform="translate(103.875,-54.375)">
			<title>Sheet.1600</title>
			<rect x="0" y="233.309" width="328.5" height="158.941" class="st3"/>
		</g>
		<g id="shape1601-7" v:mID="1601" v:groupContext="shape" transform="translate(173.497,-71.0745)">
			<title>Sheet.1601</title>
			<rect x="0" y="290.649" width="245.378" height="101.601" class="st4"/>
		</g>
		<g id="group1596-9" transform="translate(144.375,-133.718)" v:mID="1596" v:groupContext="group">
			<title>Sheet.1596</title>
			<g id="group1428-10" transform="translate(2.79776E-14,-15.9964)" v:mID="1428" v:groupContext="group">
				<title>Sheet.1428</title>
				<g id="shape1132-11" v:mID="1132" v:groupContext="shape">
					<title>Sheet.1132</title>
					<path d="M1.77 356.98 L56.69 356.98 L56.69 390.35 A1.83479 1.90111 0 0 1 54.85 392.25 L3.6 392.25 A1.83479 1.90111
								 0 0 1 1.77 390.35 L1.77 356.98 Z" class="st5"/>
				</g>
				<g id="shape1133-15" v:mID="1133" v:groupContext="shape" transform="translate(-7.99361E-15,-35.2766)">
					<title>Sheet.1133</title>
					<path d="M3.61 381.77 L54.84 381.77 A1.83479 1.90111 0 0 1 56.68 383.67 L56.68 392.25 L1.78 392.25 L1.78 383.67
								 A1.83479 1.90111 0 0 1 3.61 381.77 Z" class="st6"/>
				</g>
				<g id="shape1134-17" v:mID="1134" v:groupContext="shape" transform="translate(13.8015,-5.23226)">
					<title>Sheet.1134</title>
					<path d="M30.13 369.04 L16.67 369.04 a0.74041 0.767174 0 0 1 -0.402679 -0.124498 L12.43 366.27 a0.707936 0.733526
								 -180 0 0 -0.399432 -0.127862 L0.72 366.14 a0.720925 0.746985 -180 0 0 -0.720925 0.746985 L0 391.5
								 a0.717678 0.743621 -180 0 0 0.720925 0.746985 L30.13 392.25 a0.717678 0.743621 -180 0 0 0.720925
								 -0.746985 L30.85 369.79 a0.720925 0.746985 -180 0 0 -0.720925 -0.746985 Z" class="st7"/>
				</g>
				<g id="shape1135-19" v:mID="1135" v:groupContext="shape" transform="translate(16.6073,-28.4561)">
					<title>Sheet.1135</title>
					<path d="M0 391.94 a0.295521 0.306204 -180 0 0 0.295514 0.306197 L6.72 392.25 a0.295521 0.306204 -180 0 0 0.295514
								 -0.306197 L7.01 391.1 a0.295521 0.306204 -180 0 0 -0.295514 -0.306197 L0.3 390.8 a0.295521 0.306204
								 -180 0 0 -0.295514 0.306197 L0 391.94 Z" class="st8"/>
				</g>
				<g id="shape1136-21" v:mID="1136" v:groupContext="shape" transform="translate(16.6073,-28.4561)">
					<title>Sheet.1136</title>
					<path d="M-0 392.04 a0.201344 0.208622 -180 0 0 0.20134 0.208618 L1.2 392.25 a0.201344 0.208622 -180 0 0 0.20134
								 -0.208618 L1.4 391.01 a0.201344 0.208622 -180 0 0 -0.20134 -0.208618 L0.2 390.8 a0.201344 0.208622
								 -180 0 0 -0.20134 0.208618 L0 392.04 Z" class="st9"/>
				</g>
				<g id="shape1137-23" v:mID="1137" v:groupContext="shape" transform="translate(13.8015,-5.27601)">
					<title>Sheet.1137</title>
					<path d="M30.13 369.05 L15.35 369.05 a0.711183 0.736891 -180 0 0 -0.509844 0.211982 L12.46 371.72 a0.714431 0.740256
								 0 0 1 -0.509844 0.222077 L0.72 371.95 a0.717678 0.743621 -180 0 0 -0.720925 0.743621 L0 391.5 a0.717678
								 0.743621 -180 0 0 0.720925 0.746985 L30.13 392.25 a0.717678 0.743621 -180 0 0 0.720925 -0.746985
								 L30.85 369.8 a0.717678 0.743621 -180 0 0 -0.720925 -0.743621 Z" class="st8"/>
				</g>
			</g>
			<g id="shape1595-25" v:mID="1595" v:groupContext="shape" transform="translate(1.99753,1.13687E-13)">
				<title>Sheet.1595</title>
				<desc>Asset</desc>
				<v:textBlock v:margins="rect(4,4,4,4)"/>
				<v:textRect cx="27.6319" cy="384.252" width="55.27" height="15.9964"/>
				<rect x="0" y="376.254" width="55.2638" height="15.9964" class="st1"/>
				<text x="14.47" y="387.85" class="st10" v:langID="1033"><v:paragraph v:horizAlign="1"/><v:tabList/>Asset</text>			</g>
		</g>
		<g id="group1598-28" transform="translate(12.2857,-288.375)" v:mID="1598" v:groupContext="group">
			<title>Sheet.1598</title>
			<g id="group1537-29" transform="translate(12.9512,-31.9928)" v:mID="1537" v:groupContext="group">
				<title>Sheet.1537</title>
				<g id="group1538-30" v:mID="1538" v:groupContext="group">
					<title>Sheet.1538</title>
					<g id="shape1539-31" v:mID="1539" v:groupContext="shape" transform="translate(8.14863,-36.7168)">
						<title>Sheet.1539</title>
						<path d="M20.92 384.1 L34.97 392.25 L44.77 386.55 A28.2614 28.4819 -180 0 0 -0 380.53 A32.2056 32.4568 0
									 0 1 20.92 384.1 Z" class="st11"/>
					</g>
					<g id="shape1540-35" v:mID="1540" v:groupContext="shape" transform="translate(36.05,-14.4127)">
						<title>Sheet.1540</title>
						<path d="M6.89 369.95 L6.67 389.49 L16.85 392.25 A28.2614 28.4819 -180 0 0 0 350.81 A33.5653 33.8271 0 0
									 1 6.89 369.95 Z" class="st6"/>
					</g>
					<g id="shape1541-37" v:mID="1541" v:groupContext="shape" transform="translate(28.2872,5.68434E-14)">
						<title>Sheet.1541</title>
						<path d="M14.63 372.39 L0 380.91 L0.23 392.25 A28.2872 28.5078 -180 0 0 28.4 363.74 A27.1042 27.3157 -180
									 0 0 27.47 356.97 A30.7719 31.012 0 0 1 14.63 372.39 Z" class="st12"/>
					</g>
					<g id="shape1542-39" v:mID="1542" v:groupContext="shape" transform="translate(3.9377,-0.186833)">
						<title>Sheet.1542</title>
						<path d="M24.35 381.1 L9.71 372.58 L0 378.45 A28.2229 28.443 -180 0 0 43.95 384.54 A31.8488 32.0972 0 0 1
									 24.35 381.1 Z" class="st13"/>
					</g>
					<g id="shape1543-43" v:mID="1543" v:groupContext="shape" transform="translate(0,-0.89411)">
						<title>Sheet.1543</title>
						<path d="M13.64 373.29 L13.86 353.08 L3.84 350.42 A28.1071 28.3264 -180 0 0 -0 364.71 A28.4382 28.6601 -180
									 0 0 21.01 392.25 A32.7585 33.014 0 0 1 13.64 373.29 Z" class="st6"/>
					</g>
					<g id="shape1544-45" v:mID="1544" v:groupContext="shape" transform="translate(2.79776E-13,-20.9144)">
						<title>Sheet.1544</title>
						<path d="M14.14 375.99 L28.29 367.75 A34.0057 34.271 -180 0 0 9.19 363.72 A28.1521 28.3718 -180 0 0 -0 384.73
									 A28.9718 29.1979 -180 0 0 1.01 392.25 A32.9481 33.2052 0 0 1 14.14 375.99 Z" class="st12"/>
					</g>
				</g>
				<g id="shape1545-47" v:mID="1545" v:groupContext="shape" transform="translate(13.6357,-11.3383)">
					<title>Sheet.1545</title>
					<path d="M29.28 383.73 L29.28 366.69 L14.64 358.17 L0 366.69 L0 383.73 L14.64 392.25 L29.28 383.73 Z"
							class="st14"/>
				</g>
				<g id="shape1546-49" v:mID="1546" v:groupContext="shape" transform="translate(13.6357,-11.3383)">
					<title>Sheet.1546</title>
					<path d="M14.66 375.39 L14.66 392.25 L0 383.73 L0 366.75 L14.66 375.39 Z" class="st15"/>
				</g>
				<g id="shape1547-53" v:mID="1547" v:groupContext="shape" transform="translate(28.2775,-11.3383)">
					<title>Sheet.1547</title>
					<path d="M0 375.39 L0 392.25 L14.66 383.73 L14.66 366.75 L0 375.39 Z" class="st16"/>
				</g>
			</g>
			<g id="shape1593-55" v:mID="1593" v:groupContext="shape">
				<title>Sheet.1593</title>
				<desc>Media Services account</desc>
				<v:textBlock v:margins="rect(4,4,4,4)"/>
				<v:textRect cx="41.2947" cy="376.254" width="82.59" height="31.9928"/>
				<rect x="0" y="360.257" width="82.5893" height="31.9928" class="st1"/>
				<text x="4.63" y="372.65" class="st10" v:langID="1033"><v:paragraph v:horizAlign="1"/><v:tabList/>Media Services<v:newlineChar/><tspan
							x="21.87" dy="1.2em" class="st17">account</tspan></text>			</g>
		</g>
		<g id="group1602-59" transform="translate(61.7857,-161.882)" v:mID="1602" v:groupContext="group">
			<title>Sheet.1602</title>
			<g id="group1548-60" transform="translate(15.0893,-32.2765)" v:mID="1548" v:groupContext="group">
				<title>Sheet.1548</title>
				<g id="group1549-61" v:mID="1549" v:groupContext="group">
					<title>Page-1</title>
					<g id="group1550-62" v:mID="1550" v:groupContext="group">
						<title>Sheet.1550</title>
						<g id="shape1551-63" v:mID="1551" v:groupContext="shape">
							<title>Sheet.1551</title>
							<path d="M0 359.37 L55.61 359.37 L55.61 390.38 A1.86463 1.86463 0 0 1 53.74 392.25 L1.86 392.25 A1.86463
										 1.86463 0 0 1 -0 390.38 L0 359.37 Z" class="st18"/>
						</g>
						<g id="shape1552-67" v:mID="1552" v:groupContext="shape" transform="translate(2.39808E-14,-32.8764)">
							<title>Sheet.1552</title>
							<path d="M1.86 380.41 L53.74 380.41 A1.86463 1.86463 0 0 1 55.61 382.27 L55.61 392.25 L0 392.25 L0 382.24
										 A1.86463 1.86463 0 0 1 1.86 380.41 Z" class="st19"/>
						</g>
						<g id="shape1553-69" v:mID="1553" v:groupContext="shape" transform="translate(6.70122,-22.9317)">
							<title>Sheet.1553</title>
							<path d="M0.85 385.9 L41.32 385.9 a0.883244 0.883244 0 0 1 0.850531 0.883244 L42.17 391.36 a0.883244
										 0.883244 0 0 1 -0.850531 0.883244 L0.85 392.25 a0.883244 0.883244 0 0 1 -0.850531 -0.883244
										 L0 386.78 a0.883244 0.883244 0 0 1 0.850531 -0.883244 L0.85 385.9 Z" class="st20"/>
						</g>
						<g id="shape1554-71" v:mID="1554" v:groupContext="shape" transform="translate(6.73393,-13.7721)">
							<title>Sheet.1554</title>
							<path d="M0.85 385.87 L41.32 385.87 a0.883244 0.883244 0 0 1 0.850531 0.883244 L42.17 391.36 a0.883244
										 0.883244 0 0 1 -0.850531 0.883244 L0.85 392.25 a0.883244 0.883244 0 0 1 -0.850531 -0.883244
										 L0 386.91 a0.883244 0.883244 0 0 1 0.850531 -1.04681 L0.85 385.87 Z" class="st19"/>
						</g>
						<g id="shape1555-73" v:mID="1555" v:groupContext="shape" transform="translate(6.73393,-4.54708)">
							<title>Sheet.1555</title>
							<path d="M0.85 385.87 L41.32 385.87 a0.883244 0.883244 0 0 1 0.850531 0.883244 L42.17 391.36 a0.883244
										 0.883244 0 0 1 -0.850531 0.883244 L0.85 392.25 a0.883244 0.883244 0 0 1 -0.850531 -0.883244
										 L0 386.75 a0.883244 0.883244 0 0 1 0.850531 -0.883244 L0.85 385.87 Z" class="st21"/>
						</g>
					</g>
				</g>
			</g>
			<g id="shape1594-75" v:mID="1594" v:groupContext="shape">
				<title>Sheet.1594</title>
				<desc>Storage account</desc>
				<v:textBlock v:margins="rect(4,4,4,4)"/>
				<v:textRect cx="41.2947" cy="376.254" width="82.59" height="31.9928"/>
				<rect x="0" y="360.257" width="82.5893" height="31.9928" class="st1"/>
				<text x="22.59" y="372.65" class="st10" v:langID="1033"><v:paragraph v:horizAlign="1"/><v:tabList/>Storage<v:newlineChar/><tspan
							x="21.87" dy="1.2em" class="st17">account</tspan></text>			</g>
		</g>
		<g id="group1609-79" transform="translate(249.493,-243.375)" v:mID="1609" v:groupContext="group">
			<title>Sheet.1609</title>
			<g id="group1581-80" transform="translate(15.2419,-33.5036)" v:mID="1581" v:groupContext="group">
				<title>Sheet.1581</title>
				<g id="group1572-81" v:mID="1572" v:groupContext="group">
					<title>Sheet.1572</title>
					<g id="shape1569-82" v:mID="1569" v:groupContext="shape" transform="translate(-1.27898E-13,-5.3634)">
						<title>Sheet.1569</title>
						<path d="M11.53 379.36 L6.36 379.36 A6.44871 6.44871 -180 0 0 5.36 392.16 A6.91672 6.91672 0 0 1 5.44 389.76
									 A4.07136 4.07136 0 0 1 6.37 381.72 L11.54 381.72 A4.08284 4.08284 0 1 1 11.54 389.89 L10.11
									 389.89 A3.07218 3.07218 -180 0 0 9.83 391.18 A2.92288 2.92288 -180 0 0 10.03 392.25 L11.54 392.25
									 A6.44871 6.44871 -180 1 0 11.54 379.36 L11.53 379.36 Z" class="st22"/>
					</g>
					<g id="shape1570-86" v:mID="1570" v:groupContext="shape" transform="translate(6.50735,5.68434E-14)">
						<title>Sheet.1570</title>
						<path d="M12.47 379.45 A7.59145 7.59145 0 0 1 12.55 380.44 A6.62673 6.62673 0 0 1 12.41 381.85 A4.07136 4.07136
									 0 0 1 11.47 389.89 L6.3 389.89 A4.08284 4.08284 0 0 1 6.3 381.72 L7.72 381.72 A3.0004 3.0004
									 -180 0 0 8.01 380.43 A2.95159 2.95159 -180 0 0 7.81 379.36 L6.31 379.36 A6.44871 6.44871 -180
									 0 0 6.31 392.25 L11.48 392.25 A6.44871 6.44871 -180 0 0 12.48 379.44 L12.47 379.45 Z"
								class="st23"/>
					</g>
				</g>
				<g id="group1580-90" transform="translate(19.9253,-6.04466)" v:mID="1580" v:groupContext="group">
					<title>Sheet.1580</title>
					<g id="shape1576-91" v:mID="1576" v:groupContext="shape" transform="translate(9.46088,-4.33213)">
						<title>Sheet.1576</title>
						<path d="M3.74 374.4 A2.22102 2.22102 -180 0 0 0.6 374.52 A2.2464 2.2464 -180 0 0 0.69 377.67 A8.11412 8.11412
									 0 0 1 2.89 383.22 A9.59056 9.59056 0 0 1 0.61 389.14 A2.23794 2.23794 -180 0 0 3.84 392.23 A14.0284
									 14.0284 -180 0 0 7.37 383.2 A12.6915 12.6915 -180 0 0 3.74 374.4 Z" class="st24"/>
					</g>
					<g id="shape1577-93" v:mID="1577" v:groupContext="shape" transform="translate(17.3752,5.68434E-14)">
						<title>Sheet.1577</title>
						<path d="M2.04 392.25 A2.23794 2.23794 0 0 1 0.35 388.54 A16.0759 16.0759 -180 0 0 3.74 379 A17.4128 17.4128
									 -180 0 0 0.27 369.39 A2.23794 2.23794 0 0 1 3.75 366.58 A21.7533 21.7533 0 0 1 8.21 379 A20.3911
									 20.3911 0 0 1 3.7 391.49 A2.23371 2.23371 0 0 1 2.04 392.25 Z" class="st24"/>
					</g>
					<g id="shape1578-95" v:mID="1578" v:groupContext="shape" transform="translate(-3.89688E-14,-9.31981)">
						<title>Sheet.1578</title>
						<ellipse cx="3.90899" cy="388.341" rx="3.90899" ry="3.90899" class="st24"/>
					</g>
				</g>
			</g>
			<g id="shape1607-97" v:mID="1607" v:groupContext="shape">
				<title>Sheet.1607</title>
				<desc>Streaming Locator</desc>
				<v:textBlock v:margins="rect(4,4,4,4)"/>
				<v:textRect cx="38.8819" cy="376.987" width="77.77" height="30.526"/>
				<rect x="0" y="361.724" width="77.7638" height="30.526" class="st25"/>
				<text x="14.02" y="373.39" class="st10" v:langID="1033"><v:paragraph v:horizAlign="1"/><v:tabList/>Streaming<v:newlineChar/><tspan
							x="20.52" dy="1.2em" class="st17">Locator</tspan></text>			</g>
		</g>
		<g id="group1610-101" transform="translate(211.243,-82.8203)" v:mID="1610" v:groupContext="group">
			<title>Sheet.1610</title>
			<g id="group1109-102" transform="translate(12.8393,-31.4046)" v:mID="1109" v:groupContext="group">
				<title>MsPortalFx.base.images-61</title>
				<g id="group1110-103" v:mID="1110" v:groupContext="group">
					<title>Sheet.1110</title>
					<g id="group1111-104" v:mID="1111" v:groupContext="group">
						<title>Sheet.1111</title>
						<g id="shape1112-105" v:mID="1112" v:groupContext="shape" transform="translate(0.239682,-0.294777)">
							<title>Sheet.1112</title>
							<path d="M18.34 353.69 L1.34 353.69 A1.34175 1.31498 -180 0 0 0 355.01 L0 390.93 A1.34175 1.31498 -180
										 0 0 1.34 392.25 L30.8 392.25 A1.34175 1.31498 -180 0 0 32.15 390.93 L32.15 367.15 A1.34175
										 1.31498 -180 0 0 30.8 365.84 L21.03 365.84 A1.34175 1.31498 0 0 1 19.68 364.52 L19.68 355.01
										 A1.3441 1.31728 -180 0 0 18.34 353.69 Z" class="st8"/>
						</g>
						<g id="shape1113-107" v:mID="1113" v:groupContext="shape">
							<title>Sheet.1113</title>
							<path d="M17.96 355.07 L17.96 364.1 A3.37905 3.31163 -180 0 0 21.33 367.41 L30.61 367.41 L30.61 390.28
										 L2.01 390.28 L2.01 355.07 L17.96 355.07 ZM18.61 353.1 L1.36 353.1 A1.36525 1.33801 -180
										 0 0 0 354.44 L0 390.91 A1.36525 1.33801 -180 0 0 1.36 392.25 L31.26 392.25 A1.36525 1.33801
										 -180 0 0 32.63 390.91 L32.63 366.77 A1.3629 1.33571 -180 0 0 31.26 365.44 L21.34 365.44
										 A1.3629 1.33571 0 0 1 19.97 364.1 L19.97 354.44 A1.36525 1.33801 -180 0 0 18.61 353.1 Z"
									class="st26"/>
						</g>
						<g id="shape1114-111" v:mID="1114" v:groupContext="shape" transform="translate(19.5036,-26.5483)">
							<title>Sheet.1114</title>
							<path d="M12.6 392.25 L0 379.94 L0 389.97 A2.31223 2.2661 -180 0 0 2.3 392.25 L12.6 392.25 Z"
									class="st6"/>
						</g>
					</g>
					<g id="shape1115-113" v:mID="1115" v:groupContext="shape" transform="translate(6.06491,-19.5243)">
						<title>Sheet.1115</title>
						<path d="M0 383.52 L0 391.68 a0.669701 0.656339 -180 0 0 1.00103 0.568827 L8.29 388.17 a0.667351 0.654036
									 -180 0 0 7.10543E-15 -1.13765 L1 382.95 a0.669701 0.656339 -180 0 0 -1.00103 0.568827 Z"
								class="st27"/>
					</g>
					<g id="shape1116-115" v:mID="1116" v:groupContext="shape" transform="translate(5.94507,-14.0318)">
						<title>Sheet.1116</title>
						<path d="M0 391.23 A1.04335 1.02253 -180 0 0 1.04 392.25 L16.27 392.25 A1.04335 1.02253 -180 0 0 17.32 391.23
									 L17.32 390.99 A1.04335 1.02253 -180 0 0 16.27 389.97 L1.04 389.97 A1.04335 1.02253 -180 0 0
									 0 390.99 L0 391.23 Z" class="st12"/>
					</g>
					<g id="shape1117-117" v:mID="1117" v:groupContext="shape" transform="translate(5.94507,-9.95332)">
						<title>Sheet.1117</title>
						<path d="M0 391.23 A1.04335 1.02253 -180 0 0 1.04 392.25 L16.27 392.25 A1.04335 1.02253 -180 0 0 17.32 391.23
									 L17.32 390.99 A1.04335 1.02253 -180 0 0 16.27 389.97 L1.04 389.97 A1.04335 1.02253 -180 0 0
									 0 390.99 L0 391.23 Z" class="st12"/>
					</g>
					<g id="shape1118-119" v:mID="1118" v:groupContext="shape" transform="translate(5.94507,-5.8725)">
						<title>Sheet.1118</title>
						<path d="M0 391.23 A1.04335 1.02253 -180 0 0 1.04 392.25 L9.87 392.25 A1.04335 1.02253 -180 0 0 10.91 391.23
									 L10.91 390.99 A1.04335 1.02253 -180 0 0 9.87 389.97 L1.04 389.97 A1.04335 1.02253 -180 0 0 0
									 390.99 L0 391.23 Z" class="st12"/>
					</g>
				</g>
			</g>
			<g id="shape1603-121" v:mID="1603" v:groupContext="shape">
				<title>Sheet.1603</title>
				<desc>Media files</desc>
				<v:textBlock v:margins="rect(4,4,4,4)"/>
				<v:textRect cx="27.6319" cy="376.987" width="55.27" height="30.526"/>
				<rect x="0" y="361.724" width="55.2638" height="30.526" class="st1"/>
				<text x="12.11" y="373.39" class="st10" v:langID="1033"><v:paragraph v:horizAlign="1"/><v:tabList/>Media <tspan
							x="17.71" dy="1.2em" class="st17">files</tspan></text>			</g>
		</g>
		<g id="group1611-125" transform="translate(275.368,-80.962)" v:mID="1611" v:groupContext="group">
			<title>Sheet.1611</title>
			<g id="group1041-126" transform="translate(-4.00078,-33.263)" v:mID="1041" v:groupContext="group">
				<title>Sheet.1041</title>
				<g id="group1042-127" transform="translate(1.70077,5.68434E-14)" v:mID="1042" v:groupContext="group">
					<title>Sheet.1042</title>
					<g id="shape1043-128" v:mID="1043" v:groupContext="shape">
						<title>Sheet.1043</title>
						<path d="M0 353.1 L0 392.25 L30.61 392.25 L30.61 363.66 L19.6 353.1 L0 353.1 ZM19.91 354.78 L28.86 363.37
									 C28.87 363.37 28.87 363.37 28.86 363.38 C28.86 363.38 28.86 363.38 28.86 363.38 L19.9 363.38
									 L19.9 354.78 C19.9 354.78 19.9 354.78 19.9 354.78 C19.91 354.78 19.91 354.78 19.91 354.78 ZM1.02
									 391.27 L1.02 354.08 L18.88 354.08 L18.88 364.36 L29.59 364.36 L29.59 391.27 L1.02 391.27 Z"
								class="st28"/>
					</g>
				</g>
				<g id="shape1044-130" v:mID="1044" v:groupContext="shape" transform="translate(0,-7.79375)">
					<title>Sheet.1044</title>
					<desc>ISM</desc>
					<v:textBlock v:margins="rect(4,4,4,4)"/>
					<v:textRect cx="17.0077" cy="385" width="34.02" height="14.5"/>
					<rect x="0" y="377.75" width="34.0154" height="14.5" class="st25"/>
					<text x="7.33" y="388.6" class="st29" v:langID="1033"><v:paragraph v:horizAlign="1"/><v:tabList/>ISM</text>				</g>
			</g>
			<g id="shape1604-133" v:mID="1604" v:groupContext="shape" transform="translate(-4.99308,5.68434E-14)">
				<title>Sheet.1604</title>
				<desc>Manifest and other files needed for streaming</desc>
				<v:textBlock v:margins="rect(4,4,4,4)"/>
				<v:textRect cx="64.0017" cy="376.987" width="128.01" height="30.526"/>
				<rect x="0" y="361.724" width="128.003" height="30.526" class="st1"/>
				<text x="4" y="373.39" class="st10" v:langID="1033"><v:paragraph/><v:tabList/>Manifest and other files <tspan x="4"
							dy="1.2em" class="st17">needed for streaming</tspan></text>			</g>
		</g>
		<g id="shape1616-137" v:mID="1616" v:groupContext="shape" transform="translate(370.993,-268.125)">
			<title>Sheet.1616</title>
			<desc>Streaming URL</desc>
			<v:textBlock v:margins="rect(4,4,4,4)"/>
			<v:textRect cx="34.3819" cy="380.744" width="68.77" height="23.0126"/>
			<rect x="0" y="369.237" width="68.7638" height="23.0126" class="st1"/>
			<text x="10.48" y="383.14" class="st30" v:langID="1033"><v:paragraph v:horizAlign="1"/><v:tabList/>Streaming URL</text>		</g>
		<g id="shape1613-140" v:mID="1613" v:groupContext="shape" v:layerMember="0" transform="translate(327.257,-261.187)">
			<title>Dynamic connector.1613</title>
			<path d="M8.68 383.25 L9.04 383.25 L147.29 383.25" class="st31"/>
		</g>
		<g id="shape1614-149" v:mID="1614" v:groupContext="shape" transform="translate(0.375,-0.375)">
			<title>Sheet.1614</title>
			<desc>Media Services basic VOD architecture after transform of uplo...</desc>
			<v:textBlock v:margins="rect(4,4,4,4)"/>
			<v:textRect cx="279" cy="376.987" width="558" height="30.526"/>
			<rect x="0" y="361.724" width="558" height="30.526" class="st33"/>
			<text x="71.22" y="380.59" class="st34" v:langID="1033"><v:paragraph v:horizAlign="1"/><v:tabList/>Media Services basic VOD architecture <tspan
						class="st35">after</tspan> transform of uploaded media files.</text>		</g>
		<g id="group1618-153" transform="translate(474.493,-210.112)" v:mID="1618" v:groupContext="group">
			<title>Sheet.1618</title>
			<g id="group1069-154" transform="translate(9,-30.963)" v:mID="1069" v:groupContext="group">
				<title>Icon-identity-232</title>
				<g id="shape1070-155" v:mID="1070" v:groupContext="shape" transform="translate(2.79776E-13,-8.38531)">
					<title>Sheet.1070</title>
					<path d="M16.64 377.99 L30.93 377.99 L30.93 392.25 L16.64 392.25 L16.64 377.99 ZM0.13 358.97 L14.43 358.97 L14.43
								 344.71 L1.98 344.71 A1.98078 1.98078 -180 0 0 -0 346.69 L0.13 358.97 ZM2.11 392.25 L14.43 392.25
								 L14.43 377.99 L0 377.99 L0 390.27 A1.98078 1.98078 -180 0 0 1.98 392.25 L2.11 392.25 ZM0.13 375.74
								 L14.43 375.74 L14.43 361.35 L0 361.35 L0.13 375.74 ZM33.41 392.25 L45.69 392.25 A1.98078 1.98078
								 -180 0 0 47.67 390.27 L47.67 377.99 L33.28 377.99 L33.41 392.25 ZM16.9 375.74 L30.93 375.74 L30.93
								 361.35 L16.64 361.35 L16.9 375.74 ZM33.41 375.74 L47.44 375.74 L47.44 361.35 L33.28 361.35 L33.41
								 375.74 ZM33.41 344.84 L33.41 358.97 L47.44 358.97 L47.44 346.69 A1.98078 1.98078 -180 0 0 45.46
								 344.71 L33.41 344.84 ZM16.9 359.1 L30.93 359.1 L30.93 344.71 L16.64 344.71 L16.9 359.1 Z"
							class="st36"/>
				</g>
				<g id="shape1071-159" v:mID="1071" v:groupContext="shape" transform="translate(42.4878,5.68434E-14)">
					<title>Sheet.1071</title>
					<path d="M12.78 369.9 L12.78 384.79 L0 392.25 L0 377.36 L12.78 369.9 Z" class="st27"/>
				</g>
				<g id="shape1072-161" v:mID="1072" v:groupContext="shape" transform="translate(29.7117,-14.8559)">
					<title>Sheet.1072</title>
					<path d="M25.55 384.76 L12.78 392.25 L0 384.76 L12.78 377.3 L25.55 384.76 Z" class="st37"/>
				</g>
				<g id="shape1073-163" v:mID="1073" v:groupContext="shape" transform="translate(29.7117,5.68434E-14)">
					<title>Sheet.1073</title>
					<path d="M12.78 377.39 L12.78 392.25 L0 384.79 L0 369.9 L12.78 377.39 Z" class="st16"/>
				</g>
				<g id="shape1074-165" v:mID="1074" v:groupContext="shape" transform="translate(29.7117,2.84217E-13)">
					<title>Sheet.1074</title>
					<path d="M0 384.79 L12.78 377.36 L12.78 392.25 L0 384.79 Z" class="st37"/>
				</g>
				<g id="shape1075-167" v:mID="1075" v:groupContext="shape" transform="translate(42.4878,2.84217E-13)">
					<title>Sheet.1075</title>
					<path d="M12.78 384.79 L0 377.36 L0 392.25 L12.78 384.79 Z" class="st16"/>
				</g>
			</g>
			<g id="shape1617-169" v:mID="1617" v:groupContext="shape">
				<title>Sheet.1617</title>
				<desc>Streaming application</desc>
				<v:textBlock v:margins="rect(4,4,4,4)"/>
				<v:textRect cx="34.3819" cy="376.987" width="68.77" height="30.526"/>
				<rect x="0" y="361.724" width="68.7638" height="30.526" class="st1"/>
				<text x="9.52" y="373.39" class="st10" v:langID="1033"><v:paragraph v:horizAlign="1"/><v:tabList/>Streaming<v:newlineChar/><tspan
							x="7.33" dy="1.2em" class="st17">application</tspan></text>			</g>
		</g>
		<g id="shape1619-173" v:mID="1619" v:groupContext="shape" v:layerMember="0" transform="translate(279.375,-243.375)">
			<title>Dynamic connector.1619</title>
			<path d="M9 400.93 L9 401.29 L9 444.91" class="st31"/>
		</g>
		<g id="group1628-180" transform="translate(162.375,-237.314)" v:mID="1628" v:groupContext="group">
			<title>Sheet.1628</title>
			<g id="shape1605-181" v:mID="1605" v:groupContext="shape" transform="translate(0,4.70228)">
				<title>Sheet.1605</title>
				<desc>Streaming Endpoint (started)</desc>
				<v:textBlock v:margins="rect(4,4,4,4)"/>
				<v:textRect cx="38.8819" cy="376.987" width="77.77" height="30.526"/>
				<rect x="0" y="361.724" width="77.7638" height="30.526" class="st1"/>
				<text x="14.02" y="366.19" class="st10" v:langID="1033"><v:paragraph v:horizAlign="1"/><v:tabList/>Streaming<v:newlineChar/><tspan
							x="16.79" dy="1.2em" class="st17">Endpoint<v:newlineChar/></tspan><tspan x="17.77" dy="1.2em"
							class="st17">(started)</tspan></text>			</g>
			<g id="group1620-186" transform="translate(14.5069,-32.1893)" v:mID="1620" v:groupContext="group">
				<title>Sheet.1620</title>
				<g id="shape1621-187" v:mID="1621" v:groupContext="shape" transform="translate(7.82716,-12.4942)">
					<title>path2</title>
					<rect x="0" y="369.71" width="3.86365" height="22.5405" class="st38"/>
				</g>
				<g id="shape1622-191" v:mID="1622" v:groupContext="shape" transform="translate(17.3293,-2.96493)">
					<title>path4</title>
					<path d="M3.74 382.29 L3.74 360.35 L0 360.35 L0 384.44 L13.42 392.25 L15.3 389.01 L3.74 382.29 Z" class="st39"/>
				</g>
				<g id="shape1623-195" v:mID="1623" v:groupContext="shape" transform="translate(30.4625,-18.0273)">
					<title>path6</title>
					<path d="M8.03 362.36 L8.03 384.3 L0 389.02 L1.88 392.25 L11.77 386.45 L11.77 362.36 L8.03 362.36 Z"
							class="st40"/>
				</g>
				<g id="shape1624-199" v:mID="1624" v:groupContext="shape" transform="translate(0,-30.6598)">
					<title>path8</title>
					<path d="M48.75 381.14 C48.7 378.51 47.71 375.98 45.97 374.01 C44.23 372.04 41.85 370.75 39.24 370.37 C39.13
								 366.7 37.57 363.22 34.91 360.69 C32.25 358.16 28.69 356.79 25.02 356.86 C22.06 356.83 19.15 357.72
								 16.71 359.41 C14.27 361.11 12.42 363.52 11.42 366.31 C8.29 366.73 5.42 368.26 3.33 370.62 C1.23
								 372.97 0.05 376 0 379.15 C0.04 380.91 0.44 382.65 1.15 384.25 C1.86 385.86 2.89 387.31 4.16 388.52
								 C5.44 389.74 6.94 390.68 8.58 391.32 C10.22 391.95 11.98 392.25 13.73 392.21 C14.14 392.21 14.55
								 392.21 14.94 392.15 L37.17 392.15 C37.37 392.15 37.57 392.12 37.76 392.06 C40.64 392.01 43.4 390.84
								 45.45 388.81 C47.49 386.77 48.68 384.02 48.75 381.14 Z" class="st41"/>
				</g>
				<g id="shape1625-203" v:mID="1625" v:groupContext="shape" transform="translate(4.89434,-9.72038)">
					<title>path10</title>
					<path d="M4.87 392.25 C7.55 392.25 9.73 390.07 9.73 387.38 C9.73 384.7 7.55 382.52 4.87 382.52 C2.18 382.52 0
								 384.7 0 387.38 C0 390.07 2.18 392.25 4.87 392.25 Z" class="st42"/>
				</g>
				<g id="shape1626-205" v:mID="1626" v:groupContext="shape" transform="translate(26.7235,5.68434E-14)">
					<title>path12</title>
					<path d="M4.87 392.25 C7.55 392.25 9.73 390.07 9.73 387.38 C9.73 384.7 7.55 382.52 4.87 382.52 C2.18 382.52 0
								 384.7 0 387.38 C0 390.07 2.18 392.25 4.87 392.25 Z" class="st42"/>
				</g>
				<g id="shape1627-207" v:mID="1627" v:groupContext="shape" transform="translate(26.2833,-14.7656)">
					<title>path14</title>
					<path d="M4.87 392.25 C7.55 392.25 9.73 390.07 9.73 387.38 C9.73 384.7 7.55 382.52 4.87 382.52 C2.18 382.52 0
								 384.7 0 387.38 C0 390.07 2.18 392.25 4.87 392.25 Z" class="st42"/>
				</g>
			</g>
		</g>
		<g id="group1629-209" transform="translate(219.257,-272.625)" v:mID="1629" v:groupContext="group">
			<title>Sheet.1629</title>
			<g id="shape1630-210" v:mID="1630" v:groupContext="shape">
				<title>Sheet.1630</title>
				<path d="M0 374.85 L13.5 383.55 L0 392.25 L0 374.85 Z" class="st43"/>
			</g>
		</g>
	</g>
</svg>
