<?xml version="1.0" encoding="UTF-8" standalone="no"?>
<!DOCTYPE svg PUBLIC "-//W3C//DTD SVG 1.1//EN" "http://www.w3.org/Graphics/SVG/1.1/DTD/svg11.dtd">
<!-- Generated by Microsoft Visio, SVG Export vod-process.svg Page-1 -->
<svg xmlns="http://www.w3.org/2000/svg" xmlns:xlink="http://www.w3.org/1999/xlink" xmlns:ev="http://www.w3.org/2001/xml-events"
		xmlns:v="http://schemas.microsoft.com/visio/2003/SVGExtensions/" width="8.51042in" height="11.8854in"
		viewBox="0 0 612.75 855.75" xml:space="preserve" color-interpolation-filters="sRGB" class="st71">
	<v:documentProperties v:langID="1033" v:viewMarkup="false"/>

	<style type="text/css">
	<![CDATA[
		.st1 {fill:#ffffff;stroke:none;stroke-linecap:round;stroke-linejoin:round;stroke-width:0.75}
		.st2 {fill:#ffffff;stroke:#0070c0;stroke-linecap:round;stroke-linejoin:round;stroke-width:1}
		.st3 {fill:#ffffff;stroke:#4bacc6;stroke-linecap:round;stroke-linejoin:round;stroke-width:0.75}
		.st4 {fill:#ffffff;stroke:#f59d56;stroke-linecap:round;stroke-linejoin:round;stroke-width:0.75}
		.st5 {fill:#000000;font-family:Calibri;font-size:1.00001em}
		.st6 {font-size:1em}
		.st7 {fill:url(#grad0-18);stroke:none;stroke-linecap:butt;stroke-width:0.75}
		.st8 {fill:#0078d4;stroke:none;stroke-linecap:butt;stroke-width:0.75}
		.st9 {fill:#f78d1e;stroke:none;stroke-linecap:butt;stroke-width:0.75}
		.st10 {fill:#ffffff;stroke:none;stroke-linecap:butt;stroke-width:0.75}
		.st11 {fill:#d15900;stroke:none;stroke-linecap:butt;stroke-width:0.75}
		.st12 {fill:url(#grad0-35);stroke:none;stroke-linecap:butt;stroke-width:0.75}
		.st13 {fill:#5ea0ef;stroke:none;stroke-linecap:butt;stroke-width:0.75}
		.st14 {fill:url(#grad0-43);stroke:none;stroke-linecap:butt;stroke-width:0.75}
		.st15 {fill:#c3f1ff;stroke:none;stroke-linecap:butt;stroke-width:0.75}
		.st16 {fill:url(#grad0-53);stroke:none;stroke-linecap:butt;stroke-width:0.75}
		.st17 {fill:#50e6ff;stroke:none;stroke-linecap:butt;stroke-width:0.75}
		.st18 {fill:url(#grad0-67);stroke:none;stroke-linecap:butt;stroke-width:0.749999}
		.st19 {fill:#37c2b1;stroke:none;stroke-linecap:butt;stroke-width:0.749999}
		.st20 {fill:#ffffff;stroke:none;stroke-linecap:butt;stroke-width:0.749999}
		.st21 {fill:#258277;stroke:none;stroke-linecap:butt;stroke-width:0.749999}
		.st22 {fill:url(#grad0-89);stroke:none;stroke-linecap:butt;stroke-width:0.75}
		.st23 {fill:#32bedd;stroke:none;stroke-linecap:butt;stroke-width:0.75}
		.st24 {fill:#0070c0;stroke:none;stroke-linecap:butt;stroke-width:6.375}
		.st25 {fill:none;stroke:none;stroke-linecap:round;stroke-linejoin:round;stroke-width:0.75}
		.st26 {fill:#0070c0;font-family:Calibri;font-size:1.00001em;font-weight:bold}
		.st27 {fill:#f2f2f2;stroke:none;stroke-linecap:round;stroke-linejoin:round;stroke-width:0.75}
		.st28 {fill:#000000;font-family:Segoe UI;font-size:1.00001em}
		.st29 {fill:url(#grad0-129);stroke:none;stroke-linecap:butt;stroke-width:1.94256}
		.st30 {fill:url(#grad0-133);stroke:none;stroke-linecap:butt;stroke-width:1.94256}
		.st31 {fill:url(#grad0-137);stroke:none;stroke-linecap:butt;stroke-width:1.94256}
		.st32 {fill:url(#grad0-141);stroke:none;stroke-linecap:butt;stroke-width:1.94256}
		.st33 {fill:#5ea0ef;stroke:none;stroke-linecap:butt;stroke-width:1.94256}
		.st34 {fill:#9dbb61;stroke:none;stroke-linecap:butt;stroke-width:6.375}
		.st35 {fill:#ffffff;stroke:#000000;stroke-linecap:round;stroke-linejoin:round;stroke-width:1}
		.st36 {fill:url(#grad0-159);stroke:none;stroke-linecap:butt;stroke-width:0.75}
		.st37 {fill:#ffffff;fill-opacity:0.8;stroke:none;stroke-linecap:butt;stroke-width:0.75}
		.st38 {fill:url(#grad0-165);stroke:none;stroke-linecap:butt;stroke-width:0.75}
		.st39 {fill:url(#grad0-194);stroke:none;stroke-linecap:butt;stroke-width:0.75}
		.st40 {fill:url(#grad0-206);stroke:none;stroke-linecap:butt;stroke-width:0.75}
		.st41 {fill:url(#grad0-219);stroke:none;stroke-linecap:butt;stroke-width:6.12}
		.st42 {fill:#ffffff;stroke:none;stroke-linecap:butt;stroke-width:6.12}
		.st43 {fill:#ea700d;stroke:none;stroke-linecap:butt;stroke-width:0.75}
		.st44 {fill:#ea700d;stroke:none;stroke-linecap:butt;stroke-width:6.375}
		.st45 {marker-end:url(#mrkr4-324);stroke:#000000;stroke-linecap:round;stroke-linejoin:round;stroke-width:0.75}
		.st46 {fill:#000000;fill-opacity:1;stroke:#000000;stroke-opacity:1;stroke-width:0.22935779816514}
		.st47 {marker-start:url(#mrkr4-330);stroke:#000000;stroke-linecap:round;stroke-linejoin:round;stroke-width:0.75}
		.st48 {fill:url(#grad0-342);stroke:none;stroke-linecap:butt;stroke-width:0.75}
		.st49 {fill:url(#grad0-346);stroke:none;stroke-linecap:butt;stroke-width:0.75}
		.st50 {fill:#92cddc;stroke:none;stroke-linecap:butt;stroke-width:0.75}
		.st51 {marker-start:url(#mrkr4-368);stroke:#000000;stroke-linecap:round;stroke-linejoin:round;stroke-width:2}
		.st52 {fill:#000000;fill-opacity:1;stroke:#000000;stroke-opacity:1;stroke-width:0.44247787610619}
		.st53 {fill:url(#grad0-374);stroke:none;stroke-linecap:butt;stroke-width:0.75}
		.st54 {fill:#9cebff;stroke:none;stroke-linecap:butt;stroke-width:0.75}
		.st55 {fill:#9cdaf1;stroke:none;stroke-linecap:butt;stroke-width:1.61478}
		.st56 {fill:#7dbbe6;stroke:none;stroke-linecap:butt;stroke-width:1.61478}
		.st57 {fill:#000000;stroke:none;stroke-linecap:butt;stroke-width:1.61478}
		.st58 {fill:#f4cbb2;stroke:none;stroke-linecap:butt;stroke-width:1.61478}
		.st59 {fill:#ffffff;stroke:none;stroke-linecap:butt;stroke-width:1.61478}
		.st60 {fill:#ad5c51;stroke:none;stroke-linecap:butt;stroke-width:1.61478}
		.st61 {fill:#c3e4d8;stroke:none;stroke-linecap:butt;stroke-width:1.61478}
		.st62 {marker-end:url(#mrkr4-454);stroke:#000000;stroke-linecap:round;stroke-linejoin:round;stroke-width:2.25}
		.st63 {fill:#000000;fill-opacity:1;stroke:#000000;stroke-opacity:1;stroke-width:0.47169811320755}
		.st64 {fill:url(#grad0-460);stroke:none;stroke-linecap:butt;stroke-width:0.75}
		.st65 {fill:#f2f2f2;stroke:none;stroke-linecap:butt;stroke-width:0.75}
		.st66 {fill:url(#grad0-466);stroke:none;stroke-linecap:butt;stroke-width:0.75}
		.st67 {fill:#005ba1;stroke:none;stroke-linecap:butt;stroke-width:0.75}
		.st68 {fill:url(#grad0-479);stroke:none;stroke-linecap:butt;stroke-width:0.75}
		.st69 {fill:url(#grad0-485);stroke:none;stroke-linecap:butt;stroke-width:0.75}
		.st70 {fill:#000000;font-family:Calibri;font-size:0.666664em}
		.st71 {fill:none;fill-rule:evenodd;font-size:12px;overflow:visible;stroke-linecap:square;stroke-miterlimit:3}
	]]>
	</style>

	<defs id="Patterns_And_Gradients">
		<linearGradient id="grad0-18" x1="0" y1="0" x2="1" y2="0" gradientTransform="rotate(-90 0.5 0.5)">
			<stop offset="0" stop-color="#32bedd" stop-opacity="1"/>
			<stop offset="0.775" stop-color="#32d4f5" stop-opacity="1"/>
		</linearGradient>
		<linearGradient id="grad0-35" x1="0" y1="0" x2="1" y2="0" gradientTransform="rotate(-0.10257930558574 0.5 0.5)">
			<stop offset="0" stop-color="#005ba1" stop-opacity="1"/>
			<stop offset="0.365" stop-color="#004e8f" stop-opacity="1"/>
			<stop offset="1" stop-color="#003067" stop-opacity="1"/>
		</linearGradient>
		<linearGradient id="grad0-43" x1="0" y1="0" x2="1" y2="0" gradientTransform="rotate(179.30685615173 0.5 0.5)">
			<stop offset="0" stop-color="#005ba1" stop-opacity="1"/>
			<stop offset="0.45" stop-color="#004685" stop-opacity="1"/>
			<stop offset="1" stop-color="#003067" stop-opacity="1"/>
		</linearGradient>
		<linearGradient id="grad0-53" x1="0" y1="0" x2="1" y2="0" gradientTransform="rotate(-73.177420271587 0.5 0.5)">
			<stop offset="0.26" stop-color="#50e6ff" stop-opacity="1"/>
			<stop offset="0.42" stop-color="#79eaff" stop-opacity="1"/>
			<stop offset="0.58" stop-color="#99edff" stop-opacity="1"/>
			<stop offset="0.735" stop-color="#b0efff" stop-opacity="1"/>
			<stop offset="0.875" stop-color="#bef1ff" stop-opacity="1"/>
			<stop offset="1" stop-color="#c3f1ff" stop-opacity="1"/>
		</linearGradient>
		<linearGradient id="grad0-67" x1="0" y1="0" x2="1" y2="0" gradientTransform="rotate(-90 0.5 0.5)">
			<stop offset="0" stop-color="#b3b3b3" stop-opacity="1"/>
			<stop offset="0.26" stop-color="#c1c1c1" stop-opacity="1"/>
			<stop offset="1" stop-color="#e6e6e6" stop-opacity="1"/>
		</linearGradient>
		<linearGradient id="grad0-89" x1="0" y1="0" x2="1" y2="0" gradientTransform="rotate(-90 0.5 0.5)">
			<stop offset="0" stop-color="#0078d4" stop-opacity="1"/>
			<stop offset="0.815" stop-color="#5ea0ef" stop-opacity="1"/>
		</linearGradient>
		<linearGradient id="grad0-129" x1="0" y1="0" x2="1" y2="0" gradientTransform="rotate(81.104070496659 0.5 0.5)">
			<stop offset="0.055" stop-color="#9cebff" stop-opacity="1"/>
			<stop offset="1" stop-color="#50e6ff" stop-opacity="1"/>
		</linearGradient>
		<linearGradient id="grad0-133" x1="0" y1="0" x2="1" y2="0" gradientTransform="rotate(57.132129675453 0.5 0.5)">
			<stop offset="0.12" stop-color="#9cebff" stop-opacity="1"/>
			<stop offset="1" stop-color="#50e6ff" stop-opacity="1"/>
		</linearGradient>
		<linearGradient id="grad0-137" x1="0" y1="0" x2="1" y2="0" gradientTransform="rotate(132.49247026534 0.5 0.5)">
			<stop offset="0.245" stop-color="#9cebff" stop-opacity="1"/>
			<stop offset="1" stop-color="#50e6ff" stop-opacity="1"/>
		</linearGradient>
		<linearGradient id="grad0-141" x1="0" y1="0" x2="1" y2="0" gradientTransform="rotate(89.433728028172 0.5 0.5)">
			<stop offset="0.005" stop-color="#83b9f9" stop-opacity="1"/>
			<stop offset="1" stop-color="#5ea0ef" stop-opacity="1"/>
		</linearGradient>
		<linearGradient id="grad0-159" x1="0" y1="0" x2="1" y2="0" gradientTransform="rotate(90 0.5 0.5)">
			<stop offset="0.22" stop-color="#32d4f5" stop-opacity="1"/>
			<stop offset="1" stop-color="#198ab3" stop-opacity="1"/>
		</linearGradient>
		<linearGradient id="grad0-165" x1="0" y1="0" x2="1" y2="0" gradientTransform="rotate(85.405746668733 0.5 0.5)">
			<stop offset="0.22" stop-color="#32d4f5" stop-opacity="1"/>
			<stop offset="1" stop-color="#198ab3" stop-opacity="1"/>
		</linearGradient>
		<linearGradient id="grad0-194" x1="0" y1="0" x2="1" y2="0" gradientTransform="rotate(-90 0.5 0.5)">
			<stop offset="0" stop-color="#32bedd" stop-opacity="1"/>
			<stop offset="1" stop-color="#32d4f5" stop-opacity="1"/>
		</linearGradient>
		<linearGradient id="grad0-206" x1="0" y1="0" x2="1" y2="0" gradientTransform="rotate(270 0.5 0.5)">
			<stop offset="0" stop-color="#32bedd" stop-opacity="1"/>
			<stop offset="1" stop-color="#32d4f5" stop-opacity="1"/>
		</linearGradient>
		<linearGradient id="grad0-219" x1="0" y1="0" x2="1" y2="0" gradientTransform="rotate(90 0.5 0.5)">
			<stop offset="0" stop-color="#5ea0ef" stop-opacity="1"/>
			<stop offset="1" stop-color="#0078d4" stop-opacity="1"/>
		</linearGradient>
		<linearGradient id="grad0-342" x1="0" y1="0" x2="1" y2="0" gradientTransform="rotate(90 0.5 0.5)">
			<stop offset="0.23" stop-color="#5ea0ef" stop-opacity="1"/>
			<stop offset="0.93" stop-color="#127fd9" stop-opacity="1"/>
		</linearGradient>
		<linearGradient id="grad0-346" x1="0" y1="0" x2="1" y2="0" gradientTransform="rotate(90 0.5 0.5)">
			<stop offset="0.02" stop-color="#5ea0ef" stop-opacity="1"/>
			<stop offset="0.93" stop-color="#127fd9" stop-opacity="1"/>
		</linearGradient>
		<linearGradient id="grad0-374" x1="0" y1="0" x2="1" y2="0" gradientTransform="rotate(90 0.5 0.5)">
			<stop offset="0" stop-color="#5ea0ef" stop-opacity="1"/>
			<stop offset="0.18" stop-color="#589eed" stop-opacity="1"/>
			<stop offset="0.41" stop-color="#4897e9" stop-opacity="1"/>
			<stop offset="0.66" stop-color="#2e8ce1" stop-opacity="1"/>
			<stop offset="0.94" stop-color="#0a7cd7" stop-opacity="1"/>
			<stop offset="1" stop-color="#0078d4" stop-opacity="1"/>
		</linearGradient>
		<linearGradient id="grad0-460" x1="0" y1="0" x2="1" y2="0" gradientTransform="rotate(-90 0.5 0.5)">
			<stop offset="0" stop-color="#0078d4" stop-opacity="1"/>
			<stop offset="0.165" stop-color="#1c84dc" stop-opacity="1"/>
			<stop offset="0.38" stop-color="#3990e4" stop-opacity="1"/>
			<stop offset="0.59" stop-color="#4d99ea" stop-opacity="1"/>
			<stop offset="0.8" stop-color="#5a9eee" stop-opacity="1"/>
			<stop offset="1" stop-color="#5ea0ef" stop-opacity="1"/>
		</linearGradient>
		<linearGradient id="grad0-466" x1="0" y1="0" x2="1" y2="0" gradientTransform="rotate(-90 0.5 0.5)">
			<stop offset="0" stop-color="#d2ebff" stop-opacity="1"/>
			<stop offset="0.995" stop-color="#f0fffd" stop-opacity="1"/>
		</linearGradient>
		<linearGradient id="grad0-479" x1="0" y1="0" x2="1" y2="0" gradientTransform="rotate(90 0.5 0.5)">
			<stop offset="0.22" stop-color="#32d4f5" stop-opacity="1"/>
			<stop offset="1" stop-color="#198ab3" stop-opacity="1"/>
		</linearGradient>
		<linearGradient id="grad0-485" x1="0" y1="0" x2="1" y2="0" gradientTransform="rotate(85.405746668733 0.5 0.5)">
			<stop offset="0.22" stop-color="#32d4f5" stop-opacity="1"/>
			<stop offset="1" stop-color="#198ab3" stop-opacity="1"/>
		</linearGradient>
	</defs>
	<defs id="Markers">
		<g id="lend4">
			<path d="M 2 1 L 0 0 L 2 -1 L 2 1 " style="stroke:none"/>
		</g>
		<marker id="mrkr4-324" class="st46" v:arrowType="4" v:arrowSize="2" v:setback="8.72" refX="-8.72" orient="auto"
				markerUnits="strokeWidth" overflow="visible">
			<use xlink:href="#lend4" transform="scale(-4.36,-4.36) "/>
		</marker>
		<marker id="mrkr4-330" class="st46" v:arrowType="4" v:arrowSize="2" v:setback="8.24" refX="8.24" orient="auto"
				markerUnits="strokeWidth" overflow="visible">
			<use xlink:href="#lend4" transform="scale(4.36) "/>
		</marker>
		<marker id="mrkr4-368" class="st52" v:arrowType="4" v:arrowSize="2" v:setback="4.34" refX="4.34" orient="auto"
				markerUnits="strokeWidth" overflow="visible">
			<use xlink:href="#lend4" transform="scale(2.26) "/>
		</marker>
		<marker id="mrkr4-454" class="st63" v:arrowType="4" v:arrowSize="2" v:setback="4.24" refX="-4.24" orient="auto"
				markerUnits="strokeWidth" overflow="visible">
			<use xlink:href="#lend4" transform="scale(-2.12,-2.12) "/>
		</marker>
	</defs>
	<g v:mID="0" v:index="1" v:groupContext="foregroundPage">
		<title>Page-1</title>
		<v:pageProperties v:drawingScale="1" v:pageScale="1" v:drawingUnits="19" v:shadowOffsetX="9" v:shadowOffsetY="-9"/>
		<v:layer v:name="Connector" v:index="0" v:snap="false" v:glue="false"/>
		<g id="shape1464-1" v:mID="1464" v:groupContext="shape" transform="translate(0.375,-0.375)">
			<title>Sheet.1464</title>
			<rect x="0" y="0.749972" width="612" height="855" class="st1"/>
		</g>
		<g id="shape1465-3" v:mID="1465" v:groupContext="shape" transform="translate(71.9174,-207.375)">
			<title>Sheet.1465</title>
			<rect x="0" y="251.625" width="506.978" height="604.125" class="st2"/>
		</g>
		<g id="shape1466-5" v:mID="1466" v:groupContext="shape" transform="translate(124.395,-342.375)">
			<title>Sheet.1466</title>
			<rect x="0" y="521.309" width="328.5" height="334.441" class="st3"/>
		</g>
		<g id="shape1467-7" v:mID="1467" v:groupContext="shape" transform="translate(194.017,-369.375)">
			<title>Sheet.1467</title>
			<rect x="0" y="754.149" width="245.378" height="101.601" class="st4"/>
		</g>
		<g id="group1468-9" transform="translate(164.895,-432.019)" v:mID="1468" v:groupContext="group">
			<title>Sheet.1468</title>
			<g id="shape1476-10" v:mID="1476" v:groupContext="shape" transform="translate(1.34805,10.8936)">
				<title>Sheet.1476</title>
				<desc>Output asset</desc>
				<v:textBlock v:margins="rect(4,4,4,4)"/>
				<v:textRect cx="27.6319" cy="842.267" width="55.27" height="26.965"/>
				<rect x="0" y="828.785" width="55.2638" height="26.965" class="st1"/>
				<text x="10.18" y="838.67" class="st5" v:langID="1033"><v:paragraph v:horizAlign="1"/><v:tabList/>Output<v:newlineChar/><tspan
							x="15.07" dy="1.2em" class="st6">asset</tspan></text>			</g>
			<g id="group1469-14" transform="translate(2.79776E-14,-15.9964)" v:mID="1469" v:groupContext="group">
				<title>Sheet.1469</title>
				<g id="shape1470-15" v:mID="1470" v:groupContext="shape">
					<title>Sheet.1470</title>
					<path d="M1.77 820.48 L56.69 820.48 L56.69 853.85 A1.83479 1.90111 0 0 1 54.85 855.75 L3.6 855.75 A1.83479 1.90111
								 0 0 1 1.77 853.85 L1.77 820.48 Z" class="st7"/>
				</g>
				<g id="shape1471-19" v:mID="1471" v:groupContext="shape" transform="translate(-7.99361E-15,-35.2766)">
					<title>Sheet.1471</title>
					<path d="M3.61 845.27 L54.84 845.27 A1.83479 1.90111 0 0 1 56.68 847.17 L56.68 855.75 L1.78 855.75 L1.78 847.17
								 A1.83479 1.90111 0 0 1 3.61 845.27 Z" class="st8"/>
				</g>
				<g id="shape1472-21" v:mID="1472" v:groupContext="shape" transform="translate(13.8015,-5.23226)">
					<title>Sheet.1472</title>
					<path d="M30.13 832.54 L16.67 832.54 a0.74041 0.767174 0 0 1 -0.402679 -0.124498 L12.43 829.77 a0.707936 0.733526
								 -180 0 0 -0.399432 -0.127862 L0.72 829.64 a0.720925 0.746985 -180 0 0 -0.720925 0.746985 L0 855
								 a0.717678 0.743621 -180 0 0 0.720925 0.746985 L30.13 855.75 a0.717678 0.743621 -180 0 0 0.720925
								 -0.746985 L30.85 833.29 a0.720925 0.746985 -180 0 0 -0.720925 -0.746985 Z" class="st9"/>
				</g>
				<g id="shape1473-23" v:mID="1473" v:groupContext="shape" transform="translate(16.6073,-28.4561)">
					<title>Sheet.1473</title>
					<path d="M0 855.44 a0.295521 0.306204 -180 0 0 0.295514 0.306197 L6.72 855.75 a0.295521 0.306204 -180 0 0 0.295514
								 -0.306197 L7.01 854.6 a0.295521 0.306204 -180 0 0 -0.295514 -0.306197 L0.3 854.3 a0.295521 0.306204
								 -180 0 0 -0.295514 0.306197 L0 855.44 Z" class="st10"/>
				</g>
				<g id="shape1474-25" v:mID="1474" v:groupContext="shape" transform="translate(16.6073,-28.4561)">
					<title>Sheet.1474</title>
					<path d="M-0 855.54 a0.201344 0.208622 -180 0 0 0.20134 0.208618 L1.2 855.75 a0.201344 0.208622 -180 0 0 0.20134
								 -0.208618 L1.4 854.51 a0.201344 0.208622 -180 0 0 -0.20134 -0.208618 L0.2 854.3 a0.201344 0.208622
								 -180 0 0 -0.20134 0.208618 L0 855.54 Z" class="st11"/>
				</g>
				<g id="shape1475-27" v:mID="1475" v:groupContext="shape" transform="translate(13.8015,-5.27601)">
					<title>Sheet.1475</title>
					<path d="M30.13 832.55 L15.35 832.55 a0.711183 0.736891 -180 0 0 -0.509844 0.211982 L12.46 835.22 a0.714431 0.740256
								 0 0 1 -0.509844 0.222077 L0.72 835.45 a0.717678 0.743621 -180 0 0 -0.720925 0.743621 L0 855 a0.717678
								 0.743621 -180 0 0 0.720925 0.746985 L30.13 855.75 a0.717678 0.743621 -180 0 0 0.720925 -0.746985
								 L30.85 833.3 a0.717678 0.743621 -180 0 0 -0.720925 -0.743621 Z" class="st10"/>
				</g>
			</g>
		</g>
		<g id="group1477-29" transform="translate(32.8057,-751.875)" v:mID="1477" v:groupContext="group">
			<title>Sheet.1477</title>
			<g id="group1478-30" transform="translate(12.9512,-31.9928)" v:mID="1478" v:groupContext="group">
				<title>Sheet.1478</title>
				<g id="group1479-31" v:mID="1479" v:groupContext="group">
					<title>Sheet.1479</title>
					<g id="shape1480-32" v:mID="1480" v:groupContext="shape" transform="translate(8.14863,-36.7168)">
						<title>Sheet.1480</title>
						<path d="M20.92 847.6 L34.97 855.75 L44.77 850.05 A28.2614 28.4819 -180 0 0 -0 844.03 A32.2056 32.4568 0
									 0 1 20.92 847.6 Z" class="st12"/>
					</g>
					<g id="shape1481-36" v:mID="1481" v:groupContext="shape" transform="translate(36.05,-14.4127)">
						<title>Sheet.1481</title>
						<path d="M6.89 833.45 L6.67 852.99 L16.85 855.75 A28.2614 28.4819 -180 0 0 0 814.31 A33.5653 33.8271 0 0
									 1 6.89 833.45 Z" class="st8"/>
					</g>
					<g id="shape1482-38" v:mID="1482" v:groupContext="shape" transform="translate(28.2872,0)">
						<title>Sheet.1482</title>
						<path d="M14.63 835.89 L0 844.41 L0.23 855.75 A28.2872 28.5078 -180 0 0 28.4 827.24 A27.1042 27.3157 -180
									 0 0 27.47 820.47 A30.7719 31.012 0 0 1 14.63 835.89 Z" class="st13"/>
					</g>
					<g id="shape1483-40" v:mID="1483" v:groupContext="shape" transform="translate(3.9377,-0.186833)">
						<title>Sheet.1483</title>
						<path d="M24.35 844.6 L9.71 836.08 L0 841.95 A28.2229 28.443 -180 0 0 43.95 848.04 A31.8488 32.0972 0 0 1
									 24.35 844.6 Z" class="st14"/>
					</g>
					<g id="shape1484-44" v:mID="1484" v:groupContext="shape" transform="translate(0,-0.89411)">
						<title>Sheet.1484</title>
						<path d="M13.64 836.79 L13.86 816.58 L3.84 813.92 A28.1071 28.3264 -180 0 0 -0 828.21 A28.4382 28.6601 -180
									 0 0 21.01 855.75 A32.7585 33.014 0 0 1 13.64 836.79 Z" class="st8"/>
					</g>
					<g id="shape1485-46" v:mID="1485" v:groupContext="shape" transform="translate(2.79776E-13,-20.9144)">
						<title>Sheet.1485</title>
						<path d="M14.14 839.49 L28.29 831.25 A34.0057 34.271 -180 0 0 9.19 827.22 A28.1521 28.3718 -180 0 0 -0 848.23
									 A28.9718 29.1979 -180 0 0 1.01 855.75 A32.9481 33.2052 0 0 1 14.14 839.49 Z" class="st13"/>
					</g>
				</g>
				<g id="shape1486-48" v:mID="1486" v:groupContext="shape" transform="translate(13.6357,-11.3383)">
					<title>Sheet.1486</title>
					<path d="M29.28 847.23 L29.28 830.19 L14.64 821.67 L0 830.19 L0 847.23 L14.64 855.75 L29.28 847.23 Z"
							class="st15"/>
				</g>
				<g id="shape1487-50" v:mID="1487" v:groupContext="shape" transform="translate(13.6357,-11.3383)">
					<title>Sheet.1487</title>
					<path d="M14.66 838.89 L14.66 855.75 L0 847.23 L0 830.25 L14.66 838.89 Z" class="st16"/>
				</g>
				<g id="shape1488-54" v:mID="1488" v:groupContext="shape" transform="translate(28.2775,-11.3383)">
					<title>Sheet.1488</title>
					<path d="M0 838.89 L0 855.75 L14.66 847.23 L14.66 830.25 L0 838.89 Z" class="st17"/>
				</g>
			</g>
			<g id="shape1489-56" v:mID="1489" v:groupContext="shape">
				<title>Sheet.1489</title>
				<desc>Media Services account</desc>
				<v:textBlock v:margins="rect(4,4,4,4)"/>
				<v:textRect cx="41.2947" cy="839.754" width="82.59" height="31.9928"/>
				<rect x="0" y="823.757" width="82.5893" height="31.9928" class="st1"/>
				<text x="4.63" y="836.15" class="st5" v:langID="1033"><v:paragraph v:horizAlign="1"/><v:tabList/>Media Services<v:newlineChar/><tspan
							x="21.87" dy="1.2em" class="st6">account</tspan></text>			</g>
		</g>
		<g id="group1490-60" transform="translate(82.3057,-625.382)" v:mID="1490" v:groupContext="group">
			<title>Sheet.1490</title>
			<g id="group1491-61" transform="translate(15.0893,-32.2765)" v:mID="1491" v:groupContext="group">
				<title>Sheet.1491</title>
				<g id="group1492-62" v:mID="1492" v:groupContext="group">
					<title>Page-1</title>
					<g id="group1493-63" v:mID="1493" v:groupContext="group">
						<title>Sheet.1493</title>
						<g id="shape1494-64" v:mID="1494" v:groupContext="shape">
							<title>Sheet.1494</title>
							<path d="M0 822.87 L55.61 822.87 L55.61 853.88 A1.86463 1.86463 0 0 1 53.74 855.75 L1.86 855.75 A1.86463
										 1.86463 0 0 1 -0 853.88 L0 822.87 Z" class="st18"/>
						</g>
						<g id="shape1495-68" v:mID="1495" v:groupContext="shape" transform="translate(2.39808E-14,-32.8764)">
							<title>Sheet.1495</title>
							<path d="M1.86 843.91 L53.74 843.91 A1.86463 1.86463 0 0 1 55.61 845.77 L55.61 855.75 L0 855.75 L0 845.74
										 A1.86463 1.86463 0 0 1 1.86 843.91 Z" class="st19"/>
						</g>
						<g id="shape1496-70" v:mID="1496" v:groupContext="shape" transform="translate(6.70122,-22.9317)">
							<title>Sheet.1496</title>
							<path d="M0.85 849.4 L41.32 849.4 a0.883244 0.883244 0 0 1 0.850531 0.883244 L42.17 854.86 a0.883244
										 0.883244 0 0 1 -0.850531 0.883244 L0.85 855.75 a0.883244 0.883244 0 0 1 -0.850531 -0.883244
										 L0 850.28 a0.883244 0.883244 0 0 1 0.850531 -0.883244 L0.85 849.4 Z" class="st20"/>
						</g>
						<g id="shape1497-72" v:mID="1497" v:groupContext="shape" transform="translate(6.73393,-13.7721)">
							<title>Sheet.1497</title>
							<path d="M0.85 849.37 L41.32 849.37 a0.883244 0.883244 0 0 1 0.850531 0.883244 L42.17 854.86 a0.883244
										 0.883244 0 0 1 -0.850531 0.883244 L0.85 855.75 a0.883244 0.883244 0 0 1 -0.850531 -0.883244
										 L0 850.41 a0.883244 0.883244 0 0 1 0.850531 -1.04681 L0.85 849.37 Z" class="st19"/>
						</g>
						<g id="shape1498-74" v:mID="1498" v:groupContext="shape" transform="translate(6.73393,-4.54708)">
							<title>Sheet.1498</title>
							<path d="M0.85 849.37 L41.32 849.37 a0.883244 0.883244 0 0 1 0.850531 0.883244 L42.17 854.86 a0.883244
										 0.883244 0 0 1 -0.850531 0.883244 L0.85 855.75 a0.883244 0.883244 0 0 1 -0.850531 -0.883244
										 L0 850.25 a0.883244 0.883244 0 0 1 0.850531 -0.883244 L0.85 849.37 Z" class="st21"/>
						</g>
					</g>
				</g>
			</g>
			<g id="shape1499-76" v:mID="1499" v:groupContext="shape">
				<title>Sheet.1499</title>
				<desc>Storage account</desc>
				<v:textBlock v:margins="rect(4,4,4,4)"/>
				<v:textRect cx="41.2947" cy="839.754" width="82.59" height="31.9928"/>
				<rect x="0" y="823.757" width="82.5893" height="31.9928" class="st1"/>
				<text x="22.59" y="836.15" class="st5" v:langID="1033"><v:paragraph v:horizAlign="1"/><v:tabList/>Storage<v:newlineChar/><tspan
							x="21.87" dy="1.2em" class="st6">account</tspan></text>			</g>
		</g>
		<g id="group1510-80" transform="translate(231.763,-381.121)" v:mID="1510" v:groupContext="group">
			<title>Sheet.1510</title>
			<g id="group1511-81" transform="translate(12.8393,-31.4046)" v:mID="1511" v:groupContext="group">
				<title>MsPortalFx.base.images-61</title>
				<g id="group1512-82" v:mID="1512" v:groupContext="group">
					<title>Sheet.1512</title>
					<g id="group1513-83" v:mID="1513" v:groupContext="group">
						<title>Sheet.1513</title>
						<g id="shape1514-84" v:mID="1514" v:groupContext="shape" transform="translate(0.239682,-0.294777)">
							<title>Sheet.1514</title>
							<path d="M18.34 817.19 L1.34 817.19 A1.34175 1.31498 -180 0 0 0 818.51 L0 854.43 A1.34175 1.31498 -180
										 0 0 1.34 855.75 L30.8 855.75 A1.34175 1.31498 -180 0 0 32.15 854.43 L32.15 830.65 A1.34175
										 1.31498 -180 0 0 30.8 829.34 L21.03 829.34 A1.34175 1.31498 0 0 1 19.68 828.02 L19.68 818.51
										 A1.3441 1.31728 -180 0 0 18.34 817.19 Z" class="st10"/>
						</g>
						<g id="shape1515-86" v:mID="1515" v:groupContext="shape">
							<title>Sheet.1515</title>
							<path d="M17.96 818.57 L17.96 827.6 A3.37905 3.31163 -180 0 0 21.33 830.91 L30.61 830.91 L30.61 853.78
										 L2.01 853.78 L2.01 818.57 L17.96 818.57 ZM18.61 816.6 L1.36 816.6 A1.36525 1.33801 -180
										 0 0 0 817.94 L0 854.41 A1.36525 1.33801 -180 0 0 1.36 855.75 L31.26 855.75 A1.36525 1.33801
										 -180 0 0 32.63 854.41 L32.63 830.27 A1.3629 1.33571 -180 0 0 31.26 828.94 L21.34 828.94
										 A1.3629 1.33571 0 0 1 19.97 827.6 L19.97 817.94 A1.36525 1.33801 -180 0 0 18.61 816.6 Z"
									class="st22"/>
						</g>
						<g id="shape1516-90" v:mID="1516" v:groupContext="shape" transform="translate(19.5036,-26.5483)">
							<title>Sheet.1516</title>
							<path d="M12.6 855.75 L0 843.44 L0 853.47 A2.31223 2.2661 -180 0 0 2.3 855.75 L12.6 855.75 Z"
									class="st8"/>
						</g>
					</g>
					<g id="shape1517-92" v:mID="1517" v:groupContext="shape" transform="translate(6.06491,-19.5243)">
						<title>Sheet.1517</title>
						<path d="M0 847.02 L0 855.18 a0.669701 0.656339 -180 0 0 1.00103 0.568827 L8.29 851.67 a0.667351 0.654036
									 -180 0 0 7.10543E-15 -1.13765 L1 846.45 a0.669701 0.656339 -180 0 0 -1.00103 0.568827 Z"
								class="st23"/>
					</g>
					<g id="shape1518-94" v:mID="1518" v:groupContext="shape" transform="translate(5.94507,-14.0318)">
						<title>Sheet.1518</title>
						<path d="M0 854.73 A1.04335 1.02253 -180 0 0 1.04 855.75 L16.27 855.75 A1.04335 1.02253 -180 0 0 17.32 854.73
									 L17.32 854.49 A1.04335 1.02253 -180 0 0 16.27 853.47 L1.04 853.47 A1.04335 1.02253 -180 0 0
									 0 854.49 L0 854.73 Z" class="st13"/>
					</g>
					<g id="shape1519-96" v:mID="1519" v:groupContext="shape" transform="translate(5.94507,-9.95332)">
						<title>Sheet.1519</title>
						<path d="M0 854.73 A1.04335 1.02253 -180 0 0 1.04 855.75 L16.27 855.75 A1.04335 1.02253 -180 0 0 17.32 854.73
									 L17.32 854.49 A1.04335 1.02253 -180 0 0 16.27 853.47 L1.04 853.47 A1.04335 1.02253 -180 0 0
									 0 854.49 L0 854.73 Z" class="st13"/>
					</g>
					<g id="shape1520-98" v:mID="1520" v:groupContext="shape" transform="translate(5.94507,-5.8725)">
						<title>Sheet.1520</title>
						<path d="M0 854.73 A1.04335 1.02253 -180 0 0 1.04 855.75 L9.87 855.75 A1.04335 1.02253 -180 0 0 10.91 854.73
									 L10.91 854.49 A1.04335 1.02253 -180 0 0 9.87 853.47 L1.04 853.47 A1.04335 1.02253 -180 0 0 0
									 854.49 L0 854.73 Z" class="st13"/>
					</g>
				</g>
			</g>
			<g id="shape1521-100" v:mID="1521" v:groupContext="shape">
				<title>Sheet.1521</title>
				<desc>Media files</desc>
				<v:textBlock v:margins="rect(4,4,4,4)"/>
				<v:textRect cx="27.6319" cy="840.487" width="55.27" height="30.526"/>
				<rect x="0" y="825.224" width="55.2638" height="30.526" class="st1"/>
				<text x="12.11" y="836.89" class="st5" v:langID="1033"><v:paragraph v:horizAlign="1"/><v:tabList/>Media <tspan
							x="17.71" dy="1.2em" class="st6">files</tspan></text>			</g>
		</g>
		<g id="group1522-104" transform="translate(295.888,-379.262)" v:mID="1522" v:groupContext="group">
			<title>Sheet.1522</title>
			<g id="group1523-105" transform="translate(-4.00078,-33.263)" v:mID="1523" v:groupContext="group">
				<title>Sheet.1523</title>
				<g id="group1524-106" transform="translate(1.70077,0)" v:mID="1524" v:groupContext="group">
					<title>Sheet.1524</title>
					<g id="shape1525-107" v:mID="1525" v:groupContext="shape">
						<title>Sheet.1525</title>
						<path d="M0 816.6 L0 855.75 L30.61 855.75 L30.61 827.16 L19.6 816.6 L0 816.6 ZM19.91 818.28 L28.86 826.87
									 C28.87 826.87 28.87 826.87 28.86 826.88 C28.86 826.88 28.86 826.88 28.86 826.88 L19.9 826.88
									 L19.9 818.28 C19.9 818.28 19.9 818.28 19.9 818.28 C19.91 818.28 19.91 818.28 19.91 818.28 ZM1.02
									 854.77 L1.02 817.58 L18.88 817.58 L18.88 827.86 L29.59 827.86 L29.59 854.77 L1.02 854.77 Z"
								class="st24"/>
					</g>
				</g>
				<g id="shape1526-109" v:mID="1526" v:groupContext="shape" transform="translate(0,-7.79375)">
					<title>Sheet.1526</title>
					<desc>ISM</desc>
					<v:textBlock v:margins="rect(4,4,4,4)"/>
					<v:textRect cx="17.0077" cy="848.5" width="34.02" height="14.5"/>
					<rect x="0" y="841.25" width="34.0154" height="14.5" class="st25"/>
					<text x="7.33" y="852.1" class="st26" v:langID="1033"><v:paragraph v:horizAlign="1"/><v:tabList/>ISM</text>				</g>
			</g>
			<g id="shape1527-112" v:mID="1527" v:groupContext="shape" transform="translate(-4.99308,0)">
				<title>Sheet.1527</title>
				<desc>Manifest and other files needed for streaming</desc>
				<v:textBlock v:margins="rect(4,4,4,4)"/>
				<v:textRect cx="64.0017" cy="840.487" width="128.01" height="30.526"/>
				<rect x="0" y="825.224" width="128.003" height="30.526" class="st1"/>
				<text x="4" y="836.89" class="st5" v:langID="1033"><v:paragraph/><v:tabList/>Manifest and other files <tspan x="4"
							dy="1.2em" class="st6">needed for streaming</tspan></text>			</g>
		</g>
		<g id="shape1530-116" v:mID="1530" v:groupContext="shape" transform="translate(0.375,-0.375)">
			<title>Sheet.1530</title>
			<desc>Media Services VOD process using the Azure portal and GitHub</desc>
			<v:textBlock v:margins="rect(4,4,4,4)"/>
			<v:textRect cx="306" cy="840.487" width="612" height="30.526"/>
			<rect x="0" y="825.224" width="612" height="30.526" class="st27"/>
			<text x="138.34" y="844.09" class="st28" v:langID="1033"><v:paragraph v:horizAlign="1"/><v:tabList/>Media Services VOD process using the Azure portal and GitHub</text>		</g>
		<g id="group1541-119" transform="translate(222.493,-226.064)" v:mID="1541" v:groupContext="group">
			<title>Sheet.1541</title>
			<g id="shape1542-120" v:mID="1542" v:groupContext="shape" transform="translate(0,4.70228)">
				<title>Sheet.1542</title>
				<desc>Streaming Endpoint (started)</desc>
				<v:textBlock v:margins="rect(4,4,4,4)"/>
				<v:textRect cx="38.8819" cy="840.487" width="77.77" height="30.526"/>
				<rect x="0" y="825.224" width="77.7638" height="30.526" class="st1"/>
				<text x="14.02" y="829.69" class="st5" v:langID="1033"><v:paragraph v:horizAlign="1"/><v:tabList/>Streaming<v:newlineChar/><tspan
							x="16.79" dy="1.2em" class="st6">Endpoint<v:newlineChar/></tspan><tspan x="17.77" dy="1.2em"
							class="st6">(started)</tspan></text>			</g>
			<g id="group1543-125" transform="translate(14.5069,-32.1893)" v:mID="1543" v:groupContext="group">
				<title>Sheet.1543</title>
				<g id="shape1544-126" v:mID="1544" v:groupContext="shape" transform="translate(7.82716,-12.4942)">
					<title>path2</title>
					<rect x="0" y="833.21" width="3.86365" height="22.5405" class="st29"/>
				</g>
				<g id="shape1545-130" v:mID="1545" v:groupContext="shape" transform="translate(17.3293,-2.96493)">
					<title>path4</title>
					<path d="M3.74 845.79 L3.74 823.85 L0 823.85 L0 847.94 L13.42 855.75 L15.3 852.51 L3.74 845.79 Z" class="st30"/>
				</g>
				<g id="shape1546-134" v:mID="1546" v:groupContext="shape" transform="translate(30.4625,-18.0273)">
					<title>path6</title>
					<path d="M8.03 825.86 L8.03 847.8 L0 852.52 L1.88 855.75 L11.77 849.95 L11.77 825.86 L8.03 825.86 Z"
							class="st31"/>
				</g>
				<g id="shape1547-138" v:mID="1547" v:groupContext="shape" transform="translate(0,-30.6598)">
					<title>path8</title>
					<path d="M48.75 844.64 C48.7 842.01 47.71 839.48 45.97 837.51 C44.23 835.54 41.85 834.25 39.24 833.87 C39.13
								 830.2 37.57 826.72 34.91 824.19 C32.25 821.66 28.69 820.29 25.02 820.36 C22.06 820.33 19.15 821.22
								 16.71 822.91 C14.27 824.61 12.42 827.02 11.42 829.81 C8.29 830.23 5.42 831.76 3.33 834.12 C1.23
								 836.47 0.05 839.5 0 842.65 C0.04 844.41 0.44 846.15 1.15 847.75 C1.86 849.36 2.89 850.81 4.16 852.02
								 C5.44 853.24 6.94 854.18 8.58 854.82 C10.22 855.45 11.98 855.75 13.73 855.71 C14.14 855.71 14.55
								 855.71 14.94 855.65 L37.17 855.65 C37.37 855.65 37.57 855.62 37.76 855.56 C40.64 855.51 43.4 854.34
								 45.45 852.31 C47.49 850.27 48.68 847.52 48.75 844.64 Z" class="st32"/>
				</g>
				<g id="shape1548-142" v:mID="1548" v:groupContext="shape" transform="translate(4.89434,-9.72038)">
					<title>path10</title>
					<path d="M4.87 855.75 C7.55 855.75 9.73 853.57 9.73 850.88 C9.73 848.2 7.55 846.02 4.87 846.02 C2.18 846.02 0
								 848.2 0 850.88 C0 853.57 2.18 855.75 4.87 855.75 Z" class="st33"/>
				</g>
				<g id="shape1549-144" v:mID="1549" v:groupContext="shape" transform="translate(26.7235,0)">
					<title>path12</title>
					<path d="M4.87 855.75 C7.55 855.75 9.73 853.57 9.73 850.88 C9.73 848.2 7.55 846.02 4.87 846.02 C2.18 846.02 0
								 848.2 0 850.88 C0 853.57 2.18 855.75 4.87 855.75 Z" class="st33"/>
				</g>
				<g id="shape1550-146" v:mID="1550" v:groupContext="shape" transform="translate(26.2833,-14.7656)">
					<title>path14</title>
					<path d="M4.87 855.75 C7.55 855.75 9.73 853.57 9.73 850.88 C9.73 848.2 7.55 846.02 4.87 846.02 C2.18 846.02 0
								 848.2 0 850.88 C0 853.57 2.18 855.75 4.87 855.75 Z" class="st33"/>
				</g>
			</g>
		</g>
		<g id="group1551-148" transform="translate(279.375,-260.369)" v:mID="1551" v:groupContext="group">
			<title>Sheet.1551</title>
			<g id="shape1552-149" v:mID="1552" v:groupContext="shape">
				<title>Sheet.1552</title>
				<path d="M0 838.35 L13.5 847.05 L0 855.75 L0 838.35 Z" class="st34"/>
			</g>
		</g>
		<g id="shape1633-151" v:mID="1633" v:groupContext="shape" transform="translate(459.375,-47.9976)">
			<title>Sheet.1633</title>
			<rect x="0" y="744.15" width="116.507" height="111.6" class="st35"/>
		</g>
		<g id="group1553-153" transform="translate(24.1317,-533.535)" v:mID="1553" v:groupContext="group">
			<title>Sheet.1553</title>
			<g id="group1554-154" v:mID="1554" v:groupContext="group">
				<title>Page-1</title>
				<g id="group1555-155" v:mID="1555" v:groupContext="group">
					<title>Icon-identity-230</title>
					<g id="shape1556-156" v:mID="1556" v:groupContext="shape">
						<title>Sheet.1556</title>
						<path d="M22.31 855.75 A2.17207 2.17207 -180 0 0 24.48 853.57 a0.70405 0.70405 -180 0 0 -7.10543E-15 -0.255
									 C23.61 846.47 19.73 840.9 12.24 840.9 C4.75 840.9 0.77 845.62 0 853.33 A2.18705 2.18705 -180
									 0 0 1.96 855.75 L22.31 855.75 Z" class="st36"/>
					</g>
					<g id="shape1557-160" v:mID="1557" v:groupContext="shape" transform="translate(8.52345,-4.70364)">
						<title>Sheet.1557</title>
						<path d="M3.72 847.22 A6.8757 6.8757 0 0 1 0 846.13 L3.72 855.75 L7.37 846.19 A6.7858 6.7858 0 0 1 3.72 847.22
									 Z" class="st37"/>
					</g>
					<g id="shape1558-162" v:mID="1558" v:groupContext="shape" transform="translate(5.3927,-13.2436)">
						<title>Sheet.1558</title>
						<ellipse cx="6.8607" cy="848.889" rx="6.8607" ry="6.8607" class="st38"/>
					</g>
				</g>
			</g>
		</g>
		<g id="group1559-166" transform="translate(8.74308,-565.613)" v:mID="1559" v:groupContext="group">
			<title>Sheet.1559</title>
			<g id="group1560-167" transform="translate(8.176,-31.4046)" v:mID="1560" v:groupContext="group">
				<title>MsPortalFx.base.images-61</title>
				<g id="group1561-168" v:mID="1561" v:groupContext="group">
					<title>Sheet.1561</title>
					<g id="group1562-169" v:mID="1562" v:groupContext="group">
						<title>Sheet.1562</title>
						<g id="shape1563-170" v:mID="1563" v:groupContext="shape" transform="translate(0.239682,-0.294777)">
							<title>Sheet.1563</title>
							<path d="M18.34 817.19 L1.34 817.19 A1.34175 1.31498 -180 0 0 0 818.51 L0 854.43 A1.34175 1.31498 -180
										 0 0 1.34 855.75 L30.8 855.75 A1.34175 1.31498 -180 0 0 32.15 854.43 L32.15 830.65 A1.34175
										 1.31498 -180 0 0 30.8 829.34 L21.03 829.34 A1.34175 1.31498 0 0 1 19.68 828.02 L19.68 818.51
										 A1.3441 1.31728 -180 0 0 18.34 817.19 Z" class="st10"/>
						</g>
						<g id="shape1564-172" v:mID="1564" v:groupContext="shape">
							<title>Sheet.1564</title>
							<path d="M17.96 818.57 L17.96 827.6 A3.37905 3.31163 -180 0 0 21.33 830.91 L30.61 830.91 L30.61 853.78
										 L2.01 853.78 L2.01 818.57 L17.96 818.57 ZM18.61 816.6 L1.36 816.6 A1.36525 1.33801 -180
										 0 0 0 817.94 L0 854.41 A1.36525 1.33801 -180 0 0 1.36 855.75 L31.26 855.75 A1.36525 1.33801
										 -180 0 0 32.63 854.41 L32.63 830.27 A1.3629 1.33571 -180 0 0 31.26 828.94 L21.34 828.94
										 A1.3629 1.33571 0 0 1 19.97 827.6 L19.97 817.94 A1.36525 1.33801 -180 0 0 18.61 816.6 Z"
									class="st22"/>
						</g>
						<g id="shape1565-175" v:mID="1565" v:groupContext="shape" transform="translate(19.5036,-26.5483)">
							<title>Sheet.1565</title>
							<path d="M12.6 855.75 L0 843.44 L0 853.47 A2.31223 2.2661 -180 0 0 2.3 855.75 L12.6 855.75 Z"
									class="st8"/>
						</g>
					</g>
					<g id="shape1566-177" v:mID="1566" v:groupContext="shape" transform="translate(6.06491,-19.5243)">
						<title>Sheet.1566</title>
						<path d="M0 847.02 L0 855.18 a0.669701 0.656339 -180 0 0 1.00103 0.568827 L8.29 851.67 a0.667351 0.654036
									 -180 0 0 7.10543E-15 -1.13765 L1 846.45 a0.669701 0.656339 -180 0 0 -1.00103 0.568827 Z"
								class="st23"/>
					</g>
					<g id="shape1567-179" v:mID="1567" v:groupContext="shape" transform="translate(5.94507,-14.0318)">
						<title>Sheet.1567</title>
						<path d="M0 854.73 A1.04335 1.02253 -180 0 0 1.04 855.75 L16.27 855.75 A1.04335 1.02253 -180 0 0 17.32 854.73
									 L17.32 854.49 A1.04335 1.02253 -180 0 0 16.27 853.47 L1.04 853.47 A1.04335 1.02253 -180 0 0
									 0 854.49 L0 854.73 Z" class="st13"/>
					</g>
					<g id="shape1568-181" v:mID="1568" v:groupContext="shape" transform="translate(5.94507,-9.95332)">
						<title>Sheet.1568</title>
						<path d="M0 854.73 A1.04335 1.02253 -180 0 0 1.04 855.75 L16.27 855.75 A1.04335 1.02253 -180 0 0 17.32 854.73
									 L17.32 854.49 A1.04335 1.02253 -180 0 0 16.27 853.47 L1.04 853.47 A1.04335 1.02253 -180 0 0
									 0 854.49 L0 854.73 Z" class="st13"/>
					</g>
					<g id="shape1569-183" v:mID="1569" v:groupContext="shape" transform="translate(5.94507,-5.8725)">
						<title>Sheet.1569</title>
						<path d="M0 854.73 A1.04335 1.02253 -180 0 0 1.04 855.75 L9.87 855.75 A1.04335 1.02253 -180 0 0 10.91 854.73
									 L10.91 854.49 A1.04335 1.02253 -180 0 0 9.87 853.47 L1.04 853.47 A1.04335 1.02253 -180 0 0 0
									 854.49 L0 854.73 Z" class="st13"/>
					</g>
				</g>
			</g>
			<g id="shape1570-185" v:mID="1570" v:groupContext="shape">
				<title>Sheet.1570</title>
				<desc>Media files</desc>
				<v:textBlock v:margins="rect(4,4,4,4)"/>
				<v:textRect cx="24.4885" cy="840.487" width="48.98" height="30.526"/>
				<rect x="0" y="825.224" width="48.977" height="30.526" class="st1"/>
				<text x="8.97" y="836.89" class="st5" v:langID="1033"><v:paragraph v:horizAlign="1"/><v:tabList/>Media <tspan
							x="14.57" dy="1.2em" class="st6">files</tspan></text>			</g>
		</g>
		<g id="group1573-189" transform="translate(301.422,-724.106)" v:mID="1573" v:groupContext="group">
			<title>Sheet.1573</title>
			<g id="group1104-190" transform="translate(6.75,-16.4654)" v:mID="1104" v:groupContext="group">
				<title>Sheet.1104</title>
				<g id="shape1105-191" v:mID="1105" v:groupContext="shape">
					<title>Sheet.1105</title>
					<path d="M55.26 831.37 L55.26 825.19 L54.29 824.87 L47.46 822.59 L45.84 818.37 L49.41 811.21 L44.86 806.66 L43.89
								 806.99 L37.71 810.24 L33.48 808.61 L30.56 800.81 L24.38 800.81 L24.06 801.79 L21.78 808.29 L17.55
								 810.24 L10.4 806.66 L5.85 811.21 L6.18 812.19 L9.43 818.37 L7.8 822.59 L0 825.52 L0 831.69 L0.98
								 832.02 L7.8 834.29 L9.43 838.52 L5.85 845.67 L10.4 850.22 L11.38 849.9 L17.55 846.65 L21.78 848.27
								 L24.71 855.75 L30.88 855.75 L31.21 854.77 L33.48 847.95 L37.71 846.32 L44.86 849.9 L49.41 845.35
								 L49.09 844.7 L45.84 838.52 L47.46 834.29 L55.26 831.37 Z" class="st39"/>
				</g>
				<g id="shape1106-195" v:mID="1106" v:groupContext="shape" transform="translate(15.929,-17.0647)">
					<title>Sheet.1106</title>
					<path d="M22.43 837.38 L19.83 839.66 A9.46312 9.46312 0 0 1 18.85 853.31 A9.44686 9.44686 0 0 1 5.2 852.33 A9.45987
								 9.45987 0 0 1 5.2 839.66 L5.53 839.66 L7.48 841.28 L7.8 841.28 L7.8 840.96 L7.15 834.46 C7.15 834.13
								 6.83 834.13 6.5 834.13 L0.33 835.11 a0.325081 0.325081 -180 0 0 -0.325081 0.325081 L1.95 837.06
								 L1.95 837.38 A12.9252 12.9252 -180 1 0 21.78 853.96 A11.8005 11.8005 -180 0 0 22.43 837.38 Z"
							class="st10"/>
				</g>
			</g>
			<g id="shape1572-197" v:mID="1572" v:groupContext="shape">
				<title>Sheet.1572</title>
				<desc>Transform</desc>
				<v:textBlock v:margins="rect(4,4,4,4)"/>
				<v:textRect cx="34.3819" cy="847.048" width="68.77" height="17.4042"/>
				<rect x="0" y="838.346" width="68.7638" height="17.4042" class="st1"/>
				<text x="9.11" y="850.65" class="st5" v:langID="1033"><v:paragraph v:horizAlign="1"/><v:tabList/>Transform</text>			</g>
		</g>
		<g id="group1575-200" transform="translate(205.393,-711.499)" v:mID="1575" v:groupContext="group">
			<title>Sheet.1575</title>
			<g id="group1431-201" transform="translate(6.03697,-30.526)" v:mID="1431" v:groupContext="group">
				<title>Sheet.1431</title>
				<g id="group1407-202" v:mID="1407" v:groupContext="group">
					<title>Sheet.1407</title>
					<g id="shape1408-203" v:mID="1408" v:groupContext="shape">
						<title>Sheet.1408</title>
						<path d="M56.69 830.74 L56.69 824.4 L55.69 824.07 L48.69 821.74 L47.02 817.4 L50.69 810.06 L46.02 805.4 L45.02
									 805.73 L38.68 809.06 L34.35 807.4 L31.35 799.39 L25.01 799.39 L24.68 800.39 L22.34 807.06 L18.01
									 809.06 L10.67 805.4 L6 810.06 L6.34 811.07 L9.67 817.4 L8 821.74 L0 824.74 L0 831.07 L1 831.41
									 L8 833.74 L9.67 838.08 L6 845.41 L10.67 850.08 L11.67 849.75 L18.01 846.41 L22.34 848.08 L25.34
									 855.75 L31.68 855.75 L32.01 854.75 L34.35 847.75 L38.68 846.08 L46.02 849.75 L50.69 845.08 L50.35
									 844.41 L47.02 838.08 L48.69 833.74 L56.69 830.74 Z" class="st40"/>
					</g>
				</g>
				<g id="shape1415-207" v:mID="1415" v:groupContext="shape" transform="translate(23.604,-20.1766)">
					<title>Sheet.1415</title>
					<path d="M0 840.58 L0 854.76 A1.16369 1.14047 -180 0 0 1.74 855.75 L14.4 848.66 A1.1596 1.13647 -180 0 0 14.4
								 846.68 L1.74 839.59 A1.16369 1.14047 -180 0 0 -0 840.58 Z" class="st10"/>
				</g>
			</g>
			<g id="shape1574-209" v:mID="1574" v:groupContext="shape">
				<title>Sheet.1574</title>
				<desc>Encoding preset</desc>
				<v:textBlock v:margins="rect(4,4,4,4)"/>
				<v:textRect cx="34.3819" cy="840.487" width="68.77" height="30.526"/>
				<rect x="0" y="825.224" width="68.7638" height="30.526" class="st1"/>
				<text x="12.09" y="836.89" class="st5" v:langID="1033"><v:paragraph v:horizAlign="1"/><v:tabList/>Encoding <tspan
							x="18.81" dy="1.2em" class="st6">preset</tspan></text>			</g>
		</g>
		<g id="group1577-213" transform="translate(397.451,-724.106)" v:mID="1577" v:groupContext="group">
			<title>Sheet.1577</title>
			<g id="group1430-214" transform="translate(0,-17.1483)" v:mID="1430" v:groupContext="group">
				<title>Sheet.1430</title>
				<g id="group1016-215" v:mID="1016" v:groupContext="group">
					<title>Sheet.1016</title>
					<g id="shape1017-216" v:mID="1017" v:groupContext="shape">
						<title>Sheet.1017</title>
						<path d="M2.01 803.25 L46.97 803.25 C48.1 803.25 48.98 804.13 48.98 805.25 L48.98 853.74 C48.98 854.87 48.1
									 855.75 46.97 855.75 L2.01 855.75 C0.88 855.75 0 854.87 0 853.74 L0 805.25 C0 804.13 0.88 803.25
									 2.01 803.25 Z" class="st41"/>
					</g>
					<g id="shape1018-220" v:mID="1018" v:groupContext="shape" transform="translate(2.9876,-3.23248)">
						<title>Sheet.1018</title>
						<path d="M2.01 809.66 L40.99 809.66 C42.12 809.66 43 810.54 43 811.67 L43 853.74 C43 854.87 42.12 855.75
									 40.99 855.75 L2.01 855.75 C0.88 855.75 0 854.87 0 853.74 L0 811.67 C0 810.54 0.88 809.66 2.01
									 809.66 Z" class="st42"/>
					</g>
					<g id="shape1019-222" v:mID="1019" v:groupContext="shape" transform="translate(11.5096,-47.4587)">
						<title>Sheet.1019</title>
						<path d="M16.8 847.08 C16.8 844.98 15.08 843.21 12.93 843.21 C10.77 843.21 9.06 844.93 9.06 847.08 L2.01
									 847.08 C0.88 847.08 0 847.96 0 849.09 L0 855.75 L26.01 855.75 L26.01 849.04 C26.01 847.91 25.13
									 847.03 24 847.03 C23.95 847.08 16.8 847.08 16.8 847.08 ZM12.44 845.22 C13.47 844.93 14.55 845.51
									 14.84 846.54 C14.84 846.54 14.84 846.54 14.84 846.54 C14.89 846.69 14.94 846.89 14.89 847.08
									 L14.84 847.08 C14.84 848.16 14.01 848.99 12.93 848.99 C12.69 848.99 12.44 848.94 12.2 848.84
									 C11.31 848.45 10.82 847.47 11.12 846.54 C11.26 845.91 11.75 845.37 12.44 845.22 Z"
								class="st41"/>
					</g>
				</g>
				<g id="shape1413-225" v:mID="1413" v:groupContext="shape" transform="translate(9.47169,-9.90659)">
					<title>Sheet.1413</title>
					<path d="M30.03 842.5 L30.03 839.14 L29.5 838.97 L25.79 837.73 L24.91 835.43 L26.85 831.55 L24.38 829.07 L23.85
								 829.25 L20.49 831.02 L18.2 830.13 L16.61 825.89 L13.25 825.89 L13.07 826.42 L11.84 829.96 L9.54
								 831.02 L5.65 829.07 L3.18 831.55 L3.36 832.08 L5.12 835.43 L4.24 837.73 L0 839.32 L0 842.68 L0.53
								 842.85 L4.24 844.09 L5.12 846.39 L3.18 850.27 L5.65 852.75 L6.18 852.57 L9.54 850.8 L11.84 851.69
								 L13.43 855.75 L16.78 855.75 L16.96 855.22 L18.2 851.51 L20.49 850.63 L24.38 852.57 L26.85 850.1
								 L26.68 849.74 L24.91 846.39 L25.79 844.09 L30.03 842.5 Z" class="st39"/>
				</g>
				<g id="shape1414-228" v:mID="1414" v:groupContext="shape" transform="translate(18.1284,-19.1806)">
					<title>Sheet.1414</title>
					<path d="M12.19 845.77 L10.78 847 A5.14282 5.14282 0 0 1 10.25 854.42 A5.13399 5.13399 0 0 1 2.83 853.89 A5.14105
								 5.14105 0 0 1 2.83 847 L3 847 L4.06 847.89 L4.24 847.89 L4.24 847.71 L3.89 844.18 C3.89 844 3.71
								 844 3.53 844 L0.18 844.53 a0.176668 0.176668 -180 0 0 -0.176668 0.176668 L1.06 845.59 L1.06 845.77
								 A7.02434 7.02434 -180 1 0 11.84 854.78 A6.41307 6.41307 -180 0 0 12.19 845.77 Z" class="st10"/>
				</g>
			</g>
			<g id="shape1576-230" v:mID="1576" v:groupContext="shape" transform="translate(0.804534,1.13687E-13)">
				<title>Sheet.1576</title>
				<desc>Job</desc>
				<v:textBlock v:margins="rect(4,4,4,4)"/>
				<v:textRect cx="23.684" cy="847.048" width="47.37" height="17.4042"/>
				<rect x="0" y="838.346" width="47.368" height="17.4042" class="st1"/>
				<text x="15.45" y="850.65" class="st5" v:langID="1033"><v:paragraph v:horizAlign="1"/><v:tabList/>Job</text>			</g>
		</g>
		<g id="group1578-233" transform="translate(316.406,-499.199)" v:mID="1578" v:groupContext="group">
			<title>Sheet.1578</title>
			<g id="shape1579-234" v:mID="1579" v:groupContext="shape">
				<title>Sheet.1579</title>
				<path d="M9 837.75 C4.03 837.75 0 841.78 0 846.75 C0 851.72 4.03 855.75 9 855.75 C13.97 855.75 18 851.72 18 846.75
							 C18 846.75 18 846.75 18 846.75 C18 841.78 13.97 837.75 9.01 837.75 C9 837.75 9 837.75 9 837.75 ZM11.71
							 848.97 C11.59 849.29 11.4 849.59 11.16 849.84 C10.92 850.08 10.62 850.27 10.3 850.4 C9.93 850.54 9.54
							 850.6 9.15 850.6 C8.68 850.61 8.21 850.51 7.79 850.28 C7.43 850.08 7.12 849.8 6.89 849.46 C6.65 849.11
							 6.49 848.73 6.39 848.32 C6.29 847.9 6.24 847.47 6.24 847.03 C6.24 846.67 6.27 846.3 6.34 845.94 C6.4
							 845.58 6.5 845.22 6.63 844.88 C6.76 844.54 6.93 844.22 7.13 843.92 C7.33 843.63 7.57 843.37 7.84 843.14
							 C8.12 842.92 8.43 842.74 8.77 842.62 C9.14 842.49 9.53 842.43 9.93 842.43 C10.44 842.41 10.95 842.5
							 11.42 842.68 L11.42 843.77 C10.96 843.54 10.46 843.42 9.95 843.42 C9.55 843.41 9.16 843.5 8.81 843.7
							 C8.5 843.88 8.24 844.12 8.05 844.41 C7.85 844.72 7.7 845.06 7.62 845.42 C7.53 845.79 7.49 846.18 7.49
							 846.56 L7.51 846.56 C7.61 846.4 7.72 846.25 7.84 846.11 C7.97 845.98 8.11 845.86 8.27 845.76 C8.43 845.65
							 8.61 845.57 8.8 845.52 C8.99 845.46 9.2 845.43 9.4 845.43 C9.75 845.42 10.1 845.49 10.42 845.61 C10.71
							 845.73 10.98 845.9 11.21 846.12 C11.43 846.35 11.61 846.61 11.72 846.9 C11.84 847.21 11.91 847.54 11.9
							 847.87 C11.91 848.24 11.84 848.62 11.71 848.97 Z" class="st43"/>
			</g>
			<g id="shape1580-236" v:mID="1580" v:groupContext="shape" transform="translate(7.5314,-6.13829)">
				<title>Sheet.1580</title>
				<path d="M2.68 852.94 C2.54 852.81 2.37 852.72 2.19 852.66 C2.02 852.6 1.83 852.57 1.64 852.57 C1.44 852.57 1.24
							 852.6 1.05 852.68 C0.86 852.75 0.68 852.85 0.53 852.99 C0.37 853.13 0.24 853.3 0.15 853.49 C0.05 853.69
							 0 853.91 0 854.14 C0 854.35 0.04 854.55 0.11 854.75 C0.18 854.94 0.29 855.11 0.43 855.26 C0.58 855.41
							 0.75 855.53 0.95 855.62 C1.17 855.71 1.42 855.75 1.66 855.74 C1.88 855.75 2.11 855.7 2.31 855.6 C2.49
							 855.51 2.65 855.39 2.78 855.23 C2.9 855.08 3 854.9 3.06 854.72 C3.12 854.53 3.15 854.33 3.15 854.13
							 C3.16 853.89 3.11 853.65 3.02 853.43 C2.94 853.24 2.83 853.08 2.68 852.94 Z" class="st43"/>
			</g>
		</g>
		<g id="group1581-238" transform="translate(181.081,-106.077)" v:mID="1581" v:groupContext="group">
			<title>Sheet.1581</title>
			<g id="shape1582-239" v:mID="1582" v:groupContext="shape">
				<title>Sheet.1582</title>
				<path d="M9 837.75 C4.03 837.75 0 841.78 0 846.75 C0 851.72 4.03 855.75 9 855.75 C13.97 855.75 18 851.72 18 846.75
							 C18 841.78 13.97 837.75 9.01 837.75 C9 837.75 9 837.75 9 837.75 ZM6.91 850.57 L5.54 850.57 L5.54 844.03
							 C5.42 844.11 5.3 844.19 5.17 844.26 C5.04 844.33 4.91 844.4 4.77 844.46 C4.63 844.52 4.47 844.57 4.31
							 844.62 C4.15 844.67 3.97 844.72 3.77 844.76 L3.77 843.67 C3.91 843.63 4.02 843.6 4.13 843.56 C4.24 843.52
							 4.35 843.49 4.45 843.45 C4.56 843.41 4.66 843.37 4.77 843.32 C4.87 843.28 4.98 843.23 5.08 843.19 C5.18
							 843.14 5.28 843.09 5.38 843.03 C5.49 842.98 5.59 842.93 5.69 842.87 C5.8 842.81 5.91 842.75 6.01 842.68
							 C6.12 842.61 6.23 842.55 6.34 842.49 L6.91 842.49 L6.91 850.57 ZM14.03 848.35 C13.93 848.82 13.73 849.26
							 13.45 849.65 C12.96 850.34 12.15 850.74 11.3 850.71 C10.89 850.71 10.49 850.63 10.13 850.45 C9.78 850.27
							 9.48 850.01 9.25 849.7 C8.76 849.03 8.52 848.06 8.52 846.77 C8.51 846.15 8.57 845.53 8.71 844.92 C8.81
							 844.44 9.01 843.99 9.28 843.58 C9.78 842.87 10.61 842.47 11.48 842.51 C13.3 842.51 14.22 843.87 14.22
							 846.58 C14.22 847.18 14.16 847.77 14.03 848.35 Z" class="st43"/>
			</g>
			<g id="shape1583-241" v:mID="1583" v:groupContext="shape" transform="translate(9.89683,-6.06243)">
				<title>Sheet.1583</title>
				<path d="M1.52 849.61 C0.51 849.61 0 850.66 0 852.78 C0 853.77 0.12 854.51 0.37 855.01 C0.56 855.46 1 855.75 1.49
							 855.75 C2.46 855.75 2.94 854.74 2.94 852.73 C2.94 851.68 2.83 850.89 2.6 850.38 C2.37 849.86 2.01 849.61
							 1.52 849.61 Z" class="st43"/>
			</g>
		</g>
		<g id="group1584-243" transform="translate(207.375,-266.22)" v:mID="1584" v:groupContext="group">
			<title>Sheet.1584</title>
			<g id="shape1585-244" v:mID="1585" v:groupContext="shape" transform="translate(7.47804,-9.14684)">
				<title>Sheet.1585</title>
				<path d="M2.73 853.05 C2.58 852.9 2.4 852.78 2.21 852.7 C1.98 852.61 1.74 852.56 1.5 852.57 C1.27 852.56 1.05 852.61
							 0.84 852.71 C0.66 852.8 0.51 852.93 0.38 853.08 C0.26 853.23 0.16 853.41 0.1 853.6 C0.04 853.79 0.01
							 853.98 0.01 854.18 C0 854.42 0.04 854.66 0.14 854.89 C0.21 855.07 0.33 855.24 0.48 855.38 C0.62 855.5
							 0.78 855.6 0.96 855.66 C1.14 855.72 1.33 855.75 1.52 855.75 C1.72 855.75 1.92 855.71 2.11 855.64 C2.3
							 855.57 2.48 855.46 2.63 855.33 C2.79 855.19 2.91 855.02 3.01 854.83 C3.11 854.63 3.16 854.4 3.15 854.18
							 C3.15 853.97 3.12 853.76 3.05 853.57 C2.98 853.38 2.87 853.2 2.73 853.05 Z" class="st43"/>
			</g>
			<g id="shape1586-246" v:mID="1586" v:groupContext="shape">
				<title>Sheet.1586</title>
				<path d="M9 837.75 C4.03 837.75 0 841.78 0 846.75 C0 851.72 4.03 855.75 9 855.75 C13.97 855.75 18 851.72 18 846.75
							 C18 846.75 18 846.75 18 846.75 C18 841.78 13.97 837.75 9.01 837.75 C9 837.75 9 837.75 9 837.75 ZM11.83
							 847.09 C11.77 847.45 11.67 847.81 11.54 848.15 C11.41 848.49 11.24 848.81 11.04 849.11 C10.84 849.4
							 10.6 849.66 10.32 849.89 C10.05 850.11 9.73 850.29 9.4 850.41 C9.02 850.54 8.63 850.61 8.24 850.6 C7.73
							 850.62 7.22 850.53 6.74 850.35 L6.74 849.26 C7.2 849.49 7.71 849.61 8.22 849.61 C8.61 849.62 9.01 849.52
							 9.36 849.33 C9.66 849.16 9.92 848.91 10.12 848.62 C10.32 848.31 10.46 847.97 10.54 847.61 C10.63 847.24
							 10.68 846.85 10.68 846.47 L10.65 846.47 C10.56 846.63 10.45 846.78 10.32 846.92 C10.2 847.05 10.05 847.17
							 9.9 847.27 C9.73 847.38 9.56 847.46 9.37 847.51 C9.18 847.57 8.97 847.6 8.77 847.6 C8.42 847.61 8.07
							 847.54 7.75 847.42 C7.45 847.3 7.18 847.13 6.96 846.9 C6.74 846.68 6.56 846.42 6.45 846.13 C6.32 845.82
							 6.26 845.49 6.26 845.16 C6.26 844.79 6.33 844.41 6.46 844.06 C6.58 843.74 6.76 843.44 7 843.19 C7.25
							 842.95 7.54 842.76 7.87 842.63 C8.24 842.49 8.63 842.43 9.02 842.43 C9.49 842.42 9.96 842.53 10.38 842.75
							 C10.74 842.95 11.05 843.23 11.28 843.57 C11.51 843.92 11.68 844.3 11.78 844.71 C11.88 845.13 11.93 845.56
							 11.93 846 C11.93 846.36 11.9 846.73 11.83 847.09 Z" class="st43"/>
			</g>
		</g>
		<g id="group1587-248" transform="translate(419.415,-106.077)" v:mID="1587" v:groupContext="group">
			<title>Sheet.1587</title>
			<g id="shape1588-249" v:mID="1588" v:groupContext="shape" transform="translate(7.5353,-6.09468)">
				<title>Sheet.1588</title>
				<path d="M2.63 853.29 C2.5 853.16 2.33 853.06 2.16 852.99 C1.96 852.91 1.75 852.87 1.54 852.88 C1.32 852.87 1.11
							 852.91 0.91 852.99 C0.74 853.06 0.57 853.16 0.43 853.29 C0.3 853.41 0.2 853.56 0.13 853.72 C0.06 853.89
							 0.02 854.07 0.02 854.25 C0 854.64 0.14 855.02 0.4 855.31 C0.71 855.6 1.12 855.75 1.54 855.73 L1.55 855.73
							 C1.75 855.74 1.95 855.7 2.14 855.63 C2.32 855.56 2.48 855.46 2.62 855.32 C2.76 855.19 2.86 855.03 2.94
							 854.85 C3.01 854.66 3.05 854.45 3.05 854.25 C3.05 854.07 3.01 853.89 2.94 853.72 C2.87 853.56 2.77 853.41
							 2.63 853.29 Z" class="st43"/>
			</g>
			<g id="shape1589-251" v:mID="1589" v:groupContext="shape" transform="translate(7.88281,-10.0509)">
				<title>Sheet.1589</title>
				<path d="M0.35 855.41 C0.57 855.63 0.88 855.75 1.19 855.75 C1.34 855.75 1.5 855.72 1.64 855.66 C1.78 855.6 1.91 855.52
							 2.02 855.41 C2.13 855.31 2.21 855.19 2.28 855.05 C2.34 854.92 2.37 854.77 2.37 854.61 C2.37 854.45 2.34
							 854.29 2.28 854.15 C2.21 854.01 2.13 853.89 2.02 853.78 C1.91 853.68 1.78 853.6 1.65 853.55 C1.5 853.49
							 1.35 853.46 1.19 853.46 C1.03 853.46 0.87 853.49 0.72 853.55 C0.58 853.61 0.45 853.69 0.34 853.79 C0.23
							 853.9 0.15 854.02 0.09 854.16 C0.03 854.3 0 854.46 0 854.61 C0 854.77 0.03 854.92 0.1 855.05 C0.16 855.19
							 0.24 855.31 0.35 855.41 Z" class="st43"/>
			</g>
			<g id="shape1590-253" v:mID="1590" v:groupContext="shape">
				<title>Sheet.1590</title>
				<path d="M9 837.75 C4.03 837.75 0 841.78 0 846.75 C0 851.72 4.03 855.75 9 855.75 C13.97 855.75 18 851.72 18 846.75
							 C18 846.75 18 846.75 18 846.75 C18 841.78 13.97 837.75 9.01 837.75 C9 837.75 9 837.75 9 837.75 ZM11.62
							 849.31 C11.47 849.59 11.26 849.84 11.01 850.04 C10.74 850.24 10.43 850.4 10.11 850.5 C9.76 850.61 9.39
							 850.66 9.03 850.66 C8.67 850.66 8.32 850.61 7.98 850.52 C7.66 850.43 7.36 850.28 7.1 850.07 C6.55 849.66
							 6.24 849 6.26 848.31 C6.26 848.08 6.3 847.85 6.37 847.63 C6.45 847.41 6.55 847.21 6.69 847.02 C6.83
							 846.83 6.99 846.67 7.18 846.53 C7.38 846.39 7.59 846.27 7.82 846.19 C7.47 846.03 7.17 845.77 6.95 845.46
							 C6.74 845.16 6.63 844.8 6.63 844.43 C6.63 844.14 6.69 843.86 6.82 843.6 C6.95 843.35 7.12 843.13 7.34
							 842.96 C7.57 842.78 7.83 842.64 8.11 842.55 C8.42 842.45 8.74 842.4 9.06 842.4 C9.37 842.4 9.68 842.45
							 9.98 842.55 C10.26 842.64 10.52 842.78 10.75 842.96 C10.97 843.13 11.14 843.35 11.27 843.6 C11.4 843.86
							 11.47 844.15 11.46 844.45 C11.46 844.79 11.37 845.13 11.18 845.42 C10.96 845.75 10.65 846.02 10.29 846.19
							 C10.55 846.28 10.78 846.4 11 846.57 C11.18 846.72 11.35 846.89 11.48 847.09 C11.6 847.28 11.7 847.49
							 11.76 847.7 C11.82 847.92 11.85 848.13 11.85 848.36 C11.85 848.69 11.78 849.01 11.62 849.31 Z"
						class="st43"/>
			</g>
		</g>
		<g id="group1591-255" transform="translate(138.636,-565.613)" v:mID="1591" v:groupContext="group">
			<title>Sheet.1591</title>
			<g id="shape1592-256" v:mID="1592" v:groupContext="shape">
				<title>Sheet.1592</title>
				<path d="M9 837.75 C4.03 837.75 0 841.78 0 846.75 C0 851.72 4.03 855.75 9 855.75 C13.97 855.75 18 851.72 18 846.75
							 C18 846.75 18 846.75 18 846.75 C18 841.78 13.97 837.75 9.01 837.75 C9 837.75 9 837.75 9 837.75 ZM11.57
							 850.79 L6.43 850.79 L6.43 850.03 C6.42 849.71 6.48 849.4 6.6 849.11 C6.72 848.83 6.88 848.57 7.08 848.35
							 C7.29 848.11 7.52 847.89 7.78 847.7 C8.05 847.5 8.34 847.31 8.65 847.12 C8.9 846.97 9.15 846.79 9.38
							 846.59 C9.55 846.45 9.71 846.28 9.84 846.09 C9.94 845.94 10.02 845.77 10.07 845.58 C10.11 845.4 10.13
							 845.21 10.13 845.02 C10.13 844.85 10.11 844.69 10.05 844.53 C10 844.38 9.93 844.24 9.82 844.12 C9.71
							 843.99 9.58 843.9 9.43 843.83 C9.25 843.76 9.06 843.72 8.87 843.73 C8.5 843.72 8.14 843.81 7.8 843.98
							 C7.45 844.16 7.13 844.38 6.85 844.65 L6.85 843.43 C7.12 843.17 7.45 842.98 7.81 842.88 C8.19 842.76
							 8.59 842.71 8.99 842.71 C9.31 842.71 9.63 842.76 9.94 842.85 C10.22 842.94 10.48 843.08 10.71 843.27
							 C10.93 843.45 11.11 843.68 11.23 843.94 C11.36 844.23 11.42 844.55 11.42 844.87 C11.42 845.15 11.39
							 845.44 11.32 845.72 C11.25 845.98 11.14 846.22 10.99 846.45 C10.83 846.7 10.63 846.92 10.41 847.12 C10.13
							 847.36 9.84 847.58 9.53 847.77 C9.24 847.95 8.99 848.12 8.77 848.27 C8.57 848.4 8.38 848.55 8.21 848.72
							 C8.07 848.85 7.95 849.01 7.86 849.18 C7.78 849.35 7.74 849.53 7.74 849.72 L11.57 849.72 L11.57 850.79
							 Z" class="st43"/>
			</g>
		</g>
		<g id="group1593-258" transform="translate(189.375,-723.808)" v:mID="1593" v:groupContext="group">
			<title>Sheet.1593</title>
			<g id="shape1594-259" v:mID="1594" v:groupContext="shape">
				<title>Sheet.1594</title>
				<path d="M9 837.75 C4.03 837.75 0 841.78 0 846.75 C0 851.72 4.03 855.75 9 855.75 C13.97 855.75 18 851.72 18 846.75
							 C18 846.75 18 846.75 18 846.75 C18 841.78 13.97 837.75 9.01 837.75 C9 837.75 9 837.75 9 837.75 ZM11.38
							 849.49 C11.21 849.78 10.98 850.03 10.71 850.23 C10.41 850.43 10.07 850.59 9.72 850.68 C9.33 850.78 8.94
							 850.83 8.54 850.83 C8.13 850.83 7.73 850.8 7.33 850.73 C7 850.67 6.68 850.57 6.38 850.41 L6.38 849.2
							 C6.7 849.42 7.05 849.58 7.42 849.68 C7.8 849.78 8.19 849.83 8.57 849.83 C8.76 849.83 8.95 849.81 9.13
							 849.78 C9.33 849.74 9.52 849.67 9.69 849.58 C9.86 849.48 10 849.34 10.11 849.18 C10.23 848.99 10.29
							 848.77 10.28 848.54 C10.29 848.31 10.23 848.09 10.12 847.89 C10.01 847.7 9.86 847.55 9.67 847.45 C9.46
							 847.33 9.23 847.24 9 847.2 C8.72 847.14 8.43 847.12 8.15 847.12 L7.42 847.12 L7.42 846.11 L8.11 846.11
							 C8.36 846.11 8.62 846.09 8.86 846.04 C9.07 846 9.27 845.92 9.45 845.81 C9.61 845.71 9.75 845.56 9.84
							 845.4 C9.94 845.21 9.98 844.99 9.98 844.78 C9.98 844.59 9.94 844.4 9.85 844.23 C9.77 844.09 9.65 843.97
							 9.51 843.89 C9.38 843.81 9.23 843.75 9.08 843.72 C8.93 843.69 8.77 843.67 8.62 843.67 C8.29 843.67 7.96
							 843.72 7.65 843.81 C7.32 843.9 7 844.05 6.72 844.24 L6.72 843.12 C7.01 842.97 7.33 842.85 7.65 842.78
							 C8.01 842.7 8.37 842.66 8.73 842.67 C9.06 842.67 9.38 842.7 9.7 842.78 C9.99 842.85 10.27 842.97 10.53
							 843.13 C10.76 843.28 10.96 843.49 11.11 843.73 C11.25 843.99 11.33 844.29 11.32 844.59 C11.34 845.06
							 11.18 845.52 10.87 845.88 C10.54 846.23 10.1 846.47 9.63 846.56 C9.89 846.59 10.14 846.65 10.38 846.75
							 C10.61 846.85 10.83 846.98 11.02 847.15 C11.2 847.31 11.35 847.51 11.46 847.73 C11.57 847.96 11.63 848.21
							 11.63 848.47 C11.64 848.82 11.55 849.17 11.38 849.49 Z" class="st43"/>
			</g>
		</g>
		<g id="group1595-261" transform="translate(27.375,-504.375)" v:mID="1595" v:groupContext="group">
			<title>Sheet.1595</title>
			<g id="shape1596-262" v:mID="1596" v:groupContext="shape">
				<title>Sheet.1596</title>
				<path d="M9 837.75 C4.03 837.75 0 841.78 0 846.75 C0 851.72 4.03 855.75 9 855.75 C13.97 855.75 18 851.72 18 846.75
							 C18 846.75 18 846.75 18 846.75 C18 841.78 13.97 837.75 9.01 837.75 C9 837.75 9 837.75 9 837.75 ZM9.99
							 850.57 L8.62 850.57 L8.62 844.03 C8.5 844.11 8.38 844.19 8.25 844.26 C8.12 844.33 7.99 844.4 7.85 844.46
							 C7.71 844.51 7.55 844.57 7.39 844.62 C7.23 844.67 7.05 844.72 6.85 844.76 L6.85 843.67 C6.99 843.63
							 7.11 843.6 7.21 843.56 C7.32 843.52 7.43 843.49 7.53 843.45 C7.64 843.41 7.74 843.36 7.85 843.32 C7.95
							 843.28 8.06 843.23 8.16 843.19 C8.26 843.14 8.36 843.09 8.46 843.03 C8.57 842.98 8.67 842.92 8.77 842.87
							 C8.88 842.81 8.99 842.75 9.09 842.68 C9.2 842.61 9.31 842.55 9.42 842.49 L9.99 842.49 L9.99 850.57 Z"
						class="st44"/>
			</g>
		</g>
		<g id="group1597-264" transform="translate(468.375,-369.375)" v:mID="1597" v:groupContext="group">
			<title>Sheet.1597</title>
			<g id="shape1598-265" v:mID="1598" v:groupContext="shape">
				<title>Sheet.1598</title>
				<path d="M9 837.75 C4.03 837.75 0 841.78 0 846.75 C0 851.72 4.03 855.75 9 855.75 C13.97 855.75 18 851.72 18 846.75
							 C18 846.75 18 846.75 18 846.75 C18 841.78 13.97 837.75 9.01 837.75 C9 837.75 9 837.75 9 837.75 ZM12.16
							 843.47 C11.8 844.09 11.46 844.7 11.13 845.3 C10.79 845.9 10.49 846.5 10.22 847.1 C9.96 847.68 9.72 848.28
							 9.52 848.9 C9.32 849.49 9.17 850.1 9.06 850.72 L7.73 850.72 C7.82 850.11 7.97 849.51 8.16 848.93 C8.36
							 848.34 8.59 847.76 8.86 847.2 C9.12 846.62 9.41 846.05 9.73 845.47 C10.05 844.9 10.37 844.32 10.71 843.73
							 L6.38 843.73 L6.38 842.64 L12.16 842.64 L12.16 843.47 Z" class="st43"/>
			</g>
		</g>
		<g id="group1599-267" transform="translate(378.375,-723.808)" v:mID="1599" v:groupContext="group">
			<title>Sheet.1599</title>
			<g id="shape1600-268" v:mID="1600" v:groupContext="shape">
				<title>Sheet.1600</title>
				<path d="M9 837.75 C4.03 837.75 0 841.78 0 846.75 C0 851.72 4.03 855.75 9 855.75 C13.97 855.75 18 851.72 18 846.75
							 C18 841.78 13.97 837.75 9.01 837.75 C9 837.75 9 837.75 9 837.75 ZM11.66 849.23 C11.48 849.55 11.22 849.82
							 10.92 850.02 C10.6 850.23 10.24 850.39 9.86 850.48 C9.46 850.57 9.04 850.62 8.62 850.62 C7.75 850.62
							 7.11 850.51 6.68 850.29 L6.68 849.1 C7.28 849.44 7.95 849.62 8.64 849.62 C8.9 849.63 9.17 849.59 9.42
							 849.53 C9.65 849.47 9.86 849.38 10.05 849.24 C10.41 848.99 10.62 848.57 10.61 848.13 C10.62 847.9 10.56
							 847.68 10.43 847.49 C10.31 847.31 10.15 847.16 9.96 847.05 C9.75 846.93 9.52 846.84 9.27 846.8 C9 846.74
							 8.72 846.72 8.45 846.72 C8.18 846.72 7.69 846.74 6.98 846.79 L7.37 842.59 L11.52 842.59 L11.52 843.64
							 L8.54 843.64 L8.34 845.72 C8.41 845.72 8.46 845.71 8.49 845.71 C8.53 845.71 8.55 845.7 8.58 845.7 C8.6
							 845.7 8.63 845.7 8.65 845.7 L8.78 845.7 C9.19 845.7 9.59 845.74 9.98 845.83 C10.34 845.9 10.68 846.04
							 10.99 846.24 C11.27 846.43 11.51 846.68 11.68 846.98 C11.86 847.31 11.95 847.69 11.94 848.07 C11.95
							 848.48 11.86 848.88 11.66 849.23 Z" class="st43"/>
			</g>
		</g>
		<g id="group1601-270" transform="translate(283.875,-723.808)" v:mID="1601" v:groupContext="group">
			<title>Sheet.1601</title>
			<g id="shape1602-271" v:mID="1602" v:groupContext="shape" transform="translate(6.94425,-8.05806)">
				<title>Sheet.1602</title>
				<path d="M1.1 854.34 C0.92 854.6 0.74 854.85 0.56 855.07 C0.38 855.3 0.19 855.52 0 855.75 L2.36 855.75 L2.36 852.3
							 C2.11 852.74 1.89 853.12 1.68 853.45 C1.48 853.78 1.29 854.07 1.1 854.34 Z" class="st43"/>
			</g>
			<g id="shape1603-273" v:mID="1603" v:groupContext="shape">
				<title>Sheet.1603</title>
				<path d="M9 837.75 C4.03 837.75 0 841.78 0 846.75 C0 851.72 4.03 855.75 9 855.75 C13.97 855.75 18 851.72 18 846.75
							 C18 846.75 18 846.75 18 846.75 C18 841.78 13.97 837.75 9.01 837.75 C9 837.75 9 837.75 9 837.75 ZM11.74
							 848.83 L10.67 848.83 L10.67 850.53 L9.3 850.53 L9.3 848.83 L5.6 848.83 L5.6 847.76 C5.97 847.36 6.33
							 846.94 6.68 846.5 C7.03 846.06 7.36 845.61 7.67 845.16 C7.98 844.7 8.26 844.25 8.53 843.8 C8.79 843.35
							 9.03 842.92 9.23 842.5 L10.67 842.5 L10.67 847.69 L11.74 847.69 L11.74 848.83 Z" class="st43"/>
			</g>
		</g>
		<g id="shape1604-275" v:mID="1604" v:groupContext="shape" transform="translate(191.497,-513.375)">
			<title>Sheet.1604</title>
			<rect x="0" y="754.149" width="96.878" height="101.601" class="st4"/>
		</g>
		<g id="group1605-277" transform="translate(162.375,-576.019)" v:mID="1605" v:groupContext="group">
			<title>Sheet.1605</title>
			<g id="group1606-278" transform="translate(2.79776E-14,-15.9964)" v:mID="1606" v:groupContext="group">
				<title>Sheet.1606</title>
				<g id="shape1607-279" v:mID="1607" v:groupContext="shape">
					<title>Sheet.1607</title>
					<path d="M1.77 820.48 L56.69 820.48 L56.69 853.85 A1.83479 1.90111 0 0 1 54.85 855.75 L3.6 855.75 A1.83479 1.90111
								 0 0 1 1.77 853.85 L1.77 820.48 Z" class="st7"/>
				</g>
				<g id="shape1608-282" v:mID="1608" v:groupContext="shape" transform="translate(-7.99361E-15,-35.2766)">
					<title>Sheet.1608</title>
					<path d="M3.61 845.27 L54.84 845.27 A1.83479 1.90111 0 0 1 56.68 847.17 L56.68 855.75 L1.78 855.75 L1.78 847.17
								 A1.83479 1.90111 0 0 1 3.61 845.27 Z" class="st8"/>
				</g>
				<g id="shape1609-284" v:mID="1609" v:groupContext="shape" transform="translate(13.8015,-5.23226)">
					<title>Sheet.1609</title>
					<path d="M30.13 832.54 L16.67 832.54 a0.74041 0.767174 0 0 1 -0.402679 -0.124498 L12.43 829.77 a0.707936 0.733526
								 -180 0 0 -0.399432 -0.127862 L0.72 829.64 a0.720925 0.746985 -180 0 0 -0.720925 0.746985 L0 855
								 a0.717678 0.743621 -180 0 0 0.720925 0.746985 L30.13 855.75 a0.717678 0.743621 -180 0 0 0.720925
								 -0.746985 L30.85 833.29 a0.720925 0.746985 -180 0 0 -0.720925 -0.746985 Z" class="st9"/>
				</g>
				<g id="shape1610-286" v:mID="1610" v:groupContext="shape" transform="translate(16.6073,-28.4561)">
					<title>Sheet.1610</title>
					<path d="M0 855.44 a0.295521 0.306204 -180 0 0 0.295514 0.306197 L6.72 855.75 a0.295521 0.306204 -180 0 0 0.295514
								 -0.306197 L7.01 854.6 a0.295521 0.306204 -180 0 0 -0.295514 -0.306197 L0.3 854.3 a0.295521 0.306204
								 -180 0 0 -0.295514 0.306197 L0 855.44 Z" class="st10"/>
				</g>
				<g id="shape1611-288" v:mID="1611" v:groupContext="shape" transform="translate(16.6073,-28.4561)">
					<title>Sheet.1611</title>
					<path d="M-0 855.54 a0.201344 0.208622 -180 0 0 0.20134 0.208618 L1.2 855.75 a0.201344 0.208622 -180 0 0 0.20134
								 -0.208618 L1.4 854.51 a0.201344 0.208622 -180 0 0 -0.20134 -0.208618 L0.2 854.3 a0.201344 0.208622
								 -180 0 0 -0.20134 0.208618 L0 855.54 Z" class="st11"/>
				</g>
				<g id="shape1612-290" v:mID="1612" v:groupContext="shape" transform="translate(13.8015,-5.27601)">
					<title>Sheet.1612</title>
					<path d="M30.13 832.55 L15.35 832.55 a0.711183 0.736891 -180 0 0 -0.509844 0.211982 L12.46 835.22 a0.714431 0.740256
								 0 0 1 -0.509844 0.222077 L0.72 835.45 a0.717678 0.743621 -180 0 0 -0.720925 0.743621 L0 855 a0.717678
								 0.743621 -180 0 0 0.720925 0.746985 L30.13 855.75 a0.717678 0.743621 -180 0 0 0.720925 -0.746985
								 L30.85 833.3 a0.717678 0.743621 -180 0 0 -0.720925 -0.743621 Z" class="st10"/>
				</g>
			</g>
			<g id="shape1613-292" v:mID="1613" v:groupContext="shape" transform="translate(1.99753,11.8431)">
				<title>Sheet.1613</title>
				<desc>Input asset</desc>
				<v:textBlock v:margins="rect(4,4,4,4)"/>
				<v:textRect cx="27.6319" cy="841.83" width="55.27" height="27.8395"/>
				<rect x="0" y="827.91" width="55.2638" height="27.8395" class="st1"/>
				<text x="14.65" y="838.23" class="st5" v:langID="1033"><v:paragraph v:horizAlign="1"/><v:tabList/>Input<v:newlineChar/><tspan
							x="15.07" dy="1.2em" class="st6">asset</tspan></text>			</g>
		</g>
		<g id="group1614-296" transform="translate(225.375,-528.898)" v:mID="1614" v:groupContext="group">
			<title>Sheet.1614</title>
			<g id="group1615-297" transform="translate(12.8393,-31.4046)" v:mID="1615" v:groupContext="group">
				<title>MsPortalFx.base.images-61</title>
				<g id="group1616-298" v:mID="1616" v:groupContext="group">
					<title>Sheet.1616</title>
					<g id="group1617-299" v:mID="1617" v:groupContext="group">
						<title>Sheet.1617</title>
						<g id="shape1618-300" v:mID="1618" v:groupContext="shape" transform="translate(0.239682,-0.294777)">
							<title>Sheet.1618</title>
							<path d="M18.34 817.19 L1.34 817.19 A1.34175 1.31498 -180 0 0 0 818.51 L0 854.43 A1.34175 1.31498 -180
										 0 0 1.34 855.75 L30.8 855.75 A1.34175 1.31498 -180 0 0 32.15 854.43 L32.15 830.65 A1.34175
										 1.31498 -180 0 0 30.8 829.34 L21.03 829.34 A1.34175 1.31498 0 0 1 19.68 828.02 L19.68 818.51
										 A1.3441 1.31728 -180 0 0 18.34 817.19 Z" class="st10"/>
						</g>
						<g id="shape1619-302" v:mID="1619" v:groupContext="shape">
							<title>Sheet.1619</title>
							<path d="M17.96 818.57 L17.96 827.6 A3.37905 3.31163 -180 0 0 21.33 830.91 L30.61 830.91 L30.61 853.78
										 L2.01 853.78 L2.01 818.57 L17.96 818.57 ZM18.61 816.6 L1.36 816.6 A1.36525 1.33801 -180
										 0 0 0 817.94 L0 854.41 A1.36525 1.33801 -180 0 0 1.36 855.75 L31.26 855.75 A1.36525 1.33801
										 -180 0 0 32.63 854.41 L32.63 830.27 A1.3629 1.33571 -180 0 0 31.26 828.94 L21.34 828.94
										 A1.3629 1.33571 0 0 1 19.97 827.6 L19.97 817.94 A1.36525 1.33801 -180 0 0 18.61 816.6 Z"
									class="st22"/>
						</g>
						<g id="shape1620-305" v:mID="1620" v:groupContext="shape" transform="translate(19.5036,-26.5483)">
							<title>Sheet.1620</title>
							<path d="M12.6 855.75 L0 843.44 L0 853.47 A2.31223 2.2661 -180 0 0 2.3 855.75 L12.6 855.75 Z"
									class="st8"/>
						</g>
					</g>
					<g id="shape1621-307" v:mID="1621" v:groupContext="shape" transform="translate(6.06491,-19.5243)">
						<title>Sheet.1621</title>
						<path d="M0 847.02 L0 855.18 a0.669701 0.656339 -180 0 0 1.00103 0.568827 L8.29 851.67 a0.667351 0.654036
									 -180 0 0 7.10543E-15 -1.13765 L1 846.45 a0.669701 0.656339 -180 0 0 -1.00103 0.568827 Z"
								class="st23"/>
					</g>
					<g id="shape1622-309" v:mID="1622" v:groupContext="shape" transform="translate(5.94507,-14.0318)">
						<title>Sheet.1622</title>
						<path d="M0 854.73 A1.04335 1.02253 -180 0 0 1.04 855.75 L16.27 855.75 A1.04335 1.02253 -180 0 0 17.32 854.73
									 L17.32 854.49 A1.04335 1.02253 -180 0 0 16.27 853.47 L1.04 853.47 A1.04335 1.02253 -180 0 0
									 0 854.49 L0 854.73 Z" class="st13"/>
					</g>
					<g id="shape1623-311" v:mID="1623" v:groupContext="shape" transform="translate(5.94507,-9.95332)">
						<title>Sheet.1623</title>
						<path d="M0 854.73 A1.04335 1.02253 -180 0 0 1.04 855.75 L16.27 855.75 A1.04335 1.02253 -180 0 0 17.32 854.73
									 L17.32 854.49 A1.04335 1.02253 -180 0 0 16.27 853.47 L1.04 853.47 A1.04335 1.02253 -180 0 0
									 0 854.49 L0 854.73 Z" class="st13"/>
					</g>
					<g id="shape1624-313" v:mID="1624" v:groupContext="shape" transform="translate(5.94507,-5.8725)">
						<title>Sheet.1624</title>
						<path d="M0 854.73 A1.04335 1.02253 -180 0 0 1.04 855.75 L9.87 855.75 A1.04335 1.02253 -180 0 0 10.91 854.73
									 L10.91 854.49 A1.04335 1.02253 -180 0 0 9.87 853.47 L1.04 853.47 A1.04335 1.02253 -180 0 0 0
									 854.49 L0 854.73 Z" class="st13"/>
					</g>
				</g>
			</g>
			<g id="shape1625-315" v:mID="1625" v:groupContext="shape">
				<title>Sheet.1625</title>
				<desc>Media files</desc>
				<v:textBlock v:margins="rect(4,4,4,4)"/>
				<v:textRect cx="27.6319" cy="840.487" width="55.27" height="30.526"/>
				<rect x="0" y="825.224" width="55.2638" height="30.526" class="st1"/>
				<text x="12.11" y="836.89" class="st5" v:langID="1033"><v:paragraph v:horizAlign="1"/><v:tabList/>Media <tspan
							x="17.71" dy="1.2em" class="st6">files</tspan></text>			</g>
		</g>
		<g id="shape1626-319" v:mID="1626" v:groupContext="shape" v:layerMember="0" transform="translate(421.94,-724.106)">
			<title>Dynamic connector.1626</title>
			<path d="M0 855.75 L0 1015.68 L-127.02 1015.68" class="st45"/>
		</g>
		<g id="shape1627-325" v:mID="1627" v:groupContext="shape" v:layerMember="0" transform="translate(308.172,-759.768)">
			<title>Dynamic connector.1627</title>
			<path d="M-6.18 846.75 L-6.54 846.75 L-40.05 846.75" class="st47"/>
		</g>
		<g id="shape1628-331" v:mID="1628" v:groupContext="shape" v:layerMember="0" transform="translate(397.451,-758.506)">
			<title>Dynamic connector.1628</title>
			<path d="M-6.18 846.75 L-6.54 846.75 L-34.02 846.75" class="st47"/>
		</g>
		<g id="group1500-336" transform="translate(482.004,-333.375)" v:mID="1500" v:groupContext="group">
			<title>Sheet.1500</title>
			<g id="group1501-337" transform="translate(15.2419,-33.5036)" v:mID="1501" v:groupContext="group">
				<title>Sheet.1501</title>
				<g id="group1502-338" v:mID="1502" v:groupContext="group">
					<title>Sheet.1502</title>
					<g id="shape1503-339" v:mID="1503" v:groupContext="shape" transform="translate(-1.27898E-13,-5.3634)">
						<title>Sheet.1503</title>
						<path d="M11.53 842.86 L6.36 842.86 A6.44871 6.44871 -180 0 0 5.36 855.66 A6.91672 6.91672 0 0 1 5.44 853.26
									 A4.07136 4.07136 0 0 1 6.37 845.22 L11.54 845.22 A4.08284 4.08284 0 1 1 11.54 853.39 L10.11
									 853.39 A3.07218 3.07218 -180 0 0 9.83 854.68 A2.92288 2.92288 -180 0 0 10.03 855.75 L11.54 855.75
									 A6.44871 6.44871 -180 1 0 11.54 842.86 L11.53 842.86 Z" class="st48"/>
					</g>
					<g id="shape1504-343" v:mID="1504" v:groupContext="shape" transform="translate(6.50735,0)">
						<title>Sheet.1504</title>
						<path d="M12.47 842.95 A7.59145 7.59145 0 0 1 12.55 843.94 A6.62673 6.62673 0 0 1 12.41 845.35 A4.07136 4.07136
									 0 0 1 11.47 853.39 L6.3 853.39 A4.08284 4.08284 0 0 1 6.3 845.22 L7.72 845.22 A3.0004 3.0004
									 -180 0 0 8.01 843.93 A2.95159 2.95159 -180 0 0 7.81 842.86 L6.31 842.86 A6.44871 6.44871 -180
									 0 0 6.31 855.75 L11.48 855.75 A6.44871 6.44871 -180 0 0 12.48 842.94 L12.47 842.95 Z"
								class="st49"/>
					</g>
				</g>
				<g id="group1505-347" transform="translate(19.9253,-6.04466)" v:mID="1505" v:groupContext="group">
					<title>Sheet.1505</title>
					<g id="shape1506-348" v:mID="1506" v:groupContext="shape" transform="translate(9.46088,-4.33213)">
						<title>Sheet.1506</title>
						<path d="M3.74 837.9 A2.22102 2.22102 -180 0 0 0.6 838.02 A2.2464 2.2464 -180 0 0 0.69 841.17 A8.11412 8.11412
									 0 0 1 2.89 846.72 A9.59056 9.59056 0 0 1 0.61 852.64 A2.23794 2.23794 -180 0 0 3.84 855.73 A14.0284
									 14.0284 -180 0 0 7.37 846.7 A12.6915 12.6915 -180 0 0 3.74 837.9 Z" class="st50"/>
					</g>
					<g id="shape1507-350" v:mID="1507" v:groupContext="shape" transform="translate(17.3752,0)">
						<title>Sheet.1507</title>
						<path d="M2.04 855.75 A2.23794 2.23794 0 0 1 0.35 852.04 A16.0759 16.0759 -180 0 0 3.74 842.5 A17.4128 17.4128
									 -180 0 0 0.27 832.89 A2.23794 2.23794 0 0 1 3.75 830.08 A21.7533 21.7533 0 0 1 8.21 842.5 A20.3911
									 20.3911 0 0 1 3.7 854.99 A2.23371 2.23371 0 0 1 2.04 855.75 Z" class="st50"/>
					</g>
					<g id="shape1508-352" v:mID="1508" v:groupContext="shape" transform="translate(-3.89688E-14,-9.31981)">
						<title>Sheet.1508</title>
						<ellipse cx="3.90899" cy="851.841" rx="3.90899" ry="3.90899" class="st50"/>
					</g>
				</g>
			</g>
			<g id="shape1509-354" v:mID="1509" v:groupContext="shape">
				<title>Sheet.1509</title>
				<desc>Streaming Locator</desc>
				<v:textBlock v:margins="rect(4,4,4,4)"/>
				<v:textRect cx="38.8819" cy="840.487" width="77.77" height="30.526"/>
				<rect x="0" y="825.224" width="77.7638" height="30.526" class="st25"/>
				<text x="14.02" y="836.89" class="st5" v:langID="1033"><v:paragraph v:horizAlign="1"/><v:tabList/>Streaming<v:newlineChar/><tspan
							x="20.52" dy="1.2em" class="st6">Locator</tspan></text>			</g>
		</g>
		<g id="shape1631-358" v:mID="1631" v:groupContext="shape" v:layerMember="0" transform="translate(232.196,-513.375)">
			<title>Dynamic connector.1631</title>
			<path d="M9 855.75 L9 891.61" class="st45"/>
		</g>
		<g id="shape1632-363" v:mID="1632" v:groupContext="shape" v:layerMember="0" transform="translate(159.199,-603.375)">
			<title>Dynamic connector.1632</title>
			<path d="M-8.68 846.75 L-9.04 846.75 L-94.38 846.75" class="st51"/>
		</g>
		<g id="group1531-369" transform="translate(486.504,-57.4879)" v:mID="1531" v:groupContext="group">
			<title>Sheet.1531</title>
			<g id="group1532-370" transform="translate(9,-30.963)" v:mID="1532" v:groupContext="group">
				<title>Icon-identity-232</title>
				<g id="shape1533-371" v:mID="1533" v:groupContext="shape" transform="translate(2.79776E-13,-8.38531)">
					<title>Sheet.1533</title>
					<path d="M16.64 841.49 L30.93 841.49 L30.93 855.75 L16.64 855.75 L16.64 841.49 ZM0.13 822.47 L14.43 822.47 L14.43
								 808.21 L1.98 808.21 A1.98078 1.98078 -180 0 0 -0 810.19 L0.13 822.47 ZM2.11 855.75 L14.43 855.75
								 L14.43 841.49 L0 841.49 L0 853.77 A1.98078 1.98078 -180 0 0 1.98 855.75 L2.11 855.75 ZM0.13 839.24
								 L14.43 839.24 L14.43 824.85 L0 824.85 L0.13 839.24 ZM33.41 855.75 L45.69 855.75 A1.98078 1.98078
								 -180 0 0 47.67 853.77 L47.67 841.49 L33.28 841.49 L33.41 855.75 ZM16.9 839.24 L30.93 839.24 L30.93
								 824.85 L16.64 824.85 L16.9 839.24 ZM33.41 839.24 L47.44 839.24 L47.44 824.85 L33.28 824.85 L33.41
								 839.24 ZM33.41 808.34 L33.41 822.47 L47.44 822.47 L47.44 810.19 A1.98078 1.98078 -180 0 0 45.46
								 808.21 L33.41 808.34 ZM16.9 822.6 L30.93 822.6 L30.93 808.21 L16.64 808.21 L16.9 822.6 Z"
							class="st53"/>
				</g>
				<g id="shape1534-375" v:mID="1534" v:groupContext="shape" transform="translate(42.4878,0)">
					<title>Sheet.1534</title>
					<path d="M12.78 833.4 L12.78 848.29 L0 855.75 L0 840.86 L12.78 833.4 Z" class="st23"/>
				</g>
				<g id="shape1535-377" v:mID="1535" v:groupContext="shape" transform="translate(29.7117,-14.8559)">
					<title>Sheet.1535</title>
					<path d="M25.55 848.26 L12.78 855.75 L0 848.26 L12.78 840.8 L25.55 848.26 Z" class="st54"/>
				</g>
				<g id="shape1536-379" v:mID="1536" v:groupContext="shape" transform="translate(29.7117,0)">
					<title>Sheet.1536</title>
					<path d="M12.78 840.89 L12.78 855.75 L0 848.29 L0 833.4 L12.78 840.89 Z" class="st17"/>
				</g>
				<g id="shape1537-381" v:mID="1537" v:groupContext="shape" transform="translate(29.7117,2.27374E-13)">
					<title>Sheet.1537</title>
					<path d="M0 848.29 L12.78 840.86 L12.78 855.75 L0 848.29 Z" class="st54"/>
				</g>
				<g id="shape1538-383" v:mID="1538" v:groupContext="shape" transform="translate(42.4878,2.27374E-13)">
					<title>Sheet.1538</title>
					<path d="M12.78 848.29 L0 840.86 L0 855.75 L12.78 848.29 Z" class="st17"/>
				</g>
			</g>
			<g id="shape1539-385" v:mID="1539" v:groupContext="shape">
				<title>Sheet.1539</title>
				<desc>Streaming application</desc>
				<v:textBlock v:margins="rect(4,4,4,4)"/>
				<v:textRect cx="34.3819" cy="840.487" width="68.77" height="30.526"/>
				<rect x="0" y="825.224" width="68.7638" height="30.526" class="st1"/>
				<text x="9.52" y="836.89" class="st5" v:langID="1033"><v:paragraph v:horizAlign="1"/><v:tabList/>Streaming<v:newlineChar/><tspan
							x="7.33" dy="1.2em" class="st6">application</tspan></text>			</g>
		</g>
		<g id="group1442-389" transform="translate(421.886,-126.375)" v:mID="1442" v:groupContext="group">
			<title>Sheet.1442</title>
			<g id="shape1443-390" v:mID="1443" v:groupContext="shape" transform="translate(16.7376,0)">
				<title>puddle</title>
				<path d="M42.09 848.38 C42.09 852.45 32.67 855.75 21.05 855.75 C9.42 855.75 0 852.45 0 848.38 C0 844.32 9.42 841.02
							 21.05 841.02 C32.67 841.02 42.09 844.32 42.09 848.38 Z" class="st55"/>
			</g>
			<g id="shape1444-392" v:mID="1444" v:groupContext="shape" transform="translate(25.05,-0.00534918)">
				<title>shadow-legs-left</title>
				<path d="M7.01 855.48 L7.01 850.23 C7.01 849.55 6.89 848.99 6.69 848.51 C8.04 849.56 8.14 852.21 8.14 852.21 L8.14
							 855.58 C9.36 855.67 10.62 855.73 11.91 855.75 L11.88 852.4 C11.69 847.82 7.76 847.25 7.76 847.25 C6.33
							 846.93 6.35 847.65 6.49 848.11 C5.08 845.71 1.31 846.02 1.31 846.02 C0 846.49 1.22 847.33 1.22 847.33
							 C3.27 848.08 3.46 850.32 3.46 850.32 L3.46 855 C4.59 855.2 5.78 855.36 7.01 855.48 L7.01 855.48 Z"
						class="st56"/>
			</g>
			<g id="shape1445-394" v:mID="1445" v:groupContext="shape" transform="translate(38.0155,-0.000594354)">
				<title>shadow-legs-right</title>
				<path d="M10.6 846.02 C10.6 846.02 6.83 845.71 5.42 848.11 C5.56 847.64 5.58 846.92 4.15 847.25 C4.15 847.25 0.22
							 847.81 0.03 852.39 L0 855.75 C1.29 855.75 2.55 855.7 3.77 855.62 L3.77 852.21 C3.77 852.21 3.87 849.56
							 5.22 848.5 C5.02 848.98 4.9 849.55 4.9 850.23 L4.9 855.53 C6.13 855.42 7.32 855.28 8.45 855.1 L8.45
							 850.32 C8.45 850.32 8.64 848.07 10.7 847.33 C10.7 847.33 11.91 846.48 10.6 846.02 L10.6 846.02 Z"
						class="st56"/>
			</g>
			<g id="shape1446-396" v:mID="1446" v:groupContext="shape" transform="translate(0,-7.77969)">
				<title>cat</title>
				<path d="M74.92 825.63 L74.98 825.36 C68.8 824.12 62.47 824.11 58.64 824.27 C59.27 822 59.46 819.39 59.46 816.48
							 C59.46 812.3 57.89 808.96 55.34 806.42 C55.79 804.99 56.38 801.8 54.75 797.71 C54.75 797.71 51.87 796.8
							 45.35 801.16 C42.8 800.52 40.08 800.21 37.36 800.21 C34.37 800.21 31.34 800.59 28.52 801.36 C21.8 796.77
							 18.83 797.71 18.83 797.71 C16.89 802.56 18.09 806.15 18.45 807.04 C16.18 809.5 14.79 812.63 14.79 816.48
							 C14.79 819.38 15.12 821.99 15.92 824.25 C12.06 824.11 5.95 824.17 0 825.36 L0.05 825.63 C6.04 824.44
							 12.19 824.39 16.03 824.54 C16.21 825.01 16.4 825.46 16.63 825.9 C12.83 826.02 6.34 826.51 0.12 828.26
							 L0.2 828.53 C6.47 826.77 13.01 826.29 16.77 826.18 C19.04 830.41 23.52 833.14 31.48 834 C30.35 834.76
							 29.2 836.05 28.73 838.24 C27.19 838.97 22.32 840.77 19.39 835.74 C19.39 835.74 17.75 832.75 14.62 832.51
							 C14.62 832.51 11.58 832.46 14.41 834.41 C14.41 834.41 16.44 835.36 17.85 838.97 C17.85 838.97 19.68
							 845.11 28.51 843.14 L28.51 849.48 C28.51 849.48 28.33 851.73 26.27 852.48 C26.27 852.48 25.05 853.32
							 26.36 853.79 C26.36 853.79 32.07 854.25 32.07 849.58 L32.07 842.66 C32.07 842.66 31.84 839.91 33.19
							 838.96 L33.19 850.33 C33.19 850.33 33.09 853.04 31.69 854.07 C31.69 854.07 30.76 855.75 32.81 855.28
							 C32.81 855.28 36.74 854.72 36.93 850.14 L37.02 838.64 L37.96 838.64 L38.05 850.14 C38.24 854.72 42.17
							 855.28 42.17 855.28 C44.22 855.75 43.29 854.07 43.29 854.07 C41.89 853.04 41.79 850.33 41.79 850.33
							 L41.79 839.06 C43.14 840.11 42.91 842.66 42.91 842.66 L42.91 849.58 C42.91 854.25 48.62 853.79 48.62
							 853.79 C49.93 853.32 48.71 852.48 48.71 852.48 C46.65 851.73 46.47 849.48 46.47 849.48 L46.47 840.41
							 C46.47 836.88 44.98 835 43.52 834.01 C52.01 833.17 56.09 830.43 57.96 826.17 C61.68 826.27 68.38 826.73
							 74.78 828.53 L74.86 828.26 C68.49 826.47 61.84 826 58.08 825.89 C58.26 825.46 58.42 825.02 58.56 824.55
							 C62.37 824.4 68.73 824.4 74.93 825.64 L74.92 825.63 Z" class="st57"/>
			</g>
			<g id="shape1447-398" v:mID="1447" v:groupContext="shape" transform="translate(20.5329,-31.0946)">
				<title>face</title>
				<path d="M30.62 839.6 C32.45 841.26 33.52 843.26 33.52 845.41 C33.52 855.48 26.01 855.75 16.76 855.75 C7.5 855.75
							 0 854.36 0 845.41 C0 843.27 1.05 841.28 2.86 839.63 C5.87 836.88 10.97 838.34 16.76 838.34 C22.52 838.34
							 27.6 836.87 30.62 839.6 L30.62 839.6 Z" class="st58"/>
			</g>
			<g id="shape1448-400" v:mID="1448" v:groupContext="shape" transform="translate(24.7435,-35.9009)">
				<title>eye-left</title>
				<path d="M6.97 850.73 C6.97 853.5 5.41 855.75 3.49 855.75 C1.56 855.75 0 853.5 0 850.73 C0 847.96 1.56 845.71 3.49
							 845.71 C5.41 845.71 6.97 847.96 6.97 850.73 Z" class="st59"/>
			</g>
			<g id="shape1449-402" v:mID="1449" v:groupContext="shape" transform="translate(43.432,-35.9009)">
				<title>eye-right</title>
				<path d="M6.97 850.73 C6.97 853.5 5.41 855.75 3.49 855.75 C1.56 855.75 0 853.5 0 850.73 C0 847.96 1.56 845.71 3.49
							 845.71 C5.41 845.71 6.97 847.96 6.97 850.73 Z" class="st59"/>
			</g>
			<g id="shape1450-404" v:mID="1450" v:groupContext="shape" transform="translate(25.9507,-37.5114)">
				<title>pupil-left</title>
				<path d="M4.65 852.4 C4.65 854.25 3.61 855.75 2.32 855.75 C1.04 855.75 0 854.25 0 852.4 C0 850.56 1.04 849.06 2.32
							 849.06 C3.61 849.06 4.65 850.56 4.65 852.4 L4.65 852.4 Z" class="st60"/>
			</g>
			<g id="shape1451-406" v:mID="1451" v:groupContext="shape" transform="translate(44.657,-37.5114)">
				<title>pupil-right</title>
				<path d="M4.65 852.4 C4.65 854.25 3.61 855.75 2.32 855.75 C1.04 855.75 0 854.25 0 852.4 C0 850.56 1.04 849.06 2.32
							 849.06 C3.61 849.06 4.65 850.56 4.65 852.4 L4.65 852.4 Z" class="st60"/>
			</g>
			<g id="shape1452-408" v:mID="1452" v:groupContext="shape" transform="translate(37.3438,-34.719)">
				<title>nose</title>
				<path d="M0 854.01 L0 855.75 L0 854.01 Z" class="st60"/>
			</g>
			<g id="shape1453-410" v:mID="1453" v:groupContext="shape" transform="translate(35.2577,-32.8256)">
				<title>mouth</title>
				<path d="M0.05 854.32 C0 854.17 0.08 854.01 0.22 853.96 C0.37 853.91 0.53 853.99 0.58 854.13 C0.8 854.76 1.41 855.19
							 2.08 855.19 C2.75 855.19 3.35 854.76 3.57 854.13 C3.62 853.98 3.78 853.91 3.93 853.96 C4.08 854.01 4.15
							 854.17 4.1 854.32 C3.8 855.17 2.98 855.75 2.08 855.75 C1.17 855.75 0.36 855.18 0.05 854.32 L0.05 854.32
							 Z" class="st60"/>
			</g>
			<g id="shape1454-412" v:mID="1454" v:groupContext="shape" transform="translate(14.7586,-29.8492)">
				<title>octo1</title>
				<path d="M1.22 855.33 C1.22 855.56 0.94 855.75 0.61 855.75 C0.27 855.75 0 855.56 0 855.33 C0 855.1 0.27 854.91 0.61
							 854.91 C0.94 854.91 1.22 855.1 1.22 855.33 L1.22 855.33 Z" class="st61"/>
			</g>
			<g id="shape1455-414" v:mID="1455" v:groupContext="shape" transform="translate(16.4228,-28.9141)">
				<title>octo2</title>
				<path d="M1.22 855.33 C1.22 855.56 0.94 855.75 0.61 855.75 C0.27 855.75 0 855.56 0 855.33 C0 855.1 0.27 854.91 0.61
							 854.91 C0.94 854.91 1.22 855.1 1.22 855.33 L1.22 855.33 Z" class="st61"/>
			</g>
			<g id="shape1456-416" v:mID="1456" v:groupContext="shape" transform="translate(17.4516,-27.6977)">
				<title>octo3</title>
				<path d="M1.22 855.33 C1.22 855.56 0.94 855.75 0.61 855.75 C0.27 855.75 0 855.56 0 855.33 C0 855.1 0.27 854.91 0.61
							 854.91 C0.94 854.91 1.22 855.1 1.22 855.33 L1.22 855.33 Z" class="st61"/>
			</g>
			<g id="shape1457-418" v:mID="1457" v:groupContext="shape" transform="translate(18.3867,-26.295)">
				<title>octo4</title>
				<path d="M1.22 855.33 C1.22 855.56 0.94 855.75 0.61 855.75 C0.27 855.75 0 855.56 0 855.33 C0 855.1 0.27 854.91 0.61
							 854.91 C0.94 854.91 1.22 855.1 1.22 855.33 L1.22 855.33 Z" class="st61"/>
			</g>
			<g id="shape1458-420" v:mID="1458" v:groupContext="shape" transform="translate(19.4146,-24.9854)">
				<title>octo5</title>
				<path d="M1.22 855.33 C1.22 855.56 0.94 855.75 0.61 855.75 C0.27 855.75 0 855.56 0 855.33 C0 855.1 0.27 854.91 0.61
							 854.91 C0.94 854.91 1.22 855.1 1.22 855.33 L1.22 855.33 Z" class="st61"/>
			</g>
			<g id="shape1459-422" v:mID="1459" v:groupContext="shape" transform="translate(20.8192,-23.8641)">
				<title>octo6</title>
				<path d="M1.22 855.33 C1.22 855.56 0.94 855.75 0.61 855.75 C0.27 855.75 0 855.56 0 855.33 C0 855.1 0.27 854.91 0.61
							 854.91 C0.94 854.91 1.22 855.1 1.22 855.33 L1.22 855.33 Z" class="st61"/>
			</g>
			<g id="shape1460-424" v:mID="1460" v:groupContext="shape" transform="translate(22.7826,-23.1152)">
				<title>octo7</title>
				<path d="M1.22 855.33 C1.22 855.56 0.94 855.75 0.61 855.75 C0.27 855.75 0 855.56 0 855.33 C0 855.1 0.27 854.91 0.61
							 854.91 C0.94 854.91 1.22 855.1 1.22 855.33 L1.22 855.33 Z" class="st61"/>
			</g>
			<g id="shape1461-426" v:mID="1461" v:groupContext="shape" transform="translate(24.738,-23.1152)">
				<title>octo8</title>
				<path d="M1.22 855.33 C1.22 855.56 0.94 855.75 0.61 855.75 C0.27 855.75 0 855.56 0 855.33 C0 855.1 0.27 854.91 0.61
							 854.91 C0.94 854.91 1.22 855.1 1.22 855.33 L1.22 855.33 Z" class="st61"/>
			</g>
			<g id="shape1462-428" v:mID="1462" v:groupContext="shape" transform="translate(26.7212,-23.4401)">
				<title>octo9</title>
				<path d="M1.22 855.33 C1.22 855.56 0.94 855.75 0.61 855.75 C0.27 855.75 0 855.56 0 855.33 C0 855.1 0.27 854.91 0.61
							 854.91 C0.94 854.91 1.22 855.1 1.22 855.33 L1.22 855.33 Z" class="st61"/>
			</g>
			<g id="shape1463-430" v:mID="1463" v:groupContext="shape" transform="translate(12.9759,-26.0044)">
				<title>drop</title>
				<path d="M0.77 852.73 L0.16 854.85 C0.16 854.85 0 855.61 0.72 855.75 C1.47 855.74 1.41 855.03 1.36 854.8 L0.77 852.73
							 Z" class="st55"/>
			</g>
		</g>
		<g id="group1634-432" transform="translate(483.397,-432.375)" v:mID="1634" v:groupContext="group">
			<title>Sheet.1634</title>
			<g id="group231-433" transform="translate(17.2392,-30.824)" v:mID="231" v:groupContext="group">
				<title>Sheet.231</title>
				<g id="group227-434" v:mID="227" v:groupContext="group">
					<title>Sheet.227</title>
					<g id="shape228-435" v:mID="228" v:groupContext="shape">
						<title>Sheet.228</title>
						<path d="M0 801.75 L0 855.75 L40.5 855.75 L40.5 816.32 L25.93 801.75 L0 801.75 ZM26.34 804.07 L38.18 815.91
									 C38.19 815.92 38.19 815.92 38.18 815.92 C38.18 815.92 38.18 815.93 38.18 815.93 L26.33 815.93
									 L26.33 804.07 C26.33 804.07 26.33 804.06 26.33 804.06 C26.33 804.06 26.34 804.06 26.34 804.07
									 ZM1.35 854.4 L1.35 803.1 L24.98 803.1 L24.98 817.28 L39.15 817.28 L39.15 854.4 L1.35 854.4 Z"
								class="st24"/>
					</g>
				</g>
				<g id="group229-437" transform="translate(9,-9)" v:mID="229" v:groupContext="group">
					<title>Sheet.229</title>
					<g id="shape230-438" v:mID="230" v:groupContext="shape">
						<title>Sheet.230</title>
						<path d="M12.19 829.3 C14.56 831.9 17.84 833.5 21.35 833.78 C22 833.84 22.5 834.39 22.5 835.05 L22.5 838.24
									 C22.5 845.19 18.08 851.55 11.94 855.48 C11.52 855.75 10.98 855.75 10.56 855.48 C4.42 851.55
									 0 845.19 0 838.24 L0 835.05 C0 834.39 0.5 833.84 1.15 833.78 C4.66 833.5 7.94 831.9 10.31 829.3
									 C10.76 828.78 11.54 828.72 12.06 829.17 C12.11 829.21 12.15 829.25 12.19 829.3 Z" class="st24"/>
					</g>
				</g>
			</g>
			<g id="shape1629-440" v:mID="1629" v:groupContext="shape">
				<title>Sheet.1629</title>
				<desc>Streaming policy</desc>
				<v:textBlock v:margins="rect(4,4,4,4)"/>
				<v:textRect cx="37.4892" cy="840.487" width="74.98" height="30.526"/>
				<rect x="0" y="825.224" width="74.9783" height="30.526" class="st1"/>
				<text x="12.62" y="836.89" class="st5" v:langID="1033"><v:paragraph v:horizAlign="1"/><v:tabList/>Streaming<v:newlineChar/><tspan
							x="23.17" dy="1.2em" class="st6">policy</tspan></text>			</g>
		</g>
		<g id="shape1635-444" v:mID="1635" v:groupContext="shape" v:layerMember="0" transform="translate(510.943,-432.375)">
			<title>Dynamic connector.1635</title>
			<path d="M8.91 855.75 L9.06 891.67" class="st45"/>
		</g>
		<g id="shape1636-449" v:mID="1636" v:groupContext="shape" v:layerMember="0" transform="translate(531.375,-333.375)">
			<title>Dynamic connector.1636</title>
			<path d="M-9 855.75 L-9 1019.99" class="st62"/>
		</g>
		<g id="group1121-455" transform="translate(282.646,-106.077)" v:mID="1121" v:groupContext="group">
			<title>MsPortalFx.base.images-62</title>
			<g id="group1122-456" v:mID="1122" v:groupContext="group">
				<title>Sheet.1122</title>
				<g id="shape1123-457" v:mID="1123" v:groupContext="shape">
					<title>Sheet.1123</title>
					<path d="M0 854.39 A1.36402 1.36402 -180 0 0 1.36 855.75 L33.72 855.75 A1.36402 1.36402 -180 0 0 35.08 854.39
								 L35.08 798.52 A1.36402 1.36402 -180 0 0 33.72 797.15 L1.36 797.15 A1.36402 1.36402 -180 0 0 0 798.52
								 L0 854.39 Z" class="st64"/>
				</g>
				<g id="shape1124-461" v:mID="1124" v:groupContext="shape" transform="translate(13.4966,-55.5458)">
					<title>Sheet.1124</title>
					<path d="M0 855.25 a0.501333 0.501333 -180 0 0 0.501321 0.501321 L7.58 855.75 a0.501333 0.501333 -180 0 0 0.501321
								 -0.501321 L8.08 855.17 a0.501333 0.501333 -180 0 0 -0.501321 -0.501321 L0.5 854.67 a0.501333 0.501333
								 -180 0 0 -0.501321 0.501321 L0 855.25 Z" class="st65"/>
				</g>
				<g id="shape1125-463" v:mID="1125" v:groupContext="shape" transform="translate(3.29114,-6.56601)">
					<title>Sheet.1125</title>
					<path d="M0 855.1 a0.654337 0.654337 -180 0 0 0.654322 0.654322 L27.84 855.75 a0.654337 0.654337 -180 0 0 0.654322
								 -0.654322 L28.5 809.33 a0.654337 0.654337 -180 0 0 -0.654322 -0.654322 L0.65 808.67 a0.654337 0.654337
								 -180 0 0 -0.654322 0.654322 L0 855.1 Z" class="st66"/>
				</g>
				<g id="shape1126-467" v:mID="1126" v:groupContext="shape" transform="translate(15.58,-1.27609)">
					<title>Sheet.1126</title>
					<path d="M0 854.82 a0.931047 0.931047 -180 0 0 0.931025 0.931025 L2.99 855.75 a0.931047 0.931047 -180 0 0 0.931025
								 -0.931025 L3.92 853.33 a0.931047 0.931047 -180 0 0 -0.931025 -0.931025 L0.93 852.4 a0.931047 0.931047
								 -180 0 0 -0.931025 0.931025 L0 854.82 Z" class="st65"/>
				</g>
				<g id="shape1127-469" v:mID="1127" v:groupContext="shape" transform="translate(17.7904,-18.7019)">
					<title>Sheet.1127</title>
					<path d="M9.13 839.87 L9.13 850.44 L0 855.75 L0 845.17 L9.13 839.87 Z" class="st67"/>
				</g>
				<g id="shape1128-471" v:mID="1128" v:groupContext="shape" transform="translate(8.65919,-29.2687)">
					<title>Sheet.1128</title>
					<path d="M18.26 850.44 L9.13 855.75 L0 850.44 L9.13 845.13 L18.26 850.44 Z" class="st13"/>
				</g>
				<g id="shape1129-473" v:mID="1129" v:groupContext="shape" transform="translate(8.65919,-18.7019)">
					<title>Sheet.1129</title>
					<path d="M9.13 845.18 L9.13 855.75 L0 850.44 L0 839.87 L9.13 845.18 Z" class="st8"/>
				</g>
			</g>
		</g>
		<g id="group1065-475" transform="translate(216.375,-106.077)" v:mID="1065" v:groupContext="group">
			<title>Icon-identity-230</title>
			<g id="shape1066-476" v:mID="1066" v:groupContext="shape">
				<title>Sheet.1066</title>
				<path d="M44.61 855.75 A4.34413 4.34413 -180 0 0 48.95 851.41 A1.4081 1.4081 -180 0 0 48.95 850.9 C47.22 837.21 39.46
							 826.06 24.48 826.06 C9.5 826.06 1.53 835.5 0 850.93 A4.37409 4.37409 -180 0 0 3.92 855.75 L44.61 855.75
							 Z" class="st68"/>
			</g>
			<g id="shape1067-480" v:mID="1067" v:groupContext="shape" transform="translate(17.0469,-9.40728)">
				<title>Sheet.1067</title>
				<path d="M7.43 838.7 A13.7514 13.7514 0 0 1 -0 836.52 L7.43 855.75 L14.74 836.64 A13.5716 13.5716 0 0 1 7.43 838.7
							 Z" class="st37"/>
			</g>
			<g id="shape1068-482" v:mID="1068" v:groupContext="shape" transform="translate(10.7854,-26.4842)">
				<title>Sheet.1068</title>
				<ellipse cx="13.7214" cy="842.029" rx="13.7214" ry="13.7214" class="st69"/>
			</g>
		</g>
		<g id="shape1528-486" v:mID="1528" v:groupContext="shape" transform="translate(486.504,-260.369)">
			<title>Sheet.1528</title>
			<desc>Streaming URL</desc>
			<v:textBlock v:margins="rect(4,4,4,4)"/>
			<v:textRect cx="34.3819" cy="844.244" width="68.77" height="23.0126"/>
			<rect x="0" y="832.737" width="68.7638" height="23.0126" class="st1"/>
			<text x="10.48" y="846.64" class="st70" v:langID="1033"><v:paragraph v:horizAlign="1"/><v:tabList/>Streaming URL</text>		</g>
	</g>
</svg>
