<?xml version="1.0" encoding="UTF-8" standalone="no"?>
<!DOCTYPE svg PUBLIC "-//W3C//DTD SVG 1.1//EN" "http://www.w3.org/Graphics/SVG/1.1/DTD/svg11.dtd">
<!-- Generated by Microsoft Visio, SVG Export private-link-network-diagram-no-private-endpoints.svg Page-1 -->
<svg xmlns="http://www.w3.org/2000/svg" xmlns:xlink="http://www.w3.org/1999/xlink" xmlns:ev="http://www.w3.org/2001/xml-events"
		xmlns:v="http://schemas.microsoft.com/visio/2003/SVGExtensions/" width="5.77431in" height="4.51352in"
		viewBox="0 0 415.75 324.974" xml:space="preserve" color-interpolation-filters="sRGB" class="st37">
	<v:documentProperties v:langID="1033" v:viewMarkup="false"/>

	<style type="text/css">
	<![CDATA[
		.st1 {fill:#ffffff;stroke:none;stroke-linecap:round;stroke-linejoin:round;stroke-width:0.75}
		.st2 {fill:#ffffff;stroke:#0070c0;stroke-linecap:round;stroke-linejoin:round;stroke-width:0.24}
		.st3 {fill:#ffffff;stroke:none;stroke-linecap:round;stroke-linejoin:round;stroke-width:0.24}
		.st4 {fill:none;stroke:none;stroke-linecap:round;stroke-linejoin:round;stroke-width:0.75}
		.st5 {fill:#000000;font-family:Segoe UI;font-size:0.833336em}
		.st6 {fill:url(#grad0-18);stroke:none;stroke-linecap:butt;stroke-width:0.75}
		.st7 {fill:#0078d4;stroke:none;stroke-linecap:butt;stroke-width:0.75}
		.st8 {fill:#5ea0ef;stroke:none;stroke-linecap:butt;stroke-width:0.75}
		.st9 {fill:url(#grad0-26);stroke:none;stroke-linecap:butt;stroke-width:0.75}
		.st10 {fill:#c3f1ff;stroke:none;stroke-linecap:butt;stroke-width:0.75}
		.st11 {fill:url(#grad0-36);stroke:none;stroke-linecap:butt;stroke-width:0.75}
		.st12 {fill:#50e6ff;stroke:none;stroke-linecap:butt;stroke-width:0.75}
		.st13 {fill:url(#grad0-47);stroke:none;stroke-linecap:butt;stroke-width:0.75}
		.st14 {fill:#45c6dc;stroke:none;stroke-linecap:butt;stroke-width:0.75}
		.st15 {fill:#d2d2d2;stroke:none;stroke-linecap:butt;stroke-width:0.75}
		.st16 {fill:#ffffff;stroke:none;stroke-linecap:butt;stroke-width:0.75}
		.st17 {fill:#b4b4b4;stroke:none;stroke-linecap:butt;stroke-width:0.75}
		.st18 {fill:#32b0e7;stroke:none;stroke-linecap:butt;stroke-width:0.75}
		.st19 {fill:url(#grad0-69);stroke:none;stroke-linecap:butt;stroke-width:0.75}
		.st20 {fill:url(#grad0-73);stroke:none;stroke-linecap:butt;stroke-width:0.75}
		.st21 {fill:url(#grad0-77);stroke:none;stroke-linecap:butt;stroke-width:0.75}
		.st22 {fill:#000000;font-family:Segoe UI;font-size:0.75em}
		.st23 {font-size:1em}
		.st24 {fill:url(#grad0-91);stroke:none;stroke-linecap:butt;stroke-width:0.75}
		.st25 {fill:url(#grad0-95);stroke:none;stroke-linecap:butt;stroke-width:0.75}
		.st26 {fill:url(#grad0-99);stroke:none;stroke-linecap:butt;stroke-width:0.75}
		.st27 {fill:url(#grad0-111);stroke:none;stroke-linecap:butt;stroke-width:0.75}
		.st28 {fill:url(#grad0-115);stroke:none;stroke-linecap:butt;stroke-width:0.75}
		.st29 {fill:#091751;stroke:none;stroke-linecap:butt;stroke-width:0.75}
		.st30 {fill:url(#grad1-140);stroke:none;stroke-linecap:butt;stroke-width:0.75}
		.st31 {fill:#ff9300;fill-opacity:0.75;stroke:none;stroke-linecap:butt;stroke-width:0.75}
		.st32 {fill:#002060;font-family:Calibri;font-size:0.75em}
		.st33 {marker-end:url(#mrkr13-162);stroke:#000000;stroke-linecap:round;stroke-linejoin:round;stroke-width:0.75}
		.st34 {fill:#000000;fill-opacity:1;stroke:#000000;stroke-opacity:1;stroke-width:0.22935779816514}
		.st35 {marker-start:url(#mrkr13-177);stroke:#000000;stroke-linecap:round;stroke-linejoin:round;stroke-width:0.75}
		.st36 {fill:#000000;font-family:Segoe UI;font-size:0.75em;font-weight:bold}
		.st37 {fill:none;fill-rule:evenodd;font-size:12px;overflow:visible;stroke-linecap:square;stroke-miterlimit:3}
	]]>
	</style>

	<defs id="Patterns_And_Gradients">
		<linearGradient id="grad0-18" x1="0" y1="0" x2="1" y2="0" gradientTransform="rotate(-0.10257930558574 0.5 0.5)">
			<stop offset="0" stop-color="#005ba1" stop-opacity="1"/>
			<stop offset="0.365" stop-color="#004e8f" stop-opacity="1"/>
			<stop offset="1" stop-color="#003067" stop-opacity="1"/>
		</linearGradient>
		<linearGradient id="grad0-26" x1="0" y1="0" x2="1" y2="0" gradientTransform="rotate(179.30685615173 0.5 0.5)">
			<stop offset="0" stop-color="#005ba1" stop-opacity="1"/>
			<stop offset="0.45" stop-color="#004685" stop-opacity="1"/>
			<stop offset="1" stop-color="#003067" stop-opacity="1"/>
		</linearGradient>
		<linearGradient id="grad0-36" x1="0" y1="0" x2="1" y2="0" gradientTransform="rotate(-73.177420271587 0.5 0.5)">
			<stop offset="0.26" stop-color="#50e6ff" stop-opacity="1"/>
			<stop offset="0.42" stop-color="#79eaff" stop-opacity="1"/>
			<stop offset="0.58" stop-color="#99edff" stop-opacity="1"/>
			<stop offset="0.735" stop-color="#b0efff" stop-opacity="1"/>
			<stop offset="0.875" stop-color="#bef1ff" stop-opacity="1"/>
			<stop offset="1" stop-color="#c3f1ff" stop-opacity="1"/>
		</linearGradient>
		<linearGradient id="grad0-47" x1="0" y1="0" x2="1" y2="0" gradientTransform="rotate(-66.658274913891 0.5 0.5)">
			<stop offset="0" stop-color="#c9c9c9" stop-opacity="1"/>
			<stop offset="1" stop-color="#b4b4b4" stop-opacity="1"/>
		</linearGradient>
		<linearGradient id="grad0-69" x1="0" y1="0" x2="1" y2="0" gradientTransform="rotate(90 0.5 0.5)">
			<stop offset="0" stop-color="#50e6ff" stop-opacity="1"/>
			<stop offset="1" stop-color="#32b0e7" stop-opacity="1"/>
		</linearGradient>
		<linearGradient id="grad0-73" x1="0" y1="0" x2="1" y2="0" gradientTransform="rotate(64.392197281876 0.5 0.5)">
			<stop offset="0" stop-color="#32b0e7" stop-opacity="1"/>
			<stop offset="1" stop-color="#156ab3" stop-opacity="1"/>
		</linearGradient>
		<linearGradient id="grad0-77" x1="0" y1="0" x2="1" y2="0" gradientTransform="rotate(61.523927594029 0.5 0.5)">
			<stop offset="0" stop-color="#32b0e7" stop-opacity="1"/>
			<stop offset="1" stop-color="#156ab3" stop-opacity="1"/>
		</linearGradient>
		<linearGradient id="grad0-91" x1="0" y1="0" x2="1" y2="0" gradientTransform="rotate(86.811100959294 0.5 0.5)">
			<stop offset="0.055" stop-color="#9cebff" stop-opacity="1"/>
			<stop offset="1" stop-color="#50e6ff" stop-opacity="1"/>
		</linearGradient>
		<linearGradient id="grad0-95" x1="0" y1="0" x2="1" y2="0" gradientTransform="rotate(88.414549250631 0.5 0.5)">
			<stop offset="0.055" stop-color="#9cebff" stop-opacity="1"/>
			<stop offset="1" stop-color="#50e6ff" stop-opacity="1"/>
		</linearGradient>
		<linearGradient id="grad0-99" x1="0" y1="0" x2="1" y2="0" gradientTransform="rotate(91.585450749371 0.5 0.5)">
			<stop offset="0.055" stop-color="#9cebff" stop-opacity="1"/>
			<stop offset="1" stop-color="#50e6ff" stop-opacity="1"/>
		</linearGradient>
		<linearGradient id="grad0-111" x1="0" y1="0" x2="1" y2="0" gradientTransform="rotate(89.442413119596 0.5 0.5)">
			<stop offset="0.005" stop-color="#83b9f9" stop-opacity="1"/>
			<stop offset="1" stop-color="#5ea0ef" stop-opacity="1"/>
		</linearGradient>
		<linearGradient id="grad0-115" x1="0" y1="0" x2="1" y2="0" gradientTransform="rotate(57.295779513082 0.5 0.5)">
			<stop offset="0.005" stop-color="#83b9f9" stop-opacity="1"/>
			<stop offset="1" stop-color="#5ea0ef" stop-opacity="1"/>
		</linearGradient>
		<radialGradient id="grad1-140" cx="1" cy="1" r="1.4">
			<stop offset="0.27" stop-color="#ffd70f" stop-opacity="1"/>
			<stop offset="0.49" stop-color="#ffcb12" stop-opacity="1"/>
			<stop offset="0.88" stop-color="#feac19" stop-opacity="1"/>
			<stop offset="1" stop-color="#fea11b" stop-opacity="1"/>
		</radialGradient>
	</defs>
	<defs id="Markers">
		<g id="lend13">
			<path d="M 3 1 L 0 0 L 3 -1 L 3 1 " style="stroke:none"/>
		</g>
		<marker id="mrkr13-162" class="st34" v:arrowType="13" v:arrowSize="2" v:setback="13.08" refX="-13.08" orient="auto"
				markerUnits="strokeWidth" overflow="visible">
			<use xlink:href="#lend13" transform="scale(-4.36,-4.36) "/>
		</marker>
		<marker id="mrkr13-177" class="st34" v:arrowType="13" v:arrowSize="2" v:setback="12.6" refX="12.6" orient="auto"
				markerUnits="strokeWidth" overflow="visible">
			<use xlink:href="#lend13" transform="scale(4.36) "/>
		</marker>
	</defs>
	<g v:mID="0" v:index="1" v:groupContext="foregroundPage">
		<title>Page-1</title>
		<v:pageProperties v:drawingScale="0.0138889" v:pageScale="0.0138889" v:drawingUnits="29" v:shadowOffsetX="8.50394"
				v:shadowOffsetY="-8.50394"/>
		<v:layer v:name="Connector" v:index="0"/>
		<g id="shape1311-1" v:mID="1311" v:groupContext="shape" transform="translate(0.375,-0.375)">
			<title>Sheet.1311</title>
			<rect x="0" y="3.80547" width="415" height="321.168" class="st1"/>
		</g>
		<g id="group1347-3" transform="translate(35.7062,-39.2639)" v:mID="1347" v:groupContext="group">
			<title>Sheet.1347</title>
			<g id="shape1345-4" v:mID="1345" v:groupContext="shape" transform="translate(98.8718,0)">
				<title>Rounded Rectangle.1345</title>
				<v:userDefs>
					<v:ud v:nameU="CTypeTopLeftSnip" v:prompt="" v:val="VT0(0):5"/>
					<v:ud v:nameU="CTypeTopRightSnip" v:prompt="" v:val="VT0(0):5"/>
					<v:ud v:nameU="CTypeBotLeftSnip" v:prompt="" v:val="VT0(0):5"/>
					<v:ud v:nameU="CTypeBotRightSnip" v:prompt="" v:val="VT0(0):5"/>
					<v:ud v:nameU="CornerLockHoriz" v:prompt="" v:val="VT0(1):5"/>
					<v:ud v:nameU="CornerLockVert" v:prompt="" v:val="VT0(1):5"/>
					<v:ud v:nameU="CornerLockDiag" v:prompt="" v:val="VT0(0):5"/>
					<v:ud v:nameU="TopLeftOffset" v:prompt="" v:val="VT0(0.15):1"/>
					<v:ud v:nameU="TopRightOffset" v:prompt="" v:val="VT0(0.15):1"/>
					<v:ud v:nameU="BotLeftOffset" v:prompt="" v:val="VT0(0.15):1"/>
					<v:ud v:nameU="BotRightOffset" v:prompt="" v:val="VT0(0.15):1"/>
					<v:ud v:nameU="visVersion" v:prompt="" v:val="VT0(15):26"/>
					<v:ud v:nameU="TopLeftOffset" v:prompt="" v:val="VT0(0.26753916724699):1"/>
					<v:ud v:nameU="TopRightOffset" v:prompt="" v:val="VT0(0.26753916724699):1"/>
					<v:ud v:nameU="BotLeftOffset" v:prompt="" v:val="VT0(0.26753916724699):1"/>
					<v:ud v:nameU="BotRightOffset" v:prompt="" v:val="VT0(0.26753916724699):1"/>
				</v:userDefs>
				<path d="M19.26 324.97 L173.37 324.97 A19.2625 19.2625 -180 0 0 192.63 305.71 L192.63 90.1 A19.2625 19.2625 -180
							 0 0 173.37 70.84 L19.26 70.84 A19.2625 19.2625 -180 0 0 0 90.1 L0 305.71 A19.2625 19.2625 -180 0 0 19.26
							 324.97 Z" class="st2"/>
			</g>
			<g id="group1332-6" transform="translate(119.128,-213.59)" v:mID="1332" v:groupContext="group">
				<title>Sheet.1332</title>
				<g id="shape1331-7" v:mID="1331" v:groupContext="shape">
					<title>Rectangle.1331</title>
					<v:userDefs>
						<v:ud v:nameU="visVersion" v:val="VT0(15):26"/>
					</v:userDefs>
					<rect x="0" y="252.974" width="147" height="72" class="st3"/>
				</g>
				<g id="group1330-9" transform="translate(3.71429,-25)" v:mID="1330" v:groupContext="group">
					<title>Sheet.1330</title>
					<g id="shape383-10" v:mID="383" v:groupContext="shape" transform="translate(29.5,-6.65405)">
						<title>Sheet.383</title>
						<desc>Media Services account</desc>
						<v:textBlock v:margins="rect(4,4,4,4)" v:verticalAlign="0"/>
						<v:textRect cx="60.6071" cy="315.503" width="121.22" height="18.9403"/>
						<rect x="0" y="306.033" width="121.214" height="18.9403" class="st4"/>
						<text x="8.96" y="319.03" class="st5" v:langID="1033"><v:paragraph v:horizAlign="1"/><v:tabList/>Media Services account</text>					</g>
					<g id="group1020-13" v:mID="1020" v:groupContext="group">
						<title>Sheet.1020</title>
						<g id="group1021-14" v:mID="1021" v:groupContext="group">
							<title>Sheet.1021</title>
							<g id="shape1022-15" v:mID="1022" v:groupContext="shape" transform="translate(5.31524,-20.8877)">
								<title>Sheet.1022</title>
								<path d="M13.65 320.34 L22.81 324.97 L29.2 321.73 A18.4346 16.203 -180 0 0 0 318.31 A21.0073 18.4643
											 0 0 1 13.65 320.34 Z" class="st6"/>
							</g>
							<g id="shape1023-19" v:mID="1023" v:groupContext="shape" transform="translate(23.515,-8.19918)">
								<title>Sheet.1023</title>
								<path d="M4.49 312.29 L4.35 323.41 L10.99 324.97 A18.4346 16.203 -180 0 0 -0 301.4 A21.8942 19.2438
											 0 0 1 4.49 312.29 Z" class="st7"/>
							</g>
							<g id="shape1024-21" v:mID="1024" v:groupContext="shape" transform="translate(18.4513,0)">
								<title>Sheet.1024</title>
								<path d="M9.54 313.68 L0 318.52 L0.15 324.97 A18.4513 16.2177 -180 0 0 18.52 308.76 A17.6797 15.5396
											 -180 0 0 17.92 304.9 A20.0721 17.6423 0 0 1 9.54 313.68 Z" class="st8"/>
							</g>
							<g id="shape1025-23" v:mID="1025" v:groupContext="shape" transform="translate(2.56851,-0.106287)">
								<title>Sheet.1025</title>
								<path d="M15.88 318.63 L6.33 313.78 L0 317.12 A18.4094 16.1809 -180 0 0 28.67 320.59 A20.7745 18.2597
											 0 0 1 15.88 318.63 Z" class="st9"/>
							</g>
							<g id="shape1026-27" v:mID="1026" v:groupContext="shape" transform="translate(0,-0.508648)">
								<title>Sheet.1026</title>
								<path d="M8.89 314.19 L9.04 302.69 L2.5 301.18 A18.3339 16.1145 -180 0 0 0 309.31 A18.5499 16.3044
											 -180 0 0 13.7 324.97 A21.3679 18.7813 0 0 1 8.89 314.19 Z" class="st7"/>
							</g>
							<g id="shape1027-29" v:mID="1027" v:groupContext="shape" transform="translate(1.79856E-13,-11.8979)">
								<title>Sheet.1027</title>
								<path d="M9.23 315.72 L18.45 311.04 A22.1814 19.4963 -180 0 0 5.99 308.74 A18.3633 16.1403 -180 0
											 0 0 320.7 A18.8979 16.6103 -180 0 0 0.66 324.97 A21.4916 18.89 0 0 1 9.23 315.72 Z"
										class="st8"/>
							</g>
						</g>
						<g id="shape1028-31" v:mID="1028" v:groupContext="shape" transform="translate(8.89438,-6.45024)">
							<title>Sheet.1028</title>
							<path d="M19.1 320.13 L19.1 310.43 L9.55 305.59 L0 310.43 L0 320.13 L9.55 324.97 L19.1 320.13 Z"
									class="st10"/>
						</g>
						<g id="shape1029-33" v:mID="1029" v:groupContext="shape" transform="translate(8.89438,-6.45024)">
							<title>Sheet.1029</title>
							<path d="M9.56 315.38 L9.56 324.97 L0 320.13 L0 310.47 L9.56 315.38 Z" class="st11"/>
						</g>
						<g id="shape1030-37" v:mID="1030" v:groupContext="shape" transform="translate(18.445,-6.45024)">
							<title>Sheet.1030</title>
							<path d="M0 315.38 L0 324.97 L9.56 320.13 L9.56 310.47 L0 315.38 Z" class="st12"/>
						</g>
					</g>
				</g>
			</g>
			<g id="group1334-39" transform="translate(0,-94.6429)" v:mID="1334" v:groupContext="group">
				<title>Sheet.1334</title>
				<g id="shape1333-40" v:mID="1333" v:groupContext="shape" transform="translate(0.711536,0)">
					<title>Rectangle.1333</title>
					<v:userDefs>
						<v:ud v:nameU="visVersion" v:val="VT0(15):26"/>
					</v:userDefs>
					<rect x="0" y="252.974" width="69" height="72" class="st3"/>
				</g>
				<g id="group1047-42" transform="translate(1.14286,-9.28571)" v:mID="1047" v:groupContext="group">
					<title>Sheet.1047</title>
					<g id="group1032-43" transform="translate(8.54632,-12.9064)" v:mID="1032" v:groupContext="group">
						<title>Sheet.1032</title>
						<g id="shape1033-44" v:mID="1033" v:groupContext="shape" transform="translate(17.786,-1.83728)">
							<title>Sheet.1033</title>
							<path d="M2.3 315.66 C0 316.96 7.78 316.27 11.77 318.57 C15.76 320.86 14.77 324.97 16.75 323.95 C18.14
										 323.16 18.34 319.35 14.35 317.05 C10.36 314.76 4.18 314.58 2.3 315.66 Z" class="st13"/>
						</g>
						<g id="shape1034-48" v:mID="1034" v:groupContext="shape" transform="translate(30.7331,-12.4372)">
							<title>Sheet.1034</title>
							<path d="M0 323.47 L2.56 321.97 L5.16 323.44 L2.6 324.97 L0 323.47 Z" class="st14"/>
						</g>
						<g id="shape1035-50" v:mID="1035" v:groupContext="shape" transform="translate(14.8397,-1.7053E-13)">
							<title>Sheet.1035</title>
							<path d="M32.22 301.42 L32.26 324.97 L0.04 306.61 L0 283.06 L32.22 301.42 Z" class="st15"/>
						</g>
						<g id="shape1036-52" v:mID="1036" v:groupContext="shape" transform="translate(16.2337,-2.24087)">
							<title>Sheet.1036</title>
							<path d="M0.04 307.98 L0 287.73 L29.45 304.72 L29.49 324.97 L0.04 307.98 Z" class="st16"/>
						</g>
						<g id="shape1037-54" v:mID="1037" v:groupContext="shape" transform="translate(47.0283,-0.0749217)">
							<title>Sheet.1037</title>
							<path d="M0 301.42 L1.34 300.65 L1.38 324.21 L0.04 324.97 L0 301.42 Z" class="st17"/>
						</g>
						<g id="shape1038-56" v:mID="1038" v:groupContext="shape" transform="translate(14.8397,-23.5408)">
							<title>Sheet.1038</title>
							<path d="M0 306.6 L1.35 305.79 L33.57 324.2 L32.22 324.97 L0 306.6 Z" class="st17"/>
						</g>
						<g id="shape1039-58" v:mID="1039" v:groupContext="shape" transform="translate(26.8428,-26.5658)">
							<title>Sheet.1039</title>
							<path d="M0 324.93 L0.65 324.56 C0.72 324.53 0.8 324.52 0.87 324.53 C0.95 324.53 1.02 324.56 1.08 324.6
										 L0.43 324.97 C0.37 324.93 0.3 324.9 0.22 324.9 C0.14 324.89 0.07 324.9 0 324.93 Z"
									class="st18"/>
						</g>
						<g id="shape1040-60" v:mID="1040" v:groupContext="shape" transform="translate(27.2713,-26.2821)">
							<title>Sheet.1040</title>
							<path d="M0 324.69 L0.65 324.32 C0.78 324.39 0.88 324.49 0.97 324.6 L0.32 324.97 C0.23 324.86 0.12 324.76
										 0 324.69 Z" class="st18"/>
						</g>
						<g id="shape1041-62" v:mID="1041" v:groupContext="shape" transform="translate(27.5887,-18.6351)">
							<title>Sheet.1041</title>
							<path d="M0 317.33 L0.65 316.96 L6.54 324.6 L5.89 324.97 L0 317.33 Z" class="st18"/>
						</g>
						<g id="shape1042-64" v:mID="1042" v:groupContext="shape" transform="translate(33.4713,-17.6362)">
							<title>Sheet.1042</title>
							<path d="M0.75 324.6 L0.1 324.97 C0.33 324.84 0.3 324.37 0 323.97 L0.65 323.6 C0.95 323.99 0.98 324.47
										 0.75 324.6 Z" class="st18"/>
						</g>
						<g id="shape1043-66" v:mID="1043" v:groupContext="shape" transform="translate(26.6654,-16.6445)">
							<title>Sheet.1043</title>
							<path d="M0.61 315.05 C0.73 315.13 0.84 315.22 0.92 315.34 L6.81 322.98 C7.15 323.42 7.15 323.96 6.81
										 324.02 L0.9 324.96 C0.79 324.97 0.68 324.95 0.58 324.89 C0.42 324.78 0.28 324.64 0.18 324.48
										 C0.07 324.31 0.01 324.12 0 323.93 L0.01 319.64 L0.02 315.35 C0.02 314.98 0.3 314.89 0.61
										 315.05 Z" class="st19"/>
						</g>
						<g id="shape1044-70" v:mID="1044" v:groupContext="shape" transform="translate(0,-0.327758)">
							<title>Sheet.1044</title>
							<path d="M15.41 319.59 C15.19 317.71 14.3 315.99 12.89 314.73 C11.49 313.47 9.67 312.77 7.79 312.76 C5.9
										 312.75 4.08 313.43 2.66 314.67 C1.24 315.9 0.32 317.62 0.08 319.49 C0.02 319.76 0 320.03
										 0.01 320.3 C0.11 321.38 0.86 322.43 2.27 323.24 C5.29 324.97 10.2 324.97 13.19 323.24 C14.6
										 322.43 15.32 321.38 15.41 320.3 C15.46 320.07 15.46 319.82 15.41 319.59 Z" class="st20"/>
						</g>
						<g id="shape1045-74" v:mID="1045" v:groupContext="shape" transform="translate(3.10722,-13.3194)">
							<title>Sheet.1045</title>
							<path d="M4.64 324.97 C5.56 324.97 6.45 324.69 7.2 324.18 C7.96 323.67 8.55 322.95 8.89 322.1 C9.24 321.26
										 9.33 320.33 9.14 319.44 C8.96 318.54 8.52 317.72 7.87 317.08 C7.23 316.43 6.4 316 5.51 315.82
										 C4.61 315.65 3.69 315.74 2.84 316.09 C2 316.44 1.28 317.03 0.78 317.79 C0.27 318.55 0 319.44
										 0 320.35 C0 320.96 0.12 321.56 0.35 322.13 C0.59 322.69 0.93 323.2 1.36 323.63 C1.79 324.06
										 2.31 324.4 2.87 324.63 C3.43 324.86 4.04 324.97 4.64 324.97 Z" class="st21"/>
						</g>
					</g>
					<g id="shape1046-78" v:mID="1046" v:groupContext="shape" transform="translate(1.31868,4.185)">
						<title>Sheet.1046</title>
						<desc>Internet Viewer</desc>
						<v:textBlock v:margins="rect(4,4,4,4)"/>
						<v:textRect cx="32.75" cy="318.52" width="65.51" height="12.9064"/>
						<rect x="0" y="312.067" width="65.5" height="12.9064" class="st4"/>
						<text x="17.14" y="315.82" class="st22" v:langID="1033"><v:paragraph v:horizAlign="1"/><v:tabList/>Internet <tspan
									x="19.34" dy="1.2em" class="st23">Viewer</tspan></text>					</g>
				</g>
			</g>
			<g id="group1336-82" transform="translate(183.941,-125.9)" v:mID="1336" v:groupContext="group">
				<title>Sheet.1336</title>
				<g id="shape1335-83" v:mID="1335" v:groupContext="shape">
					<title>Rectangle.1333</title>
					<v:userDefs>
						<v:ud v:nameU="visVersion" v:val="VT0(15):26"/>
					</v:userDefs>
					<rect x="0" y="223.988" width="69" height="100.986" class="st3"/>
				</g>
				<g id="group1313-85" transform="translate(8.9875,-1.24287)" v:mID="1313" v:groupContext="group">
					<title>Sheet.1313</title>
					<g id="group1299-86" transform="translate(7.99361E-15,-35)" v:mID="1299" v:groupContext="group">
						<title>Sheet.1299</title>
						<g id="group1300-87" transform="translate(8.23632,-2.42794)" v:mID="1300" v:groupContext="group">
							<title>Layer_3</title>
							<g id="shape1301-88" v:mID="1301" v:groupContext="shape" transform="translate(-3.59712E-14,-15.6882)">
								<title>Sheet.1301</title>
								<rect x="0" y="309.659" width="4.01772" height="15.3147" class="st24"/>
							</g>
							<g id="shape1302-92" v:mID="1302" v:groupContext="shape" transform="translate(9.84341,2.27374E-13)">
								<title>Sheet.1302</title>
								<path d="M16.27 321.8 L14.26 324.97 L0 317.32 L0 294.16 L3.82 294.16 L3.82 315.08 L16.27 321.8 Z"
										class="st25"/>
							</g>
							<g id="shape1303-96" v:mID="1303" v:groupContext="shape" transform="translate(19.4859,-12.7)">
								<title>Sheet.1303</title>
								<path d="M0 321.8 L2.01 324.97 L16.27 317.32 L16.27 294.16 L12.45 294.16 L12.45 315.08 L0 321.8 Z"
										class="st26"/>
							</g>
						</g>
						<g id="group1304-100" transform="translate(5.22303,0)" v:mID="1304" v:groupContext="group">
							<title>Layer_4</title>
							<g id="shape1305-101" v:mID="1305" v:groupContext="shape" transform="translate(0,-9.15147)">
								<title>Sheet.1305</title>
								<ellipse cx="5.02215" cy="320.304" rx="5.02215" ry="4.66912" class="st8"/>
							</g>
							<g id="shape1306-103" v:mID="1306" v:groupContext="shape" transform="translate(22.0974,-13.8206)">
								<title>Sheet.1306</title>
								<ellipse cx="5.02215" cy="320.304" rx="5.02215" ry="4.66912" class="st8"/>
							</g>
							<g id="shape1307-105" v:mID="1307" v:groupContext="shape" transform="translate(22.4992,-1.13687E-13)">
								<title>Sheet.1307</title>
								<ellipse cx="5.02215" cy="320.304" rx="5.02215" ry="4.66912" class="st8"/>
							</g>
						</g>
						<g id="group1308-107" transform="translate(0,-29.5088)" v:mID="1308" v:groupContext="group">
							<title>Layer_2</title>
							<g id="shape1309-108" v:mID="1309" v:groupContext="shape">
								<title>Sheet.1309</title>
								<path d="M51.03 314.33 C51.03 320.12 46 324.97 39.57 324.97 L13.06 324.97 C12.86 324.97 12.66 324.97
											 12.66 324.97 C5.62 324.79 0 319.37 0 312.65 C0 306.48 4.82 301.44 11.05 300.51 C13.06
											 294.9 18.68 290.98 25.31 290.98 C33.15 290.98 39.57 296.59 40.38 303.68 C46.4 304.24
											 51.03 308.73 51.03 314.33 Z" class="st27"/>
							</g>
							<g id="shape1310-112" v:mID="1310" v:groupContext="shape" transform="translate(12.6558,0)">
								<title>Sheet.1310</title>
								<path d="M0.4 324.97 L0 324.97 C0.2 324.97 0.2 324.97 0.4 324.97 Z" class="st28"/>
							</g>
						</g>
					</g>
					<g id="shape1312-116" v:mID="1312" v:groupContext="shape" transform="translate(0.0124999,-5.64285)">
						<title>Sheet.1312</title>
						<desc>Streaming Endpoint</desc>
						<v:textBlock v:margins="rect(4,4,4,4)" v:verticalAlign="0"/>
						<v:textRect cx="25.5" cy="309.432" width="51.01" height="31.0832"/>
						<rect x="0" y="293.89" width="51" height="31.0832" class="st4"/>
						<text x="5.21" y="305.99" class="st22" v:langID="1033"><v:paragraph v:horizAlign="1"/><v:tabList/>Streaming <tspan
									x="7.58" dy="1.2em" class="st23">Endpoint</tspan></text>					</g>
				</g>
			</g>
			<g id="group1338-120" transform="translate(183.941,-27.1429)" v:mID="1338" v:groupContext="group">
				<title>Sheet.1338</title>
				<g id="shape1337-121" v:mID="1337" v:groupContext="shape">
					<title>Rectangle.1333</title>
					<v:userDefs>
						<v:ud v:nameU="visVersion" v:val="VT0(15):26"/>
					</v:userDefs>
					<rect x="0" y="223.988" width="69" height="100.986" class="st3"/>
				</g>
				<g id="group1329-123" transform="translate(8.64286,-1.25903)" v:mID="1329" v:groupContext="group">
					<title>Sheet.1329</title>
					<g id="group1315-124" transform="translate(1.19904E-14,-30.3571)" v:mID="1315" v:groupContext="group">
						<title>Sheet.1315</title>
						<g id="group1316-125" transform="translate(0,-34.1461)" v:mID="1316" v:groupContext="group">
							<title>Sheet.1316</title>
							<g id="shape1317-126" v:mID="1317" v:groupContext="shape" transform="translate(7.08271,-12.1545)">
								<title>Sheet.1317</title>
								<path d="M0 322.55 L16.53 322.55 L16.53 324.97 L0 324.97 L0 322.55 Z" class="st12"/>
							</g>
							<g id="group1318-128" transform="translate(7.08271,-7.30785)" v:mID="1318" v:groupContext="group">
								<title>Sheet.1318</title>
								<g id="shape1319-129" v:mID="1319" v:groupContext="shape">
									<title>Sheet.1319</title>
									<path d="M0 322.55 L16.53 322.55 L16.53 324.97 L0 324.97 L0 322.55 Z" class="st12"/>
								</g>
								<g id="shape1320-131" v:mID="1320" v:groupContext="shape" transform="translate(0.0553337,-13.0443)">
									<title>Sheet.1320</title>
									<path d="M2.53 324.86 A46.9414 48.1826 0 0 1 16.45 322.61 A46.6278 47.8607 0 0 1 30.38 324.86
												 A2.78513 2.85877 -180 0 0 31.04 324.97 A1.84446 1.89323 -180 0 0 32.89 323.53 A2.04735
												 2.10148 -180 0 0 31.65 320.87 A48.3616 49.6404 -180 0 0 16.47 318.33 A49.1547 50.4545
												 -180 0 0 1.24 320.87 A2.10268 2.15828 -180 0 0 0 323.53 A2.01046 2.06362 -180 0
												 0 2.53 324.86 Z" class="st12"/>
								</g>
							</g>
							<g id="shape1321-133" v:mID="1321" v:groupContext="shape">
								<title>Sheet.1321</title>
								<path d="M0 324.97 L47.2 324.97 L47.2 291.01 L0 291.01 L0 324.97 ZM43.66 321.34 L3.58 321.34 L3.58
											 294.68 L43.66 294.68 L43.66 321.28 L43.66 321.34 Z" class="st29"/>
							</g>
						</g>
						<g id="shape1322-135" v:mID="1322" v:groupContext="shape" transform="translate(24.0517,-29.8863)">
							<title>Sheet.1322</title>
							<ellipse cx="9.88628" cy="314.826" rx="9.88628" ry="10.1477" class="st16"/>
						</g>
						<g id="shape1323-137" v:mID="1323" v:groupContext="shape" transform="translate(17.9439,0)">
							<title>Sheet.1323</title>
							<path d="M30.27 293.04 A5.90226 6.05832 -180 0 0 30.27 284.5 L20.14 274.05 A5.9207 6.07725 -180 0 0 11.84
										 274.05 L1.7 284.5 A5.93915 6.09619 -180 0 0 1.7 293.04 L10.13 301.87 A1.62312 1.66604 0
										 0 1 10.61 303.06 L10.61 319.23 A2.0289 2.08255 -180 0 0 11.2 320.68 L15.15 324.58 A1.30956
										 1.34419 -180 0 0 16.99 324.58 L20.68 320.8 L22.86 318.54 a0.774671 0.795155 -180 0 0 1.06581E-14
										 -1.117 L21.29 315.82 a0.885339 0.908748 0 0 1 -7.10543E-15 -1.2306 L22.86 312.98 a0.774671
										 0.795155 -180 0 0 -1.77636E-14 -1.117 L21.29 310.23 a0.885339 0.908748 0 0 1 -1.06581E-14
										 -1.2306 L22.86 307.39 a0.774671 0.795155 -180 0 0 -2.84217E-14 -1.117 L20.68 303.95 L20.68
										 303.11 L30.27 293.04 ZM15.99 276.61 A3.33846 3.42674 0 0 1 16.14 283.44 L15.99 283.44 A3.33846
										 3.42674 0 0 1 15.83 276.61 L15.99 276.61 Z" class="st30"/>
						</g>
						<g id="shape1324-141" v:mID="1324" v:groupContext="shape" transform="translate(31.0237,-5.37801)">
							<title>Sheet.1324</title>
							<path d="M0.22 324.76 a0.756227 0.776222 -180 0 0 1.05134 0 a0.737782 0.75729 -180 0 0 0.184446 -0.492239
										 L1.46 311.01 a0.719338 0.738358 -180 0 0 -0.350447 -0.643697 a0.682449 0.700493 -180 0 0
										 -0.977562 0.208255 a0.719338 0.738358 -180 0 0 -0.129112 0.435442 L0 324.26 a0.940672 0.965545
										 -180 0 0 0.239779 0.567968 L0.22 324.76 Z" class="st31"/>
						</g>
						<g id="shape1325-143" v:mID="1325" v:groupContext="shape" transform="translate(25.8224,-34.998)">
							<title>Sheet.1325</title>
							<path d="M0 324.05 a0.903783 0.92768 -180 0 0 0.903783 0.92768 L15.66 324.97 a0.903783 0.92768 -180 0
										 0 0.903783 -0.92768 L16.56 323.93 a0.903783 0.92768 -180 0 0 -0.903783 -0.92768 L0.9 323
										 a0.903783 0.92768 -180 0 0 -0.903783 0.92768 L0 324.05 Z" class="st31"/>
						</g>
						<g id="shape1326-145" v:mID="1326" v:groupContext="shape" transform="translate(25.8224,-31.7227)">
							<title>Sheet.1326</title>
							<path d="M0 324.05 a0.903783 0.92768 -180 0 0 0.903783 0.92768 L15.66 324.97 a0.903783 0.92768 -180 0
										 0 0.903783 -0.92768 L16.56 323.88 a0.885339 0.908748 -180 0 0 -0.903783 -0.908748 L0.9 322.97
										 a0.903783 0.92768 -180 0 0 -0.903783 0.92768 L0 324.05 Z" class="st31"/>
						</g>
						<g id="shape1327-147" v:mID="1327" v:groupContext="shape" transform="translate(29.5851,-40.0908)">
							<title>Sheet.1327</title>
							<path d="M7.67 318.48 L7.89 316.85 L6.36 317.15 L5.77 315.58 L4.59 316.66 L3.36 315.58 L2.82 317.15 L1.24
										 316.85 L1.53 318.48 L0 319.03 L1.05 320.3 L0 321.51 L1.53 322.11 L1.24 323.71 L2.82 323.46
										 L3.36 324.97 L4.59 323.93 L5.77 324.97 L6.36 323.46 L7.89 323.71 L7.67 322.11 L9.13 321.51
										 L8.13 320.3 L9.13 319.03 L7.67 318.48 Z" class="st16"/>
						</g>
					</g>
					<g id="shape1328-149" v:mID="1328" v:groupContext="shape" transform="translate(0.714286,0)">
						<title>Sheet.1328</title>
						<desc>Key Delivery</desc>
						<v:textBlock v:margins="rect(4,4,4,4)" v:verticalAlign="0"/>
						<v:textRect cx="25.5" cy="309.432" width="51.01" height="31.0832"/>
						<rect x="0" y="293.89" width="51" height="31.0832" class="st4"/>
						<text x="18.36" y="305.99" class="st22" v:langID="1033"><v:paragraph v:horizAlign="1"/><v:tabList/>Key <tspan
									x="9.56" dy="1.2em" class="st23">Delivery</tspan></text>					</g>
				</g>
			</g>
			<g id="shape1343-153" v:mID="1343" v:groupContext="shape" transform="translate(108.231,-47.6923)">
				<title>Sheet.1343</title>
				<desc>content key request</desc>
				<v:textBlock v:margins="rect(4,4,4,4)"/>
				<v:textRect cx="32.2218" cy="312.727" width="64.45" height="24.4923"/>
				<rect x="0" y="300.481" width="64.4436" height="24.4923" class="st1"/>
				<text x="17.96" y="310.03" class="st32" v:langID="1033"><v:paragraph v:horizAlign="1"/><v:tabList/>content <v:newlineChar/><tspan
							x="10.84" dy="1.2em" class="st23">key request</tspan></text>			</g>
			<g id="shape1339-157" v:mID="1339" v:groupContext="shape" v:layerMember="0" transform="translate(86.5,-129.4)">
				<title>Dynamic connector.1339</title>
				<path d="M0 324.97 L0 375.87 L86.69 375.87" class="st33"/>
			</g>
			<g id="shape1342-163" v:mID="1342" v:groupContext="shape" transform="translate(114.513,-181.026)">
				<title>Sheet.1342</title>
				<desc>media request</desc>
				<v:textBlock v:margins="rect(4,4,4,4)"/>
				<v:textRect cx="25.9397" cy="314.974" width="51.88" height="20"/>
				<rect x="0" y="304.974" width="51.8795" height="20" class="st1"/>
				<text x="14.55" y="312.27" class="st32" v:langID="1033"><v:paragraph v:horizAlign="1"/><v:tabList/>media <tspan
							x="11.9" dy="1.2em" class="st23">request</tspan></text>			</g>
			<g id="shape1340-167" v:mID="1340" v:groupContext="shape" v:layerMember="0" transform="translate(86.5,-126.2)">
				<title>Dynamic connector.1340</title>
				<path d="M0 324.97 L0 274.67 L86.69 274.67" class="st33"/>
			</g>
			<g id="shape1341-172" v:mID="1341" v:groupContext="shape" v:layerMember="0" transform="translate(64.9615,-118.269)">
				<title>Dynamic connector.1341</title>
				<path d="M13.1 312.47 L13.46 312.47 L21.35 312.47" class="st35"/>
			</g>
		</g>
		<g id="shape1348-178" v:mID="1348" v:groupContext="shape" transform="translate(0.375,-0.375)">
			<title>Sheet.1348</title>
			<desc>No private endpoints</desc>
			<v:textBlock v:margins="rect(4,4,4,4)"/>
			<v:textRect cx="207.5" cy="312.757" width="415" height="24.4337"/>
			<rect x="0" y="300.54" width="415" height="24.4337" class="st1"/>
			<text x="162.59" y="315.46" class="st36" v:langID="1033"><v:paragraph v:horizAlign="1"/><v:tabList/>No private endpoints</text>		</g>
	</g>
</svg>
