<?xml version="1.0" encoding="UTF-8" standalone="no"?>
<!DOCTYPE svg PUBLIC "-//W3C//DTD SVG 1.1//EN" "http://www.w3.org/Graphics/SVG/1.1/DTD/svg11.dtd">
<!-- Generated by Microsoft Visio, SVG Export app-registration.svg Page-1 -->
<svg xmlns="http://www.w3.org/2000/svg" xmlns:xlink="http://www.w3.org/1999/xlink" xmlns:ev="http://www.w3.org/2001/xml-events"
		xmlns:v="http://schemas.microsoft.com/visio/2003/SVGExtensions/" width="0.788387in" height="0.797557in"
		viewBox="0 0 56.7638 57.4241" xml:space="preserve" color-interpolation-filters="sRGB" class="st5">
	<v:documentProperties v:langID="1033" v:viewMarkup="false"/>

	<style type="text/css">
	<![CDATA[
		.st1 {fill:url(#grad0-5);stroke:none;stroke-linecap:butt;stroke-width:0.75}
		.st2 {fill:#32bedd;stroke:none;stroke-linecap:butt;stroke-width:0.75}
		.st3 {fill:#9cebff;stroke:none;stroke-linecap:butt;stroke-width:0.75}
		.st4 {fill:#50e6ff;stroke:none;stroke-linecap:butt;stroke-width:0.75}
		.st5 {fill:none;fill-rule:evenodd;font-size:12px;overflow:visible;stroke-linecap:square;stroke-miterlimit:3}
	]]>
	</style>

	<defs id="Patterns_And_Gradients">
		<linearGradient id="grad0-5" x1="0" y1="0" x2="1" y2="0" gradientTransform="rotate(90 0.5 0.5)">
			<stop offset="0" stop-color="#5ea0ef" stop-opacity="1"/>
			<stop offset="0.18" stop-color="#589eed" stop-opacity="1"/>
			<stop offset="0.41" stop-color="#4897e9" stop-opacity="1"/>
			<stop offset="0.66" stop-color="#2e8ce1" stop-opacity="1"/>
			<stop offset="0.94" stop-color="#0a7cd7" stop-opacity="1"/>
			<stop offset="1" stop-color="#0078d4" stop-opacity="1"/>
		</linearGradient>
	</defs>
	<g v:mID="0" v:index="1" v:groupContext="foregroundPage">
		<title>Page-1</title>
		<v:pageProperties v:drawingScale="1" v:pageScale="1" v:drawingUnits="19" v:shadowOffsetX="9" v:shadowOffsetY="-9"/>
		<g id="group1069-1" transform="translate(0.75,-0.75)" v:mID="1069" v:groupContext="group">
			<title>Icon-identity-232</title>
			<g id="shape1070-2" v:mID="1070" v:groupContext="shape" transform="translate(2.79776E-13,-8.38531)">
				<title>Sheet.1070</title>
				<path d="M16.64 43.16 L30.93 43.16 L30.93 57.42 L16.64 57.42 L16.64 43.16 ZM0.13 24.15 L14.43 24.15 L14.43 9.89 L1.98
							 9.89 A1.98078 1.98078 -180 0 0 -0 11.87 L0.13 24.15 ZM2.11 57.42 L14.43 57.42 L14.43 43.16 L0 43.16
							 L0 55.44 A1.98078 1.98078 -180 0 0 1.98 57.42 L2.11 57.42 ZM0.13 40.92 L14.43 40.92 L14.43 26.52 L0
							 26.52 L0.13 40.92 ZM33.41 57.42 L45.69 57.42 A1.98078 1.98078 -180 0 0 47.67 55.44 L47.67 43.16 L33.28
							 43.16 L33.41 57.42 ZM16.9 40.92 L30.93 40.92 L30.93 26.52 L16.64 26.52 L16.9 40.92 ZM33.41 40.92 L47.44
							 40.92 L47.44 26.52 L33.28 26.52 L33.41 40.92 ZM33.41 10.02 L33.41 24.15 L47.44 24.15 L47.44 11.87 A1.98078
							 1.98078 -180 0 0 45.46 9.89 L33.41 10.02 ZM16.9 24.28 L30.93 24.28 L30.93 9.89 L16.64 9.89 L16.9 24.28
							 Z" class="st1"/>
			</g>
			<g id="shape1071-6" v:mID="1071" v:groupContext="shape" transform="translate(42.4878,0)">
				<title>Sheet.1071</title>
				<path d="M12.78 35.07 L12.78 49.96 L0 57.42 L0 42.54 L12.78 35.07 Z" class="st2"/>
			</g>
			<g id="shape1072-8" v:mID="1072" v:groupContext="shape" transform="translate(29.7117,-14.8559)">
				<title>Sheet.1072</title>
				<path d="M25.55 49.93 L12.78 57.42 L0 49.93 L12.78 42.47 L25.55 49.93 Z" class="st3"/>
			</g>
			<g id="shape1073-10" v:mID="1073" v:groupContext="shape" transform="translate(29.7117,0)">
				<title>Sheet.1073</title>
				<path d="M12.78 42.57 L12.78 57.42 L0 49.96 L0 35.07 L12.78 42.57 Z" class="st4"/>
			</g>
			<g id="shape1074-12" v:mID="1074" v:groupContext="shape" transform="translate(29.7117,2.70006E-13)">
				<title>Sheet.1074</title>
				<path d="M0 49.96 L12.78 42.54 L12.78 57.42 L0 49.96 Z" class="st3"/>
			</g>
			<g id="shape1075-14" v:mID="1075" v:groupContext="shape" transform="translate(42.4878,2.70006E-13)">
				<title>Sheet.1075</title>
				<path d="M12.78 49.96 L0 42.54 L0 57.42 L12.78 49.96 Z" class="st4"/>
			</g>
		</g>
	</g>
</svg>
