<?xml version="1.0" encoding="UTF-8" standalone="no"?>
<!DOCTYPE svg PUBLIC "-//W3C//DTD SVG 1.1//EN" "http://www.w3.org/Graphics/SVG/1.1/DTD/svg11.dtd">
<!-- Generated by Microsoft Visio, SVG Export asset.svg Page-1 -->
<svg xmlns="http://www.w3.org/2000/svg" xmlns:xlink="http://www.w3.org/1999/xlink" xmlns:ev="http://www.w3.org/2001/xml-events"
		xmlns:v="http://schemas.microsoft.com/visio/2003/SVGExtensions/" width="0.797734in" height="0.748756in"
		viewBox="0 0 57.4368 53.9105" xml:space="preserve" color-interpolation-filters="sRGB" class="st6">
	<v:documentProperties v:langID="1033" v:viewMarkup="false"/>

	<style type="text/css">
	<![CDATA[
		.st1 {fill:url(#grad0-5);stroke:none;stroke-linecap:butt;stroke-width:0.75}
		.st2 {fill:#0078d4;stroke:none;stroke-linecap:butt;stroke-width:0.75}
		.st3 {fill:#f78d1e;stroke:none;stroke-linecap:butt;stroke-width:0.75}
		.st4 {fill:#ffffff;stroke:none;stroke-linecap:butt;stroke-width:0.75}
		.st5 {fill:#d15900;stroke:none;stroke-linecap:butt;stroke-width:0.75}
		.st6 {fill:none;fill-rule:evenodd;font-size:12px;overflow:visible;stroke-linecap:square;stroke-miterlimit:3}
	]]>
	</style>

	<defs id="Patterns_And_Gradients">
		<linearGradient id="grad0-5" x1="0" y1="0" x2="1" y2="0" gradientTransform="rotate(-90 0.5 0.5)">
			<stop offset="0" stop-color="#32bedd" stop-opacity="1"/>
			<stop offset="0.775" stop-color="#32d4f5" stop-opacity="1"/>
		</linearGradient>
	</defs>
	<g v:mID="0" v:index="1" v:groupContext="foregroundPage">
		<title>Page-1</title>
		<v:pageProperties v:drawingScale="1" v:pageScale="1" v:drawingUnits="19" v:shadowOffsetX="9" v:shadowOffsetY="-9"/>
		<g id="group1428-1" transform="translate(2.79776E-14,-0.75)" v:mID="1428" v:groupContext="group">
			<title>Sheet.1428</title>
			<g id="shape1132-2" v:mID="1132" v:groupContext="shape">
				<title>Sheet.1132</title>
				<path d="M1.77 18.64 L56.69 18.64 L56.69 52.01 A1.83479 1.90111 0 0 1 54.85 53.91 L3.6 53.91 A1.83479 1.90111 0 0
							 1 1.77 52.01 L1.77 18.64 Z" class="st1"/>
			</g>
			<g id="shape1133-6" v:mID="1133" v:groupContext="shape" transform="translate(-7.99361E-15,-35.2766)">
				<title>Sheet.1133</title>
				<path d="M3.61 43.43 L54.84 43.43 A1.83479 1.90111 0 0 1 56.68 45.33 L56.68 53.91 L1.78 53.91 L1.78 45.33 A1.83479
							 1.90111 0 0 1 3.61 43.43 Z" class="st2"/>
			</g>
			<g id="shape1134-8" v:mID="1134" v:groupContext="shape" transform="translate(13.8015,-5.23226)">
				<title>Sheet.1134</title>
				<path d="M30.13 30.7 L16.67 30.7 a0.74041 0.767174 0 0 1 -0.402679 -0.124498 L12.43 27.93 a0.707936 0.733526 -180
							 0 0 -0.399432 -0.127862 L0.72 27.8 a0.720925 0.746985 -180 0 0 -0.720925 0.746985 L0 53.16 a0.717678
							 0.743621 -180 0 0 0.720925 0.746985 L30.13 53.91 a0.717678 0.743621 -180 0 0 0.720925 -0.746985 L30.85
							 31.45 a0.720925 0.746985 -180 0 0 -0.720925 -0.746985 Z" class="st3"/>
			</g>
			<g id="shape1135-10" v:mID="1135" v:groupContext="shape" transform="translate(16.6073,-28.4561)">
				<title>Sheet.1135</title>
				<path d="M0 53.6 a0.295521 0.306204 -180 0 0 0.295514 0.306197 L6.72 53.91 a0.295521 0.306204 -180 0 0 0.295514 -0.306197
							 L7.01 52.76 a0.295521 0.306204 -180 0 0 -0.295514 -0.306197 L0.3 52.46 a0.295521 0.306204 -180 0 0 -0.295514
							 0.306197 L0 53.6 Z" class="st4"/>
			</g>
			<g id="shape1136-12" v:mID="1136" v:groupContext="shape" transform="translate(16.6073,-28.4561)">
				<title>Sheet.1136</title>
				<path d="M-0 53.7 a0.201344 0.208622 -180 0 0 0.20134 0.208618 L1.2 53.91 a0.201344 0.208622 -180 0 0 0.20134 -0.208618
							 L1.4 52.67 a0.201344 0.208622 -180 0 0 -0.20134 -0.208618 L0.2 52.46 a0.201344 0.208622 -180 0 0 -0.20134
							 0.208618 L0 53.7 Z" class="st5"/>
			</g>
			<g id="shape1137-14" v:mID="1137" v:groupContext="shape" transform="translate(13.8015,-5.27601)">
				<title>Sheet.1137</title>
				<path d="M30.13 30.71 L15.35 30.71 a0.711183 0.736891 -180 0 0 -0.509844 0.211982 L12.46 33.39 a0.714431 0.740256
							 0 0 1 -0.509844 0.222077 L0.72 33.61 a0.717678 0.743621 -180 0 0 -0.720925 0.743621 L0 53.16 a0.717678
							 0.743621 -180 0 0 0.720925 0.746985 L30.13 53.91 a0.717678 0.743621 -180 0 0 0.720925 -0.746985 L30.85
							 31.46 a0.717678 0.743621 -180 0 0 -0.720925 -0.743621 Z" class="st4"/>
			</g>
		</g>
	</g>
</svg>
