<?xml version="1.0" encoding="UTF-8" standalone="no"?>
<!DOCTYPE svg PUBLIC "-//W3C//DTD SVG 1.1//EN" "http://www.w3.org/Graphics/SVG/1.1/DTD/svg11.dtd">
<!-- Generated by Microsoft Visio, SVG Export block-blob.svg Page-1 -->
<svg xmlns="http://www.w3.org/2000/svg" xmlns:xlink="http://www.w3.org/1999/xlink" xmlns:ev="http://www.w3.org/2001/xml-events"
		xmlns:v="http://schemas.microsoft.com/visio/2003/SVGExtensions/" width="0.830063in" height="0.752033in"
		viewBox="0 0 59.7646 54.1464" xml:space="preserve" color-interpolation-filters="sRGB" class="st4">
	<v:documentProperties v:langID="1033" v:viewMarkup="false"/>

	<style type="text/css">
	<![CDATA[
		.st1 {fill:url(#grad0-6);stroke:none;stroke-linecap:butt;stroke-width:0.75}
		.st2 {fill:#0078d4;stroke:none;stroke-linecap:butt;stroke-width:0.75}
		.st3 {fill:#ffffff;stroke:none;stroke-linecap:butt;stroke-width:0.75}
		.st4 {fill:none;fill-rule:evenodd;font-size:12px;overflow:visible;stroke-linecap:square;stroke-miterlimit:3}
	]]>
	</style>

	<defs id="Patterns_And_Gradients">
		<linearGradient id="grad0-6" x1="0" y1="0" x2="1" y2="0" gradientTransform="rotate(-90 0.5 0.5)">
			<stop offset="0" stop-color="#32bedd" stop-opacity="1"/>
			<stop offset="0.775" stop-color="#32d4f5" stop-opacity="1"/>
		</linearGradient>
	</defs>
	<g v:mID="0" v:index="1" v:groupContext="foregroundPage">
		<title>Page-1</title>
		<v:pageProperties v:drawingScale="1" v:pageScale="1" v:drawingUnits="19" v:shadowOffsetX="9" v:shadowOffsetY="-9"/>
		<g id="group1094-1" transform="translate(-6.79456E-14,-0.75)" v:mID="1094" v:groupContext="group">
			<title>MsPortalFx.base.images-7</title>
			<g id="group1095-2" v:mID="1095" v:groupContext="group">
				<title>Sheet.1095</title>
				<g id="shape1096-3" v:mID="1096" v:groupContext="shape">
					<title>Sheet.1096</title>
					<path d="M1.69 20.27 L59.01 20.27 L59.01 52.23 A1.91544 1.91544 0 0 1 57.1 54.15 L3.6 54.15 A1.91544 1.91544
								 0 0 1 1.69 52.23 L1.69 20.27 Z" class="st1"/>
				</g>
				<g id="shape1097-7" v:mID="1097" v:groupContext="shape" transform="translate(2.95763E-13,-33.8777)">
					<title>Sheet.1097</title>
					<path d="M3.61 41.93 L57.09 41.93 A1.91544 1.91544 0 0 1 59 43.85 L59 54.15 L1.69 54.15 L1.69 43.85 A1.91544
								 1.91544 0 0 1 3.61 41.93 Z" class="st2"/>
				</g>
				<g id="shape1098-9" v:mID="1098" v:groupContext="shape" transform="translate(7.85062,-18.1326)">
					<title>Sheet.1098</title>
					<path d="M0 53.19 a0.954372 0.954372 -180 0 0 0.95435 0.95435 L20.23 54.15 a0.954372 0.954372 -180 0 0 0.95435
								 -0.95435 L21.18 43.61 a0.954372 0.954372 -180 0 0 -0.95435 -0.95435 L0.95 42.65 a0.954372 0.954372
								 -180 0 0 -0.95435 0.95435 L0 53.19 Z" class="st2"/>
				</g>
				<g id="shape1099-11" v:mID="1099" v:groupContext="shape" transform="translate(31.4834,-18.1326)">
					<title>Sheet.1099</title>
					<path d="M0 53.19 a0.954372 0.954372 -180 0 0 0.95435 0.95435 L20.23 54.15 a0.954372 0.954372 -180 0 0 0.95435
								 -0.95435 L21.18 43.61 a0.954372 0.954372 -180 0 0 -0.95435 -0.95435 L0.95 42.65 a0.954372 0.954372
								 -180 0 0 -0.95435 0.95435 L0 53.19 Z" class="st3"/>
				</g>
				<g id="shape1100-13" v:mID="1100" v:groupContext="shape" transform="translate(7.74271,-4.37719)">
					<title>Sheet.1100</title>
					<path d="M0 53.19 a0.954372 0.954372 -180 0 0 0.95435 0.95435 L20.23 54.15 a0.954372 0.954372 -180 0 0 0.95435
								 -0.95435 L21.18 43.61 a0.954372 0.954372 -180 0 0 -0.95435 -0.95435 L0.95 42.65 a0.954372 0.954372
								 -180 0 0 -0.95435 0.95435 L0 53.19 Z" class="st2"/>
				</g>
				<g id="shape1101-15" v:mID="1101" v:groupContext="shape" transform="translate(31.3755,-4.37719)">
					<title>Sheet.1101</title>
					<path d="M0 53.19 a0.954372 0.954372 -180 0 0 0.95435 0.95435 L20.23 54.15 a0.954372 0.954372 -180 0 0 0.95435
								 -0.95435 L21.18 43.61 a0.954372 0.954372 -180 0 0 -0.95435 -0.95435 L0.95 42.65 a0.954372 0.954372
								 -180 0 0 -0.95435 0.95435 L0 53.19 Z" class="st2"/>
				</g>
			</g>
		</g>
	</g>
</svg>
