<?xml version="1.0" encoding="UTF-8" standalone="no"?>
<!DOCTYPE svg PUBLIC "-//W3C//DTD SVG 1.1//EN" "http://www.w3.org/Graphics/SVG/1.1/DTD/svg11.dtd">
<!-- Generated by Microsoft Visio, SVG Export cdn-profile.svg Page-1 -->
<svg xmlns="http://www.w3.org/2000/svg" xmlns:xlink="http://www.w3.org/1999/xlink" xmlns:ev="http://www.w3.org/2001/xml-events"
		xmlns:v="http://schemas.microsoft.com/visio/2003/SVGExtensions/" width="0.788387in" height="0.466923in"
		viewBox="0 0 56.7638 33.6184" xml:space="preserve" color-interpolation-filters="sRGB" class="st5">
	<v:documentProperties v:langID="1033" v:viewMarkup="false"/>

	<style type="text/css">
	<![CDATA[
		.st1 {fill:#b3b3b3;stroke:none;stroke-linecap:butt;stroke-width:0.75}
		.st2 {fill:#a3a3a3;stroke:none;stroke-linecap:butt;stroke-width:0.75}
		.st3 {fill:#7a7a7a;stroke:none;stroke-linecap:butt;stroke-width:0.75}
		.st4 {fill:url(#grad0-11);stroke:none;stroke-linecap:butt;stroke-width:0.75}
		.st5 {fill:none;fill-rule:evenodd;font-size:12px;overflow:visible;stroke-linecap:square;stroke-miterlimit:3}
	]]>
	</style>

	<defs id="Patterns_And_Gradients">
		<linearGradient id="grad0-11" x1="0" y1="0" x2="1" y2="0" gradientTransform="rotate(90 0.5 0.5)">
			<stop offset="0.18" stop-color="#5ea0ef" stop-opacity="1"/>
			<stop offset="1" stop-color="#0078d4" stop-opacity="1"/>
		</linearGradient>
	</defs>
	<g v:mID="0" v:index="1" v:groupContext="foregroundPage">
		<title>Page-1</title>
		<v:pageProperties v:drawingScale="1" v:pageScale="1" v:drawingUnits="19" v:shadowOffsetX="9" v:shadowOffsetY="-9"/>
		<g id="group1142-1" transform="translate(0.75,-0.751496)" v:mID="1142" v:groupContext="group">
			<title>Icon-web-43</title>
			<g id="shape1143-2" v:mID="1143" v:groupContext="shape" transform="translate(-12.3726,16.5173) rotate(-90)">
				<title>Sheet.1143</title>
				<path d="M-0 32.02 A1.59655 1.59655 -180 0 0 1.6 33.62 L2.03 33.62 A1.59655 1.59655 -180 0 0 3.62 32.02 L3.62 19.07
							 A1.59655 1.59655 -180 0 0 2.03 17.47 L1.6 17.47 A1.59655 1.59655 -180 0 0 -0 19.07 L0 32.02 Z"
						class="st1"/>
			</g>
			<g id="shape1144-4" v:mID="1144" v:groupContext="shape" transform="translate(-17.4691,23.8551) rotate(-90)">
				<title>Sheet.1144</title>
				<path d="M-0 32.02 A1.59655 1.59655 -180 0 0 1.6 33.62 L2.03 33.62 A1.59655 1.59655 -180 0 0 3.62 32.02 L3.62 19.07
							 A1.59655 1.59655 -180 0 0 2.03 17.47 L1.6 17.47 A1.59655 1.59655 -180 0 0 -0 19.07 L0 32.02 Z"
						class="st2"/>
			</g>
			<g id="shape1145-6" v:mID="1145" v:groupContext="shape" transform="translate(-12.3726,31.193) rotate(-90)">
				<title>Sheet.1145</title>
				<path d="M-0 32.02 A1.59655 1.59655 -180 0 0 1.6 33.62 L2.03 33.62 A1.59655 1.59655 -180 0 0 3.62 32.02 L3.62 19.07
							 A1.59655 1.59655 -180 0 0 2.03 17.47 L1.6 17.47 A1.59655 1.59655 -180 0 0 -0 19.07 L0 32.02 Z"
						class="st3"/>
			</g>
			<g id="shape1146-8" v:mID="1146" v:groupContext="shape" transform="translate(11.0528,0)">
				<title>Sheet.1146</title>
				<path d="M44.21 23.55 A10.0703 10.0703 -180 0 0 35.58 13.78 A12.68 12.68 -180 0 0 22.66 1.5 A12.987 12.987 -180 0
							 0 10.38 10.1 A11.9431 11.9431 -180 0 0 -0 21.77 A12.2809 12.2809 -180 0 0 12.47 33.62 L13.57 33.62 L33.77
							 33.62 L34.29 33.62 A10.1931 10.1931 -180 0 0 44.21 23.55 Z" class="st4"/>
			</g>
		</g>
	</g>
</svg>
