<?xml version="1.0" encoding="UTF-8" standalone="no"?>
<!-- Generated by Microsoft Visio, SVG Export certificate.svg Page-1 -->

<svg
   xmlns:v="http://schemas.microsoft.com/visio/2003/SVGExtensions/"
   xmlns:dc="http://purl.org/dc/elements/1.1/"
   xmlns:cc="http://creativecommons.org/ns#"
   xmlns:rdf="http://www.w3.org/1999/02/22-rdf-syntax-ns#"
   xmlns:svg="http://www.w3.org/2000/svg"
   xmlns="http://www.w3.org/2000/svg"
   xmlns:sodipodi="http://sodipodi.sourceforge.net/DTD/sodipodi-0.dtd"
   xmlns:inkscape="http://www.inkscape.org/namespaces/inkscape"
   width="64.911766"
   height="58.555527"
   viewBox="0 0 55.175005 49.772198"
   xml:space="preserve"
   class="st7"
   version="1.1"
   id="svg4860"
   sodipodi:docname="certificate.svg"
   style="font-size:12px;overflow:visible;color-interpolation-filters:sRGB;fill:none;fill-rule:evenodd;stroke-linecap:square;stroke-miterlimit:3"
   inkscape:version="0.92.4 (5da689c313, 2019-01-14)"><metadata
   id="metadata4864"><rdf:RDF><cc:Work
       rdf:about=""><dc:format>image/svg+xml</dc:format><dc:type
         rdf:resource="http://purl.org/dc/dcmitype/StillImage" /><dc:title></dc:title></cc:Work></rdf:RDF></metadata><sodipodi:namedview
   pagecolor="#ffffff"
   bordercolor="#666666"
   borderopacity="1"
   objecttolerance="10"
   gridtolerance="10"
   guidetolerance="10"
   inkscape:pageopacity="0"
   inkscape:pageshadow="2"
   inkscape:window-width="3840"
   inkscape:window-height="2054"
   id="namedview4862"
   showgrid="false"
   fit-margin-top="0"
   fit-margin-left="-0.1"
   fit-margin-right="0"
   fit-margin-bottom="0"
   inkscape:zoom="19.096673"
   inkscape:cx="78.81441"
   inkscape:cy="28.361449"
   inkscape:window-x="-11"
   inkscape:window-y="-11"
   inkscape:window-maximized="1"
   inkscape:current-layer="svg4860"
   scale-x="0.85"
   units="px" />
	<v:documentProperties
   v:langID="1033"
   v:viewMarkup="false" />

	<style
   type="text/css"
   id="style4800">
	<![CDATA[
		.st1 {fill:url(#grad0-8);stroke:none;stroke-linecap:butt;stroke-width:11.0669}
		.st2 {fill:#ffffff;stroke:none;stroke-linecap:butt;stroke-width:11.0669}
		.st3 {fill:#d15900;stroke:none;stroke-linecap:butt;stroke-width:11.0669}
		.st4 {fill:#b31b1b;stroke:none;stroke-linecap:butt;stroke-width:11.0669}
		.st5 {fill:#e62323;stroke:none;stroke-linecap:butt;stroke-width:11.0669}
		.st6 {fill:#ffb34d;stroke:none;stroke-linecap:butt;stroke-width:11.0669}
		.st7 {fill:none;fill-rule:evenodd;font-size:12px;overflow:visible;stroke-linecap:square;stroke-miterlimit:3}
	]]>
	</style>

	<defs
   id="Patterns_And_Gradients">
		<linearGradient
   id="grad0-8"
   x1="0"
   y1="39.958187"
   x2="46.148895"
   y2="39.958187"
   gradientTransform="scale(1.1974285,0.83512294)"
   gradientUnits="userSpaceOnUse">
			<stop
   offset="0"
   stop-color="#e27908"
   stop-opacity="1"
   id="stop4802" />
			<stop
   offset="0.325"
   stop-color="#e47d0a"
   stop-opacity="1"
   id="stop4804" />
			<stop
   offset="0.62"
   stop-color="#eb8810"
   stop-opacity="1"
   id="stop4806" />
			<stop
   offset="0.91"
   stop-color="#f69a19"
   stop-opacity="1"
   id="stop4808" />
			<stop
   offset="1"
   stop-color="#faa21d"
   stop-opacity="1"
   id="stop4810" />
		</linearGradient>
	
		
		
		
	
			
			
		
				
				
			
					
					
					
					
					
					
					
				</defs>
	<g
   id="group1435-4"
   transform="translate(-0.085,-33.37)"
   v:mID="1435"
   v:groupContext="group">
						<title
   id="title4822">shape1283-5</title>
						<g
   id="shape1436-5"
   v:mID="1436"
   v:groupContext="shape">
							<title
   id="title4824">Sheet.1436</title>
							<path
   d="m 0,70.11 c 0,1 0.8,1.8 1.8,1.8 0,0 0,0 0,0 h 51.66 c 1,0 1.8,-0.8 1.8,-1.8 0,0 0,0 0,0 V 35.17 c 0,-1 -0.8,-1.8 -1.8,-1.8 H 1.8 c -1,0 -1.8,0.8 -1.8,1.8 z"
   class="st1"
   id="path4826"
   inkscape:connector-curvature="0"
   style="fill:url(#grad0-8);stroke:none;stroke-width:11.06690025;stroke-linecap:butt" />
						</g>
					</g><g
   id="shape1437-9"
   v:mID="1437"
   v:groupContext="shape"
   transform="translate(3.13785,-36.7728)">
						<title
   id="title4830">Sheet.1437</title>
						<path
   d="m 0,71.01 c 0,0.5 0.4,0.9 0.9,0.9 h 47.06 c 0.5,0 0.9,-0.4 0.9,-0.9 V 41.07 c 0,-0.5 -0.4,-0.9 -0.9,-0.9 H 0.9 c -0.5,0 -0.9,0.4 -0.9,0.9 z"
   class="st2"
   id="path4832"
   inkscape:connector-curvature="0"
   style="fill:#ffffff;stroke:none;stroke-width:11.06690025;stroke-linecap:butt" />
					</g><g
   id="shape1438-11"
   v:mID="1438"
   v:groupContext="shape"
   transform="translate(10.6599,-45.1091)">
						<title
   id="title4835">Sheet.1438</title>
						<path
   d="m 35.24,71.01 c 0,0.5 -0.4,0.9 -0.9,0.9 H 14.42 c -0.5,0 -0.9,-0.3 -0.9,-0.8 0,-0.5 0.3,-0.9 0.8,-0.9 0,0 0.1,0 0.1,0 h 19.92 c 0.5,0 0.8,0.4 0.9,0.8 0,0 0,0 0,0 z m 0,-5.41 c 0,0.5 -0.4,0.9 -0.9,0.9 0,0 0,0 0,0 H 14.42 c -0.5,0 -0.9,-0.3 -0.9,-0.8 0,-0.5 0.3,-0.9 0.8,-0.9 0,0 0.1,0 0.1,0 h 19.92 c 0.5,-0.1 0.9,0.3 0.9,0.8 z m 0,-7.91 c 0,0.5 -0.4,0.91 -0.9,0.91 H 0.9 C 0.4,58.6 0,58.29 0,57.79 c 0,-0.5 0.3,-0.9 0.8,-0.9 0,0 0.1,0 0.1,0 h 33.44 c 0.5,-0.1 0.8,0.3 0.9,0.8 0,0 0,0 0,0 z"
   class="st3"
   id="path4837"
   inkscape:connector-curvature="0"
   style="fill:#d15900;stroke:none;stroke-width:11.06690025;stroke-linecap:butt" />
					</g><g
   id="shape1439-13"
   v:mID="1439"
   v:groupContext="shape"
   transform="translate(4.67035,-22.0378)">
						<title
   id="title4840">Sheet.1439</title>
						<path
   d="M 11.01,58.09 C 8.11,60.7 3.6,60.7 0.6,58.09 L 0,70.81 c 0,0.6 0.4,1 1,1 0.3,0 0.6,-0.1 0.8,-0.3 l 4.01,-4 4,4 c 0.4,0.4 1,0.4 1.4,0 0.2,-0.2 0.3,-0.5 0.3,-0.8 z"
   class="st4"
   id="path4842"
   inkscape:connector-curvature="0"
   style="fill:#b31b1b;stroke:none;stroke-width:11.06690025;stroke-linecap:butt" />
					</g><g
   id="shape1440-15"
   v:mID="1440"
   v:groupContext="shape"
   transform="translate(1.34745,-33.1932)">
						<title
   id="title4845">Sheet.1440</title>
						<ellipse
   cx="9.31075"
   cy="62.7999"
   rx="9.31075"
   ry="9.1105204"
   class="st5"
   id="ellipse4847"
   style="fill:#e62323;stroke:none;stroke-width:11.06690025;stroke-linecap:butt" />
					</g><g
   id="shape1441-17"
   v:mID="1441"
   v:groupContext="shape"
   transform="translate(3.58219,-35.4008)">
						<title
   id="title4850">Sheet.1441</title>
						<ellipse
   cx="7.00809"
   cy="65.002403"
   rx="7.00809"
   ry="6.90798"
   class="st6"
   id="ellipse4852"
   style="fill:#ffb34d;stroke:none;stroke-width:11.06690025;stroke-linecap:butt" />
					</g>
</svg>