<?xml version="1.0" encoding="UTF-8" standalone="no"?>
<!DOCTYPE svg PUBLIC "-//W3C//DTD SVG 1.1//EN" "http://www.w3.org/Graphics/SVG/1.1/DTD/svg11.dtd">
<!-- Generated by Microsoft Visio, SVG Export conditional-access.svg Page-1 -->
<svg xmlns="http://www.w3.org/2000/svg" xmlns:xlink="http://www.w3.org/1999/xlink" xmlns:ev="http://www.w3.org/2001/xml-events"
		xmlns:v="http://schemas.microsoft.com/visio/2003/SVGExtensions/" width="0.62005in" height="0.740515in"
		viewBox="0 0 44.6436 53.3171" xml:space="preserve" color-interpolation-filters="sRGB" class="st6">
	<v:documentProperties v:langID="1033" v:viewMarkup="false"/>

	<style type="text/css">
	<![CDATA[
		.st1 {fill:#0078d4;stroke:none;stroke-linecap:butt;stroke-width:0.75}
		.st2 {fill:url(#grad0-7);stroke:none;stroke-linecap:butt;stroke-width:0.75}
		.st3 {fill:#ffbd02;stroke:none;stroke-linecap:butt;stroke-width:0.75}
		.st4 {fill:#ffe452;stroke:none;stroke-linecap:butt;stroke-width:0.75}
		.st5 {fill:#ffd400;fill-opacity:0.5;stroke:none;stroke-linecap:butt;stroke-width:0.75}
		.st6 {fill:none;fill-rule:evenodd;font-size:12px;overflow:visible;stroke-linecap:square;stroke-miterlimit:3}
	]]>
	</style>

	<defs id="Patterns_And_Gradients">
		<linearGradient id="grad0-7" x1="0" y1="0" x2="1" y2="0" gradientTransform="rotate(-90 0.5 0.5)">
			<stop offset="0" stop-color="#0078d4" stop-opacity="1"/>
			<stop offset="0.06" stop-color="#0a7cd7" stop-opacity="1"/>
			<stop offset="0.34" stop-color="#2e8ce1" stop-opacity="1"/>
			<stop offset="0.59" stop-color="#4897e9" stop-opacity="1"/>
			<stop offset="0.82" stop-color="#589eed" stop-opacity="1"/>
			<stop offset="1" stop-color="#5ea0ef" stop-opacity="1"/>
		</linearGradient>
	</defs>
	<g v:mID="0" v:index="1" v:groupContext="foregroundPage">
		<title>Page-1</title>
		<v:pageProperties v:drawingScale="1" v:pageScale="1" v:drawingUnits="19" v:shadowOffsetX="9" v:shadowOffsetY="-9"/>
		<g id="group1248-1" transform="translate(0.75,-0.75)" v:mID="1248" v:groupContext="group">
			<title>Icon-identity-233</title>
			<g id="shape1249-2" v:mID="1249" v:groupContext="shape">
				<title>Sheet.1249</title>
				<path d="M43.14 25.69 C43.14 39.62 26.02 50.83 22.27 53.11 A1.31015 1.31015 0 0 1 20.87 53.11 C17.12 50.86 0 39.65
							 0 25.69 L0 8.93 A1.34062 1.34062 0 0 1 1.31 7.59 C14.66 7.26 11.58 1.5 21.57 1.5 C31.57 1.5 28.49 7.26
							 41.83 7.59 A1.34062 1.34062 0 0 1 43.14 8.93 L43.14 25.69 Z" class="st1"/>
			</g>
			<g id="shape1250-4" v:mID="1250" v:groupContext="shape" transform="translate(1.76718,-2.18498)">
				<title>Sheet.1250</title>
				<path d="M39.61 28 C39.61 40.8 23.89 51.06 20.44 53.14 A1.21875 1.21875 0 0 1 19.16 53.14 C15.72 51.06 0 40.8 0 28
							 L0 12.76 A1.24921 1.24921 0 0 1 1.22 11.3 C13.47 11.09 10.66 5.85 19.8 5.85 C28.95 5.85 26.14 11.09
							 38.39 11.3 A1.24921 1.24921 0 0 1 39.61 12.52 L39.61 28 Z" class="st2"/>
			</g>
			<g id="shape1251-8" v:mID="1251" v:groupContext="shape" transform="translate(11.8828,-16.7781)">
				<title>Sheet.1251</title>
				<path d="M18.37 40.09 L17.15 40.09 L17.15 35.77 A7.98279 7.98279 -180 0 0 15.02 30.25 A7.22107 7.22107 -180 0 0 4.42
							 30.25 A7.95232 7.95232 -180 0 0 2.29 35.77 L2.29 40.09 L1.07 40.09 a0.974997 0.974997 -180 0 0 -1.0664
							 1.03593 L0 52.34 a0.974997 0.974997 -180 0 0 1.00547 0.974997 L18.37 53.32 a0.974997 0.974997 -180 0
							 0 1.00547 -0.974997 L19.38 41.13 a0.974997 0.974997 -180 0 0 -1.00547 -1.03593 ZM13.65 40.09 L5.73 40.09
							 L5.73 35.71 A4.35702 4.35702 0 0 1 6.98 32.66 A3.62577 3.62577 0 0 1 12.4 32.66 A4.75311 4.75311 0 0
							 1 12.89 33.27 A4.26561 4.26561 0 0 1 13.65 35.68 L13.65 40.09 Z" class="st3"/>
			</g>
			<g id="shape1252-10" v:mID="1252" v:groupContext="shape" transform="translate(11.8828,-17.0828)">
				<title>Sheet.1252</title>
				<path d="M1.01 40.4 L18.37 40.4 a0.974997 0.974997 0 0 1 0.639842 0.243749 L0.37 53.32 A1.00547 1.00547 0 0 1 0 52.59
							 L0 41.43 a0.974997 0.974997 0 0 1 1.00547 -1.03593 Z" class="st4"/>
			</g>
			<g id="shape1253-12" v:mID="1253" v:groupContext="shape" transform="translate(12.2484,-17.0828)">
				<title>Sheet.1253</title>
				<path d="M18.01 40.4 L0.64 40.4 a0.974997 0.974997 -180 0 0 -0.639842 0.243749 L18.65 53.32 a0.914059 0.914059 -180
							 0 0 0.365624 -0.731247 L19.01 41.43 a0.974997 0.974997 -180 0 0 -1.00547 -1.03593 Z" class="st5"/>
			</g>
		</g>
	</g>
</svg>
