<?xml version="1.0" encoding="UTF-8" standalone="no"?>
<!DOCTYPE svg PUBLIC "-//W3C//DTD SVG 1.1//EN" "http://www.w3.org/Graphics/SVG/1.1/DTD/svg11.dtd">
<!-- Generated by Microsoft Visio, SVG Export encoding-preset.svg Page-1 -->
<svg xmlns="http://www.w3.org/2000/svg" xmlns:xlink="http://www.w3.org/1999/xlink" xmlns:ev="http://www.w3.org/2001/xml-events"
		xmlns:v="http://schemas.microsoft.com/visio/2003/SVGExtensions/" width="0.808193in" height="0.803561in"
		viewBox="0 0 58.1899 57.8564" xml:space="preserve" color-interpolation-filters="sRGB" class="st3">
	<v:documentProperties v:langID="1033" v:viewMarkup="false"/>

	<style type="text/css">
	<![CDATA[
		.st1 {fill:url(#grad0-6);stroke:none;stroke-linecap:butt;stroke-width:0.75}
		.st2 {fill:#ffffff;stroke:none;stroke-linecap:butt;stroke-width:0.75}
		.st3 {fill:none;fill-rule:evenodd;font-size:12px;overflow:visible;stroke-linecap:square;stroke-miterlimit:3}
	]]>
	</style>

	<defs id="Patterns_And_Gradients">
		<linearGradient id="grad0-6" x1="0" y1="0" x2="1" y2="0" gradientTransform="rotate(270 0.5 0.5)">
			<stop offset="0" stop-color="#32bedd" stop-opacity="1"/>
			<stop offset="1" stop-color="#32d4f5" stop-opacity="1"/>
		</linearGradient>
	</defs>
	<g v:mID="0" v:index="1" v:groupContext="foregroundPage">
		<title>Page-1</title>
		<v:pageProperties v:drawingScale="1" v:pageScale="1" v:drawingUnits="19" v:shadowOffsetX="9" v:shadowOffsetY="-9"/>
		<g id="group1431-1" transform="translate(0.75,-0.75)" v:mID="1431" v:groupContext="group">
			<title>Sheet.1431</title>
			<g id="group1407-2" v:mID="1407" v:groupContext="group">
				<title>Sheet.1407</title>
				<g id="shape1408-3" v:mID="1408" v:groupContext="shape">
					<title>Sheet.1408</title>
					<path d="M56.69 32.85 L56.69 26.51 L55.69 26.18 L48.69 23.84 L47.02 19.51 L50.69 12.17 L46.02 7.5 L45.02 7.84
								 L38.68 11.17 L34.35 9.5 L31.35 1.5 L25.01 1.5 L24.68 2.5 L22.34 9.17 L18.01 11.17 L10.67 7.5 L6
								 12.17 L6.34 13.17 L9.67 19.51 L8 23.84 L0 26.84 L0 33.18 L1 33.51 L8 35.85 L9.67 40.18 L6 47.52
								 L10.67 52.19 L11.67 51.85 L18.01 48.52 L22.34 50.19 L25.34 57.86 L31.68 57.86 L32.01 56.86 L34.35
								 49.85 L38.68 48.19 L46.02 51.85 L50.69 47.19 L50.35 46.52 L47.02 40.18 L48.69 35.85 L56.69 32.85
								 Z" class="st1"/>
				</g>
			</g>
			<g id="shape1415-7" v:mID="1415" v:groupContext="shape" transform="translate(23.604,-20.1766)">
				<title>Sheet.1415</title>
				<path d="M0 42.69 L0 56.87 A1.16369 1.14047 -180 0 0 1.74 57.86 L14.4 50.77 A1.1596 1.13647 -180 0 0 14.4 48.79 L1.74
							 41.7 A1.16369 1.14047 -180 0 0 -0 42.69 Z" class="st2"/>
			</g>
		</g>
	</g>
</svg>
