<?xml version="1.0" encoding="UTF-8" standalone="no"?>
<!DOCTYPE svg PUBLIC "-//W3C//DTD SVG 1.1//EN" "http://www.w3.org/Graphics/SVG/1.1/DTD/svg11.dtd">
<!-- Generated by Microsoft Visio, SVG Export enpoint-policy.svg Page-1 -->
<svg xmlns="http://www.w3.org/2000/svg" xmlns:xlink="http://www.w3.org/1999/xlink" xmlns:ev="http://www.w3.org/2001/xml-events"
		xmlns:v="http://schemas.microsoft.com/visio/2003/SVGExtensions/" width="0.777989in" height="0.80996in"
		viewBox="0 0 56.0152 58.3171" xml:space="preserve" color-interpolation-filters="sRGB" class="st6">
	<v:documentProperties v:langID="1033" v:viewMarkup="false"/>

	<style type="text/css">
	<![CDATA[
		.st1 {fill:#0078d4;stroke:none;stroke-linecap:butt;stroke-width:0.75}
		.st2 {fill:url(#grad0-7);stroke:none;stroke-linecap:butt;stroke-width:0.75}
		.st3 {fill:#f2f2f2;stroke:none;stroke-linecap:butt;stroke-width:0.75}
		.st4 {fill:#5ea0ef;stroke:none;stroke-linecap:butt;stroke-width:0.75}
		.st5 {fill:#b3b3b3;stroke:none;stroke-linecap:butt;stroke-width:0.75}
		.st6 {fill:none;fill-rule:evenodd;font-size:12px;overflow:visible;stroke-linecap:square;stroke-miterlimit:3}
	]]>
	</style>

	<defs id="Patterns_And_Gradients">
		<linearGradient id="grad0-7" x1="0" y1="0" x2="1" y2="0" gradientTransform="rotate(-90 0.5 0.5)">
			<stop offset="0" stop-color="#0078d4" stop-opacity="1"/>
			<stop offset="0.82" stop-color="#5ea0ef" stop-opacity="1"/>
		</linearGradient>
	</defs>
	<g v:mID="0" v:index="1" v:groupContext="foregroundPage">
		<title>Page-1</title>
		<v:pageProperties v:drawingScale="1" v:pageScale="1" v:drawingUnits="19" v:shadowOffsetX="9" v:shadowOffsetY="-9"/>
		<g id="group1224-1" transform="translate(3.91687E-13,-0.75)" v:mID="1224" v:groupContext="group">
			<title>Icon-networking-85</title>
			<g id="shape1225-2" v:mID="1225" v:groupContext="shape" transform="translate(42.5698,-44.7964)">
				<title>Sheet.1225</title>
				<path d="M0.22 55.03 A7.40484 7.6032 0 0 1 7.6 47.39 A5.96234 6.12206 0 0 1 12.69 53.58 A5.96234 6.12206 0 0 1 11.38
							 57.46 A2.27595 2.33691 0 0 1 9.62 58.32 L0 58.32 L0.22 55.03 Z" class="st1"/>
			</g>
			<g id="shape1226-4" v:mID="1226" v:groupContext="shape">
				<title>Sheet.1226</title>
				<path d="M43.47 2.43 L14.62 2.43 A7.34073 7.53737 -180 0 0 7.34 9.97 L7.34 58.32 L36.19 58.32 A7.34073 7.53737 -180
							 0 0 43.53 50.78 L43.53 42.78 L43.53 18.16 A82.5752 84.7872 0 0 1 43.53 8.29 C44.69 1.74 51.58 2.89 51.58
							 2.89 A35.6779 36.6336 -180 0 0 43.47 2.43 Z" class="st2"/>
			</g>
			<g id="shape1227-8" v:mID="1227" v:groupContext="shape" transform="translate(23.08,-15.6892)">
				<title>Sheet.1227</title>
				<path d="M2.56 54.75 L2.56 39.28 A1.69895 1.74446 -180 0 0 3.43 37.77 A1.731 1.77737 -180 0 0 1.7 35.99 A1.731 1.77737
							 -180 0 0 0.87 39.28 L0.87 54.75 A1.76306 1.81029 -180 0 0 0 56.3 A1.731 1.77737 -180 1 0 3.43 56.3 A1.76306
							 1.81029 -180 0 0 2.56 54.75 Z" class="st3"/>
			</g>
			<g id="shape1228-10" v:mID="1228" v:groupContext="shape" transform="translate(2.50615,-0.197486)">
				<title>Sheet.1228</title>
				<path d="M34.2 58.32 A5.89823 6.05623 0 0 1 31.34 47.65 a0.737279 0.757029 -180 0 0 -0.480834 -1.34949 L5.8 46.3
							 L4.87 46.3 A5.93028 6.08914 -180 0 0 4.87 58.28 A4.35956 4.47634 -180 0 0 5.8 58.28 L34.2 58.32 Z"
						class="st4"/>
			</g>
			<g id="shape1229-12" v:mID="1229" v:groupContext="shape" transform="translate(28.4974,-34.3954)">
				<title>Sheet.1229</title>
				<ellipse cx="1.76306" cy="56.5068" rx="1.76306" ry="1.81029" class="st3"/>
			</g>
			<g id="shape1230-14" v:mID="1230" v:groupContext="shape" transform="translate(22.8877,-34.3954)">
				<title>Sheet.1230</title>
				<ellipse cx="1.76306" cy="56.5068" rx="1.76306" ry="1.81029" class="st3"/>
			</g>
			<g id="shape1231-16" v:mID="1231" v:groupContext="shape" transform="translate(17.31,-34.3954)">
				<title>Sheet.1231</title>
				<ellipse cx="1.76306" cy="56.5068" rx="1.76306" ry="1.81029" class="st3"/>
			</g>
			<g id="shape1232-18" v:mID="1232" v:groupContext="shape" transform="translate(10.9821,-27.8573)">
				<title>Sheet.1232</title>
				<path d="M8.25 58.23 L9.28 57.18 a0.480834 0.493714 -180 0 0 5.32907E-15 -0.658286 L1.3 48.36 L0.27 49.41 a0.897556
							 0.9216 -180 0 0 -8.10463E-15 1.31657 L7.71 58.23 a0.480834 0.493714 -180 0 0 0.544945 0 Z" class="st5"/>
			</g>
			<g id="shape1233-20" v:mID="1233" v:groupContext="shape" transform="translate(10.9821,-34.5271)">
				<title>Sheet.1233</title>
				<path d="M9.21 49.43 L8.25 48.44 a0.480834 0.493714 -180 0 0 -0.641112 -7.10543E-15 L0.27 55.91 a0.897556 0.9216
							 -180 0 0 -9.21485E-15 1.31657 L1.26 58.32 L9.21 50.09 a0.416723 0.427886 -180 0 0 8.88178E-15 -0.658286
							 Z" class="st3"/>
			</g>
			<g id="shape1234-22" v:mID="1234" v:groupContext="shape" transform="translate(28.6996,-27.8185)">
				<title>Sheet.1234</title>
				<path d="M1.18 58.19 L0.15 57.11 a0.416723 0.427886 0 0 1 -4.05231E-15 -0.658286 L8.26 48.32 L9.25 49.37 a0.897556
							 0.9216 0 0 1 5.32907E-15 1.31657 L1.82 58.19 a0.480834 0.493714 0 0 1 -0.641112 0 Z" class="st5"/>
			</g>
			<g id="shape1235-24" v:mID="1235" v:groupContext="shape" transform="translate(28.8879,-34.5271)">
				<title>Sheet.1235</title>
				<path d="M0.12 49.43 L1.15 48.44 a0.480834 0.493714 0 0 1 0.641112 0 L9.07 55.95 a0.897556 0.9216 0 0 1 1.77636E-15
							 1.31657 L8.07 58.32 L0.12 50.09 a0.480834 0.493714 0 0 1 -5.4956E-15 -0.658286 Z" class="st3"/>
			</g>
		</g>
	</g>
</svg>
