<?xml version="1.0" encoding="UTF-8" standalone="no"?>
<!DOCTYPE svg PUBLIC "-//W3C//DTD SVG 1.1//EN" "http://www.w3.org/Graphics/SVG/1.1/DTD/svg11.dtd">
<!-- Generated by Microsoft Visio, SVG Export firewall.svg Page-1 -->
<svg xmlns="http://www.w3.org/2000/svg" xmlns:xlink="http://www.w3.org/1999/xlink" xmlns:ev="http://www.w3.org/2001/xml-events"
		xmlns:v="http://schemas.microsoft.com/visio/2003/SVGExtensions/" width="0.769465in" height="0.653941in"
		viewBox="0 0 55.4015 47.0838" xml:space="preserve" color-interpolation-filters="sRGB" class="st5">
	<v:documentProperties v:langID="1033" v:viewMarkup="false"/>

	<style type="text/css">
	<![CDATA[
		.st1 {fill:url(#grad0-5);stroke:none;stroke-linecap:butt;stroke-width:0.75}
		.st2 {fill:#821010;stroke:none;stroke-linecap:butt;stroke-width:0.75}
		.st3 {fill:#e62323;stroke:none;stroke-linecap:butt;stroke-width:0.75}
		.st4 {fill:#ff7381;stroke:none;stroke-linecap:butt;stroke-width:0.75}
		.st5 {fill:none;fill-rule:evenodd;font-size:12px;overflow:visible;stroke-linecap:square;stroke-miterlimit:3}
	]]>
	</style>

	<defs id="Patterns_And_Gradients">
		<linearGradient id="grad0-5" x1="0" y1="0" x2="1" y2="0" gradientTransform="rotate(-90 0.5 0.5)">
			<stop offset="0" stop-color="#0078d4" stop-opacity="1"/>
			<stop offset="0.82" stop-color="#5ea0ef" stop-opacity="1"/>
		</linearGradient>
	</defs>
	<g v:mID="0" v:index="1" v:groupContext="foregroundPage">
		<title>Page-1</title>
		<v:pageProperties v:drawingScale="1" v:pageScale="1" v:drawingUnits="19" v:shadowOffsetX="9" v:shadowOffsetY="-9"/>
		<g id="group1210-1" transform="translate(0.75,-0.75)" v:mID="1210" v:groupContext="group">
			<title>Icon-networking-84</title>
			<g id="shape1211-2" v:mID="1211" v:groupContext="shape" transform="translate(0,-7.35411)">
				<title>Sheet.1211</title>
				<path d="M53.9 35.09 A12.1578 12.1578 -180 0 0 43.39 23.44 A15.2721 15.2721 -180 0 0 27.67 8.86 A15.6614 15.6614
							 -180 0 0 12.7 19.07 A14.4336 14.4336 -180 0 0 -0 32.97 A14.6732 14.6732 -180 0 0 15.18 47.07 L16.5 47.07
							 L41.08 47.07 A4.37201 4.37201 -180 0 0 41.74 47.07 A12.2776 12.2776 -180 0 0 53.9 35.09 Z" class="st1"/>
			</g>
			<g id="shape1212-6" v:mID="1212" v:groupContext="shape" transform="translate(11.1097,0)">
				<title>Sheet.1212</title>
				<path d="M31.68 30.88 A1.2577 1.2577 -180 0 0 30.42 29.66 L1.26 29.66 A1.2577 1.2577 -180 0 0 -0 30.88 L0 45.86 A1.2577
							 1.2577 -180 0 0 1.26 47.08 L30.42 47.08 A1.2577 1.2577 -180 0 0 31.68 45.86 L31.68 30.88 Z"
						class="st2"/>
			</g>
			<g id="shape1213-8" v:mID="1213" v:groupContext="shape" transform="translate(12.8765,-11.8883)">
				<title>Sheet.1213</title>
				<rect x="0" y="43.2807" width="8.59429" height="3.80305" class="st3"/>
			</g>
			<g id="shape1214-10" v:mID="1214" v:groupContext="shape" transform="translate(22.7584,-11.8883)">
				<title>Sheet.1214</title>
				<rect x="0" y="43.2807" width="8.59429" height="3.80305" class="st4"/>
			</g>
			<g id="shape1215-12" v:mID="1215" v:groupContext="shape" transform="translate(32.6403,-11.8883)">
				<title>Sheet.1215</title>
				<rect x="0" y="43.2807" width="8.59429" height="3.80305" class="st3"/>
			</g>
			<g id="shape1216-14" v:mID="1216" v:groupContext="shape" transform="translate(12.8765,-6.79758)">
				<title>Sheet.1216</title>
				<rect x="0" y="43.2807" width="3.56349" height="3.80305" class="st3"/>
			</g>
			<g id="shape1217-16" v:mID="1217" v:groupContext="shape" transform="translate(37.6711,-6.79758)">
				<title>Sheet.1217</title>
				<rect x="0" y="43.2807" width="3.56349" height="3.80305" class="st4"/>
			</g>
			<g id="shape1218-18" v:mID="1218" v:groupContext="shape" transform="translate(17.7276,-6.79758)">
				<title>Sheet.1218</title>
				<rect x="0" y="43.2807" width="8.59429" height="3.80305" class="st4"/>
			</g>
			<g id="shape1219-20" v:mID="1219" v:groupContext="shape" transform="translate(27.6395,-6.79758)">
				<title>Sheet.1219</title>
				<rect x="0" y="43.2807" width="8.59429" height="3.80305" class="st3"/>
			</g>
			<g id="shape1220-22" v:mID="1220" v:groupContext="shape" transform="translate(12.8765,-1.70688)">
				<title>Sheet.1220</title>
				<rect x="0" y="43.2807" width="8.59429" height="3.80305" class="st3"/>
			</g>
			<g id="shape1221-24" v:mID="1221" v:groupContext="shape" transform="translate(22.7584,-1.70688)">
				<title>Sheet.1221</title>
				<rect x="0" y="43.2807" width="8.59429" height="3.80305" class="st4"/>
			</g>
			<g id="shape1222-26" v:mID="1222" v:groupContext="shape" transform="translate(32.6403,-1.70688)">
				<title>Sheet.1222</title>
				<rect x="0" y="43.2807" width="8.59429" height="3.80305" class="st3"/>
			</g>
		</g>
	</g>
</svg>
