<?xml version="1.0" encoding="UTF-8" standalone="no"?>
<!-- Generated by Microsoft Visio, SVG Export high-availability.svg Page-1 -->

<svg
   xmlns:v="http://schemas.microsoft.com/visio/2003/SVGExtensions/"
   xmlns:dc="http://purl.org/dc/elements/1.1/"
   xmlns:cc="http://creativecommons.org/ns#"
   xmlns:rdf="http://www.w3.org/1999/02/22-rdf-syntax-ns#"
   xmlns:svg="http://www.w3.org/2000/svg"
   xmlns="http://www.w3.org/2000/svg"
   xmlns:sodipodi="http://sodipodi.sourceforge.net/DTD/sodipodi-0.dtd"
   xmlns:inkscape="http://www.inkscape.org/namespaces/inkscape"
   width="0.68715in"
   height="0.78739935in"
   viewBox="0 0 49.474937 56.692787"
   xml:space="preserve"
   class="st6"
   version="1.1"
   id="svg57"
   sodipodi:docname="high-availability.svg"
   inkscape:version="0.92.4 (5da689c313, 2019-01-14)"
   style="font-size:12px;overflow:visible;color-interpolation-filters:sRGB;fill:none;fill-rule:evenodd;stroke-linecap:square;stroke-miterlimit:3"><metadata
   id="metadata61"><rdf:RDF><cc:Work
       rdf:about=""><dc:format>image/svg+xml</dc:format><dc:type
         rdf:resource="http://purl.org/dc/dcmitype/StillImage" /><dc:title></dc:title></cc:Work></rdf:RDF></metadata><sodipodi:namedview
   pagecolor="#ffffff"
   bordercolor="#666666"
   borderopacity="1"
   objecttolerance="10"
   gridtolerance="10"
   guidetolerance="10"
   inkscape:pageopacity="0"
   inkscape:pageshadow="2"
   inkscape:window-width="3840"
   inkscape:window-height="2054"
   id="namedview59"
   showgrid="false"
   inkscape:zoom="11.313709"
   inkscape:cx="8.6632569"
   inkscape:cy="23.728744"
   inkscape:window-x="-11"
   inkscape:window-y="-11"
   inkscape:window-maximized="1"
   inkscape:current-layer="svg57"
   fit-margin-top="0"
   fit-margin-left="0"
   fit-margin-right="0"
   fit-margin-bottom="0" />
	<v:documentProperties
   v:langID="1033"
   v:viewMarkup="false" />

	<style
   type="text/css"
   id="style2">
	<![CDATA[
		.st1 {fill:#198ab3;stroke:none;stroke-linecap:butt;stroke-width:40.1837}
		.st2 {fill:#32bedd;stroke:none;stroke-linecap:butt;stroke-width:40.1837}
		.st3 {fill:url(#grad6-12);stroke:none;stroke-linecap:butt;stroke-width:40.1837}
		.st4 {fill:none;stroke:none;stroke-linecap:butt;stroke-width:40.1837}
		.st5 {fill:#37c2b1;stroke:none;stroke-linecap:butt;stroke-width:40.1837}
		.st6 {fill:none;fill-rule:evenodd;font-size:12px;overflow:visible;stroke-linecap:square;stroke-miterlimit:3}
	]]>
	</style>

	<defs
   id="Patterns_And_Gradients">
		<radialGradient
   id="grad6-12"
   cx="41.073944"
   cy="98.131264"
   r="57.503517"
   gradientTransform="scale(1.0156561,0.98458528)"
   fx="41.073944"
   fy="98.131264"
   gradientUnits="userSpaceOnUse">
			<stop
   offset="0"
   stop-color="#5ea0ef"
   stop-opacity="1"
   id="stop4" />
			<stop
   offset="1"
   stop-color="#0078d4"
   stop-opacity="1"
   id="stop6" />
		</radialGradient>
	
		
		
		
	
			
			
			
			
			
			
		</defs>
	<g
   id="g4648"
   transform="translate(-0.47512512,-0.60755189)"><g
     v:groupContext="group"
     v:mID="1301"
     transform="translate(18.523325,-82.940782)"
     id="group1301-2">
				<title
   id="title14">Sheet.1301</title>
				<g
   v:groupContext="shape"
   v:mID="1302"
   id="shape1302-3">
					<title
   id="title16">Sheet.1302</title>
					<path
   style="fill:#198ab3;stroke:none;stroke-width:40.18370056;stroke-linecap:butt"
   inkscape:connector-curvature="0"
   id="path18"
   class="st1"
   d="m 7.74,131.08 c 0,-0.52 -2.11,-0.52 -2.11,0 A 5.69874,5.5244 -180 0 1 0,137.06 h 13.36 a 5.69224,5.5181 -180 0 1 -5.62,-5.98 z" />
				</g>
			</g><g
     v:groupContext="group"
     v:mID="1303"
     transform="translate(1.9570251,-79.759692)"
     id="group1303-5">
				<title
   id="title22">Sheet.1303</title>
				<g
   v:groupContext="shape"
   v:mID="1304"
   id="shape1304-6">
					<title
   id="title24">Sheet.1304</title>
					<path
   style="fill:#32bedd;stroke:none;stroke-width:40.18370056;stroke-linecap:butt"
   inkscape:connector-curvature="0"
   id="path26"
   class="st2"
   d="m 38.17,82.37 a 1.94939,1.88976 -180 0 1 2.78,0 l 0.09,0.09 A 28.6204,27.7448 -180 0 1 0.66,121.58 1.94939,1.88976 -180 0 1 0.5,118.89 l 0.08,-0.08 a 1.94939,1.88976 -180 0 1 2.69,-0.08 24.6923,23.9369 0 0 0 34.82,-33.75 1.94939,1.88976 -180 0 1 0.08,-2.61 z m -4.78,54.69 h -20.3 a 1.6245,1.5748 -180 0 1 -1.62,-1.57 1.6245,1.5748 -180 0 1 1.62,-1.58 h 20.3 a 1.6245,1.5748 -180 0 1 1.63,1.58 1.6245,1.5748 -180 0 1 -1.63,1.57 z" />
				</g>
			</g><g
     v:groupContext="group"
     v:mID="1305"
     transform="translate(0.47512512,-96.011192)"
     id="group1305-8">
				<title
   id="title30">Sheet.1305</title>
				<g
   v:groupContext="shape"
   v:mID="1306"
   id="shape1306-9">
					<title
   id="title32">Sheet.1306</title>
					<ellipse
   style="fill:url(#grad6-12);stroke:none;stroke-width:40.18370056;stroke-linecap:butt"
   id="ellipse34"
   class="st3"
   ry="20.2204"
   rx="20.8585"
   cy="116.839"
   cx="20.8585" />
				</g>
			</g><g
     v:groupContext="group"
     v:mID="1307"
     transform="translate(0.47512512,-96.011192)"
     id="group1307-13">
				<title
   id="title38">Sheet.1307</title>
				<g
   v:groupContext="shape"
   v:mID="1308"
   id="shape1308-14">
					<title
   id="title40">Sheet.1308</title>
					<ellipse
   style="fill:none;stroke:none;stroke-width:40.18370056;stroke-linecap:butt"
   id="ellipse42"
   class="st4"
   ry="20.2204"
   rx="20.8585"
   cy="116.839"
   cx="20.8585" />
				</g>
			</g><g
     v:groupContext="group"
     v:mID="1309"
     transform="translate(0.86825312,-96.010592)"
     id="group1309-16">
				<title
   id="title46">Sheet.1309</title>
				<g
   v:groupContext="shape"
   v:mID="1310"
   id="shape1310-17">
					<title
   id="title48">Sheet.1310</title>
					<path
   style="fill:#37c2b1;stroke:none;stroke-width:40.18370056;stroke-linecap:butt"
   inkscape:connector-curvature="0"
   id="path50"
   class="st5"
   d="m 16.42,116.88 a 2.88835,2.79999 0 1 0 -4.08,0 2.88835,2.79999 0 0 0 4.08,0 z m 13.62,-4.25 a 7.90155,7.65982 0 0 0 0,10.83 l 1.6,1.55 a 1.52703,1.48031 -180 0 1 -0.03,2.08 1.53028,1.48346 -180 0 1 -2.17,0 l 0.02,0.02 a 2.0826,2.01889 0 0 0 -2.92,2.86 L 31,134.3 a 20.839,20.2015 0 0 0 9.79,-22.05 7.8983,7.65667 0 0 0 -10.75,0.38 z m -18.87,-6.67 a 4.8383,4.69028 0 0 0 6.84,-6.63 l -2.26,-2.19 a 20.8195,20.1826 0 0 0 -9.04,4.52 z m -9,1.16 A 20.6668,20.0345 0 0 0 0,112.94 l 2.42,2.35 a 2.8902882,2.801868 0 1 0 4.09,-3.96 z m 10.91,28.63 a 20.8325,20.1952 0 0 0 15.04,-0.1 l -1.22,-1.18 a 9.00621,8.73069 0 0 0 -12.74,0 9.23689,8.95431 0 0 0 -1.08,1.28 z" />
				</g>
			</g></g>
</svg>