<?xml version="1.0" encoding="UTF-8" standalone="no"?>
<!DOCTYPE svg PUBLIC "-//W3C//DTD SVG 1.1//EN" "http://www.w3.org/Graphics/SVG/1.1/DTD/svg11.dtd">
<!-- Generated by Microsoft Visio, SVG Export ip-groups.svg Page-1 -->
<svg xmlns="http://www.w3.org/2000/svg" xmlns:xlink="http://www.w3.org/1999/xlink" xmlns:ev="http://www.w3.org/2001/xml-events"
		xmlns:v="http://schemas.microsoft.com/visio/2003/SVGExtensions/" width="0.834717in" height="0.653843in"
		viewBox="0 0 60.0996 47.0767" xml:space="preserve" color-interpolation-filters="sRGB" class="st6">
	<v:documentProperties v:langID="1033" v:viewMarkup="false"/>

	<style type="text/css">
	<![CDATA[
		.st1 {fill:#83b9f9;stroke:none;stroke-linecap:butt;stroke-width:0.75}
		.st2 {fill:#1f56a3;stroke:none;stroke-linecap:butt;stroke-width:0.75}
		.st3 {fill:#f2f2f2;stroke:none;stroke-linecap:butt;stroke-width:0.75}
		.st4 {fill:url(#grad0-19);stroke:none;stroke-linecap:butt;stroke-width:0.75}
		.st5 {fill:#0078d4;stroke:none;stroke-linecap:butt;stroke-width:0.75}
		.st6 {fill:none;fill-rule:evenodd;font-size:12px;overflow:visible;stroke-linecap:square;stroke-miterlimit:3}
	]]>
	</style>

	<defs id="Patterns_And_Gradients">
		<linearGradient id="grad0-19" x1="0" y1="0" x2="1" y2="0" gradientTransform="rotate(-90 0.5 0.5)">
			<stop offset="0" stop-color="#32bedd" stop-opacity="1"/>
			<stop offset="0.18" stop-color="#32caea" stop-opacity="1"/>
			<stop offset="0.41" stop-color="#32d2f2" stop-opacity="1"/>
			<stop offset="0.78" stop-color="#32d4f5" stop-opacity="1"/>
		</linearGradient>
	</defs>
	<g v:mID="0" v:index="1" v:groupContext="foregroundPage">
		<title>Page-1</title>
		<v:pageProperties v:drawingScale="1" v:pageScale="1" v:drawingUnits="19" v:shadowOffsetX="9" v:shadowOffsetY="-9"/>
		<g id="group1182-1" transform="translate(0.75,-0.75)" v:mID="1182" v:groupContext="group">
			<title>Sheet.1182</title>
			<g id="group1183-2" v:mID="1183" v:groupContext="group">
				<title>Sheet.1183</title>
				<g id="shape1184-3" v:mID="1184" v:groupContext="shape" transform="translate(-2.95763E-13,-19.0759)">
					<title>Sheet.1184</title>
					<path d="M0 27.61 L32.91 27.61 L32.91 45.97 A1.1065 1.1065 0 0 1 31.81 47.08 L1.11 47.08 A1.1065 1.1065 0 0 1
								 0 45.97 L0 27.61 Z" class="st1"/>
				</g>
				<g id="shape1185-5" v:mID="1185" v:groupContext="shape" transform="translate(-2.95763E-13,-38.5447)">
					<title>Sheet.1185</title>
					<path d="M1.11 40.04 L31.81 40.04 A1.1065 1.1065 0 0 1 32.91 41.15 L32.91 47.08 L0 47.08 L0 41.15 A1.1065 1.1065
								 0 0 1 1.11 40.04 Z" class="st2"/>
				</g>
				<g id="shape1186-7" v:mID="1186" v:groupContext="shape" transform="translate(4.42599,-40.6268)">
					<title>Sheet.1186</title>
					<path d="M0 46.52 a0.554985 0.554985 -180 0 0 0.554973 0.554973 L23.5 47.08 a0.554985 0.554985 -180 0 0 0.554973
								 -0.554973 L24.06 44.8 a0.554985 0.554985 -180 0 0 -0.554973 -0.554973 L0.55 44.24 a0.554985 0.554985
								 -180 0 0 -0.554973 0.554973 L0 46.52 Z" class="st3"/>
				</g>
				<g id="shape1187-9" v:mID="1187" v:groupContext="shape" transform="translate(12.8264,-9.57242)">
					<title>Sheet.1187</title>
					<path d="M0 27.61 L32.95 27.61 L32.95 45.97 A1.1065 1.1065 0 0 1 31.84 47.08 L1.11 47.08 A1.1065 1.1065 0 0 1
								 0 45.97 L0 27.61 Z" class="st1"/>
				</g>
				<g id="shape1188-11" v:mID="1188" v:groupContext="shape" transform="translate(12.8609,-29.0378)">
					<title>Sheet.1188</title>
					<path d="M1.07 40.08 L31.77 40.08 A1.1065 1.1065 0 0 1 32.88 41.18 L32.88 47.08 L0 47.08 L0 41.18 A1.1065 1.1065
								 0 0 1 1.07 40.08 Z" class="st2"/>
				</g>
				<g id="shape1189-13" v:mID="1189" v:groupContext="shape" transform="translate(17.2559,-31.0888)">
					<title>Sheet.1189</title>
					<path d="M0 46.52 a0.554985 0.554985 -180 0 0 0.554973 0.554973 L23.5 47.08 a0.554985 0.554985 -180 0 0 0.554973
								 -0.554973 L24.06 44.8 a0.554985 0.554985 -180 0 0 -0.554973 -0.554973 L0.55 44.24 a0.554985 0.554985
								 -180 0 0 -0.554973 0.554973 L0 46.52 Z" class="st3"/>
				</g>
				<g id="group1190-15" transform="translate(25.6873,-2.34479E-13)" v:mID="1190" v:groupContext="group">
					<title>Sheet.1190</title>
					<g id="shape1191-16" v:mID="1191" v:groupContext="shape">
						<title>Sheet.1191</title>
						<path d="M0 27.61 L32.91 27.61 L32.91 45.97 A1.1065 1.1065 0 0 1 31.81 47.08 L1.11 47.08 A1.1065 1.1065 0
									 0 1 0 45.97 L0 27.61 Z" class="st4"/>
					</g>
					<g id="shape1192-20" v:mID="1192" v:groupContext="shape" transform="translate(0,-19.4689)">
						<title>Sheet.1192</title>
						<path d="M1.11 40.04 L31.81 40.04 A1.1065 1.1065 0 0 1 32.91 41.15 L32.91 47.08 L0 47.08 L0 41.15 A1.1065
									 1.1065 0 0 1 1.11 40.04 Z" class="st5"/>
					</g>
					<g id="group1193-22" transform="translate(6.38046,-8.26944)" v:mID="1193" v:groupContext="group">
						<title>Sheet.1193</title>
						<g id="shape1194-23" v:mID="1194" v:groupContext="shape" transform="translate(14.8119,0)">
							<title>Sheet.1194</title>
							<ellipse cx="2.66801" cy="44.4087" rx="2.66801" ry="2.66801" class="st5"/>
						</g>
						<g id="shape1195-25" v:mID="1195" v:groupContext="shape" transform="translate(7.52143,0)">
							<title>Sheet.1195</title>
							<ellipse cx="2.66801" cy="44.4087" rx="2.66801" ry="2.66801" class="st5"/>
						</g>
						<g id="shape1196-27" v:mID="1196" v:groupContext="shape">
							<title>Sheet.1196</title>
							<ellipse cx="2.66801" cy="44.4087" rx="2.66801" ry="2.66801" class="st5"/>
						</g>
					</g>
					<g id="shape1197-29" v:mID="1197" v:groupContext="shape" transform="translate(4.42599,-21.5509)">
						<title>Sheet.1197</title>
						<path d="M0 46.52 a0.554985 0.554985 -180 0 0 0.554973 0.554973 L23.5 47.08 a0.554985 0.554985 -180 0 0 0.554973
									 -0.554973 L24.06 44.8 a0.554985 0.554985 -180 0 0 -0.554973 -0.554973 L0.55 44.24 a0.554985
									 0.554985 -180 0 0 -0.554973 0.554973 L0 46.52 Z" class="st3"/>
					</g>
				</g>
			</g>
		</g>
	</g>
</svg>
