<?xml version="1.0" encoding="UTF-8" standalone="no"?>
<!DOCTYPE svg PUBLIC "-//W3C//DTD SVG 1.1//EN" "http://www.w3.org/Graphics/SVG/1.1/DTD/svg11.dtd">
<!-- Generated by Microsoft Visio, SVG Export job.svg Page-1 -->
<svg xmlns="http://www.w3.org/2000/svg" xmlns:xlink="http://www.w3.org/1999/xlink" xmlns:ev="http://www.w3.org/2001/xml-events"
		xmlns:v="http://schemas.microsoft.com/visio/2003/SVGExtensions/" width="0.850236in" height="1.00329in"
		viewBox="0 0 61.217 72.2369" xml:space="preserve" color-interpolation-filters="sRGB" class="st5">
	<v:documentProperties v:langID="1033" v:viewMarkup="false"/>

	<style type="text/css">
	<![CDATA[
		.st1 {fill:url(#grad0-6);stroke:none;stroke-linecap:butt;stroke-width:6.12}
		.st2 {fill:#ffffff;stroke:none;stroke-linecap:butt;stroke-width:6.12}
		.st3 {fill:url(#grad0-15);stroke:none;stroke-linecap:butt;stroke-width:0.75}
		.st4 {fill:#ffffff;stroke:none;stroke-linecap:butt;stroke-width:0.75}
		.st5 {fill:none;fill-rule:evenodd;font-size:12px;overflow:visible;stroke-linecap:square;stroke-miterlimit:3}
	]]>
	</style>

	<defs id="Patterns_And_Gradients">
		<linearGradient id="grad0-6" x1="0" y1="0" x2="1" y2="0" gradientTransform="rotate(90 0.5 0.5)">
			<stop offset="0" stop-color="#5ea0ef" stop-opacity="1"/>
			<stop offset="1" stop-color="#0078d4" stop-opacity="1"/>
		</linearGradient>
		<linearGradient id="grad0-15" x1="0" y1="0" x2="1" y2="0" gradientTransform="rotate(-90 0.5 0.5)">
			<stop offset="0" stop-color="#32bedd" stop-opacity="1"/>
			<stop offset="1" stop-color="#32d4f5" stop-opacity="1"/>
		</linearGradient>
	</defs>
	<g v:mID="0" v:index="1" v:groupContext="foregroundPage">
		<title>Page-1</title>
		<v:pageProperties v:drawingScale="1" v:pageScale="1" v:drawingUnits="19" v:shadowOffsetX="9" v:shadowOffsetY="-9"/>
		<g id="group1430-1" transform="translate(6.12,-6.12)" v:mID="1430" v:groupContext="group">
			<title>Sheet.1430</title>
			<g id="group1016-2" v:mID="1016" v:groupContext="group">
				<title>Sheet.1016</title>
				<g id="shape1017-3" v:mID="1017" v:groupContext="shape">
					<title>Sheet.1017</title>
					<path d="M2.01 19.73 L46.97 19.73 C48.1 19.73 48.98 20.62 48.98 21.74 L48.98 70.23 C48.98 71.36 48.1 72.24 46.97
								 72.24 L2.01 72.24 C0.88 72.24 0 71.36 0 70.23 L0 21.74 C0 20.62 0.88 19.73 2.01 19.73 Z"
							class="st1"/>
				</g>
				<g id="shape1018-7" v:mID="1018" v:groupContext="shape" transform="translate(2.9876,-3.23248)">
					<title>Sheet.1018</title>
					<path d="M2.01 26.15 L40.99 26.15 C42.12 26.15 43 27.03 43 28.16 L43 70.23 C43 71.36 42.12 72.24 40.99 72.24
								 L2.01 72.24 C0.88 72.24 0 71.36 0 70.23 L0 28.16 C0 27.03 0.88 26.15 2.01 26.15 Z" class="st2"/>
				</g>
				<g id="shape1019-9" v:mID="1019" v:groupContext="shape" transform="translate(11.5096,-47.4587)">
					<title>Sheet.1019</title>
					<path d="M16.8 63.57 C16.8 61.46 15.08 59.7 12.93 59.7 C10.77 59.7 9.06 61.41 9.06 63.57 L2.01 63.57 C0.88 63.57
								 0 64.45 0 65.58 L0 72.24 L26.01 72.24 L26.01 65.53 C26.01 64.4 25.13 63.52 24 63.52 C23.95 63.57
								 16.8 63.57 16.8 63.57 ZM12.44 61.71 C13.47 61.41 14.55 62 14.84 63.03 C14.84 63.03 14.84 63.03 14.84
								 63.03 C14.89 63.18 14.94 63.37 14.89 63.57 L14.84 63.57 C14.84 64.65 14.01 65.48 12.93 65.48 C12.69
								 65.48 12.44 65.43 12.2 65.33 C11.31 64.94 10.82 63.96 11.12 63.03 C11.26 62.39 11.75 61.85 12.44
								 61.71 Z" class="st1"/>
				</g>
			</g>
			<g id="shape1413-12" v:mID="1413" v:groupContext="shape" transform="translate(9.47169,-9.90659)">
				<title>Sheet.1413</title>
				<path d="M30.03 58.99 L30.03 55.63 L29.5 55.45 L25.79 54.22 L24.91 51.92 L26.85 48.03 L24.38 45.56 L23.85 45.74 L20.49
							 47.5 L18.2 46.62 L16.61 42.38 L13.25 42.38 L13.07 42.91 L11.84 46.44 L9.54 47.5 L5.65 45.56 L3.18 48.03
							 L3.36 48.56 L5.12 51.92 L4.24 54.22 L0 55.81 L0 59.16 L0.53 59.34 L4.24 60.58 L5.12 62.87 L3.18 66.76
							 L5.65 69.23 L6.18 69.06 L9.54 67.29 L11.84 68.17 L13.43 72.24 L16.78 72.24 L16.96 71.71 L18.2 68 L20.49
							 67.11 L24.38 69.06 L26.85 66.58 L26.68 66.23 L24.91 62.87 L25.79 60.58 L30.03 58.99 Z" class="st3"/>
			</g>
			<g id="shape1414-16" v:mID="1414" v:groupContext="shape" transform="translate(18.1284,-19.1806)">
				<title>Sheet.1414</title>
				<path d="M12.19 62.25 L10.78 63.49 A5.14282 5.14282 0 0 1 10.25 70.91 A5.13399 5.13399 0 0 1 2.83 70.38 A5.14105
							 5.14105 0 0 1 2.83 63.49 L3 63.49 L4.06 64.37 L4.24 64.37 L4.24 64.2 L3.89 60.66 C3.89 60.49 3.71 60.49
							 3.53 60.49 L0.18 61.02 a0.176668 0.176668 -180 0 0 -0.176668 0.176668 L1.06 62.08 L1.06 62.25 A7.02434
							 7.02434 -180 1 0 11.84 71.26 A6.41307 6.41307 -180 0 0 12.19 62.25 Z" class="st4"/>
			</g>
		</g>
	</g>
</svg>
