<?xml version="1.0" encoding="UTF-8" standalone="no"?>
<!-- Generated by Microsoft Visio, SVG Export job.svg Page-1 -->

<svg
   xmlns:v="http://schemas.microsoft.com/visio/2003/SVGExtensions/"
   xmlns:dc="http://purl.org/dc/elements/1.1/"
   xmlns:cc="http://creativecommons.org/ns#"
   xmlns:rdf="http://www.w3.org/1999/02/22-rdf-syntax-ns#"
   xmlns:svg="http://www.w3.org/2000/svg"
   xmlns="http://www.w3.org/2000/svg"
   xmlns:xlink="http://www.w3.org/1999/xlink"
   xmlns:sodipodi="http://sodipodi.sourceforge.net/DTD/sodipodi-0.dtd"
   xmlns:inkscape="http://www.inkscape.org/namespaces/inkscape"
   width="65.206657"
   height="79.998253"
   viewBox="0 0 48.904998 59.998705"
   xml:space="preserve"
   class="st5"
   version="1.1"
   id="svg7160"
   sodipodi:docname="job.svg"
   style="font-size:12px;overflow:visible;color-interpolation-filters:sRGB;fill:none;fill-rule:evenodd;stroke-linecap:square;stroke-miterlimit:3"
   inkscape:version="0.92.4 (5da689c313, 2019-01-14)"><metadata
   id="metadata7164"><rdf:RDF><cc:Work
       rdf:about=""><dc:format>image/svg+xml</dc:format><dc:type
         rdf:resource="http://purl.org/dc/dcmitype/StillImage" /><dc:title></dc:title></cc:Work></rdf:RDF></metadata><sodipodi:namedview
   pagecolor="#ffffff"
   bordercolor="#666666"
   borderopacity="1"
   objecttolerance="10"
   gridtolerance="10"
   guidetolerance="10"
   inkscape:pageopacity="0"
   inkscape:pageshadow="2"
   inkscape:window-width="3840"
   inkscape:window-height="2054"
   id="namedview7162"
   showgrid="false"
   units="px"
   fit-margin-top="0"
   fit-margin-left="-0.1"
   fit-margin-right="0"
   fit-margin-bottom="0"
   inkscape:zoom="19.010371"
   inkscape:cx="32.551329"
   inkscape:cy="40.002065"
   inkscape:window-x="-11"
   inkscape:window-y="-11"
   inkscape:window-maximized="1"
   inkscape:current-layer="svg7160" />
	<v:documentProperties
   v:langID="1033"
   v:viewMarkup="false" />

	<style
   type="text/css"
   id="style7112">
	<![CDATA[
		.st1 {fill:url(#grad0-6);stroke:none;stroke-linecap:butt;stroke-width:6.12}
		.st2 {fill:#ffffff;stroke:none;stroke-linecap:butt;stroke-width:6.12}
		.st3 {fill:url(#grad0-15);stroke:none;stroke-linecap:butt;stroke-width:0.75}
		.st4 {fill:#ffffff;stroke:none;stroke-linecap:butt;stroke-width:0.75}
		.st5 {fill:none;fill-rule:evenodd;font-size:12px;overflow:visible;stroke-linecap:square;stroke-miterlimit:3}
	]]>
	</style>

	<defs
   id="Patterns_And_Gradients">
		<linearGradient
   id="grad0-6"
   x1="0"
   y1="0"
   x2="1"
   y2="0"
   gradientTransform="rotate(90,0.5,0.5)">
			<stop
   offset="0"
   stop-color="#5ea0ef"
   stop-opacity="1"
   id="stop7114" />
			<stop
   offset="1"
   stop-color="#0078d4"
   stop-opacity="1"
   id="stop7116" />
		</linearGradient>
		<linearGradient
   id="grad0-15"
   x1="0"
   y1="42.500468"
   x2="29.944879"
   y2="42.500468"
   gradientTransform="scale(1.0028426,0.99716548)"
   gradientUnits="userSpaceOnUse">
			<stop
   offset="0"
   stop-color="#32bedd"
   stop-opacity="1"
   id="stop7119" />
			<stop
   offset="1"
   stop-color="#32d4f5"
   stop-opacity="1"
   id="stop7121" />
		</linearGradient>
	<linearGradient
   inkscape:collect="always"
   xlink:href="#grad0-6"
   id="linearGradient7166"
   gradientTransform="scale(0.96580262,1.0354082)"
   x1="0"
   y1="19.055286"
   x2="50.714296"
   y2="19.055286"
   gradientUnits="userSpaceOnUse" /><linearGradient
   inkscape:collect="always"
   xlink:href="#grad0-6"
   id="linearGradient7168"
   gradientTransform="scale(1.4401954,0.69435024)"
   x1="0"
   y1="85.979663"
   x2="18.06005"
   y2="85.979663"
   gradientUnits="userSpaceOnUse" /></defs>
	<g
   v:mID="0"
   v:index="1"
   v:groupContext="foregroundPage"
   id="g7158"
   transform="translate(-6.195,-6.1213)">
		<title
   id="title7125">Page-1</title>
		<v:pageProperties
   v:drawingScale="1"
   v:pageScale="1"
   v:drawingUnits="19"
   v:shadowOffsetX="9"
   v:shadowOffsetY="-9" />
		<g
   id="group1430-1"
   transform="translate(6.12,-6.12)"
   v:mID="1430"
   v:groupContext="group">
			<title
   id="title7127">Sheet.1430</title>
			<g
   id="group1016-2"
   v:mID="1016"
   v:groupContext="group">
				<title
   id="title7129">Sheet.1016</title>
				<g
   id="shape1017-3"
   v:mID="1017"
   v:groupContext="shape">
					<title
   id="title7131">Sheet.1017</title>
					<path
   d="m 2.01,19.73 h 44.96 c 1.13,0 2.01,0.89 2.01,2.01 v 48.49 c 0,1.13 -0.88,2.01 -2.01,2.01 H 2.01 C 0.88,72.24 0,71.36 0,70.23 V 21.74 c 0,-1.12 0.88,-2.01 2.01,-2.01 z"
   class="st1"
   id="path7133"
   inkscape:connector-curvature="0"
   style="fill:url(#linearGradient7166);stroke:none;stroke-width:6.11999989;stroke-linecap:butt" />
				</g>
				<g
   id="shape1018-7"
   v:mID="1018"
   v:groupContext="shape"
   transform="translate(2.9876,-3.23248)">
					<title
   id="title7136">Sheet.1018</title>
					<path
   d="m 2.01,26.15 h 38.98 c 1.13,0 2.01,0.88 2.01,2.01 v 42.07 c 0,1.13 -0.88,2.01 -2.01,2.01 H 2.01 C 0.88,72.24 0,71.36 0,70.23 V 28.16 c 0,-1.13 0.88,-2.01 2.01,-2.01 z"
   class="st2"
   id="path7138"
   inkscape:connector-curvature="0"
   style="fill:#ffffff;stroke:none;stroke-width:6.11999989;stroke-linecap:butt" />
				</g>
				<g
   id="shape1019-9"
   v:mID="1019"
   v:groupContext="shape"
   transform="translate(11.5096,-47.4587)">
					<title
   id="title7141">Sheet.1019</title>
					<path
   d="m 16.8,63.57 c 0,-2.11 -1.72,-3.87 -3.87,-3.87 -2.16,0 -3.87,1.71 -3.87,3.87 H 2.01 C 0.88,63.57 0,64.45 0,65.58 v 6.66 h 26.01 v -6.71 c 0,-1.13 -0.88,-2.01 -2.01,-2.01 -0.05,0.05 -7.2,0.05 -7.2,0.05 z m -4.36,-1.86 c 1.03,-0.3 2.11,0.29 2.4,1.32 0,0 0,0 0,0 0.05,0.15 0.1,0.34 0.05,0.54 h -0.05 c 0,1.08 -0.83,1.91 -1.91,1.91 -0.24,0 -0.49,-0.05 -0.73,-0.15 -0.89,-0.39 -1.38,-1.37 -1.08,-2.3 0.14,-0.64 0.63,-1.18 1.32,-1.32 z"
   class="st1"
   id="path7143"
   inkscape:connector-curvature="0"
   style="fill:url(#linearGradient7168);stroke:none;stroke-width:6.11999989;stroke-linecap:butt" />
				</g>
			</g>
			<g
   id="shape1413-12"
   v:mID="1413"
   v:groupContext="shape"
   transform="translate(9.47169,-9.90659)">
				<title
   id="title7147">Sheet.1413</title>
				<path
   d="m 30.03,58.99 v -3.36 l -0.53,-0.18 -3.71,-1.23 -0.88,-2.3 1.94,-3.89 -2.47,-2.47 -0.53,0.18 -3.36,1.76 -2.29,-0.88 -1.59,-4.24 h -3.36 l -0.18,0.53 -1.23,3.53 -2.3,1.06 -3.89,-1.94 -2.47,2.47 0.18,0.53 1.76,3.36 -0.88,2.3 L 0,55.81 v 3.35 l 0.53,0.18 3.71,1.24 0.88,2.29 -1.94,3.89 2.47,2.47 0.53,-0.17 3.36,-1.77 2.3,0.88 1.59,4.07 h 3.35 l 0.18,-0.53 1.24,-3.71 2.29,-0.89 3.89,1.95 2.47,-2.48 -0.17,-0.35 -1.77,-3.36 0.88,-2.29 z"
   class="st3"
   id="path7149"
   inkscape:connector-curvature="0"
   style="fill:url(#grad0-15);stroke:none;stroke-width:0.75;stroke-linecap:butt" />
			</g>
			<g
   id="shape1414-16"
   v:mID="1414"
   v:groupContext="shape"
   transform="translate(18.1284,-19.1806)">
				<title
   id="title7152">Sheet.1414</title>
				<path
   d="m 12.19,62.25 -1.41,1.24 a 5.14282,5.14282 0 0 1 -0.53,7.42 5.13399,5.13399 0 0 1 -7.42,-0.53 5.14105,5.14105 0 0 1 0,-6.89 H 3 l 1.06,0.88 H 4.24 V 64.2 L 3.89,60.66 c 0,-0.17 -0.18,-0.17 -0.36,-0.17 L 0.18,61.02 A 0.176668,0.176668 -180 0 0 0.003332,61.196668 L 1.06,62.08 v 0.17 a 7.0247509,7.0247509 -180 1 0 10.78,9.01 6.41307,6.41307 -180 0 0 0.35,-9.01 z"
   class="st4"
   id="path7154"
   inkscape:connector-curvature="0"
   style="fill:#ffffff;stroke:none;stroke-width:0.75;stroke-linecap:butt" />
			</g>
		</g>
	</g>
</svg>