<?xml version="1.0" encoding="UTF-8" standalone="no"?>
<!DOCTYPE svg PUBLIC "-//W3C//DTD SVG 1.1//EN" "http://www.w3.org/Graphics/SVG/1.1/DTD/svg11.dtd">
<!-- Generated by Microsoft Visio, SVG Export keyvault.svg Page-1 -->
<svg xmlns="http://www.w3.org/2000/svg" xmlns:xlink="http://www.w3.org/1999/xlink" xmlns:ev="http://www.w3.org/2001/xml-events"
		xmlns:v="http://schemas.microsoft.com/visio/2003/SVGExtensions/" width="0.844596in" height="0.844596in"
		viewBox="0 0 60.8109 60.8109" xml:space="preserve" color-interpolation-filters="sRGB" class="st5">
	<v:documentProperties v:langID="1033" v:viewMarkup="false"/>

	<style type="text/css">
	<![CDATA[
		.st1 {fill:url(#grad3-5);stroke:none;stroke-linecap:butt;stroke-width:0.75}
		.st2 {fill:#ffffff;stroke:none;stroke-linecap:butt;stroke-width:0.75}
		.st3 {fill:url(#grad7-12);stroke:none;stroke-linecap:butt;stroke-width:0.75}
		.st4 {fill:#ff9300;fill-opacity:0.75;stroke:none;stroke-linecap:butt;stroke-width:0.75}
		.st5 {fill:none;fill-rule:evenodd;font-size:12px;overflow:visible;stroke-linecap:square;stroke-miterlimit:3}
	]]>
	</style>

	<defs id="Patterns_And_Gradients">
		<radialGradient id="grad3-5" cx="0.5" cy="0.5" r="0.73">
			<stop offset="0.18" stop-color="#5ea0ef" stop-opacity="1"/>
			<stop offset="0.56" stop-color="#5c9fee" stop-opacity="1"/>
			<stop offset="0.69" stop-color="#559ced" stop-opacity="1"/>
			<stop offset="0.78" stop-color="#4a97e9" stop-opacity="1"/>
			<stop offset="0.86" stop-color="#3990e4" stop-opacity="1"/>
			<stop offset="0.93" stop-color="#2387de" stop-opacity="1"/>
			<stop offset="0.99" stop-color="#087bd6" stop-opacity="1"/>
			<stop offset="1" stop-color="#0078d4" stop-opacity="1"/>
		</radialGradient>
		<radialGradient id="grad7-12" cx="0" cy="0" r="1.4">
			<stop offset="0.27" stop-color="#ffd70f" stop-opacity="1"/>
			<stop offset="0.49" stop-color="#ffcb12" stop-opacity="1"/>
			<stop offset="0.88" stop-color="#feac19" stop-opacity="1"/>
			<stop offset="1" stop-color="#fea11b" stop-opacity="1"/>
		</radialGradient>
	</defs>
	<g v:mID="0" v:index="1" v:groupContext="foregroundPage">
		<title>Page-1</title>
		<v:pageProperties v:drawingScale="1" v:pageScale="1" v:drawingUnits="19" v:shadowOffsetX="9" v:shadowOffsetY="-9"/>
		<g id="group1254-1" transform="translate(4.7971,-2.49384)" v:mID="1254" v:groupContext="group">
			<title>Icon-security-245</title>
			<g id="shape1255-2" v:mID="1255" v:groupContext="shape" transform="translate(4.63879,-2.30326)">
				<title>aacf8311-a317-400f-b613-74bd00d</title>
				<path d="M20.97 5.55 A29.6555 29.6555 -180 1 0 50.63 35.2 A29.6904 29.6904 -180 0 0 20.97 5.55 ZM20.97 60.81 A25.6084
							 25.6084 0 1 1 46.58 35.2 A25.6084 25.6084 0 0 1 20.97 60.81 Z" class="st1"/>
			</g>
			<g id="shape1256-6" v:mID="1256" v:groupContext="shape" transform="translate(0,-2.30326)">
				<title>Sheet.1256</title>
				<ellipse cx="25.6084" cy="35.2026" rx="25.6084" ry="25.6084" class="st2"/>
			</g>
			<g id="group1257-8" transform="translate(8.25861,0)" v:mID="1257" v:groupContext="group">
				<title>Sheet.1257</title>
				<g id="shape1258-9" v:mID="1258" v:groupContext="shape">
					<title>bd983c41-db73-40ec-a4f4-da1213f</title>
					<path d="M32.84 27.07 A6.41954 6.41954 -180 0 0 32.84 18.04 L21.85 7.01 A6.38465 6.38465 -180 0 0 12.85 7.01
								 L1.86 18.04 A6.41954 6.41954 -180 0 0 1.86 27.07 L11 36.39 A1.77933 1.77933 0 0 1 11.52 37.64 L11.52
								 54.67 A2.19799 2.19799 -180 0 0 12.15 56.21 L16.34 60.39 A1.43044 1.43044 -180 0 0 18.36 60.39 L22.41
								 56.34 L24.78 53.97 a0.87222 0.87222 -180 0 0 3.55271E-15 -1.18622 L23.07 51.08 a0.941997 0.941997
								 0 0 1 -3.55271E-14 -1.29089 L24.78 48.08 a0.87222 0.87222 -180 0 0 -2.13163E-14 -1.18622 L23.07
								 45.18 a0.941997 0.941997 0 0 1 -1.77636E-14 -1.29089 L24.78 42.18 a0.87222 0.87222 -180 0 0 -6.03961E-14
								 -1.18622 L22.41 38.59 L22.41 37.71 L32.84 27.07 ZM17.35 9.7 A3.61099 3.61099 0 1 1 17.35 16.92 A3.61099
								 3.61099 0 1 1 17.35 9.7 Z" class="st3"/>
				</g>
				<g id="shape1259-13" v:mID="1259" v:groupContext="shape" transform="translate(14.2447,-5.8074)">
					<title>ad2e7e44-9bfd-4775-8bf4-8ef26a5</title>
					<path d="M0.24 60.69 a0.802442 0.802442 -180 0 0 1.32577 -0.593109 L1.57 46.14 a0.837331 0.837331 -180 0 0 -0.383777
								 -0.697776 a0.767553 0.767553 -180 0 0 -1.18622 0.697776 L0 60.09 a0.976886 0.976886 -180 0 0 0.244221
								 0.593109 Z" class="st4"/>
				</g>
				<g id="shape1260-15" v:mID="1260" v:groupContext="shape" transform="translate(8.55778,-36.9827)">
					<title>a996fbff-3936-4b24-b407-369336c</title>
					<path d="M0 59.83 a0.976909 0.976909 -180 0 0 0.976886 0.976886 L17.06 60.81 a0.976909 0.976909 -180 0 0 0.976886
								 -0.976886 L18.04 59.66 a0.976909 0.976909 -180 0 0 -0.976886 -0.976886 L0.98 58.68 a0.976909 0.976909
								 -180 0 0 -0.976886 0.976886 L0 59.83 Z" class="st4"/>
				</g>
				<g id="shape1261-17" v:mID="1261" v:groupContext="shape" transform="translate(8.55778,-33.5287)">
					<title>bb12d31c-3352-4a18-87dd-a169a4a</title>
					<path d="M0 59.83 a0.976909 0.976909 -180 0 0 0.976886 0.976886 L17.06 60.81 a0.976909 0.976909 -180 0 0 0.976886
								 -0.976886 L18.04 59.66 a0.976909 0.976909 -180 0 0 -0.976886 -0.976886 L0.98 58.68 a0.976909 0.976909
								 -180 0 0 -0.976886 0.976886 L0 59.83 Z" class="st4"/>
				</g>
			</g>
		</g>
	</g>
</svg>
