<?xml version="1.0" encoding="UTF-8" standalone="no"?>
<!DOCTYPE svg PUBLIC "-//W3C//DTD SVG 1.1//EN" "http://www.w3.org/Graphics/SVG/1.1/DTD/svg11.dtd">
<!-- Generated by Microsoft Visio, SVG Export live-event.svg Page-1 -->
<svg xmlns="http://www.w3.org/2000/svg" xmlns:xlink="http://www.w3.org/1999/xlink" xmlns:ev="http://www.w3.org/2001/xml-events"
		xmlns:v="http://schemas.microsoft.com/visio/2003/SVGExtensions/" width="0.808193in" height="0.536816in"
		viewBox="0 0 58.1899 38.6508" xml:space="preserve" color-interpolation-filters="sRGB" class="st4">
	<v:documentProperties v:langID="1033" v:viewMarkup="false"/>

	<style type="text/css">
	<![CDATA[
		.st1 {fill:url(#grad0-6);stroke:none;stroke-linecap:butt;stroke-width:0.75}
		.st2 {fill:url(#grad0-10);stroke:none;stroke-linecap:butt;stroke-width:0.75}
		.st3 {fill:#c3f1ff;stroke:none;stroke-linecap:butt;stroke-width:0.75}
		.st4 {fill:none;fill-rule:evenodd;font-size:12px;overflow:visible;stroke-linecap:square;stroke-miterlimit:3}
	]]>
	</style>

	<defs id="Patterns_And_Gradients">
		<linearGradient id="grad0-6" x1="0" y1="0" x2="1" y2="0" gradientTransform="rotate(131.73018430583 0.5 0.5)">
			<stop offset="0" stop-color="#83b9f9" stop-opacity="1"/>
			<stop offset="0.09" stop-color="#79b4f6" stop-opacity="1"/>
			<stop offset="0.245" stop-color="#5ea7ef" stop-opacity="1"/>
			<stop offset="0.44" stop-color="#3391e2" stop-opacity="1"/>
			<stop offset="0.64" stop-color="#0078d4" stop-opacity="1"/>
		</linearGradient>
		<linearGradient id="grad0-10" x1="0" y1="0" x2="1" y2="0" gradientTransform="rotate(90.656199454629 0.5 0.5)">
			<stop offset="0.175" stop-color="#83b9f9" stop-opacity="1"/>
			<stop offset="0.195" stop-color="#7eb7f8" stop-opacity="1"/>
			<stop offset="0.38" stop-color="#51a0eb" stop-opacity="1"/>
			<stop offset="0.56" stop-color="#2e8fe1" stop-opacity="1"/>
			<stop offset="0.725" stop-color="#1582da" stop-opacity="1"/>
			<stop offset="0.88" stop-color="#057bd6" stop-opacity="1"/>
			<stop offset="1" stop-color="#0078d4" stop-opacity="1"/>
		</linearGradient>
	</defs>
	<g v:mID="0" v:index="1" v:groupContext="foregroundPage">
		<title>Page-1</title>
		<v:pageProperties v:drawingScale="1" v:pageScale="1" v:drawingUnits="19" v:shadowOffsetX="9" v:shadowOffsetY="-9"/>
		<g id="group183-1" transform="translate(0.75,-0.75)" v:mID="183" v:groupContext="group">
			<title>Sheet.183</title>
			<g id="group184-2" v:mID="184" v:groupContext="group">
				<title>Sheet.184</title>
				<g id="shape185-3" v:mID="185" v:groupContext="shape" transform="translate(34.436,-5.58395)">
					<title>Sheet.185</title>
					<path d="M20.3 38.39 L1.35 29.57 A2.20461 2.20461 0 0 1 -0 27.32 L0 24.28 A2.22035 2.22035 0 0 1 1.35 22.02 L20.3
								 13.21 C21.32 12.95 22.25 14.03 22.25 15.46 L22.25 36.14 C22.25 37.57 21.31 38.65 20.3 38.39 Z"
							class="st1"/>
				</g>
				<g id="shape186-7" v:mID="186" v:groupContext="shape">
					<title>Sheet.186</title>
					<path d="M0 36.42 A2.2267 2.2267 -180 0 0 2.23 38.65 L40.29 38.65 A2.2267 2.2267 -180 0 0 42.52 36.42 L42.52
								 3.73 A2.2267 2.2267 -180 0 0 40.29 1.5 L2.23 1.5 A2.2267 2.2267 -180 0 0 0 3.73 L0 36.42 Z"
							class="st2"/>
				</g>
				<g id="shape187-11" v:mID="187" v:groupContext="shape" transform="translate(11.1711,-11.9144)">
					<title>Sheet.187</title>
					<path d="M5.03 36.33 A7.10828 7.10828 0 0 1 3.33 31.92 A6.05007 6.05007 0 0 1 4.97 27.79 A1.66605 1.66605 -180
								 0 0 2.7 25.36 A9.44831 9.44831 -180 0 0 -0 31.91 A10.4435 10.4435 -180 0 0 2.62 38.64 A1.66605 1.66605
								 -180 0 0 5.03 36.34 L5.03 36.33 Z" class="st3"/>
				</g>
				<g id="shape188-13" v:mID="188" v:groupContext="shape" transform="translate(4.62967,-8.6956)">
					<title>Sheet.188</title>
					<path d="M4.61 38.65 A1.6629 1.6629 0 0 1 3.35 38.08 A15.1708 15.1708 0 0 1 0 28.79 A16.1881 16.1881 0 0 1 3.32
								 19.54 A1.66605 1.66605 0 0 1 5.91 21.63 A12.9379 12.9379 -180 0 0 3.33 28.79 A11.7474 11.7474 -180
								 0 0 5.87 35.89 A1.66605 1.66605 0 0 1 4.61 38.65 L4.61 38.65 Z" class="st3"/>
				</g>
				<g id="shape189-15" v:mID="189" v:groupContext="shape" transform="translate(24.9982,-11.8986)">
					<title>Sheet.189</title>
					<path d="M2.78 25.36 A1.65346 1.65346 -180 0 0 0.45 25.45 A1.67235 1.67235 -180 0 0 0.52 27.8 A6.04062 6.04062
								 0 0 1 2.15 31.93 A7.13978 7.13978 0 0 1 0.45 36.34 A1.66605 1.66605 -180 0 0 2.86 38.64 A10.4435
								 10.4435 -180 0 0 5.49 31.91 A9.44831 9.44831 -180 0 0 2.78 25.36 Z" class="st3"/>
				</g>
				<g id="shape190-17" v:mID="190" v:groupContext="shape" transform="translate(30.8901,-8.67355)">
					<title>Sheet.190</title>
					<path d="M1.52 38.65 A1.66605 1.66605 0 0 1 0.26 35.89 A11.9679 11.9679 -180 0 0 2.78 28.79 A12.9631 12.9631
								 -180 0 0 0.2 21.63 A1.66605 1.66605 0 0 1 2.79 19.54 A16.1944 16.1944 0 0 1 6.11 28.79 A15.1803
								 15.1803 0 0 1 2.75 38.08 A1.6629 1.6629 0 0 1 1.52 38.65 Z" class="st3"/>
				</g>
				<g id="shape191-19" v:mID="191" v:groupContext="shape" transform="translate(17.9549,-15.6118)">
					<title>Sheet.191</title>
					<ellipse cx="2.91008" cy="35.7407" rx="2.91008" ry="2.91008" class="st3"/>
				</g>
			</g>
		</g>
	</g>
</svg>
