<?xml version="1.0" encoding="UTF-8" standalone="no"?>
<!DOCTYPE svg PUBLIC "-//W3C//DTD SVG 1.1//EN" "http://www.w3.org/Graphics/SVG/1.1/DTD/svg11.dtd">
<!-- Generated by Microsoft Visio, SVG Export managed-identity.svg Page-1 -->
<svg xmlns="http://www.w3.org/2000/svg" xmlns:xlink="http://www.w3.org/1999/xlink" xmlns:ev="http://www.w3.org/2001/xml-events"
		xmlns:v="http://schemas.microsoft.com/visio/2003/SVGExtensions/" width="0.84048in" height="0.80815in"
		viewBox="0 0 60.5146 58.1868" xml:space="preserve" color-interpolation-filters="sRGB" class="st9">
	<v:documentProperties v:langID="1033" v:viewMarkup="false"/>

	<style type="text/css">
	<![CDATA[
		.st1 {fill:#50e6ff;stroke:none;stroke-linecap:butt;stroke-width:0.75}
		.st2 {fill:#ffffff;stroke:none;stroke-linecap:butt;stroke-width:0.75}
		.st3 {fill:url(#grad0-11);stroke:none;stroke-linecap:butt;stroke-width:0.75}
		.st4 {fill:#53b1e0;stroke:none;stroke-linecap:butt;stroke-width:0.75}
		.st5 {fill:#9cebff;stroke:none;stroke-linecap:butt;stroke-width:0.75}
		.st6 {fill:url(#grad0-19);stroke:none;stroke-linecap:butt;stroke-width:0.75}
		.st7 {fill:#ffca00;stroke:none;stroke-linecap:butt;stroke-width:0.75}
		.st8 {fill:#ff9300;fill-opacity:0.75;stroke:none;stroke-linecap:butt;stroke-width:0.75}
		.st9 {fill:none;fill-rule:evenodd;font-size:12px;overflow:visible;stroke-linecap:square;stroke-miterlimit:3}
	]]>
	</style>

	<defs id="Patterns_And_Gradients">
		<linearGradient id="grad0-11" x1="0" y1="0" x2="1" y2="0" gradientTransform="rotate(-133.50152230549 0.5 0.5)">
			<stop offset="0" stop-color="#1988d9" stop-opacity="1"/>
			<stop offset="0.9" stop-color="#54aef0" stop-opacity="1"/>
		</linearGradient>
		<linearGradient id="grad0-19" x1="0" y1="0" x2="1" y2="0" gradientTransform="rotate(65.832309755673 0.5 0.5)">
			<stop offset="0.1" stop-color="#54aef0" stop-opacity="1"/>
			<stop offset="0.29" stop-color="#4fabee" stop-opacity="1"/>
			<stop offset="0.51" stop-color="#41a2e9" stop-opacity="1"/>
			<stop offset="0.74" stop-color="#2a93e0" stop-opacity="1"/>
			<stop offset="0.88" stop-color="#1988d9" stop-opacity="1"/>
		</linearGradient>
	</defs>
	<g v:mID="0" v:index="1" v:groupContext="foregroundPage">
		<title>Page-1</title>
		<v:pageProperties v:drawingScale="1" v:pageScale="1" v:drawingUnits="19" v:shadowOffsetX="9" v:shadowOffsetY="-9"/>
		<g id="group1050-1" transform="translate(0.75,-0.75)" v:mID="1050" v:groupContext="group">
			<title>Sheet.1050</title>
			<g id="shape1051-2" v:mID="1051" v:groupContext="shape" transform="translate(0,-2.97356)">
				<title>Sheet.1051</title>
				<path d="M3.33 35.21 L29.27 52.05 L55.68 35.18 L59.01 39.02 L29.27 58.19 L0 39.05 L3.33 35.21 Z" class="st1"/>
			</g>
			<g id="shape1052-4" v:mID="1052" v:groupContext="shape" transform="translate(5.26797,-12.5759)">
				<title>Sheet.1052</title>
				<path d="M0 42.68 L24.01 14.08 L48.51 42.72 L24.01 58.19 L0 42.68 Z" class="st2"/>
			</g>
			<g id="shape1053-6" v:mID="1053" v:groupContext="shape" transform="translate(5.26797,-12.5759)">
				<title>Sheet.1053</title>
				<path d="M24.01 14.08 L24.01 58.19 L0 42.68 L24.01 14.08 Z" class="st1"/>
			</g>
			<g id="shape1054-8" v:mID="1054" v:groupContext="shape" transform="translate(29.2739,-12.5759)">
				<title>Sheet.1054</title>
				<path d="M0 14.08 L0 58.19 L24.51 42.72 L0 14.08 Z" class="st3"/>
			</g>
			<g id="shape1055-12" v:mID="1055" v:groupContext="shape" transform="translate(29.2739,-12.5759)">
				<title>Sheet.1055</title>
				<path d="M0 36.85 L24.51 42.72 L0 58.19 L0 36.85 Z" class="st4"/>
			</g>
			<g id="shape1056-14" v:mID="1056" v:groupContext="shape" transform="translate(5.26797,-12.5759)">
				<title>Sheet.1056</title>
				<path d="M24.01 58.19 L0 42.68 L24.01 36.85 L24.01 58.19 Z" class="st5"/>
			</g>
			<g id="shape1057-16" v:mID="1057" v:groupContext="shape" transform="translate(29.2739,-2.97356)">
				<title>Sheet.1057</title>
				<path d="M0 58.19 L29.74 39.02 L26.41 35.18 L0 52.05 L0 58.19 Z" class="st6"/>
			</g>
			<g id="group1058-20" transform="translate(33.9873,-2.77112E-13)" v:mID="1058" v:groupContext="group">
				<title>Sheet.1058</title>
				<g id="shape1059-21" v:mID="1059" v:groupContext="shape">
					<title>e189a61f-631a-4122-bb2b-079e860</title>
					<path d="M19.93 37.78 A3.86762 3.86762 -180 0 0 19.93 32.27 L13.26 25.61 A3.86762 3.86762 -180 0 0 7.79 25.61
								 L1.12 32.27 A3.9343 3.9343 -180 0 0 1.12 37.78 L6.69 43.34 A1.06693 1.06693 0 0 1 6.99 44.11 L6.99
								 54.45 A1.2003 1.2003 -180 0 0 7.39 55.38 L9.92 57.91 a0.833539 0.833539 -180 0 0 1.23364 0 L13.59
								 55.48 L15.06 54.01 a0.500123 0.500123 -180 0 0 -1.95399E-14 -0.700173 L14.02 52.28 a0.533465 0.533465
								 0 0 1 -1.77636E-14 -0.800197 L15.06 50.45 a0.533465 0.533465 -180 0 0 8.88178E-15 -0.733514 L14.02
								 48.68 a0.500123 0.500123 0 0 1 1.24345E-14 -0.766856 L15.06 46.84 a0.500123 0.500123 -180 0 0 -3.90799E-14
								 -0.700173 L13.59 44.68 L13.59 44.14 L19.93 37.78 ZM10.52 27.21 A2.20054 2.20054 0 1 1 8.32 29.41
								 A2.20054 2.20054 0 0 1 10.52 27.21 Z" class="st7"/>
				</g>
				<g id="shape1060-23" v:mID="1060" v:groupContext="shape" transform="translate(8.71005,-3.24072)">
					<title>fb7033ee-4650-4886-80c7-eddf625</title>
					<path d="M0.15 58.09 a0.466782 0.466782 -180 0 0 0.800197 -0.366757 L0.95 49.19 a0.533465 0.533465 -180 0 0 -0.200049
								 -0.43344 a0.466782 0.466782 -180 0 0 -0.733514 0.43344 L0.01 57.55 a0.500123 0.500123 -180 0 0 0.133366
								 0.533465 Z" class="st8"/>
				</g>
				<g id="shape1061-25" v:mID="1061" v:groupContext="shape" transform="translate(5.18905,-22.3783)">
					<title>b166b8c2-b9ee-4c3d-bf7a-77bd5ce</title>
					<path d="M0 57.59 a0.600162 0.600162 -180 0 0 0.600148 0.600148 L10.37 58.19 a0.600162 0.600162 -180 0 0 0.600148
								 -0.600148 L10.97 57.49 a0.600162 0.600162 -180 0 0 -0.600148 -0.600148 L0.6 56.89 a0.600162 0.600162
								 -180 0 0 -0.600148 0.600148 L0 57.59 Z" class="st8"/>
				</g>
				<g id="shape1062-27" v:mID="1062" v:groupContext="shape" transform="translate(5.18905,-20.2778)">
					<title>baf437fe-3483-4a25-94ba-1e84a64</title>
					<path d="M0 57.59 a0.600162 0.600162 -180 0 0 0.600148 0.600148 L10.37 58.19 a0.600162 0.600162 -180 0 0 0.600148
								 -0.600148 L10.97 57.49 a0.600162 0.600162 -180 0 0 -0.600148 -0.600148 L0.6 56.89 a0.600162 0.600162
								 -180 0 0 -0.600148 0.600148 L0 57.59 Z" class="st8"/>
				</g>
			</g>
		</g>
	</g>
</svg>
