<?xml version="1.0" encoding="UTF-8" standalone="no"?>
<!DOCTYPE svg PUBLIC "-//W3C//DTD SVG 1.1//EN" "http://www.w3.org/Graphics/SVG/1.1/DTD/svg11.dtd">
<!-- Generated by Microsoft Visio, SVG Export media-services-account.svg Page-1 -->
<svg xmlns="http://www.w3.org/2000/svg" xmlns:xlink="http://www.w3.org/1999/xlink" xmlns:ev="http://www.w3.org/2001/xml-events"
		xmlns:v="http://schemas.microsoft.com/visio/2003/SVGExtensions/" width="0.808151in" height="0.812715in"
		viewBox="0 0 58.1869 58.5155" xml:space="preserve" color-interpolation-filters="sRGB" class="st8">
	<v:documentProperties v:langID="1033" v:viewMarkup="false"/>

	<style type="text/css">
	<![CDATA[
		.st1 {fill:url(#grad0-6);stroke:none;stroke-linecap:butt;stroke-width:0.75}
		.st2 {fill:#0078d4;stroke:none;stroke-linecap:butt;stroke-width:0.75}
		.st3 {fill:#5ea0ef;stroke:none;stroke-linecap:butt;stroke-width:0.75}
		.st4 {fill:url(#grad0-14);stroke:none;stroke-linecap:butt;stroke-width:0.75}
		.st5 {fill:#c3f1ff;stroke:none;stroke-linecap:butt;stroke-width:0.75}
		.st6 {fill:url(#grad0-24);stroke:none;stroke-linecap:butt;stroke-width:0.75}
		.st7 {fill:#50e6ff;stroke:none;stroke-linecap:butt;stroke-width:0.75}
		.st8 {fill:none;fill-rule:evenodd;font-size:12px;overflow:visible;stroke-linecap:square;stroke-miterlimit:3}
	]]>
	</style>

	<defs id="Patterns_And_Gradients">
		<linearGradient id="grad0-6" x1="0" y1="0" x2="1" y2="0" gradientTransform="rotate(-0.10257930558574 0.5 0.5)">
			<stop offset="0" stop-color="#005ba1" stop-opacity="1"/>
			<stop offset="0.365" stop-color="#004e8f" stop-opacity="1"/>
			<stop offset="1" stop-color="#003067" stop-opacity="1"/>
		</linearGradient>
		<linearGradient id="grad0-14" x1="0" y1="0" x2="1" y2="0" gradientTransform="rotate(179.30685615173 0.5 0.5)">
			<stop offset="0" stop-color="#005ba1" stop-opacity="1"/>
			<stop offset="0.45" stop-color="#004685" stop-opacity="1"/>
			<stop offset="1" stop-color="#003067" stop-opacity="1"/>
		</linearGradient>
		<linearGradient id="grad0-24" x1="0" y1="0" x2="1" y2="0" gradientTransform="rotate(-73.177420271587 0.5 0.5)">
			<stop offset="0.26" stop-color="#50e6ff" stop-opacity="1"/>
			<stop offset="0.42" stop-color="#79eaff" stop-opacity="1"/>
			<stop offset="0.58" stop-color="#99edff" stop-opacity="1"/>
			<stop offset="0.735" stop-color="#b0efff" stop-opacity="1"/>
			<stop offset="0.875" stop-color="#bef1ff" stop-opacity="1"/>
			<stop offset="1" stop-color="#c3f1ff" stop-opacity="1"/>
		</linearGradient>
	</defs>
	<g v:mID="0" v:index="1" v:groupContext="foregroundPage">
		<title>Page-1</title>
		<v:pageProperties v:drawingScale="1" v:pageScale="1" v:drawingUnits="19" v:shadowOffsetX="9" v:shadowOffsetY="-9"/>
		<g id="group22-1" transform="translate(0.750044,-0.828595)" v:mID="22" v:groupContext="group">
			<title>Sheet.22</title>
			<g id="group23-2" v:mID="23" v:groupContext="group">
				<title>Sheet.23</title>
				<g id="shape24-3" v:mID="24" v:groupContext="shape" transform="translate(8.14863,-36.7168)">
					<title>Sheet.24</title>
					<path d="M20.92 50.37 L34.97 58.52 L44.77 52.81 A28.2614 28.4819 -180 0 0 -0 46.79 A32.2056 32.4568 0 0 1 20.92
								 50.37 Z" class="st1"/>
				</g>
				<g id="shape25-7" v:mID="25" v:groupContext="shape" transform="translate(36.05,-14.4127)">
					<title>Sheet.25</title>
					<path d="M6.89 36.21 L6.67 55.76 L16.85 58.52 A28.2614 28.4819 -180 0 0 0 17.08 A33.5653 33.8271 0 0 1 6.89 36.21
								 Z" class="st2"/>
				</g>
				<g id="shape26-9" v:mID="26" v:groupContext="shape" transform="translate(28.2872,0)">
					<title>Sheet.26</title>
					<path d="M14.63 38.66 L0 47.18 L0.23 58.52 A28.2872 28.5078 -180 0 0 28.4 30.01 A27.1042 27.3157 -180 0 0 27.47
								 23.24 A30.7719 31.012 0 0 1 14.63 38.66 Z" class="st3"/>
				</g>
				<g id="shape27-11" v:mID="27" v:groupContext="shape" transform="translate(3.9377,-0.186833)">
					<title>Sheet.27</title>
					<path d="M24.35 47.36 L9.71 38.84 L0 44.71 A28.2229 28.443 -180 0 0 43.95 50.81 A31.8488 32.0972 0 0 1 24.35
								 47.36 Z" class="st4"/>
				</g>
				<g id="shape28-15" v:mID="28" v:groupContext="shape" transform="translate(0,-0.89411)">
					<title>Sheet.28</title>
					<path d="M13.64 39.55 L13.86 19.35 L3.84 16.69 A28.1071 28.3264 -180 0 0 -0 30.98 A28.4382 28.6601 -180 0 0 21.01
								 58.52 A32.7585 33.014 0 0 1 13.64 39.55 Z" class="st2"/>
				</g>
				<g id="shape29-17" v:mID="29" v:groupContext="shape" transform="translate(2.79776E-13,-20.9144)">
					<title>Sheet.29</title>
					<path d="M14.14 42.25 L28.29 34.01 A34.0057 34.271 -180 0 0 9.19 29.98 A28.1521 28.3718 -180 0 0 -0 51 A28.9718
								 29.1979 -180 0 0 1.01 58.52 A32.9481 33.2052 0 0 1 14.14 42.25 Z" class="st3"/>
				</g>
			</g>
			<g id="shape30-19" v:mID="30" v:groupContext="shape" transform="translate(13.6357,-11.3383)">
				<title>Sheet.30</title>
				<path d="M29.28 50 L29.28 32.96 L14.64 24.44 L0 32.96 L0 50 L14.64 58.52 L29.28 50 Z" class="st5"/>
			</g>
			<g id="shape31-21" v:mID="31" v:groupContext="shape" transform="translate(13.6357,-11.3383)">
				<title>Sheet.31</title>
				<path d="M14.66 41.65 L14.66 58.52 L0 50 L0 33.01 L14.66 41.65 Z" class="st6"/>
			</g>
			<g id="shape32-25" v:mID="32" v:groupContext="shape" transform="translate(28.2775,-11.3383)">
				<title>Sheet.32</title>
				<path d="M0 41.65 L0 58.52 L14.66 50 L14.66 33.01 L0 41.65 Z" class="st7"/>
			</g>
		</g>
	</g>
</svg>
