<?xml version="1.0" encoding="UTF-8" standalone="no"?>
<!DOCTYPE svg PUBLIC "-//W3C//DTD SVG 1.1//EN" "http://www.w3.org/Graphics/SVG/1.1/DTD/svg11.dtd">
<!-- Generated by Microsoft Visio, SVG Export media-file.svg Page-1 -->
<svg xmlns="http://www.w3.org/2000/svg" xmlns:xlink="http://www.w3.org/1999/xlink" xmlns:ev="http://www.w3.org/2001/xml-events"
		xmlns:v="http://schemas.microsoft.com/visio/2003/SVGExtensions/" width="0.645833in" height="0.770833in"
		viewBox="0 0 46.5 55.5" xml:space="preserve" color-interpolation-filters="sRGB" class="st6">
	<v:documentProperties v:langID="1033" v:viewMarkup="false"/>

	<style type="text/css">
	<![CDATA[
		.st1 {fill:#ffffff;stroke:none;stroke-linecap:butt;stroke-width:0.75}
		.st2 {fill:url(#grad0-9);stroke:none;stroke-linecap:butt;stroke-width:0.75}
		.st3 {fill:#0078d4;stroke:none;stroke-linecap:butt;stroke-width:0.75}
		.st4 {fill:#32bedd;stroke:none;stroke-linecap:butt;stroke-width:0.75}
		.st5 {fill:#5ea0ef;stroke:none;stroke-linecap:butt;stroke-width:0.75}
		.st6 {fill:none;fill-rule:evenodd;font-size:12px;overflow:visible;stroke-linecap:square;stroke-miterlimit:3}
	]]>
	</style>

	<defs id="Patterns_And_Gradients">
		<linearGradient id="grad0-9" x1="0" y1="0" x2="1" y2="0" gradientTransform="rotate(-90 0.5 0.5)">
			<stop offset="0" stop-color="#0078d4" stop-opacity="1"/>
			<stop offset="0.815" stop-color="#5ea0ef" stop-opacity="1"/>
		</linearGradient>
	</defs>
	<g v:mID="0" v:index="1" v:groupContext="foregroundPage">
		<title>Page-1</title>
		<v:pageProperties v:drawingScale="1" v:pageScale="1" v:drawingUnits="19" v:shadowOffsetX="9" v:shadowOffsetY="-9"/>
		<g id="group1109-1" transform="translate(0.75,-0.75)" v:mID="1109" v:groupContext="group">
			<title>MsPortalFx.base.images-61</title>
			<g id="group1110-2" v:mID="1110" v:groupContext="group">
				<title>Sheet.1110</title>
				<g id="group1111-3" v:mID="1111" v:groupContext="group">
					<title>Sheet.1111</title>
					<g id="shape1112-4" v:mID="1112" v:groupContext="shape" transform="translate(0.330596,-0.406588)">
						<title>Sheet.1112</title>
						<path d="M25.3 2.31 L1.85 2.31 A1.85069 1.81376 -180 0 0 -0 4.13 L0 53.68 A1.85069 1.81376 -180 0 0 1.85
									 55.5 L42.49 55.5 A1.85069 1.81376 -180 0 0 44.34 53.68 L44.34 20.89 A1.85069 1.81376 -180 0
									 0 42.49 19.07 L29 19.07 A1.85069 1.81376 0 0 1 27.15 17.26 L27.15 4.13 A1.85393 1.81694 -180
									 0 0 25.3 2.31 Z" class="st1"/>
					</g>
					<g id="shape1113-6" v:mID="1113" v:groupContext="shape">
						<title>Sheet.1113</title>
						<path d="M24.77 4.22 L24.77 16.67 A4.66076 4.56776 -180 0 0 29.42 21.24 L42.22 21.24 L42.22 52.78 L2.78 52.78
									 L2.78 4.22 L24.77 4.22 ZM25.67 1.5 L1.88 1.5 A1.8831 1.84553 -180 0 0 0 3.35 L0 53.65 A1.8831
									 1.84553 -180 0 0 1.88 55.5 L43.12 55.5 A1.8831 1.84553 -180 0 0 45 53.65 L45 20.36 A1.87986
									 1.84235 -180 0 0 43.12 18.52 L29.43 18.52 A1.87986 1.84235 0 0 1 27.55 16.67 L27.55 3.35 A1.8831
									 1.84553 -180 0 0 25.67 1.5 Z" class="st2"/>
					</g>
					<g id="shape1114-10" v:mID="1114" v:groupContext="shape" transform="translate(26.9015,-36.6184)">
						<title>Sheet.1114</title>
						<path d="M17.38 55.5 L0 38.52 L0 52.36 A3.18928 3.12565 -180 0 0 3.17 55.5 L17.38 55.5 Z" class="st3"/>
					</g>
				</g>
				<g id="shape1115-12" v:mID="1115" v:groupContext="shape" transform="translate(8.36538,-26.9301)">
					<title>Sheet.1115</title>
					<path d="M0 43.46 L0 54.72 a0.923725 0.905294 -180 0 0 1.38073 0.784588 L11.43 49.87 a0.920484 0.902118 -180
								 0 0 1.77636E-15 -1.56918 L1.38 42.67 a0.923725 0.905294 -180 0 0 -1.38073 0.784588 Z" class="st4"/>
				</g>
				<g id="shape1116-14" v:mID="1116" v:groupContext="shape" transform="translate(8.20009,-19.3542)">
					<title>Sheet.1116</title>
					<path d="M0 54.09 A1.4391 1.41039 -180 0 0 1.44 55.5 L22.45 55.5 A1.4391 1.41039 -180 0 0 23.89 54.09 L23.89
								 53.77 A1.4391 1.41039 -180 0 0 22.45 52.36 L1.44 52.36 A1.4391 1.41039 -180 0 0 0 53.77 L0 54.09
								 Z" class="st5"/>
				</g>
				<g id="shape1117-16" v:mID="1117" v:groupContext="shape" transform="translate(8.20009,-13.7287)">
					<title>Sheet.1117</title>
					<path d="M0 54.09 A1.4391 1.41039 -180 0 0 1.44 55.5 L22.45 55.5 A1.4391 1.41039 -180 0 0 23.89 54.09 L23.89
								 53.77 A1.4391 1.41039 -180 0 0 22.45 52.36 L1.44 52.36 A1.4391 1.41039 -180 0 0 0 53.77 L0 54.09
								 Z" class="st5"/>
				</g>
				<g id="shape1118-18" v:mID="1118" v:groupContext="shape" transform="translate(8.20009,-8.1)">
					<title>Sheet.1118</title>
					<path d="M0 54.09 A1.4391 1.41039 -180 0 0 1.44 55.5 L13.62 55.5 A1.4391 1.41039 -180 0 0 15.06 54.09 L15.06
								 53.77 A1.4391 1.41039 -180 0 0 13.62 52.36 L1.44 52.36 A1.4391 1.41039 -180 0 0 -0 53.77 L0 54.09
								 Z" class="st5"/>
				</g>
			</g>
		</g>
	</g>
</svg>
