<?xml version="1.0" encoding="UTF-8" standalone="no"?>
<!DOCTYPE svg PUBLIC "-//W3C//DTD SVG 1.1//EN" "http://www.w3.org/Graphics/SVG/1.1/DTD/svg11.dtd">
<!-- Generated by Microsoft Visio, SVG Export mobile.svg Page-1 -->
<svg xmlns="http://www.w3.org/2000/svg" xmlns:xlink="http://www.w3.org/1999/xlink" xmlns:ev="http://www.w3.org/2001/xml-events"
		xmlns:v="http://schemas.microsoft.com/visio/2003/SVGExtensions/" width="0.508094in" height="0.834667in"
		viewBox="0 0 36.5827 60.096" xml:space="preserve" color-interpolation-filters="sRGB" class="st7">
	<v:documentProperties v:langID="1033" v:viewMarkup="false"/>

	<style type="text/css">
	<![CDATA[
		.st1 {fill:url(#grad0-6);stroke:none;stroke-linecap:butt;stroke-width:0.75}
		.st2 {fill:#f2f2f2;stroke:none;stroke-linecap:butt;stroke-width:0.75}
		.st3 {fill:url(#grad0-12);stroke:none;stroke-linecap:butt;stroke-width:0.75}
		.st4 {fill:#005ba1;stroke:none;stroke-linecap:butt;stroke-width:0.75}
		.st5 {fill:#5ea0ef;stroke:none;stroke-linecap:butt;stroke-width:0.75}
		.st6 {fill:#0078d4;stroke:none;stroke-linecap:butt;stroke-width:0.75}
		.st7 {fill:none;fill-rule:evenodd;font-size:12px;overflow:visible;stroke-linecap:square;stroke-miterlimit:3}
	]]>
	</style>

	<defs id="Patterns_And_Gradients">
		<linearGradient id="grad0-6" x1="0" y1="0" x2="1" y2="0" gradientTransform="rotate(-90 0.5 0.5)">
			<stop offset="0" stop-color="#0078d4" stop-opacity="1"/>
			<stop offset="0.165" stop-color="#1c84dc" stop-opacity="1"/>
			<stop offset="0.38" stop-color="#3990e4" stop-opacity="1"/>
			<stop offset="0.59" stop-color="#4d99ea" stop-opacity="1"/>
			<stop offset="0.8" stop-color="#5a9eee" stop-opacity="1"/>
			<stop offset="1" stop-color="#5ea0ef" stop-opacity="1"/>
		</linearGradient>
		<linearGradient id="grad0-12" x1="0" y1="0" x2="1" y2="0" gradientTransform="rotate(-90 0.5 0.5)">
			<stop offset="0" stop-color="#d2ebff" stop-opacity="1"/>
			<stop offset="0.995" stop-color="#f0fffd" stop-opacity="1"/>
		</linearGradient>
	</defs>
	<g v:mID="0" v:index="1" v:groupContext="foregroundPage">
		<title>Page-1</title>
		<v:pageProperties v:drawingScale="1" v:pageScale="1" v:drawingUnits="19" v:shadowOffsetX="9" v:shadowOffsetY="-9"/>
		<g id="group1121-1" transform="translate(0.75,-0.75)" v:mID="1121" v:groupContext="group">
			<title>MsPortalFx.base.images-62</title>
			<g id="group1122-2" v:mID="1122" v:groupContext="group">
				<title>Sheet.1122</title>
				<g id="shape1123-3" v:mID="1123" v:groupContext="shape">
					<title>Sheet.1123</title>
					<path d="M0 58.73 A1.36402 1.36402 -180 0 0 1.36 60.1 L33.72 60.1 A1.36402 1.36402 -180 0 0 35.08 58.73 L35.08
								 2.86 A1.36402 1.36402 -180 0 0 33.72 1.5 L1.36 1.5 A1.36402 1.36402 -180 0 0 0 2.86 L0 58.73 Z"
							class="st1"/>
				</g>
				<g id="shape1124-7" v:mID="1124" v:groupContext="shape" transform="translate(13.4966,-55.5458)">
					<title>Sheet.1124</title>
					<path d="M0 59.59 a0.501333 0.501333 -180 0 0 0.501321 0.501321 L7.58 60.1 a0.501333 0.501333 -180 0 0 0.501321
								 -0.501321 L8.08 59.51 a0.501333 0.501333 -180 0 0 -0.501321 -0.501321 L0.5 59.01 a0.501333 0.501333
								 -180 0 0 -0.501321 0.501321 L0 59.59 Z" class="st2"/>
				</g>
				<g id="shape1125-9" v:mID="1125" v:groupContext="shape" transform="translate(3.29114,-6.56601)">
					<title>Sheet.1125</title>
					<path d="M0 59.44 a0.654337 0.654337 -180 0 0 0.654322 0.654322 L27.84 60.1 a0.654337 0.654337 -180 0 0 0.654322
								 -0.654322 L28.5 13.67 a0.654337 0.654337 -180 0 0 -0.654322 -0.654322 L0.65 13.02 a0.654337 0.654337
								 -180 0 0 -0.654322 0.654322 L0 59.44 Z" class="st3"/>
				</g>
				<g id="shape1126-13" v:mID="1126" v:groupContext="shape" transform="translate(15.58,-1.27609)">
					<title>Sheet.1126</title>
					<path d="M0 59.16 a0.931047 0.931047 -180 0 0 0.931025 0.931025 L2.99 60.1 a0.931047 0.931047 -180 0 0 0.931025
								 -0.931025 L3.92 57.68 a0.931047 0.931047 -180 0 0 -0.931025 -0.931025 L0.93 56.75 a0.931047 0.931047
								 -180 0 0 -0.931025 0.931025 L0 59.16 Z" class="st2"/>
				</g>
				<g id="shape1127-15" v:mID="1127" v:groupContext="shape" transform="translate(17.7904,-18.7019)">
					<title>Sheet.1127</title>
					<path d="M9.13 44.22 L9.13 54.79 L0 60.1 L0 49.51 L9.13 44.22 Z" class="st4"/>
				</g>
				<g id="shape1128-17" v:mID="1128" v:groupContext="shape" transform="translate(8.65919,-29.2687)">
					<title>Sheet.1128</title>
					<path d="M18.26 54.79 L9.13 60.1 L0 54.79 L9.13 49.48 L18.26 54.79 Z" class="st5"/>
				</g>
				<g id="shape1129-19" v:mID="1129" v:groupContext="shape" transform="translate(8.65919,-18.7019)">
					<title>Sheet.1129</title>
					<path d="M9.13 49.53 L9.13 60.1 L0 54.79 L0 44.22 L9.13 49.53 Z" class="st6"/>
				</g>
			</g>
		</g>
	</g>
</svg>
