<?xml version="1.0" encoding="UTF-8" standalone="no"?>
<!DOCTYPE svg PUBLIC "-//W3C//DTD SVG 1.1//EN" "http://www.w3.org/Graphics/SVG/1.1/DTD/svg11.dtd">
<!-- Generated by Microsoft Visio, SVG Export private-link-service.svg Page-1 -->
<svg xmlns="http://www.w3.org/2000/svg" xmlns:xlink="http://www.w3.org/1999/xlink" xmlns:ev="http://www.w3.org/2001/xml-events"
		xmlns:v="http://schemas.microsoft.com/visio/2003/SVGExtensions/" width="0.788387in" height="0.465179in"
		viewBox="0 0 56.7638 33.4929" xml:space="preserve" color-interpolation-filters="sRGB" class="st5">
	<v:documentProperties v:langID="1033" v:viewMarkup="false"/>

	<style type="text/css">
	<![CDATA[
		.st1 {fill:url(#grad0-6);stroke:none;stroke-linecap:butt;stroke-width:0.75}
		.st2 {fill:url(#grad0-10);stroke:none;stroke-linecap:butt;stroke-width:0.75}
		.st3 {fill:#50e6ff;stroke:none;stroke-linecap:butt;stroke-width:0.75}
		.st4 {fill:#1490df;stroke:none;stroke-linecap:butt;stroke-width:0.75}
		.st5 {fill:none;fill-rule:evenodd;font-size:12px;overflow:visible;stroke-linecap:square;stroke-miterlimit:3}
	]]>
	</style>

	<defs id="Patterns_And_Gradients">
		<linearGradient id="grad0-6" x1="0" y1="0" x2="1" y2="0" gradientTransform="rotate(90 0.5 0.5)">
			<stop offset="0.23" stop-color="#5ea0ef" stop-opacity="1"/>
			<stop offset="0.93" stop-color="#127fd9" stop-opacity="1"/>
		</linearGradient>
		<linearGradient id="grad0-10" x1="0" y1="0" x2="1" y2="0" gradientTransform="rotate(90 0.5 0.5)">
			<stop offset="0.02" stop-color="#5ea0ef" stop-opacity="1"/>
			<stop offset="0.93" stop-color="#127fd9" stop-opacity="1"/>
		</linearGradient>
	</defs>
	<g v:mID="0" v:index="1" v:groupContext="foregroundPage">
		<title>Page-1</title>
		<v:pageProperties v:drawingScale="1" v:pageScale="1" v:drawingUnits="19" v:shadowOffsetX="9" v:shadowOffsetY="-9"/>
		<g id="group1200-1" transform="translate(0.75,-0.7501)" v:mID="1200" v:groupContext="group">
			<title>Sheet.1200</title>
			<g id="group1201-2" v:mID="1201" v:groupContext="group">
				<title>Sheet.1201</title>
				<g id="shape1202-3" v:mID="1202" v:groupContext="shape" transform="translate(14.041,-11.2002)">
					<title>Sheet.1202</title>
					<path d="M12.33 19.71 L6.8 19.71 A6.89537 6.89537 -180 0 0 5.73 33.4 A7.39579 7.39579 0 0 1 5.81 30.83 A4.35335
								 4.35335 0 0 1 6.82 22.23 L12.34 22.23 A4.36563 4.36563 0 1 1 12.34 30.97 L10.81 30.97 A3.28497 3.28497
								 -180 0 0 10.51 32.34 A3.12533 3.12533 -180 0 0 10.72 33.49 L12.34 33.49 A6.89537 6.89537 -180 1
								 0 12.34 19.71 L12.33 19.71 Z" class="st1"/>
				</g>
				<g id="shape1203-7" v:mID="1203" v:groupContext="shape" transform="translate(20.9991,-5.46531)">
					<title>Sheet.1203</title>
					<path d="M13.34 19.81 A8.11726 8.11726 0 0 1 13.41 20.87 A7.08571 7.08571 0 0 1 13.26 22.37 A4.35335 4.35335
								 0 0 1 12.27 30.97 L6.74 30.97 A4.36563 4.36563 0 0 1 6.74 22.23 L8.26 22.23 A3.20822 3.20822 -180
								 0 0 8.56 20.86 A3.15603 3.15603 -180 0 0 8.35 19.71 L6.75 19.71 A6.89537 6.89537 -180 0 0 6.75 33.49
								 L12.28 33.49 A6.89537 6.89537 -180 0 0 13.34 19.8 L13.34 19.81 Z" class="st2"/>
				</g>
				<g id="shape1204-11" v:mID="1204" v:groupContext="shape" transform="translate(0,-1.02846)">
					<title>Sheet.1204</title>
					<path d="M17.14 31.96 L15.87 33.24 a0.865759 0.865759 0 0 1 -1.22803 -7.10543E-15 L0.51 19.12 A1.73766 1.73766
								 0 0 1 0.51 16.67 L1.79 15.42 L17.14 30.74 a0.847338 0.847338 0 0 1 1.06581E-14 1.2004 L17.14 31.96
								 Z" class="st3"/>
				</g>
				<g id="shape1205-13" v:mID="1205" v:groupContext="shape" transform="translate(-2.80775E-13,-13.9694)">
					<title>Sheet.1205</title>
					<path d="M15.61 15.72 L17.02 17.13 a0.865759 0.865759 0 0 1 -1.42109E-14 1.22803 L1.92 33.49 L0.51 32.09 A1.73766
								 1.73766 0 0 1 0.51 29.64 L14.39 15.72 a0.865759 0.865759 0 0 1 1.21882 2.13163E-14 Z" class="st4"/>
				</g>
				<g id="shape1206-15" v:mID="1206" v:groupContext="shape" transform="translate(37.8673,-1.63425E-13)">
					<title>Sheet.1206</title>
					<path d="M0.26 31.93 a0.847338 0.847338 0 0 1 -0.0184204 -1.2004 L0.26 30.73 L15.61 15.42 L16.89 16.69 A1.73766
								 1.73766 0 0 1 16.89 19.15 L2.73 33.23 a0.847338 0.847338 0 0 1 -1.2004 0.0184204 L1.51 33.24 L0.26
								 31.93 Z" class="st3"/>
				</g>
				<g id="shape1207-17" v:mID="1207" v:groupContext="shape" transform="translate(37.9902,-12.9593)">
					<title>Sheet.1207</title>
					<path d="M2.88 15.72 L16.77 29.65 A1.72845 1.72845 0 0 1 16.77 32.08 L15.36 33.49 L0.25 18.35 a0.881109 0.881109
								 0 0 1 -3.55271E-15 -1.22803 L1.66 15.72 a0.865759 0.865759 0 0 1 1.21882 1.24345E-14 Z"
							class="st4"/>
				</g>
			</g>
		</g>
	</g>
</svg>
