<?xml version="1.0" encoding="UTF-8" standalone="no"?>
<!DOCTYPE svg PUBLIC "-//W3C//DTD SVG 1.1//EN" "http://www.w3.org/Graphics/SVG/1.1/DTD/svg11.dtd">
<!-- Generated by Microsoft Visio, SVG Export private-link.svg Page-1 -->
<svg xmlns="http://www.w3.org/2000/svg" xmlns:xlink="http://www.w3.org/1999/xlink" xmlns:ev="http://www.w3.org/2001/xml-events"
		xmlns:v="http://schemas.microsoft.com/visio/2003/SVGExtensions/" width="0.768835in" height="0.714988in"
		viewBox="0 0 55.3561 51.4792" xml:space="preserve" color-interpolation-filters="sRGB" class="st6">
	<v:documentProperties v:langID="1033" v:viewMarkup="false"/>

	<style type="text/css">
	<![CDATA[
		.st1 {fill:#7a7a7a;stroke:none;stroke-linecap:butt;stroke-width:0.75}
		.st2 {fill:#1490df;stroke:none;stroke-linecap:butt;stroke-width:0.75}
		.st3 {fill:url(#grad0-9);stroke:none;stroke-linecap:butt;stroke-width:0.75}
		.st4 {fill:url(#grad0-13);stroke:none;stroke-linecap:butt;stroke-width:0.75}
		.st5 {fill:#50e6ff;stroke:none;stroke-linecap:butt;stroke-width:0.75}
		.st6 {fill:none;fill-rule:evenodd;font-size:12px;overflow:visible;stroke-linecap:square;stroke-miterlimit:3}
	]]>
	</style>

	<defs id="Patterns_And_Gradients">
		<linearGradient id="grad0-9" x1="0" y1="0" x2="1" y2="0" gradientTransform="rotate(90 0.5 0.5)">
			<stop offset="0.23" stop-color="#5ea0ef" stop-opacity="1"/>
			<stop offset="0.32" stop-color="#5b9fee" stop-opacity="1"/>
			<stop offset="0.48" stop-color="#509aeb" stop-opacity="1"/>
			<stop offset="0.57" stop-color="#3f92e6" stop-opacity="1"/>
			<stop offset="0.75" stop-color="#2688df" stop-opacity="1"/>
			<stop offset="0.93" stop-color="#127fd9" stop-opacity="1"/>
		</linearGradient>
		<linearGradient id="grad0-13" x1="0" y1="0" x2="1" y2="0" gradientTransform="rotate(90 0.5 0.5)">
			<stop offset="0.02" stop-color="#5ea0ef" stop-opacity="1"/>
			<stop offset="0.14" stop-color="#5b9fee" stop-opacity="1"/>
			<stop offset="0.23" stop-color="#5b9fee" stop-opacity="1"/>
			<stop offset="0.34" stop-color="#509aeb" stop-opacity="1"/>
			<stop offset="0.44" stop-color="#3f92e6" stop-opacity="1"/>
			<stop offset="0.63" stop-color="#2688df" stop-opacity="1"/>
			<stop offset="0.93" stop-color="#127fd9" stop-opacity="1"/>
		</linearGradient>
	</defs>
	<g v:mID="0" v:index="1" v:groupContext="foregroundPage">
		<title>Page-1</title>
		<v:pageProperties v:drawingScale="1" v:pageScale="1" v:drawingUnits="19" v:shadowOffsetX="9" v:shadowOffsetY="-9"/>
		<g id="group1171-1" transform="translate(0.75,-0.750098)" v:mID="1171" v:groupContext="group">
			<title>Sheet.1171</title>
			<g id="shape1172-2" v:mID="1172" v:groupContext="shape" transform="translate(24.6984,-23.2243)">
				<title>Sheet.1172</title>
				<rect x="0" y="30.3212" width="3.35631" height="21.1579" class="st1"/>
			</g>
			<g id="shape1173-4" v:mID="1173" v:groupContext="shape" transform="translate(22.8856,-41.5727)">
				<title>Sheet.1173</title>
				<path d="M8.41 48.01 A4.92678 4.92678 0 1 1 3.49 43.07 A4.92379 4.92379 0 0 1 8.41 48.01 Z" class="st2"/>
			</g>
			<g id="shape1174-6" v:mID="1174" v:groupContext="shape" transform="translate(13.69,-10.8999)">
				<title>Sheet.1174</title>
				<path d="M12.01 38.04 L6.63 38.04 A6.7186 6.7186 -180 0 0 5.59 51.38 A7.22415 7.22415 0 0 1 5.65 48.88 A4.24175 4.24175
							 0 0 1 6.63 40.51 L12.01 40.51 A4.25372 4.25372 0 0 1 12.01 49.01 L10.54 49.01 A3.22469 3.22469 -180
							 0 0 10.24 50.36 A3.05717 3.05717 -180 0 0 10.45 51.48 L12.03 51.48 A6.7186 6.7186 -180 1 0 12.03 38.04
							 L12.01 38.04 Z" class="st3"/>
			</g>
			<g id="shape1175-10" v:mID="1175" v:groupContext="shape" transform="translate(20.4697,-5.32097)">
				<title>Sheet.1175</title>
				<path d="M12.99 38.14 A7.90319 7.90319 0 0 1 13.07 39.17 A6.93099 6.93099 0 0 1 12.92 40.64 A4.24175 4.24175 0 0
							 1 11.95 49.02 L6.57 49.02 A4.25671 4.25671 0 0 1 6.57 40.51 L8.05 40.51 A3.117 3.117 -180 0 0 8.34 39.16
							 A3.04521 3.04521 -180 0 0 8.13 38.04 L6.58 38.04 A6.7186 6.7186 -180 0 0 6.58 51.48 L11.96 51.48 A6.7186
							 6.7186 -180 0 0 13 38.13 L12.99 38.14 Z" class="st4"/>
			</g>
			<g id="shape1176-14" v:mID="1176" v:groupContext="shape" transform="translate(-2.73781E-13,-0.998326)">
				<title>Sheet.1176</title>
				<path d="M16.71 49.99 L15.47 51.23 a0.837582 0.837582 0 0 1 -1.19655 0 L0.5 37.47 A1.69311 1.69311 0 0 1 0.5 35.07
							 L1.74 33.84 L16.7 48.77 a0.825617 0.825617 0 0 1 7.10543E-15 1.16962 L16.71 49.99 Z" class="st5"/>
			</g>
			<g id="shape1177-16" v:mID="1177" v:groupContext="shape" transform="translate(0.00897409,-13.6071)">
				<title>Sheet.1177</title>
				<path d="M15.21 34.16 L16.58 35.54 a0.843565 0.843565 0 0 1 -2.4869E-14 1.19655 L1.87 51.48 L0.5 50.11 A1.69311 1.69311
							 0 0 1 0.5 47.72 L14.02 34.16 a0.837582 0.837582 0 0 1 1.18757 7.10543E-15 Z" class="st2"/>
			</g>
			<g id="shape1178-18" v:mID="1178" v:groupContext="shape" transform="translate(36.9065,0)">
				<title>Sheet.1178</title>
				<path d="M0.25 49.96 a0.831599 0.831599 0 0 1 -0.0179482 -1.17261 L0.25 48.79 L15.21 33.87 L16.45 35.11 A1.69311
							 1.69311 0 0 1 16.45 37.5 L2.66 51.23 a0.828608 0.828608 0 0 1 -1.16962 0.0179482 L1.47 51.23 L0.25 49.96
							 Z" class="st5"/>
			</g>
			<g id="shape1179-20" v:mID="1179" v:groupContext="shape" transform="translate(37.0276,-12.6229)">
				<title>Sheet.1179</title>
				<path d="M2.8 34.16 L16.34 47.73 A1.68414 1.68414 0 0 1 16.34 50.1 L14.96 51.48 L0.24 36.73 a0.864504 0.864504 0
							 0 1 1.77636E-15 -1.19655 L1.62 34.17 a0.843565 0.843565 0 0 1 1.18757 -0.00299136 Z" class="st2"/>
			</g>
		</g>
	</g>
</svg>
