<?xml version="1.0" encoding="UTF-8" standalone="no"?>
<!-- Generated by Microsoft Visio, SVG Export private-endpoint.svg Page-1 -->

<svg
   xmlns:v="http://schemas.microsoft.com/visio/2003/SVGExtensions/"
   xmlns:dc="http://purl.org/dc/elements/1.1/"
   xmlns:cc="http://creativecommons.org/ns#"
   xmlns:rdf="http://www.w3.org/1999/02/22-rdf-syntax-ns#"
   xmlns:svg="http://www.w3.org/2000/svg"
   xmlns="http://www.w3.org/2000/svg"
   xmlns:sodipodi="http://sodipodi.sourceforge.net/DTD/sodipodi-0.dtd"
   xmlns:inkscape="http://www.inkscape.org/namespaces/inkscape"
   width="71.116982"
   height="64.626884"
   viewBox="0 0 53.337516 48.47011"
   xml:space="preserve"
   class="st4"
   version="1.1"
   id="svg5300"
   sodipodi:docname="private-endpoint.svg"
   style="font-size:12px;overflow:visible;color-interpolation-filters:sRGB;fill:none;fill-rule:evenodd;stroke-linecap:square;stroke-miterlimit:3"
   inkscape:version="0.92.4 (5da689c313, 2019-01-14)"><metadata
   id="metadata5306"><rdf:RDF><cc:Work
       rdf:about=""><dc:format>image/svg+xml</dc:format><dc:type
         rdf:resource="http://purl.org/dc/dcmitype/StillImage" /><dc:title></dc:title></cc:Work></rdf:RDF></metadata><defs
   id="defs5304" /><sodipodi:namedview
   pagecolor="#ffffff"
   bordercolor="#666666"
   borderopacity="1"
   objecttolerance="10"
   gridtolerance="10"
   guidetolerance="10"
   inkscape:pageopacity="0"
   inkscape:pageshadow="2"
   inkscape:window-width="3840"
   inkscape:window-height="2054"
   id="namedview5302"
   showgrid="false"
   fit-margin-top="0"
   fit-margin-left="-0.1"
   fit-margin-right="0"
   fit-margin-bottom="0"
   units="px"
   inkscape:zoom="18.824619"
   inkscape:cx="35.506098"
   inkscape:cy="23.81427"
   inkscape:window-x="-11"
   inkscape:window-y="-11"
   inkscape:window-maximized="1"
   inkscape:current-layer="svg5300" />
	<v:documentProperties
   v:langID="1033"
   v:viewMarkup="false" />

	<style
   type="text/css"
   id="style5258">
	<![CDATA[
		.st1 {fill:#7a7a7a;stroke:none;stroke-linecap:butt;stroke-width:12.24}
		.st2 {fill:#57a300;stroke:none;stroke-linecap:butt;stroke-width:12.24}
		.st3 {fill:#3999c6;stroke:none;stroke-linecap:butt;stroke-width:12.24}
		.st4 {fill:none;fill-rule:evenodd;font-size:12px;overflow:visible;stroke-linecap:square;stroke-miterlimit:3}
	]]>
	</style>

	<g
   v:mID="0"
   v:index="1"
   v:groupContext="foregroundPage"
   id="g5298"
   transform="translate(-12.315572,-12.24)">
		<title
   id="title5260">Page-1</title>
		<v:pageProperties
   v:drawingScale="1"
   v:pageScale="1"
   v:drawingUnits="19"
   v:shadowOffsetX="9"
   v:shadowOffsetY="-9" />
		<g
   id="group1266-1"
   transform="translate(12.0196,-12.24)"
   v:mID="1266"
   v:groupContext="group">
			<title
   id="title5262">Sheet.1266</title>
			<g
   id="group1267-2"
   v:mID="1267"
   v:groupContext="group">
				<title
   id="title5264">Page-1</title>
				<g
   id="group1268-3"
   v:mID="1268"
   v:groupContext="group">
					<title
   id="title5266">Private Endpoint</title>
					<g
   id="group1269-4"
   v:mID="1269"
   v:groupContext="group">
						<title
   id="title5268">g10</title>
						<g
   id="group1270-5"
   transform="translate(25.2839,-14.1423)"
   v:mID="1270"
   v:groupContext="group">
							<title
   id="title5270">path4</title>
							<g
   id="shape1271-6"
   v:mID="1271"
   v:groupContext="shape">
								<title
   id="title5272">Sheet.1271</title>
								<rect
   x="0"
   y="44.016899"
   width="3.2834699"
   height="28.932699"
   class="st1"
   id="rect5274"
   style="fill:#7a7a7a;stroke:none;stroke-width:12.23999977;stroke-linecap:butt" />
							</g>
						</g>
						<g
   id="group1272-8"
   transform="translate(21.0154,-8.74457)"
   v:mID="1272"
   v:groupContext="group">
							<title
   id="title5278">path6</title>
							<g
   id="shape1273-9"
   v:mID="1273"
   v:groupContext="shape">
								<title
   id="title5280">Sheet.1273</title>
								<path
   d="m 11.82,67.12 c 0,3.16 -2.7,5.83 -5.91,5.83 C 2.7,72.95 0,70.28 0,67.12 c 0,-3.17 2.7,-5.83 5.91,-5.83 3.21,0 5.91,2.66 5.91,5.83 z"
   class="st2"
   id="path5282"
   inkscape:connector-curvature="0"
   style="fill:#57a300;stroke:none;stroke-width:12.23999977;stroke-linecap:butt" />
							</g>
						</g>
						<g
   id="group1274-11"
   v:mID="1274"
   v:groupContext="group">
							<title
   id="title5286">path8</title>
							<g
   id="shape1275-12"
   v:mID="1275"
   v:groupContext="shape">
								<title
   id="title5288">Sheet.1275</title>
								<path
   d="m 31.74,29.23 c 0,2.57 -2.2,4.75 -4.82,4.75 -2.61,0 -4.81,-2.18 -4.81,-4.75 0,-2.58 2.2,-4.75 4.81,-4.75 2.62,0 4.82,2.17 4.82,4.75 z m 6.71,43.72 a 1.5104,1.48982 -180 0 1 -1.09,-0.44 1.62095,1.59885 -180 0 1 0,-2.25 L 48.94,58.85 a 0.936885,0.924117 0 0 0 0.0011,-1.31169 L 37.57,46.53 a 1.4119,1.39265 -180 0 1 -0.52,-1.02 c -0.02,-0.44 0.17,-0.89 0.51,-1.24 a 1.55965,1.5384 -180 0 1 1.27,-0.47 c 0.41,0 0.79,0.17 1.1,0.47 l 10.85,10.41 2.42,2.39 c 0.49,0.59 0.66,1.6 0,2.26 L 50.58,61.9 39.72,72.51 a 1.59358,1.57186 -180 0 1 -1.11,0.44 h 0.01 z m -23.2,0 A 1.58701,1.56539 -180 0 1 14.14,72.51 L 3.08,62.01 0.66,59.31 C 0,58.67 0.16,57.69 0.64,57.09 L 3.08,54.68 13.94,44.27 A 1.55089,1.52976 -180 0 1 15.2,43.8 c 0.4,0 0.79,0.17 1.09,0.47 0.35,0.34 0.53,0.8 0.52,1.24 a 1.46662,1.44663 -180 0 1 -0.54,1.04 L 5.13,57.54 A 0.933602,0.920879 0 0 0 5.12891,58.85169 L 16.5,70.25 a 1.62751,1.60533 -180 0 1 -0.01,2.26 c -0.28,0.29 -0.66,0.44 -1.07,0.44 z"
   class="st3"
   id="path5290"
   inkscape:connector-curvature="0"
   style="fill:#3999c6;stroke:none;stroke-width:12.23999977;stroke-linecap:butt" />
							</g>
						</g>
					</g>
				</g>
			</g>
		</g>
	</g>
</svg>