<?xml version="1.0" encoding="UTF-8" standalone="no"?>
<!DOCTYPE svg PUBLIC "-//W3C//DTD SVG 1.1//EN" "http://www.w3.org/Graphics/SVG/1.1/DTD/svg11.dtd">
<!-- Generated by Microsoft Visio, SVG Export private-link-hub.svg Page-1 -->
<svg xmlns="http://www.w3.org/2000/svg" xmlns:xlink="http://www.w3.org/1999/xlink" xmlns:ev="http://www.w3.org/2001/xml-events"
		xmlns:v="http://schemas.microsoft.com/visio/2003/SVGExtensions/" width="0.70107in" height="0.800722in"
		viewBox="0 0 50.477 57.652" xml:space="preserve" color-interpolation-filters="sRGB" class="st5">
	<v:documentProperties v:langID="1033" v:viewMarkup="false"/>

	<style type="text/css">
	<![CDATA[
		.st1 {fill:url(#grad0-8);stroke:none;stroke-linecap:butt;stroke-width:0.75}
		.st2 {fill:url(#grad0-12);stroke:none;stroke-linecap:butt;stroke-width:0.75}
		.st3 {fill:#0078d4;stroke:none;stroke-linecap:butt;stroke-width:0.75}
		.st4 {fill:url(#grad0-18);stroke:none;stroke-linecap:butt;stroke-width:0.75}
		.st5 {fill:none;fill-rule:evenodd;font-size:12px;overflow:visible;stroke-linecap:square;stroke-miterlimit:3}
	]]>
	</style>

	<defs id="Patterns_And_Gradients">
		<linearGradient id="grad0-8" x1="0" y1="0" x2="1" y2="0" gradientTransform="rotate(90 0.5 0.5)">
			<stop offset="0.23" stop-color="#5ea0ef" stop-opacity="1"/>
			<stop offset="0.32" stop-color="#5b9fee" stop-opacity="1"/>
			<stop offset="0.48" stop-color="#509aeb" stop-opacity="1"/>
			<stop offset="0.57" stop-color="#3f92e6" stop-opacity="1"/>
			<stop offset="0.75" stop-color="#2688df" stop-opacity="1"/>
			<stop offset="0.93" stop-color="#127fd9" stop-opacity="1"/>
		</linearGradient>
		<linearGradient id="grad0-12" x1="0" y1="0" x2="1" y2="0" gradientTransform="rotate(90 0.5 0.5)">
			<stop offset="0.2" stop-color="#50e6ff" stop-opacity="1"/>
			<stop offset="0.65" stop-color="#32bedd" stop-opacity="1"/>
			<stop offset="1" stop-color="#198ab3" stop-opacity="1"/>
		</linearGradient>
		<linearGradient id="grad0-18" x1="0" y1="0" x2="1" y2="0" gradientTransform="rotate(-90 0.5 0.5)">
			<stop offset="0.2" stop-color="#005ba1" stop-opacity="1"/>
			<stop offset="1" stop-color="#0078d4" stop-opacity="1"/>
		</linearGradient>
	</defs>
	<g v:mID="0" v:index="1" v:groupContext="foregroundPage">
		<title>Page-1</title>
		<v:pageProperties v:drawingScale="1" v:pageScale="1" v:drawingUnits="19" v:shadowOffsetX="9" v:shadowOffsetY="-9"/>
		<g id="group1238-1" transform="translate(0.75,-0.75)" v:mID="1238" v:groupContext="group">
			<title>Sheet.1238</title>
			<g id="group1239-2" v:mID="1239" v:groupContext="group">
				<title>Sheet.1239</title>
				<g id="group1240-3" v:mID="1240" v:groupContext="group">
					<title>Sheet.1240</title>
					<g id="group1241-4" transform="translate(8.89825,-16.3964)" v:mID="1241" v:groupContext="group">
						<title>Sheet.1241</title>
						<g id="shape1242-5" v:mID="1242" v:groupContext="shape" transform="translate(1.4988E-13,-6.8599)">
							<title>Sheet.1242</title>
							<path d="M14.77 41.15 L8.17 41.15 A8.24811 8.24811 -180 0 0 6.89 57.53 A8.80963 8.80963 0 0 1 6.97 54.47
										 A5.20966 5.20966 0 0 1 8.17 44.18 L14.77 44.18 A5.22526 5.22526 0 1 1 14.77 54.63 L12.95
										 54.63 A3.97743 3.97743 -180 0 0 12.56 56.28 A3.84953 3.84953 -180 0 0 12.83 57.65 L14.77
										 57.65 A8.25122 8.25122 -180 0 0 14.77 41.15 L14.77 41.15 Z" class="st1"/>
						</g>
						<g id="shape1243-9" v:mID="1243" v:groupContext="shape" transform="translate(8.32303,-1.20792E-13)">
							<title>Sheet.1243</title>
							<path d="M15.97 41.27 A9.48969 9.48969 0 0 1 16.07 42.53 A8.49143 8.49143 0 0 1 15.89 44.33 A5.21278
										 5.21278 0 0 1 14.69 54.63 L8.09 54.63 A5.22526 5.22526 0 0 1 8.09 44.18 L9.91 44.18 A3.72787
										 3.72787 -180 0 0 10.03 41.15 L8.09 41.15 A8.25122 8.25122 -180 0 0 8.09 57.65 L14.69 57.65
										 A8.24811 8.24811 -180 0 0 15.97 41.26 L15.97 41.27 Z" class="st2"/>
						</g>
					</g>
					<g id="shape1244-13" v:mID="1244" v:groupContext="shape">
						<title>Sheet.1244</title>
						<path d="M24.49 1.5 L0 15.51 L0 43.49 L24.49 57.65 L48.98 43.65 L48.98 15.57 L24.49 1.5 ZM44.45 40.71 L24.49
									 52.26 L4.52 40.83 L4.52 18.28 L24.49 6.74 L44.45 18.31 L44.45 40.71 Z" class="st3"/>
					</g>
				</g>
				<g id="shape1245-15" v:mID="1245" v:groupContext="shape" transform="translate(0,-39.2908)">
					<title>Sheet.1245</title>
					<path d="M24.49 40.87 L0 54.88 L4.52 57.65 L24.49 46.11 L44.45 57.65 L48.98 54.88 L24.49 40.87 Z" class="st4"/>
				</g>
			</g>
		</g>
	</g>
</svg>
