<?xml version="1.0" encoding="UTF-8" standalone="no"?>
<!DOCTYPE svg PUBLIC "-//W3C//DTD SVG 1.1//EN" "http://www.w3.org/Graphics/SVG/1.1/DTD/svg11.dtd">
<!-- Generated by Microsoft Visio, SVG Export resource-group.svg Page-1 -->
<svg xmlns="http://www.w3.org/2000/svg" xmlns:xlink="http://www.w3.org/1999/xlink" xmlns:ev="http://www.w3.org/2001/xml-events"
		xmlns:v="http://schemas.microsoft.com/visio/2003/SVGExtensions/" width="0.701464in" height="0.654417in"
		viewBox="0 0 50.5054 47.118" xml:space="preserve" color-interpolation-filters="sRGB" class="st6">
	<v:documentProperties v:langID="1033" v:viewMarkup="false"/>

	<style type="text/css">
	<![CDATA[
		.st1 {fill:#949494;stroke:none;stroke-linecap:butt;stroke-width:0.75}
		.st2 {fill:#a3a3a3;stroke:none;stroke-linecap:butt;stroke-width:0.75}
		.st3 {fill:#32bedd;stroke:none;stroke-linecap:butt;stroke-width:0.75}
		.st4 {fill:#9cebff;stroke:none;stroke-linecap:butt;stroke-width:0.75}
		.st5 {fill:#50e6ff;stroke:none;stroke-linecap:butt;stroke-width:0.75}
		.st6 {fill:none;fill-rule:evenodd;font-size:12px;overflow:visible;stroke-linecap:square;stroke-miterlimit:3}
	]]>
	</style>

	<g v:mID="0" v:index="1" v:groupContext="foregroundPage">
		<title>Page-1</title>
		<v:pageProperties v:drawingScale="1" v:pageScale="1" v:drawingUnits="19" v:shadowOffsetX="9" v:shadowOffsetY="-9"/>
		<g id="group1078-1" transform="translate(0.750018,-0.765652)" v:mID="1078" v:groupContext="group">
			<title>Icon-general-7</title>
			<g id="group1079-2" v:mID="1079" v:groupContext="group">
				<title>Sheet.1079</title>
				<g id="group1080-3" v:mID="1080" v:groupContext="group">
					<title>Sheet.1080</title>
					<g id="shape1081-4" v:mID="1081" v:groupContext="shape">
						<title>Sheet.1081</title>
						<path d="M0 41.61 a0.461227 0.454923 -180 0 0 0.230614 0.398058 L3.57 43.86 L9.22 47.07 a0.490054 0.483356
									 -180 0 0 0.663014 -0.170596 L11.79 43.71 a0.461227 0.454923 -180 0 0 -0.17296 -0.597086 L4.99
									 39.42 a0.490054 0.483356 0 0 1 -0.230614 -0.398058 L4.76 9.68 a0.461227 0.454923 0 0 1 0.230614
									 -0.398058 L11.62 5.59 a0.461227 0.454923 -180 0 0 0.17296 -0.597086 L9.89 1.81 a0.490054 0.483356
									 -180 0 0 -0.663014 -0.227461 L3.69 4.73 L0.23 6.64 a0.461227 0.454923 -180 0 0 -0.230614 0.398058
									 L0 41.61 Z" class="st1"/>
					</g>
					<g id="shape1082-6" v:mID="1082" v:groupContext="shape" transform="translate(0,-37.6644)">
						<title>Sheet.1082</title>
						<path d="M4.73 47.12 L4.9 46.95 L11.53 43.25 a0.403574 0.398058 -180 0 0 0.17296 -0.597086 L9.8 39.47 a0.4324
									 0.42649 -180 0 0 -0.634187 -0.227461 L3.6 42.4 L0.17 44.3 C0.17 44.3 0.03 44.3 0 44.47 L2.59
									 45.92 L4.73 47.12 Z" class="st2"/>
					</g>
					<g id="shape1083-8" v:mID="1083" v:groupContext="shape" transform="translate(0.0288267,-0.10292)">
						<title>Sheet.1083</title>
						<path d="M11.5 43.16 L4.87 39.47 a0.634187 0.625519 0 0 1 -0.201787 -0.255894 L0 42.06 L0.14 42.06 L3.46
									 43.9 L9.22 47.06 a0.4324 0.42649 -180 0 0 0.634187 -0.170596 L11.76 43.7 a0.403574 0.398058
									 -180 0 0 -0.25944 -0.540221 Z" class="st2"/>
					</g>
				</g>
				<g id="shape1084-10" v:mID="1084" v:groupContext="shape" transform="translate(37.1824,0)">
					<title>Sheet.1084</title>
					<path d="M11.82 41.61 a0.461227 0.454923 0 0 1 -0.230614 0.398058 L8.25 43.86 L2.6 47.07 a0.490054 0.483356 0
								 0 1 -0.663014 -0.170596 L0.03 43.71 a0.461227 0.454923 0 0 1 0.17296 -0.597086 L6.84 39.42 a0.490054
								 0.483356 -180 0 0 0.230614 -0.398058 L7.07 9.68 a0.461227 0.454923 -180 0 0 -0.230614 -0.398058
								 L0.21 5.59 a0.461227 0.454923 0 0 1 -0.17296 -0.597086 L1.94 1.81 a0.490054 0.483356 0 0 1 0.663014
								 -0.227461 L8.13 4.68 L11.59 6.58 a0.461227 0.454923 0 0 1 0.230614 0.398058 L11.82 41.61 Z"
							class="st1"/>
				</g>
				<g id="shape1085-12" v:mID="1085" v:groupContext="shape" transform="translate(37.243,-37.6644)">
					<title>Sheet.1085</title>
					<path d="M7.03 47.12 L6.86 46.95 L0.23 43.25 a0.403574 0.398058 0 0 1 -0.17296 -0.597086 L1.96 39.47 a0.4324
								 0.42649 0 0 1 0.634187 -0.227461 L8.16 42.34 L11.59 44.25 C11.59 44.25 11.59 44.25 11.76 44.42 L9.17
								 45.87 L7.03 47.12 Z" class="st2"/>
				</g>
				<g id="shape1086-14" v:mID="1086" v:groupContext="shape" transform="translate(37.3067,-0.10292)">
					<title>Sheet.1086</title>
					<path d="M0.17 43.16 L6.8 39.47 a0.634187 0.625519 -180 0 0 0.201787 -0.255894 L11.67 42.06 L8.35 43.9 L2.59
								 47.06 a0.4324 0.42649 0 0 1 -0.634187 -0.170596 L0.05 43.7 a0.403574 0.398058 0 0 1 0.115307 -0.540221
								 Z" class="st2"/>
				</g>
				<g id="shape1087-16" v:mID="1087" v:groupContext="shape" transform="translate(24.4739,-5.2796)">
					<title>Sheet.1087</title>
					<path d="M15.34 20.87 L15.34 38.33 L0 47.12 L0 29.63 L15.34 20.87 Z" class="st3"/>
				</g>
				<g id="shape1088-18" v:mID="1088" v:groupContext="shape" transform="translate(9.16689,-22.7373)">
					<title>Sheet.1088</title>
					<path d="M30.64 38.33 L15.34 47.12 L0 38.33 L15.34 29.55 L30.64 38.33 Z" class="st4"/>
				</g>
				<g id="shape1089-20" v:mID="1089" v:groupContext="shape" transform="translate(9.16689,-5.2796)">
					<title>Sheet.1089</title>
					<path d="M15.31 29.66 L15.31 47.12 L0 38.33 L0 20.87 L15.31 29.66 Z" class="st5"/>
				</g>
				<g id="shape1090-22" v:mID="1090" v:groupContext="shape" transform="translate(9.16689,-5.2796)">
					<title>Sheet.1090</title>
					<path d="M0 38.33 L15.31 29.63 L15.31 47.12 L0 38.33 Z" class="st4"/>
				</g>
				<g id="shape1091-24" v:mID="1091" v:groupContext="shape" transform="translate(24.4739,-5.2796)">
					<title>Sheet.1091</title>
					<path d="M15.34 38.33 L0 29.63 L0 47.12 L15.34 38.33 Z" class="st5"/>
				</g>
			</g>
		</g>
	</g>
</svg>
