<?xml version="1.0" encoding="UTF-8" standalone="no"?>
<!-- Generated by Microsoft Visio, SVG Export service-endpoint.svg Page-1 -->

<svg
   xmlns:v="http://schemas.microsoft.com/visio/2003/SVGExtensions/"
   xmlns:dc="http://purl.org/dc/elements/1.1/"
   xmlns:cc="http://creativecommons.org/ns#"
   xmlns:rdf="http://www.w3.org/1999/02/22-rdf-syntax-ns#"
   xmlns:svg="http://www.w3.org/2000/svg"
   xmlns="http://www.w3.org/2000/svg"
   xmlns:sodipodi="http://sodipodi.sourceforge.net/DTD/sodipodi-0.dtd"
   xmlns:inkscape="http://www.inkscape.org/namespaces/inkscape"
   width="71.48275"
   height="75.416336"
   viewBox="0 0 53.612201 56.562126"
   xml:space="preserve"
   class="st6"
   version="1.1"
   id="svg6172"
   sodipodi:docname="service-endpoint.svg"
   style="font-size:12px;overflow:visible;color-interpolation-filters:sRGB;fill:none;fill-rule:evenodd;stroke-linecap:square;stroke-miterlimit:3"
   inkscape:version="0.92.4 (5da689c313, 2019-01-14)"><metadata
   id="metadata6178"><rdf:RDF><cc:Work
       rdf:about=""><dc:format>image/svg+xml</dc:format><dc:type
         rdf:resource="http://purl.org/dc/dcmitype/StillImage" /><dc:title></dc:title></cc:Work></rdf:RDF></metadata><defs
   id="defs6176" /><sodipodi:namedview
   pagecolor="#ffffff"
   bordercolor="#666666"
   borderopacity="1"
   objecttolerance="10"
   gridtolerance="10"
   guidetolerance="10"
   inkscape:pageopacity="0"
   inkscape:pageshadow="2"
   inkscape:window-width="3840"
   inkscape:window-height="2054"
   id="namedview6174"
   showgrid="false"
   units="px"
   fit-margin-top="0"
   fit-margin-left="-0.1"
   fit-margin-right="0"
   fit-margin-bottom="0"
   inkscape:zoom="16.944818"
   inkscape:cx="35.691241"
   inkscape:cy="37.705034"
   inkscape:window-x="-11"
   inkscape:window-y="-11"
   inkscape:window-maximized="1"
   inkscape:current-layer="svg6172" />
	<v:documentProperties
   v:langID="1033"
   v:viewMarkup="false" />

	<style
   type="text/css"
   id="style6074">
	<![CDATA[
		.st1 {fill:#3999c6;stroke:none;stroke-linecap:butt;stroke-width:12.24}
		.st2 {fill:#57a300;stroke:none;stroke-linecap:butt;stroke-width:12.24}
		.st3 {fill:#59b4d9;stroke:none;stroke-linecap:butt;stroke-width:12.24}
		.st4 {fill:#ffffff;stroke:none;stroke-linecap:butt;stroke-width:12.24}
		.st5 {fill:#ffffff;fill-opacity:0.2;stroke:none;stroke-linecap:butt;stroke-width:12.24}
		.st6 {fill:none;fill-rule:evenodd;font-size:12px;overflow:visible;stroke-linecap:square;stroke-miterlimit:3}
	]]>
	</style>

	<g
   v:mID="0"
   v:index="1"
   v:groupContext="foregroundPage"
   id="g6170"
   transform="translate(-12.315,-12.237795)">
		<title
   id="title6076">Page-1</title>
		<v:pageProperties
   v:drawingScale="1"
   v:pageScale="1"
   v:drawingUnits="19"
   v:shadowOffsetX="9"
   v:shadowOffsetY="-9" />
		<g
   id="group1381-1"
   transform="translate(12.24,-12.24)"
   v:mID="1381"
   v:groupContext="group">
			<title
   id="title6078">Sheet.1381</title>
			<g
   id="group1382-2"
   v:mID="1382"
   v:groupContext="group">
				<title
   id="title6080">Page-1</title>
				<g
   id="group1383-3"
   v:mID="1383"
   v:groupContext="group">
					<title
   id="title6082">Service Endpoint</title>
					<g
   id="group1384-4"
   v:mID="1384"
   v:groupContext="group">
						<title
   id="title6084">g24</title>
						<g
   id="group1385-5"
   transform="translate(0.58623,-25.7749)"
   v:mID="1385"
   v:groupContext="group">
							<title
   id="title6086">path4</title>
							<g
   id="shape1386-6"
   v:mID="1386"
   v:groupContext="shape">
								<title
   id="title6088">Sheet.1386</title>
								<path
   d="m 52.74,66.32 c 0.53,-0.53 0.43,-1.38 0,-1.92 L 50.21,61.85 38.79,50.65 c -0.53,-0.53 -1.27,-0.53 -1.8,0 -0.52,0.54 -0.63,1.39 0,1.92 l 11.95,11.84 a 1.35218,1.34061 90 0 1 0,1.91 L 36.78,78.58 a 1.35218,1.34061 -90 0 0 0,1.92 c 0.53,0.54 1.38,0.43 1.8,0 L 49.89,69.2 50,69.1 Z m -52.21,0 C 0,65.79 0.11,64.94 0.53,64.4 l 2.54,-2.55 11.41,-11.2 c 0.53,-0.53 1.27,-0.53 1.8,0 0.53,0.53 0.63,1.39 0,1.92 L 4.55,64.41 a 1.35218,1.34061 -90 0 0 0,1.91 l 11.94,12.26 a 1.35218,1.34061 90 0 1 0,1.92 c -0.53,0.54 -1.37,0.43 -1.8,0 L 3.17,69.31 3.07,69.2 Z"
   class="st1"
   id="path6090"
   inkscape:connector-curvature="0"
   style="fill:#3999c6;stroke:none;stroke-width:12.23999977;stroke-linecap:butt" />
							</g>
						</g>
						<g
   id="group1387-8"
   transform="translate(11.9291,-37.2421)"
   v:mID="1387"
   v:groupContext="group">
							<title
   id="title6094">path6</title>
							<g
   id="shape1388-9"
   v:mID="1388"
   v:groupContext="shape">
								<title
   id="title6096">Sheet.1388</title>
								<path
   d="m 7.95,77.03 c 0,2.3 -1.87,4.01 -3.86,4.01 C 2.11,81.04 0,79.09 0,77.03 c 0,-2.07 1.64,-4.02 4.09,-4.02 2.34,0 3.86,1.95 3.86,4.02 z"
   class="st2"
   id="path6098"
   inkscape:connector-curvature="0"
   style="fill:#57a300;stroke:none;stroke-width:12.23999977;stroke-linecap:butt" />
							</g>
						</g>
						<g
   id="group1389-11"
   transform="translate(34.6512,-37.2459)"
   v:mID="1389"
   v:groupContext="group">
							<title
   id="title6102">circle8</title>
							<g
   id="shape1390-12"
   v:mID="1390"
   v:groupContext="shape">
								<title
   id="title6104">Sheet.1390</title>
								<ellipse
   cx="3.9763601"
   cy="77.031601"
   rx="3.9763601"
   ry="4.0106902"
   class="st2"
   id="ellipse6106"
   style="fill:#57a300;stroke:none;stroke-width:12.23999977;stroke-linecap:butt" />
							</g>
						</g>
						<g
   id="group1391-14"
   v:mID="1391"
   v:groupContext="group">
							<title
   id="title6110">path10</title>
							<g
   id="shape1392-15"
   v:mID="1392"
   v:groupContext="shape">
								<title
   id="title6112">Sheet.1392</title>
								<path
   d="m 45.44,64.99 c -0.4,0 -0.79,0.04 -1.18,0.1 v -0.01 c 0,-8.71 -6.94,-15.77 -15.5,-15.77 -6.84,0 -12.64,4.51 -14.7,10.76 A 10.4931,10.4033 -90 0 0 10.6,59.47 C 4.74,59.47 0,64.3 0,70.25 0,76.21 4.74,81.04 10.6,81.04 l 0.01,-0.01 v 0.01 H 44.9 v -0.01 l 0.03,0.01 c 0.09,0 0.17,-0.01 0.26,-0.02 0.08,0.01 0.17,0.02 0.25,0.02 a 8.025,7.9563298 -90 0 0 0,-16.05 z"
   class="st3"
   id="path6114"
   inkscape:connector-curvature="0"
   style="fill:#59b4d9;stroke:none;stroke-width:12.23999977;stroke-linecap:butt" />
							</g>
						</g>
						<g
   id="group1393-17"
   transform="translate(24.9942,-12.6088)"
   v:mID="1393"
   v:groupContext="group">
							<title
   id="title6118">path12</title>
							<g
   id="shape1394-18"
   v:mID="1394"
   v:groupContext="shape">
								<title
   id="title6120">Sheet.1394</title>
								<rect
   x="0"
   y="54.686401"
   width="4.5444198"
   height="26.3559"
   class="st4"
   id="rect6122"
   style="fill:#ffffff;stroke:none;stroke-width:12.23999977;stroke-linecap:butt" />
							</g>
						</g>
						<g
   id="group1395-20"
   v:mID="1395"
   v:groupContext="group">
							<title
   id="title6126">path14</title>
							<g
   id="shape1396-21"
   v:mID="1396"
   v:groupContext="shape">
								<title
   id="title6128">Sheet.1396</title>
								<path
   d="m 23.95,61.58 a 15.4733,15.3408 90 0 1 7.97,-11.93 c -1.02,-0.21 -2.07,-0.34 -3.16,-0.34 -6.84,0 -12.64,4.5 -14.7,10.76 A 10.4874,10.3976 -90 0 0 10.6,59.47 C 4.74,59.47 0,64.3 0,70.25 0,76.21 4.74,81.04 10.6,81.04 l 0.01,-0.01 v 0.01 h 4.46 A 11.9736,11.8712 90 0 1 12.5,73.59 c 0,-6.49 5.09,-11.76 11.45,-12.01 z"
   class="st5"
   id="path6130"
   inkscape:connector-curvature="0"
   style="fill:#ffffff;fill-opacity:0.2;stroke:none;stroke-width:12.23999977;stroke-linecap:butt" />
							</g>
						</g>
						<g
   id="group1397-23"
   transform="translate(23.2901,-37.2421)"
   v:mID="1397"
   v:groupContext="group">
							<title
   id="title6134">path16</title>
							<g
   id="shape1398-24"
   v:mID="1398"
   v:groupContext="shape">
								<title
   id="title6136">Sheet.1398</title>
								<path
   d="m 7.95,77.03 c 0,2.3 -1.87,4.01 -3.86,4.01 C 2.11,81.04 0,79.09 0,77.03 c 0,-2.07 1.87,-4.02 4.09,-4.02 2.23,0 3.86,1.95 3.86,4.02 z"
   class="st2"
   id="path6138"
   inkscape:connector-curvature="0"
   style="fill:#57a300;stroke:none;stroke-width:12.23999977;stroke-linecap:butt" />
							</g>
						</g>
						<g
   id="group1399-26"
   transform="translate(22.6084,-9.05155)"
   v:mID="1399"
   v:groupContext="group">
							<title
   id="title6142">path18</title>
							<g
   id="shape1400-27"
   v:mID="1400"
   v:groupContext="shape">
								<title
   id="title6144">Sheet.1400</title>
								<path
   d="M 6.93,72.23 V 58.4 C 6.67,58.39 6.42,58.36 6.15,58.36 c -1.3,0 -2.56,0.17 -3.76,0.47 v 13.5 C 0.99,73.17 0,74.68 0,76.34 c 0,2.41 2.31,4.7 4.76,4.7 2.51,0 4.56,-2.11 4.56,-4.7 A 4.70167,4.66144 -90 0 0 6.93,72.23 Z"
   class="st4"
   id="path6146"
   inkscape:connector-curvature="0"
   style="fill:#ffffff;stroke:none;stroke-width:12.23999977;stroke-linecap:butt" />
							</g>
						</g>
						<g
   id="group1401-29"
   transform="translate(23.9717,-10.4278)"
   v:mID="1401"
   v:groupContext="group">
							<title
   id="title6150">path20</title>
							<g
   id="shape1402-30"
   v:mID="1402"
   v:groupContext="shape">
								<title
   id="title6152">Sheet.1402</title>
								<path
   d="m 6.59,77.71 c 0,1.92 -1.55,3.33 -3.2,3.33 C 1.74,81.04 0,79.43 0,77.71 0,76 1.55,74.39 3.39,74.39 c 1.84,0 3.2,1.61 3.2,3.32 z"
   class="st2"
   id="path6154"
   inkscape:connector-curvature="0"
   style="fill:#57a300;stroke:none;stroke-width:12.23999977;stroke-linecap:butt" />
							</g>
						</g>
						<g
   id="group1403-32"
   transform="translate(26.1304,-13.7548)"
   v:mID="1403"
   v:groupContext="group">
							<title
   id="title6158">path22</title>
							<g
   id="shape1404-33"
   v:mID="1404"
   v:groupContext="shape">
								<title
   id="title6160">Sheet.1404</title>
								<rect
   x="0"
   y="56.978199"
   width="2.2722001"
   height="24.0641"
   class="st2"
   id="rect6162"
   style="fill:#57a300;stroke:none;stroke-width:12.23999977;stroke-linecap:butt" />
							</g>
						</g>
					</g>
				</g>
			</g>
		</g>
	</g>
</svg>