<?xml version="1.0" encoding="UTF-8" standalone="no"?>
<!DOCTYPE svg PUBLIC "-//W3C//DTD SVG 1.1//EN" "http://www.w3.org/Graphics/SVG/1.1/DTD/svg11.dtd">
<!-- Generated by Microsoft Visio, SVG Export storage-account.svg Page-1 -->
<svg xmlns="http://www.w3.org/2000/svg" xmlns:xlink="http://www.w3.org/1999/xlink" xmlns:ev="http://www.w3.org/2001/xml-events"
		xmlns:v="http://schemas.microsoft.com/visio/2003/SVGExtensions/" width="0.805519in" height="0.730098in"
		viewBox="0 0 57.9974 52.5671" xml:space="preserve" color-interpolation-filters="sRGB" class="st5">
	<v:documentProperties v:langID="1033" v:viewMarkup="false"/>

	<style type="text/css">
	<![CDATA[
		.st1 {fill:url(#grad0-5);stroke:none;stroke-linecap:butt;stroke-width:0.75}
		.st2 {fill:#37c2b1;stroke:none;stroke-linecap:butt;stroke-width:0.75}
		.st3 {fill:#ffffff;stroke:none;stroke-linecap:butt;stroke-width:0.75}
		.st4 {fill:#258277;stroke:none;stroke-linecap:butt;stroke-width:0.75}
		.st5 {fill:none;fill-rule:evenodd;font-size:12px;overflow:visible;stroke-linecap:square;stroke-miterlimit:3}
	]]>
	</style>

	<defs id="Patterns_And_Gradients">
		<linearGradient id="grad0-5" x1="0" y1="0" x2="1" y2="0" gradientTransform="rotate(-90 0.5 0.5)">
			<stop offset="0" stop-color="#b3b3b3" stop-opacity="1"/>
			<stop offset="0.26" stop-color="#c1c1c1" stop-opacity="1"/>
			<stop offset="1" stop-color="#e6e6e6" stop-opacity="1"/>
		</linearGradient>
	</defs>
	<g v:mID="0" v:index="1" v:groupContext="foregroundPage">
		<title>Page-1</title>
		<v:pageProperties v:drawingScale="1" v:pageScale="1" v:drawingUnits="19" v:shadowOffsetX="9" v:shadowOffsetY="-9"/>
		<g id="group1429-1" transform="translate(3.59712E-14,-0.75)" v:mID="1429" v:groupContext="group">
			<title>Sheet.1429</title>
			<g id="shape82-2" v:mID="82" v:groupContext="shape">
				<title>Sheet.82</title>
				<path d="M1.64 19.69 L57.25 19.69 L57.25 50.7 A1.86463 1.86463 0 0 1 55.38 52.57 L3.5 52.57 A1.86463 1.86463 0 0
							 1 1.64 50.7 L1.64 19.69 Z" class="st1"/>
			</g>
			<g id="shape83-6" v:mID="83" v:groupContext="shape" transform="translate(-5.59552E-14,-32.8764)">
				<title>Sheet.83</title>
				<path d="M3.5 40.73 L55.38 40.73 A1.86463 1.86463 0 0 1 57.25 42.59 L57.25 52.57 L1.64 52.57 L1.64 42.56 A1.86463
							 1.86463 0 0 1 3.5 40.73 Z" class="st2"/>
			</g>
			<g id="shape84-8" v:mID="84" v:groupContext="shape" transform="translate(8.34176,-22.9317)">
				<title>Sheet.84</title>
				<path d="M0.85 46.22 L41.32 46.22 a0.883245 0.883245 0 0 1 0.850532 0.883245 L42.17 51.68 a0.883245 0.883245 0 0
							 1 -0.850532 0.883245 L0.85 52.57 a0.883245 0.883245 0 0 1 -0.850532 -0.883245 L0 47.1 a0.883245 0.883245
							 0 0 1 0.850532 -0.883245 Z" class="st3"/>
			</g>
			<g id="shape85-10" v:mID="85" v:groupContext="shape" transform="translate(8.37447,-13.7721)">
				<title>Sheet.85</title>
				<path d="M0.85 46.19 L41.32 46.19 a0.883245 0.883245 0 0 1 0.850532 0.883245 L42.17 51.68 a0.883245 0.883245 0 0
							 1 -0.850532 0.883245 L0.85 52.57 a0.883245 0.883245 0 0 1 -0.850532 -0.883245 L0 47.23 a0.883245 0.883245
							 0 0 1 0.850532 -1.04681 Z" class="st2"/>
			</g>
			<g id="shape86-12" v:mID="86" v:groupContext="shape" transform="translate(8.37447,-4.54708)">
				<title>Sheet.86</title>
				<path d="M0.85 46.19 L41.32 46.19 a0.883245 0.883245 0 0 1 0.850532 0.883245 L42.17 51.68 a0.883245 0.883245 0 0
							 1 -0.850532 0.883245 L0.85 52.57 a0.883245 0.883245 0 0 1 -0.850532 -0.883245 L0 47.07 a0.883245 0.883245
							 0 0 1 0.850532 -0.883245 Z" class="st4"/>
			</g>
		</g>
	</g>
</svg>
