<?xml version="1.0" encoding="UTF-8" standalone="no"?>
<svg
   xmlns:dc="http://purl.org/dc/elements/1.1/"
   xmlns:cc="http://creativecommons.org/ns#"
   xmlns:rdf="http://www.w3.org/1999/02/22-rdf-syntax-ns#"
   xmlns:svg="http://www.w3.org/2000/svg"
   xmlns="http://www.w3.org/2000/svg"
   xmlns:sodipodi="http://sodipodi.sourceforge.net/DTD/sodipodi-0.dtd"
   xmlns:inkscape="http://www.inkscape.org/namespaces/inkscape"
   width="65"
   height="88.062721"
   viewBox="0 0 65 88.062722"
   version="1.1"
   id="svg43"
   sodipodi:docname="streaming-endpoint.svg"
   style="fill:none"
   inkscape:version="0.92.4 (5da689c313, 2019-01-14)">
  <metadata
     id="metadata47">
    <rdf:RDF>
      <cc:Work
         rdf:about="">
        <dc:format>image/svg+xml</dc:format>
        <dc:type
           rdf:resource="http://purl.org/dc/dcmitype/StillImage" />
        <dc:title />
      </cc:Work>
    </rdf:RDF>
  </metadata>
  <sodipodi:namedview
     pagecolor="#ffffff"
     bordercolor="#666666"
     borderopacity="1"
     objecttolerance="10"
     gridtolerance="10"
     guidetolerance="10"
     inkscape:pageopacity="0"
     inkscape:pageshadow="2"
     inkscape:window-width="3840"
     inkscape:window-height="2054"
     id="namedview45"
     showgrid="false"
     fit-margin-top="0"
     fit-margin-left="0"
     fit-margin-right="0"
     fit-margin-bottom="0"
     inkscape:zoom="6.9411765"
     inkscape:cx="81.988545"
     inkscape:cy="66.703387"
     inkscape:window-x="-11"
     inkscape:window-y="-11"
     inkscape:window-maximized="1"
     inkscape:current-layer="svg43" />
  <path
     style="fill:url(#paint0_linear_1401_130410);stroke-width:2.59008002"
     inkscape:connector-curvature="0"
     id="path2"
     d="m 15.587749,41.350109 h -5.15154 v 30.053993 h 5.15154 z" />
  <path
     style="fill:url(#paint1_linear_1401_130410);stroke-width:2.59008002"
     inkscape:connector-curvature="0"
     id="path4"
     d="M 28.091101,70.831695 V 41.575446 h -4.985386 v 32.123208 l 17.896417,10.411086 2.504866,-4.315073 z" />
  <path
     style="fill:url(#paint2_linear_1401_130410);stroke-width:2.59008002"
     inkscape:connector-curvature="0"
     id="path6"
     d="m 51.32619,24.173243 v 29.256481 l -10.709462,6.286642 2.504866,4.310153 13.194645,-7.729835 V 24.173243 Z" />
  <path
     style="fill:url(#paint3_linear_1401_130410);stroke-width:2.59008002"
     inkscape:connector-curvature="0"
     id="path8"
     d="M 65,32.367971 C 64.927219,28.861261 63.613789,25.494002 61.292818,22.864216 58.972107,20.234404 55.794337,18.512364 52.323889,18.003957 52.170298,13.111607 50.093571,8.4772282 46.544385,5.1065758 42.995198,1.7359312 38.259755,-0.09900166 33.366058,1.4809041e-5 29.407638,-0.04699208 25.533138,1.1411608 22.28181,3.3991174 19.030224,5.6570714 16.563691,8.8725003 15.225137,12.59789 11.059097,13.160041 7.2325132,15.196517 4.4392673,18.338051 1.6459955,21.479559 0.07104557,25.518064 -3.28e-7,29.721168 0.05962331,32.066226 0.580592,34.376578 1.5331716,36.520387 c 0.9525537,2.14355 2.3180698,4.078858 4.018535,5.694809 1.7004653,1.615951 3.7025712,2.880946 5.8920434,3.72324 2.189447,0.842035 4.523445,1.244792 6.868504,1.184962 0.542881,0 1.081099,0 1.609475,-0.06864 h 29.642948 c 0.26367,-0.0031 0.525786,-0.04429 0.777801,-0.122251 3.849118,-0.07175 7.521592,-1.626571 10.252314,-4.339938 C 63.325513,39.879203 64.903649,36.216312 65,32.367971 Z" />
  <path
     style="fill:#5ea0ef;stroke-width:2.59008002"
     inkscape:connector-curvature="0"
     id="path10"
     d="m 13.01308,75.102478 c 3.582728,0 6.487243,-2.904516 6.487243,-6.487374 0,-3.582857 -2.904515,-6.487373 -6.487243,-6.487373 -3.5828322,0 -6.4872961,2.904516 -6.4872961,6.487373 0,3.582858 2.9044639,6.487374 6.4872961,6.487374 z" />
  <path
     style="fill:#5ea0ef;stroke-width:2.59008002"
     inkscape:connector-curvature="0"
     id="path12"
     d="m 42.118456,88.062979 c 3.582858,0 6.487373,-2.904516 6.487373,-6.487373 0,-3.582858 -2.904515,-6.487374 -6.487373,-6.487374 -3.582599,0 -6.487114,2.904516 -6.487114,6.487374 0,3.582857 2.904515,6.487373 6.487114,6.487373 z" />
  <path
     style="fill:#5ea0ef;stroke-width:2.59008002"
     inkscape:connector-curvature="0"
     id="path14"
     d="m 41.531803,68.375522 c 3.582858,0 6.487373,-2.904516 6.487373,-6.487373 0,-3.582858 -2.904515,-6.487374 -6.487373,-6.487374 -3.582858,0 -6.487373,2.904516 -6.487373,6.487374 0,3.582857 2.904515,6.487373 6.487373,6.487373 z" />
  <defs
     id="defs41">
    <linearGradient
       id="paint0_linear_1401_130410"
       x1="9.2955599"
       y1="15.0166"
       x2="9.6147804"
       y2="26.9147"
       gradientUnits="userSpaceOnUse"
       gradientTransform="matrix(2.59008,0,0,2.59008,-11.531425,0)">
      <stop
         offset="0.054"
         stop-color="#9CEBFF"
         id="stop18" />
      <stop
         offset="1"
         stop-color="#50E6FF"
         id="stop20" />
    </linearGradient>
    <linearGradient
       id="paint1_linear_1401_130410"
       x1="12.6326"
       y1="14.5369"
       x2="17.906401"
       y2="31.5539"
       gradientUnits="userSpaceOnUse"
       gradientTransform="matrix(2.59008,0,0,2.59008,-11.531425,0)">
      <stop
         offset="0.118"
         stop-color="#9CEBFF"
         id="stop23" />
      <stop
         offset="1"
         stop-color="#50E6FF"
         id="stop25" />
    </linearGradient>
    <linearGradient
       id="paint2_linear_1401_130410"
       x1="25.9289"
       y1="13.6057"
       x2="21.8451"
       y2="24.922001"
       gradientUnits="userSpaceOnUse"
       gradientTransform="matrix(2.59008,0,0,2.59008,-11.531425,0)">
      <stop
         offset="0.243"
         stop-color="#9CEBFF"
         id="stop28" />
      <stop
         offset="1"
         stop-color="#50E6FF"
         id="stop30" />
    </linearGradient>
    <linearGradient
       id="paint3_linear_1401_130410"
       x1="16.816799"
       y1="-1.45444"
       x2="17.122801"
       y2="21.066799"
       gradientUnits="userSpaceOnUse"
       gradientTransform="matrix(2.59008,0,0,2.59008,-11.531425,0)">
      <stop
         offset="0.005"
         stop-color="#83B9F9"
         id="stop33" />
      <stop
         offset="1"
         stop-color="#5EA0EF"
         id="stop35" />
    </linearGradient>
    <clipPath
       id="clip0_1401_130410">
      <rect
         width="34"
         height="34"
         id="rect38"
         x="0"
         y="0"
         style="fill:#ffffff" />
    </clipPath>
  </defs>
</svg>
