<?xml version="1.0" encoding="UTF-8" standalone="no"?>
<!-- Generated by Microsoft Visio, SVG Export streaming-locator.svg Page-1 -->

<svg
   xmlns:v="http://schemas.microsoft.com/visio/2003/SVGExtensions/"
   xmlns:dc="http://purl.org/dc/elements/1.1/"
   xmlns:cc="http://creativecommons.org/ns#"
   xmlns:rdf="http://www.w3.org/1999/02/22-rdf-syntax-ns#"
   xmlns:svg="http://www.w3.org/2000/svg"
   xmlns="http://www.w3.org/2000/svg"
   xmlns:sodipodi="http://sodipodi.sourceforge.net/DTD/sodipodi-0.dtd"
   xmlns:inkscape="http://www.inkscape.org/namespaces/inkscape"
   width="0.625in"
   height="0.446006in"
   viewBox="0 0 44.999934 32.112407"
   xml:space="preserve"
   class="st4"
   version="1.1"
   id="svg1061"
   sodipodi:docname="streaming-locator.svg"
   style="font-size:12px;overflow:visible;color-interpolation-filters:sRGB;fill:none;fill-rule:evenodd;stroke-linecap:square;stroke-miterlimit:3"
   inkscape:version="0.92.4 (5da689c313, 2019-01-14)"><metadata
   id="metadata1065"><rdf:RDF><cc:Work
       rdf:about=""><dc:format>image/svg+xml</dc:format><dc:type
         rdf:resource="http://purl.org/dc/dcmitype/StillImage" /><dc:title></dc:title></cc:Work></rdf:RDF></metadata><sodipodi:namedview
   pagecolor="#ffffff"
   bordercolor="#666666"
   borderopacity="1"
   objecttolerance="10"
   gridtolerance="10"
   guidetolerance="10"
   inkscape:pageopacity="0"
   inkscape:pageshadow="2"
   inkscape:window-width="3840"
   inkscape:window-height="2054"
   id="namedview1063"
   showgrid="false"
   fit-margin-top="0"
   fit-margin-left="0"
   fit-margin-right="0"
   fit-margin-bottom="0"
   inkscape:zoom="6.8907203"
   inkscape:cx="22.559684"
   inkscape:cy="16.128892"
   inkscape:window-x="3829"
   inkscape:window-y="12"
   inkscape:window-maximized="1"
   inkscape:current-layer="svg1061" />
	<v:documentProperties
   v:langID="1033"
   v:viewMarkup="false" />

	<style
   type="text/css"
   id="style1010">
	<![CDATA[
		.st1 {fill:url(#grad0-6);stroke:none;stroke-linecap:butt;stroke-width:0.75}
		.st2 {fill:url(#grad0-10);stroke:none;stroke-linecap:butt;stroke-width:0.75}
		.st3 {fill:#92cddc;stroke:none;stroke-linecap:butt;stroke-width:0.75}
		.st4 {fill:none;fill-rule:evenodd;font-size:12px;overflow:visible;stroke-linecap:square;stroke-miterlimit:3}
	]]>
	</style>

	<defs
   id="Patterns_And_Gradients">
		<linearGradient
   id="grad0-6"
   x1="0.010192583"
   y1="19.054075"
   x2="11.38115"
   y2="19.054075"
   gradientTransform="scale(1.1842774,0.84439676)"
   gradientUnits="userSpaceOnUse">
			<stop
   offset="0.23"
   stop-color="#5ea0ef"
   stop-opacity="1"
   id="stop1012" />
			<stop
   offset="0.93"
   stop-color="#127fd9"
   stop-opacity="1"
   id="stop1014" />
		</linearGradient>
		<linearGradient
   id="grad0-10"
   x1="-0.011165384"
   y1="18.965429"
   x2="11.304442"
   y2="18.965429"
   gradientTransform="scale(1.1787091,0.84838577)"
   gradientUnits="userSpaceOnUse">
			<stop
   offset="0.02"
   stop-color="#5ea0ef"
   stop-opacity="1"
   id="stop1017" />
			<stop
   offset="0.93"
   stop-color="#127fd9"
   stop-opacity="1"
   id="stop1019" />
		</linearGradient>
	</defs>
	<g
   v:mID="0"
   v:index="1"
   v:groupContext="foregroundPage"
   id="g1059"
   transform="matrix(1.3287441,0,0,1.3287441,-1.0319184,-1.0264814)">
		<title
   id="title1023">Page-1</title>
		<v:pageProperties
   v:drawingScale="1"
   v:pageScale="1"
   v:drawingUnits="19"
   v:shadowOffsetX="9"
   v:shadowOffsetY="-9" />
		<g
   id="group1581-1"
   transform="translate(0.764541,-0.75)"
   v:mID="1581"
   v:groupContext="group">
			<title
   id="title1025">Sheet.1581</title>
			<g
   id="group1572-2"
   v:mID="1572"
   v:groupContext="group">
				<title
   id="title1027">Sheet.1572</title>
				<g
   id="shape1569-3"
   v:mID="1569"
   v:groupContext="shape"
   transform="translate(0,-3.99283)">
					<title
   id="title1029">Sheet.1569</title>
					<path
   d="M 8.58,16.09 H 4.74 a 4.8008,4.8008 -180 0 0 -0.75,9.53 5.14921,5.14921 0 0 1 0.06,-1.79 3.03096,3.03096 0 0 1 0.7,-5.98 h 3.84 a 3.04,3.04 0 1 1 0,6.08 H 7.53 a 2.28711,2.28711 -180 0 0 -0.22,0.96 2.17596,2.17596 -180 0 0 0.16,0.8 h 1.12 a 4.8008,4.8008 -180 1 0 0,-9.6 z"
   class="st1"
   id="path1031"
   inkscape:connector-curvature="0"
   style="fill:url(#grad0-6);stroke:none;stroke-width:0.75;stroke-linecap:butt" />
				</g>
				<g
   id="shape1570-7"
   v:mID="1570"
   v:groupContext="shape"
   transform="translate(4.84445)">
					<title
   id="title1034">Sheet.1570</title>
					<path
   d="m 9.28,16.16 a 5.65152,5.65152 0 0 1 0.06,0.74 4.93332,4.93332 0 0 1 -0.1,1.04 3.03096,3.03096 0 0 1 -0.7,5.99 H 4.69 a 3.04,3.04 0 0 1 0,-6.08 H 5.75 A 2.23367,2.23367 -180 0 0 5.96,16.89 2.19734,2.19734 -180 0 0 5.81,16.09 H 4.7 a 4.8008,4.8008 -180 0 0 0,9.6 h 3.85 a 4.8008,4.8008 -180 0 0 0.74,-9.54 z"
   class="st2"
   id="path1036"
   inkscape:connector-curvature="0"
   style="fill:url(#grad0-10);stroke:none;stroke-width:0.75;stroke-linecap:butt" />
				</g>
			</g>
			<g
   id="group1580-11"
   transform="translate(14.8335,-4.5)"
   v:mID="1580"
   v:groupContext="group">
				<title
   id="title1040">Sheet.1580</title>
				<g
   id="shape1576-12"
   v:mID="1576"
   v:groupContext="shape"
   transform="translate(7.04323,-3.22509)">
					<title
   id="title1042">Sheet.1576</title>
					<path
   d="m 2.78,12.4 a 1.65346,1.65346 -180 0 0 -2.33,0.08 1.67235,1.67235 -180 0 0 0.07,2.35 6.04062,6.04062 0 0 1 1.63,4.13 7.13978,7.13978 0 0 1 -1.7,4.41 1.66605,1.66605 -180 0 0 2.41,2.3 10.4435,10.4435 -180 0 0 2.63,-6.72 9.44831,9.44831 -180 0 0 -2.71,-6.55 z"
   class="st3"
   id="path1044"
   inkscape:connector-curvature="0"
   style="fill:#92cddc;stroke:none;stroke-width:0.75;stroke-linecap:butt" />
				</g>
				<g
   id="shape1577-14"
   v:mID="1577"
   v:groupContext="shape"
   transform="translate(12.9351)">
					<title
   id="title1047">Sheet.1577</title>
					<path
   d="M 1.52,25.69 A 1.66605,1.66605 0 0 1 0.26,22.92 11.9679,11.9679 -180 0 0 2.78,15.82 12.9631,12.9631 -180 0 0 0.2,8.67 1.66605,1.66605 0 0 1 2.79,6.58 a 16.1944,16.1944 0 0 1 3.32,9.24 15.1803,15.1803 0 0 1 -3.36,9.3 1.6629,1.6629 0 0 1 -1.23,0.57 z"
   class="st3"
   id="path1049"
   inkscape:connector-curvature="0"
   style="fill:#92cddc;stroke:none;stroke-width:0.75;stroke-linecap:butt" />
				</g>
				<g
   id="shape1578-16"
   v:mID="1578"
   v:groupContext="shape"
   transform="translate(0,-6.93821)">
					<title
   id="title1052">Sheet.1578</title>
					<circle
   cx="2.91008"
   cy="22.7766"
   class="st3"
   id="ellipse1054"
   r="2.91008"
   style="fill:#92cddc;stroke:none;stroke-width:0.75;stroke-linecap:butt" />
				</g>
			</g>
		</g>
	</g>
</svg>