<?xml version="1.0" encoding="UTF-8" standalone="no"?>
<svg
   xmlns:dc="http://purl.org/dc/elements/1.1/"
   xmlns:cc="http://creativecommons.org/ns#"
   xmlns:rdf="http://www.w3.org/1999/02/22-rdf-syntax-ns#"
   xmlns:svg="http://www.w3.org/2000/svg"
   xmlns="http://www.w3.org/2000/svg"
   xmlns:sodipodi="http://sodipodi.sourceforge.net/DTD/sodipodi-0.dtd"
   xmlns:inkscape="http://www.inkscape.org/namespaces/inkscape"
   width="65"
   height="88.062721"
   viewBox="0 0 65 88.062722"
   version="1.1"
   id="svg43"
   sodipodi:docname="streaming-endpoint.svg"
   style="fill:none"
   inkscape:version="0.92.4 (5da689c313, 2019-01-14)">
  <metadata
     id="metadata47">
    <rdf:RDF>
      <cc:Work
         rdf:about="">
        <dc:format>image/svg+xml</dc:format>
        <dc:type
           rdf:resource="http://purl.org/dc/dcmitype/StillImage" />
        <dc:title></dc:title>
      </cc:Work>
    </rdf:RDF>
  </metadata>
  <sodipodi:namedview
     pagecolor="#ffffff"
     bordercolor="#666666"
     borderopacity="1"
     objecttolerance="10"
     gridtolerance="10"
     guidetolerance="10"
     inkscape:pageopacity="0"
     inkscape:pageshadow="2"
     inkscape:window-width="3840"
     inkscape:window-height="2036"
     id="namedview45"
     showgrid="false"
     fit-margin-top="0"
     fit-margin-left="0"
     fit-margin-right="0"
     fit-margin-bottom="0"
     inkscape:zoom="6.9411765"
     inkscape:cx="111.09024"
     inkscape:cy="66.703387"
     inkscape:window-x="-11"
     inkscape:window-y="-11"
     inkscape:window-maximized="1"
     inkscape:current-layer="svg43" />
  <g
     clip-path="url(#clip0_1401_130410)"
     id="g16"
     transform="matrix(2.59008,0,0,2.59008,-11.531425,0)">
    <path
       d="M 10.4704,15.9648 H 8.48145 v 11.6035 h 1.98895 z"
       id="path2"
       inkscape:connector-curvature="0"
       style="fill:url(#paint0_linear_1401_130410)" />
    <path
       d="M 15.2978,27.3473 V 16.0518 H 13.373 v 12.4024 l 6.9096,4.0196 0.9671,-1.666 z"
       id="path4"
       inkscape:connector-curvature="0"
       style="fill:url(#paint1_linear_1401_130410)" />
    <path
       d="M 24.2686,9.33301 V 20.6286 l -4.1348,2.4272 0.9671,1.6641 5.0943,-2.9844 V 9.33301 Z"
       id="path6"
       inkscape:connector-curvature="0"
       style="fill:url(#paint2_linear_1401_130410)" />
    <path
       d="M 29.5479,12.4969 C 29.5198,11.143 29.0127,9.84294 28.1166,8.82761 27.2206,7.81227 25.9937,7.14741 24.6538,6.95112 24.5945,5.06224 23.7927,3.27296 22.4224,1.97159 21.0521,0.670223 19.2238,-0.0382234 17.3344,5.7176e-6 15.8061,-0.0181431 14.3102,0.440589 13.0549,1.31236 11.7995,2.18413 10.8472,3.42557 10.3304,4.8639 8.72194,5.08094 7.24454,5.8672 6.1661,7.08011 5.08765,8.29301 4.47958,9.85223 4.45215,11.475 c 0.02302,0.9054 0.22416,1.7974 0.59194,2.6251 0.36777,0.8276 0.89498,1.5748 1.55151,2.1987 0.65653,0.6239 1.42952,1.1123 2.27485,1.4375 0.84532,0.3251 1.74645,0.4806 2.65185,0.4575 0.2096,0 0.4174,0 0.6214,-0.0265 h 11.4448 c 0.1018,-0.0012 0.203,-0.0171 0.3003,-0.0472 1.4861,-0.0277 2.904,-0.628 3.9583,-1.6756 1.0543,-1.0476 1.6636,-2.4618 1.7008,-3.9476 z"
       id="path8"
       inkscape:connector-curvature="0"
       style="fill:url(#paint3_linear_1401_130410)" />
    <path
       d="m 9.47635,28.9962 c 1.38325,0 2.50465,-1.1214 2.50465,-2.5047 0,-1.3833 -1.1214,-2.5047 -2.50465,-2.5047 -1.38329,0 -2.50467,1.1214 -2.50467,2.5047 0,1.3833 1.12138,2.5047 2.50467,2.5047 z"
       id="path10"
       inkscape:connector-curvature="0"
       style="fill:#5ea0ef" />
    <path
       d="m 20.7136,34.0001 c 1.3833,0 2.5047,-1.1214 2.5047,-2.5047 0,-1.3833 -1.1214,-2.5047 -2.5047,-2.5047 -1.3832,0 -2.5046,1.1214 -2.5046,2.5047 0,1.3833 1.1214,2.5047 2.5046,2.5047 z"
       id="path12"
       inkscape:connector-curvature="0"
       style="fill:#5ea0ef" />
    <path
       d="m 20.4871,26.399 c 1.3833,0 2.5047,-1.1214 2.5047,-2.5047 0,-1.3833 -1.1214,-2.5047 -2.5047,-2.5047 -1.3833,0 -2.5047,1.1214 -2.5047,2.5047 0,1.3833 1.1214,2.5047 2.5047,2.5047 z"
       id="path14"
       inkscape:connector-curvature="0"
       style="fill:#5ea0ef" />
  </g>
  <defs
     id="defs41">
    <linearGradient
       id="paint0_linear_1401_130410"
       x1="9.2955599"
       y1="15.0166"
       x2="9.6147804"
       y2="26.9147"
       gradientUnits="userSpaceOnUse">
      <stop
         offset="0.054"
         stop-color="#9CEBFF"
         id="stop18" />
      <stop
         offset="1"
         stop-color="#50E6FF"
         id="stop20" />
    </linearGradient>
    <linearGradient
       id="paint1_linear_1401_130410"
       x1="12.6326"
       y1="14.5369"
       x2="17.906401"
       y2="31.5539"
       gradientUnits="userSpaceOnUse">
      <stop
         offset="0.118"
         stop-color="#9CEBFF"
         id="stop23" />
      <stop
         offset="1"
         stop-color="#50E6FF"
         id="stop25" />
    </linearGradient>
    <linearGradient
       id="paint2_linear_1401_130410"
       x1="25.9289"
       y1="13.6057"
       x2="21.8451"
       y2="24.922001"
       gradientUnits="userSpaceOnUse">
      <stop
         offset="0.243"
         stop-color="#9CEBFF"
         id="stop28" />
      <stop
         offset="1"
         stop-color="#50E6FF"
         id="stop30" />
    </linearGradient>
    <linearGradient
       id="paint3_linear_1401_130410"
       x1="16.816799"
       y1="-1.45444"
       x2="17.122801"
       y2="21.066799"
       gradientUnits="userSpaceOnUse">
      <stop
         offset="0.005"
         stop-color="#83B9F9"
         id="stop33" />
      <stop
         offset="1"
         stop-color="#5EA0EF"
         id="stop35" />
    </linearGradient>
    <clipPath
       id="clip0_1401_130410">
      <rect
         width="34"
         height="34"
         id="rect38"
         x="0"
         y="0"
         style="fill:#ffffff" />
    </clipPath>
  </defs>
</svg>
