<?xml version="1.0" encoding="UTF-8" standalone="no"?>
<!-- Generated by Microsoft Visio, SVG Export streaming-policy.svg Page-1 -->

<svg
   xmlns:v="http://schemas.microsoft.com/visio/2003/SVGExtensions/"
   xmlns:dc="http://purl.org/dc/elements/1.1/"
   xmlns:cc="http://creativecommons.org/ns#"
   xmlns:rdf="http://www.w3.org/1999/02/22-rdf-syntax-ns#"
   xmlns:svg="http://www.w3.org/2000/svg"
   xmlns="http://www.w3.org/2000/svg"
   xmlns:sodipodi="http://sodipodi.sourceforge.net/DTD/sodipodi-0.dtd"
   xmlns:inkscape="http://www.inkscape.org/namespaces/inkscape"
   width="53.899979"
   height="71.999969"
   viewBox="0 0 40.425001 53.999996"
   xml:space="preserve"
   class="st2"
   version="1.1"
   id="svg6246"
   sodipodi:docname="streaming-policy.svg"
   style="font-size:12px;overflow:visible;color-interpolation-filters:sRGB;fill:none;fill-rule:evenodd;stroke-linecap:square;stroke-miterlimit:3"
   inkscape:version="0.92.4 (5da689c313, 2019-01-14)"><metadata
   id="metadata6252"><rdf:RDF><cc:Work
       rdf:about=""><dc:format>image/svg+xml</dc:format><dc:type
         rdf:resource="http://purl.org/dc/dcmitype/StillImage" /><dc:title></dc:title></cc:Work></rdf:RDF></metadata><defs
   id="defs6250" /><sodipodi:namedview
   pagecolor="#ffffff"
   bordercolor="#666666"
   borderopacity="1"
   objecttolerance="10"
   gridtolerance="10"
   guidetolerance="10"
   inkscape:pageopacity="0"
   inkscape:pageshadow="2"
   inkscape:window-width="3840"
   inkscape:window-height="2054"
   id="namedview6248"
   showgrid="false"
   units="px"
   fit-margin-top="0"
   fit-margin-left="-0.1"
   fit-margin-right="0"
   fit-margin-bottom="0"
   inkscape:zoom="20.573041"
   inkscape:cx="26.899988"
   inkscape:cy="35.999984"
   inkscape:window-x="-11"
   inkscape:window-y="-11"
   inkscape:window-maximized="1"
   inkscape:current-layer="svg6246" />
	<v:documentProperties
   v:langID="1033"
   v:viewMarkup="false" />

	<style
   type="text/css"
   id="style6221">
	<![CDATA[
		.st1 {fill:#0070c0;stroke:none;stroke-linecap:butt;stroke-width:6.375}
		.st2 {fill:none;fill-rule:evenodd;font-size:12px;overflow:visible;stroke-linecap:square;stroke-miterlimit:3}
	]]>
	</style>

	<g
   v:mID="0"
   v:index="1"
   v:groupContext="foregroundPage"
   id="g6244"
   transform="translate(-6.45,-6.375)">
		<title
   id="title6223">Page-1</title>
		<v:pageProperties
   v:drawingScale="1"
   v:pageScale="1"
   v:drawingUnits="19"
   v:shadowOffsetX="9"
   v:shadowOffsetY="-9" />
		<g
   id="group231-1"
   transform="translate(6.375,-6.375)"
   v:mID="231"
   v:groupContext="group">
			<title
   id="title6225">Sheet.231</title>
			<g
   id="group227-2"
   v:mID="227"
   v:groupContext="group">
				<title
   id="title6227">Sheet.227</title>
				<g
   id="shape228-3"
   v:mID="228"
   v:groupContext="shape">
					<title
   id="title6229">Sheet.228</title>
					<path
   d="m 0,12.75 v 54 H 40.5 V 27.32 L 25.93,12.75 Z m 26.34,2.32 11.84,11.84 c 0.01,0.01 0.01,0.01 0,0.01 0,0 0,0.01 0,0.01 H 26.33 V 15.07 c 0,0 0,-0.01 0,-0.01 0,0 0.01,0 0.01,0.01 z M 1.35,65.4 V 14.1 H 24.98 V 28.28 H 39.15 V 65.4 Z"
   class="st1"
   id="path6231"
   inkscape:connector-curvature="0"
   style="fill:#0070c0;stroke:none;stroke-width:6.375;stroke-linecap:butt" />
				</g>
			</g>
			<g
   id="group229-5"
   transform="translate(9,-9)"
   v:mID="229"
   v:groupContext="group">
				<title
   id="title6235">Sheet.229</title>
				<g
   id="shape230-6"
   v:mID="230"
   v:groupContext="shape">
					<title
   id="title6237">Sheet.230</title>
					<path
   d="m 12.19,40.3 c 2.37,2.6 5.65,4.2 9.16,4.48 0.65,0.06 1.15,0.61 1.15,1.27 v 3.19 c 0,6.95 -4.42,13.31 -10.56,17.24 -0.42,0.27 -0.96,0.27 -1.38,0 C 4.42,62.55 0,56.19 0,49.24 v -3.19 c 0,-0.66 0.5,-1.21 1.15,-1.27 3.51,-0.28 6.79,-1.88 9.16,-4.48 0.45,-0.52 1.23,-0.58 1.75,-0.13 0.05,0.04 0.09,0.08 0.13,0.13 z"
   class="st1"
   id="path6239"
   inkscape:connector-curvature="0"
   style="fill:#0070c0;stroke:none;stroke-width:6.375;stroke-linecap:butt" />
				</g>
			</g>
		</g>
	</g>
</svg>