<?xml version="1.0" encoding="UTF-8" standalone="no"?>
<!-- Generated by Microsoft Visio, SVG Export ams-icons.svg Page-1 -->

<svg
   xmlns:v="http://schemas.microsoft.com/visio/2003/SVGExtensions/"
   xmlns:dc="http://purl.org/dc/elements/1.1/"
   xmlns:cc="http://creativecommons.org/ns#"
   xmlns:rdf="http://www.w3.org/1999/02/22-rdf-syntax-ns#"
   xmlns:svg="http://www.w3.org/2000/svg"
   xmlns="http://www.w3.org/2000/svg"
   xmlns:sodipodi="http://sodipodi.sourceforge.net/DTD/sodipodi-0.dtd"
   xmlns:inkscape="http://www.inkscape.org/namespaces/inkscape"
   width="45.253868"
   height="75.58242"
   viewBox="0 0 33.940612 56.686613"
   xml:space="preserve"
   class="st3"
   version="1.1"
   id="svg5410"
   sodipodi:docname="subscription.svg"
   style="font-size:12px;overflow:visible;color-interpolation-filters:sRGB;fill:none;fill-rule:evenodd;stroke-linecap:square;stroke-miterlimit:3"
   inkscape:version="0.92.4 (5da689c313, 2019-01-14)"><metadata
   id="metadata5414"><rdf:RDF><cc:Work
       rdf:about=""><dc:format>image/svg+xml</dc:format><dc:type
         rdf:resource="http://purl.org/dc/dcmitype/StillImage" /><dc:title></dc:title></cc:Work></rdf:RDF></metadata><sodipodi:namedview
   pagecolor="#ffffff"
   bordercolor="#666666"
   borderopacity="1"
   objecttolerance="10"
   gridtolerance="10"
   guidetolerance="10"
   inkscape:pageopacity="0"
   inkscape:pageshadow="2"
   inkscape:window-width="3840"
   inkscape:window-height="2054"
   id="namedview5412"
   showgrid="false"
   fit-margin-top="0"
   fit-margin-left="-0.1"
   fit-margin-right="0"
   fit-margin-bottom="0"
   units="px"
   inkscape:zoom="11.013539"
   inkscape:cx="22.573441"
   inkscape:cy="37.796078"
   inkscape:window-x="-11"
   inkscape:window-y="-11"
   inkscape:window-maximized="1"
   inkscape:current-layer="svg5410" />
	<v:documentProperties
   v:langID="1033"
   v:viewMarkup="false" />

	<style
   type="text/css"
   id="style5366">
	<![CDATA[
		.st1 {fill:url(#grad6-9);stroke:none;stroke-linecap:butt;stroke-width:34}
		.st2 {fill:#ff9300;fill-opacity:0.75;stroke:none;stroke-linecap:butt;stroke-width:34}
		.st3 {fill:none;fill-rule:evenodd;font-size:12px;overflow:visible;stroke-linecap:square;stroke-miterlimit:3}
	]]>
	</style>

	<defs
   id="Patterns_And_Gradients">
		<radialGradient
   id="grad6-9"
   cx="43.915462"
   cy="52.678162"
   r="61.476562"
   gradientTransform="scale(0.77463439,1.2909316)"
   fx="43.915462"
   fy="52.678162"
   gradientUnits="userSpaceOnUse">
			<stop
   offset="0.265"
   stop-color="#ffd70f"
   stop-opacity="1"
   id="stop5368" />
			<stop
   offset="0.485"
   stop-color="#ffcb12"
   stop-opacity="1"
   id="stop5370" />
			<stop
   offset="0.885"
   stop-color="#feac19"
   stop-opacity="1"
   id="stop5372" />
			<stop
   offset="1"
   stop-color="#fea11b"
   stop-opacity="1"
   id="stop5374" />
		</radialGradient>
	</defs>
	<g
   v:mID="0"
   v:index="1"
   v:groupContext="foregroundPage"
   id="g5408"
   transform="translate(-34.077814,-34.004181)">
		<title
   id="title5378">Page-1</title>
		<v:pageProperties
   v:drawingScale="1"
   v:pageScale="1"
   v:drawingUnits="19"
   v:shadowOffsetX="9"
   v:shadowOffsetY="-9" />
		<g
   id="group1-1"
   transform="translate(34,-34)"
   v:mID="1"
   v:groupContext="group">
			<title
   id="title5380">Sheet.1</title>
			<g
   id="group2-2"
   v:mID="2"
   v:groupContext="group">
				<title
   id="title5382">Page-1</title>
				<g
   id="group3-3"
   v:mID="3"
   v:groupContext="group">
					<title
   id="title5384">Subscription</title>
					<g
   id="group4-4"
   v:mID="4"
   v:groupContext="group">
						<title
   id="title5386">Sheet.4</title>
						<g
   id="group5-5"
   v:mID="5"
   v:groupContext="group">
							<title
   id="title5388">Sheet.5</title>
							<g
   id="shape6-6"
   v:mID="6"
   v:groupContext="shape">
								<title
   id="title5390">Sheet.6</title>
								<path
   d="m 32.19,90.38 a 6.53179,6.27102 -90 0 0 0,-9.22 L 21.41,69.91 a 6.4877,6.22869 -90 0 0 -8.82,0 L 1.83,81.16 a 6.53494,6.27405 -90 0 0 0,9.22 l 8.96,9.35 a 1.82978,1.75673 90 0 1 0.51,1.3 v 17.39 a 2.22975,2.14074 -90 0 0 0.62,1.58 l 4.09,4.26 a 1.4739,1.41506 -90 0 0 2,0 l 3.96,-4.13 v -0.05 l 2.33,-2.43 a 0.853479,0.819407 -90 0 0 0,-1.20306 L 22.62,114.69 a 0.944811,0.907092 90 0 1 0,-1.31329 L 24.3,111.63 a 0.853479,0.819407 -90 0 0 0,-1.20306 L 22.62,108.68 a 0.944811,0.907092 90 0 1 0,-1.31329 L 24.31,105.61 a 0.85033,0.816383 -90 0 0 0,-1.19991 L 21.97,101.97 v -0.9 z M 17.01,72.63 a 3.7005,3.55277 90 1 1 -3.55,3.7 3.69736,3.54975 90 0 1 3.55,-3.7 z"
   class="st1"
   id="path5392"
   inkscape:connector-curvature="0"
   style="fill:url(#grad6-9);stroke:none;stroke-width:34;stroke-linecap:butt" />
							</g>
						</g>
						<g
   id="group7-10"
   transform="translate(8.37725,-5.75021)"
   v:mID="7"
   v:groupContext="group">
							<title
   id="title5396">Sheet.7</title>
							<g
   id="shape8-11"
   v:mID="8"
   v:groupContext="shape">
								<title
   id="title5398">Sheet.8</title>
								<path
   d="m 5.83,124.54 a 0.793641,0.761958 -90 0 0 1.28807,-0.60468 L 7.11,109.86 A 0.844031,0.810336 -90 0 0 6.759258,109.16084 0.796791,0.764981 -90 0 0 5.580038,109.86 L 5.58,123.94 a 0.844031,0.810336 -90 0 0 0.241891,0.60468 z M 0.96,90.66 h 15.79 a 0.995201,0.955471 90 0 1 0.955471,0.995201 L 17.71,91.84 a 0.99835,0.958494 90 0 1 -0.958494,0.99835 L 0.96,92.84 A 0.995201,0.955471 90 0 1 0.004529,91.844799 L 0,91.65 a 0.99835,0.958494 90 0 1 0.958494,-0.99835 z m 0,3.54 h 15.79 a 0.995201,0.955471 90 0 1 0.955471,0.995201 L 17.71,95.38 a 0.995201,0.955471 90 0 1 -0.955471,0.995201 L 0.96,96.38 A 0.99835,0.958494 90 0 1 0.001506,95.38165 L 0,95.2 a 0.99835,0.958494 90 0 1 0.958494,-0.99835 z"
   class="st2"
   id="path5400"
   inkscape:connector-curvature="0"
   style="fill:#ff9300;fill-opacity:0.75;stroke:none;stroke-width:34;stroke-linecap:butt" />
							</g>
						</g>
					</g>
				</g>
			</g>
		</g>
	</g>
</svg>