<?xml version="1.0" encoding="UTF-8" standalone="no"?>
<!DOCTYPE svg PUBLIC "-//W3C//DTD SVG 1.1//EN" "http://www.w3.org/Graphics/SVG/1.1/DTD/svg11.dtd">
<!-- Generated by Microsoft Visio, SVG Export transform.svg Page-1 -->
<svg xmlns="http://www.w3.org/2000/svg" xmlns:xlink="http://www.w3.org/1999/xlink" xmlns:ev="http://www.w3.org/2001/xml-events"
		xmlns:v="http://schemas.microsoft.com/visio/2003/SVGExtensions/" width="0.788387in" height="0.783872in"
		viewBox="0 0 56.7638 56.4388" xml:space="preserve" color-interpolation-filters="sRGB" class="st3">
	<v:documentProperties v:langID="1033" v:viewMarkup="false"/>

	<style type="text/css">
	<![CDATA[
		.st1 {fill:url(#grad0-5);stroke:none;stroke-linecap:butt;stroke-width:0.75}
		.st2 {fill:#ffffff;stroke:none;stroke-linecap:butt;stroke-width:0.75}
		.st3 {fill:none;fill-rule:evenodd;font-size:12px;overflow:visible;stroke-linecap:square;stroke-miterlimit:3}
	]]>
	</style>

	<defs id="Patterns_And_Gradients">
		<linearGradient id="grad0-5" x1="0" y1="0" x2="1" y2="0" gradientTransform="rotate(-90 0.5 0.5)">
			<stop offset="0" stop-color="#32bedd" stop-opacity="1"/>
			<stop offset="1" stop-color="#32d4f5" stop-opacity="1"/>
		</linearGradient>
	</defs>
	<g v:mID="0" v:index="1" v:groupContext="foregroundPage">
		<title>Page-1</title>
		<v:pageProperties v:drawingScale="1" v:pageScale="1" v:drawingUnits="19" v:shadowOffsetX="9" v:shadowOffsetY="-9"/>
		<g id="group1104-1" transform="translate(0.75,-0.75)" v:mID="1104" v:groupContext="group">
			<title>Sheet.1104</title>
			<g id="shape1105-2" v:mID="1105" v:groupContext="shape">
				<title>Sheet.1105</title>
				<path d="M55.26 32.06 L55.26 25.88 L54.29 25.56 L47.46 23.28 L45.84 19.05 L49.41 11.9 L44.86 7.35 L43.89 7.68 L37.71
							 10.93 L33.48 9.3 L30.56 1.5 L24.38 1.5 L24.06 2.48 L21.78 8.98 L17.55 10.93 L10.4 7.35 L5.85 11.9 L6.18
							 12.88 L9.43 19.05 L7.8 23.28 L0 26.21 L0 32.38 L0.98 32.71 L7.8 34.98 L9.43 39.21 L5.85 46.36 L10.4
							 50.91 L11.38 50.59 L17.55 47.34 L21.78 48.96 L24.71 56.44 L30.88 56.44 L31.21 55.46 L33.48 48.64 L37.71
							 47.01 L44.86 50.59 L49.41 46.04 L49.09 45.39 L45.84 39.21 L47.46 34.98 L55.26 32.06 Z" class="st1"/>
			</g>
			<g id="shape1106-6" v:mID="1106" v:groupContext="shape" transform="translate(15.929,-17.0647)">
				<title>Sheet.1106</title>
				<path d="M22.43 38.07 L19.83 40.35 A9.46312 9.46312 0 0 1 18.85 54 A9.44686 9.44686 0 0 1 5.2 53.02 A9.45987 9.45987
							 0 0 1 5.2 40.35 L5.53 40.35 L7.48 41.97 L7.8 41.97 L7.8 41.65 L7.15 35.14 C7.15 34.82 6.83 34.82 6.5
							 34.82 L0.33 35.79 a0.325081 0.325081 -180 0 0 -0.325081 0.325081 L1.95 37.74 L1.95 38.07 A12.9252 12.9252
							 -180 1 0 21.78 54.65 A11.8005 11.8005 -180 0 0 22.43 38.07 Z" class="st2"/>
			</g>
		</g>
	</g>
</svg>
