<?xml version="1.0" encoding="UTF-8" standalone="no"?>
<!DOCTYPE svg PUBLIC "-//W3C//DTD SVG 1.1//EN" "http://www.w3.org/Graphics/SVG/1.1/DTD/svg11.dtd">
<!-- Generated by Microsoft Visio, SVG Export user.svg Page-1 -->
<svg xmlns="http://www.w3.org/2000/svg" xmlns:xlink="http://www.w3.org/1999/xlink" xmlns:ev="http://www.w3.org/2001/xml-events"
		xmlns:v="http://schemas.microsoft.com/visio/2003/SVGExtensions/" width="0.701421in" height="0.769821in"
		viewBox="0 0 50.5023 55.4271" xml:space="preserve" color-interpolation-filters="sRGB" class="st4">
	<v:documentProperties v:langID="1033" v:viewMarkup="false"/>

	<style type="text/css">
	<![CDATA[
		.st1 {fill:url(#grad0-5);stroke:none;stroke-linecap:butt;stroke-width:0.75}
		.st2 {fill:#ffffff;fill-opacity:0.8;stroke:none;stroke-linecap:butt;stroke-width:0.75}
		.st3 {fill:url(#grad0-11);stroke:none;stroke-linecap:butt;stroke-width:0.75}
		.st4 {fill:none;fill-rule:evenodd;font-size:12px;overflow:visible;stroke-linecap:square;stroke-miterlimit:3}
	]]>
	</style>

	<defs id="Patterns_And_Gradients">
		<linearGradient id="grad0-5" x1="0" y1="0" x2="1" y2="0" gradientTransform="rotate(90 0.5 0.5)">
			<stop offset="0.22" stop-color="#32d4f5" stop-opacity="1"/>
			<stop offset="1" stop-color="#198ab3" stop-opacity="1"/>
		</linearGradient>
		<linearGradient id="grad0-11" x1="0" y1="0" x2="1" y2="0" gradientTransform="rotate(85.405746668733 0.5 0.5)">
			<stop offset="0.22" stop-color="#32d4f5" stop-opacity="1"/>
			<stop offset="1" stop-color="#198ab3" stop-opacity="1"/>
		</linearGradient>
	</defs>
	<g v:mID="0" v:index="1" v:groupContext="foregroundPage">
		<title>Page-1</title>
		<v:pageProperties v:drawingScale="1" v:pageScale="1" v:drawingUnits="19" v:shadowOffsetX="9" v:shadowOffsetY="-9"/>
		<g id="group1065-1" transform="translate(0.775324,-0.75)" v:mID="1065" v:groupContext="group">
			<title>Icon-identity-230</title>
			<g id="shape1066-2" v:mID="1066" v:groupContext="shape">
				<title>Sheet.1066</title>
				<path d="M44.61 55.43 A4.34413 4.34413 -180 0 0 48.95 51.08 A1.4081 1.4081 -180 0 0 48.95 50.57 C47.22 36.88 39.46
							 25.74 24.48 25.74 C9.5 25.74 1.53 35.17 0 50.6 A4.37409 4.37409 -180 0 0 3.92 55.43 L44.61 55.43 Z"
						class="st1"/>
			</g>
			<g id="shape1067-6" v:mID="1067" v:groupContext="shape" transform="translate(17.0469,-9.40728)">
				<title>Sheet.1067</title>
				<path d="M7.43 38.38 A13.7514 13.7514 0 0 1 -0 36.19 L7.43 55.43 L14.74 36.31 A13.5716 13.5716 0 0 1 7.43 38.38 Z"
						class="st2"/>
			</g>
			<g id="shape1068-8" v:mID="1068" v:groupContext="shape" transform="translate(10.7854,-26.4842)">
				<title>Sheet.1068</title>
				<ellipse cx="13.7214" cy="41.7056" rx="13.7214" ry="13.7214" class="st3"/>
			</g>
		</g>
	</g>
</svg>
