<?xml version="1.0" encoding="UTF-8" standalone="no"?>
<!-- Generated by Microsoft Visio, SVG Export virtual-network-firewall.svg Page-1 -->

<svg
   xmlns:v="http://schemas.microsoft.com/visio/2003/SVGExtensions/"
   xmlns:dc="http://purl.org/dc/elements/1.1/"
   xmlns:cc="http://creativecommons.org/ns#"
   xmlns:rdf="http://www.w3.org/1999/02/22-rdf-syntax-ns#"
   xmlns:svg="http://www.w3.org/2000/svg"
   xmlns="http://www.w3.org/2000/svg"
   xmlns:sodipodi="http://sodipodi.sourceforge.net/DTD/sodipodi-0.dtd"
   xmlns:inkscape="http://www.inkscape.org/namespaces/inkscape"
   width="75.006332"
   height="75.404015"
   viewBox="0 0 56.254666 56.552998"
   xml:space="preserve"
   class="st5"
   version="1.1"
   id="svg6402"
   sodipodi:docname="virtual-network-firewall.svg"
   style="font-size:12px;overflow:visible;color-interpolation-filters:sRGB;fill:none;fill-rule:evenodd;stroke-linecap:square;stroke-miterlimit:3"
   inkscape:version="0.92.4 (5da689c313, 2019-01-14)"><metadata
   id="metadata6408"><rdf:RDF><cc:Work
       rdf:about=""><dc:format>image/svg+xml</dc:format><dc:type
         rdf:resource="http://purl.org/dc/dcmitype/StillImage" /><dc:title></dc:title></cc:Work></rdf:RDF></metadata><defs
   id="defs6406" /><sodipodi:namedview
   pagecolor="#ffffff"
   bordercolor="#666666"
   borderopacity="1"
   objecttolerance="10"
   gridtolerance="10"
   guidetolerance="10"
   inkscape:pageopacity="0"
   inkscape:pageshadow="2"
   inkscape:window-width="3840"
   inkscape:window-height="2054"
   id="namedview6404"
   showgrid="false"
   units="px"
   fit-margin-top="0"
   fit-margin-left="-0.1"
   fit-margin-right="0"
   fit-margin-bottom="0"
   inkscape:zoom="16.946774"
   inkscape:cx="37.453164"
   inkscape:cy="37.697944"
   inkscape:window-x="-11"
   inkscape:window-y="-11"
   inkscape:window-maximized="1"
   inkscape:current-layer="svg6402" />
	<v:documentProperties
   v:langID="1033"
   v:viewMarkup="false" />

	<style
   type="text/css"
   id="style6336">
	<![CDATA[
		.st1 {fill:#3999c6;stroke:none;stroke-linecap:butt;stroke-width:12.24}
		.st2 {fill:#57a300;stroke:none;stroke-linecap:butt;stroke-width:12.24}
		.st3 {fill:#b8d432;fill-opacity:0.4;stroke:none;stroke-linecap:butt;stroke-width:12.24}
		.st4 {fill:#ffffff;stroke:none;stroke-linecap:butt;stroke-width:12.24}
		.st5 {fill:none;fill-rule:evenodd;font-size:12px;overflow:visible;stroke-linecap:square;stroke-miterlimit:3}
	]]>
	</style>

	<g
   v:mID="0"
   v:index="1"
   v:groupContext="foregroundPage"
   id="g6400"
   transform="translate(-12.315084,-12.237)">
		<title
   id="title6338">Page-1</title>
		<v:pageProperties
   v:drawingScale="1"
   v:pageScale="1"
   v:drawingUnits="19"
   v:shadowOffsetX="9"
   v:shadowOffsetY="-9" />
		<g
   id="group1363-1"
   transform="translate(12.0599,-12.24)"
   v:mID="1363"
   v:groupContext="group">
			<title
   id="title6340">Sheet.1363</title>
			<g
   id="group1364-2"
   v:mID="1364"
   v:groupContext="group">
				<title
   id="title6342">Page-1</title>
				<g
   id="group1365-3"
   v:mID="1365"
   v:groupContext="group">
					<title
   id="title6344">Virtual Network Firewall</title>
					<g
   id="group1366-4"
   v:mID="1366"
   v:groupContext="group">
						<title
   id="title6346">g16</title>
						<g
   id="group1367-5"
   transform="translate(0,-23.893)"
   v:mID="1367"
   v:groupContext="group">
							<title
   id="title6348">path4</title>
							<g
   id="shape1368-6"
   v:mID="1368"
   v:groupContext="shape">
								<title
   id="title6350">Sheet.1368</title>
								<path
   d="m 56.13,65.42 c 0.56,-0.57 0.45,-1.47 0,-2.04 L 53.43,60.67 41.28,48.79 c -0.56,-0.56 -1.35,-0.56 -1.91,0 -0.56,0.57 -0.67,1.47 0,2.04 l 12.71,12.55 c 0.57,0.57 0.57,1.47 0,2.04 L 39.15,78.43 a 1.43641,1.43079 -90 0 0 0,2.03 c 0.56,0.57 1.46,0.45 1.91,0 L 53.1,68.47 53.21,68.36 Z m -55.57,0 C 0,64.85 0.11,63.95 0.56,63.38 l 2.7,-2.71 12.15,-11.88 c 0.56,-0.56 1.35,-0.56 1.91,0 0.56,0.57 0.68,1.47 0,2.04 L 4.84,63.38 a 1.43641,1.43079 -90 0 0 0,2.04 l 12.71,13.01 c 0.56,0.56 0.56,1.47 0,2.03 -0.57,0.57 -1.47,0.45 -1.92,0 L 3.37,68.59 3.26,68.47 Z"
   class="st1"
   id="path6352"
   inkscape:connector-curvature="0"
   style="fill:#3999c6;stroke:none;stroke-width:12.23999977;stroke-linecap:butt" />
							</g>
						</g>
						<g
   id="group1369-8"
   transform="translate(13.1035,-36.9847)"
   v:mID="1369"
   v:groupContext="group">
							<title
   id="title6356">path6</title>
							<g
   id="shape1370-9"
   v:mID="1370"
   v:groupContext="shape">
								<title
   id="title6358">Sheet.1370</title>
								<path
   d="m 7.65,77.3 c 0,2.14 -1.8,3.73 -3.71,3.73 C 2.03,81.03 0,79.22 0,77.3 c 0,-1.93 1.57,-3.74 3.94,-3.74 2.25,0 3.71,1.81 3.71,3.74 z m 11.36,0 c 0,2.14 -1.8,3.73 -3.71,3.73 -1.91,0 -3.94,-1.81 -3.94,-3.73 0,-1.93 1.8,-3.74 3.94,-3.74 2.14,0 3.71,1.81 3.71,3.74 z"
   class="st2"
   id="path6360"
   inkscape:connector-curvature="0"
   style="fill:#57a300;stroke:none;stroke-width:12.23999977;stroke-linecap:butt" />
							</g>
						</g>
						<g
   id="group1371-11"
   transform="translate(36.164,-36.9867)"
   v:mID="1371"
   v:groupContext="group">
							<title
   id="title6364">ellipse8</title>
							<g
   id="shape1372-12"
   v:mID="1372"
   v:groupContext="shape">
								<title
   id="title6366">Sheet.1372</title>
								<ellipse
   cx="3.7121601"
   cy="77.300697"
   rx="3.7121601"
   ry="3.7323999"
   class="st2"
   id="ellipse6368"
   style="fill:#57a300;stroke:none;stroke-width:12.23999977;stroke-linecap:butt" />
							</g>
						</g>
						<g
   id="group1373-14"
   transform="translate(27.2199)"
   v:mID="1373"
   v:groupContext="group">
							<title
   id="title6372">path10</title>
							<g
   id="shape1374-15"
   v:mID="1374"
   v:groupContext="shape">
								<title
   id="title6374">Sheet.1374</title>
								<path
   d="m 21.09,51.13 c -7.45,-0.82 -8.7,-4.05 -8.7,-4.05 0,0 -1.67,4.24 -12.39,4.24 v 17.39 c 0,2.1 1.16,4.07 2.77,5.79 3.66,3.9 9.62,6.53 9.62,6.53 0,0 12.4,-5.45 12.4,-12.32 V 51.32 c -1.38,0 -2.61,-0.07 -3.7,-0.19 z"
   class="st2"
   id="path6376"
   inkscape:connector-curvature="0"
   style="fill:#57a300;stroke:none;stroke-width:12.23999977;stroke-linecap:butt" />
							</g>
						</g>
						<g
   id="group1375-17"
   transform="translate(27.2199,-6.62559)"
   v:mID="1375"
   v:groupContext="group">
							<title
   id="title6380">path12</title>
							<g
   id="shape1376-18"
   v:mID="1376"
   v:groupContext="shape">
								<title
   id="title6382">Sheet.1376</title>
								<path
   d="m 15.31,64.99 5.58,-7.11 c -7.38,-0.82 -8.61,-4.01 -8.61,-4.01 0,0 -1.66,4.2 -12.28,4.2 v 17.22 c 0,2.08 1.15,4.03 2.75,5.74 l 4.12,-5.26 z"
   class="st3"
   id="path6384"
   inkscape:connector-curvature="0"
   style="fill:#b8d432;fill-opacity:0.4;stroke:none;stroke-width:12.23999977;stroke-linecap:butt" />
							</g>
						</g>
						<g
   id="group1377-20"
   transform="translate(33.9751,-10.1623)"
   v:mID="1377"
   v:groupContext="group">
							<title
   id="title6388">path14</title>
							<g
   id="shape1378-21"
   v:mID="1378"
   v:groupContext="shape">
								<title
   id="title6390">Sheet.1378</title>
								<path
   d="m 10.7,73.11 h -0.56 v -2.28 a 4.52412,4.50641 -90 0 0 -9.01,0 v 2.28 H 0.56 a 0.572302,0.570061 -90 0 0 -0.564428,0.576826 L 0,80.45 c 0,0.32 0.25,0.58 0.56,0.58 H 10.7 a 0.572302,0.570061 -90 0 0 0.564428,-0.576826 L 11.27,73.69 A 0.574564,0.572314 -90 0 0 10.704445,73.112043 Z M 5.63,68.57 c 1.25,0 2.26,1.01 2.26,2.26 v 2.28 H 3.38 v -2.28 c 0,-1.25 1.01,-2.26 2.25,-2.26 z"
   class="st4"
   id="path6392"
   inkscape:connector-curvature="0"
   style="fill:#ffffff;stroke:none;stroke-width:12.23999977;stroke-linecap:butt" />
							</g>
						</g>
					</g>
				</g>
			</g>
		</g>
	</g>
</svg>